<?xml version="1.0" encoding="utf-8"?>
<!-- Generator: Adobe Illustrator 27.7.0, SVG Export Plug-In . SVG Version: 6.00 Build 0)  -->
<svg version="1.1" id="Layer_1" xmlns="http://www.w3.org/2000/svg" xmlns:xlink="http://www.w3.org/1999/xlink" x="0px" y="0px"
	 viewBox="0 0 244.5 267.2" style="enable-background:new 0 0 244.5 267.2;" xml:space="preserve">
<style type="text/css">
	.st0{fill:#FFFFFF;}
</style>
<g>
	<g>
		<path class="st0" d="M169.4,82.4c-0.1-0.1-0.2-0.1-0.2-0.2c-14.3-7.8-30.4-12-46.8-12.1h-0.2c-11.4,0.1-22.6,2.1-33.3,6
			c-4.7,1.6-9.2,3.7-13.5,6.1c-0.1,0.1-0.2,0.1-0.2,0.2c-0.1,0.1-0.2,0.2-0.2,0.4v7.6c0,18.3,0.1,33.8,0.3,46s0.6,21.4,1,27
			c1.2,14.5,16.7,25.3,16.9,25.4l0,0l0,0l28.7,20.4c0.1,0.1,0.2,0.1,0.3,0.1h0c0.1,0,0.2,0,0.3-0.1l28.7-20.4l0,0l0,0
			c2.9-2.2,5.6-4.6,8.1-7.3c4.1-4.5,8.2-10.8,8.8-18.1c0.4-5.6,0.8-14.7,1-27s0.3-27.8,0.3-46v-7.6
			C169.6,82.6,169.5,82.4,169.4,82.4 M168.5,90.3c0,18.3-0.1,33.7-0.3,46s-0.6,21.4-1,26.9c-1,13.8-16.3,24.6-16.5,24.7l0,0l0,0
			l-28.4,20.2L93.9,188l0,0l-0.1,0c-2.9-2.1-5.5-4.5-7.9-7.2c-4-4.4-8-10.6-8.6-17.5c-0.4-5.6-0.8-14.7-1-26.9s-0.3-27.7-0.3-46V83
			c14.2-7.7,30-11.8,46.2-12h0.2c16.1,0.1,32,4.2,46.2,12L168.5,90.3z"/>
		<path class="st0" d="M215.4,186.5l0.9-2.1l-2.2,0.4c-1.2,0.2-2.4,0.4-3.5,0.4c-0.7,0-1.4,0-2-0.1c1.8-2.4,2.8-5.4,2.8-8.5
			c0-2.3-0.5-4.7-1.4-6.8c0.4-1.6,0.7-3.3,0.7-5c0.1-2.8-0.8-5.5-2.5-7.7c-1.4-1.7-3.2-2.9-5.3-3.7c-0.7-0.2-1.2-0.5-1.7-0.7
			c1.2-0.3,2.4-0.9,3.3-1.7l1.6-1.4l-2-0.6c-1.4-0.6-2.6-1.6-3.3-2.9c-1.2-1.7-1.8-3.8-1.8-5.9c0-0.4,0-0.9,0-1.3
			c2.2,2.2,5.2,3.5,8.4,3.6c2.1,0,4.1-0.6,5.9-1.7l2.2-1.5l-2.6-0.6c-1.3-0.3-2.4-1.2-3-2.4c-0.9-1.9-1.4-4-1.5-6.1
			c-0.2-2.5-1.2-4.8-2.9-6.6c-0.3-0.3-0.7-0.7-1-1c4.3-3.5,5.4-7.4,5.4-10c0-1.1-0.2-2.3-0.6-3.3l-0.5-1.2l-1.1,0.6
			c-2.2,1.3-4.6,2-7.1,2.1c-1.5,0-3-0.4-4.2-1.2c-0.4-0.2-0.7-0.5-1-0.8c1.1-1.9,1.7-4.1,1.7-6.3c-0.1-2.9-1-5.7-2.6-8
			c2,0.8,4.1,1.3,6.3,1.2c2.5-0.1,4.8-1.1,6.6-2.7c2.1-1.7,3.4-4.2,3.4-6.9c-0.1-2.4-1-4.7-2.7-6.5c-0.8-0.9-1.6-1.7-2.6-2.4
			c-11-8.7-17.5-24.6-19.3-30.2c-1.8-5.4-4.8-7-5.7-7.3c-0.2-0.2-0.5-0.3-0.8-0.5c-0.9-0.5-2-0.7-3-0.7c-3.6,0-7.2,2.6-9.1,6.5
			c-0.9,1.7-1.3,3.6-1.3,5.6c0,3.2,1.4,6.1,4.1,7.6c-0.5,0.2-1.1,0.4-1.8,0.6c-5.1,1.5-10.5,2.2-15.8,2.1c-4.4-0.1-8.7-1.4-12.4-3.9
			c-0.7-0.5-1.4-1-2-1.4l0.1-0.2c0.9-1.2,1.5-2.5,1.9-3.9c0.1,0.1,0.1,0.3,0.2,0.4c1.3,2.3,3.9,3.3,6.3,3.9c1.9,0.4,3.9,0.6,5.9,0.6
			c0.4,0,0.7,0,0.7,0s3.5-0.1,4.5-2.2c-1.4,0.3-2.8,0.2-4.2-0.1c-0.9-0.4-1.6-1.2-2-2.1c-0.5-1.3-0.8-2.6-0.8-4c0-0.4,0-0.9,0.1-1.3
			c0.1-0.4,0.1-0.9,0.1-1.3c-0.1-2.3-0.6-4.6-1.6-6.7c-0.3-0.7-0.6-1.4-1.1-2.1c0.5-1.2,0.5-2.5,0.1-3.7c-1.3-4-3.4-6.3-5.5-7.7
			c-1.6-1-3.5-1.6-5.3-1.6c0.2-0.7,0.5-1.4,1-2l1.9-2h-2.8c-3.4,0-6.6,1.4-8.9,3.9c-2.1,2.4-3.8,5.2-4.8,8.3c-0.5,1.5-1,3-1.4,4.6
			c-0.4-1.6-0.8-3.1-1.4-4.6c-1-3-2.7-5.9-4.8-8.3c-2.3-2.5-5.5-3.9-8.9-3.9h-2.8l1.9,2c0.5,0.6,0.8,1.3,1,2c-1.9,0-3.7,0.6-5.3,1.6
			c-2.1,1.3-4.2,3.7-5.5,7.7c-0.4,1.2-0.4,2.5,0.1,3.7c-0.5,0.6-0.9,1.3-1.1,2.1c-0.9,2.1-1.5,4.4-1.6,6.7c0,0.4,0,0.9,0.1,1.3
			c0,0.4,0.1,0.9,0.1,1.3c0,1.4-0.3,2.7-0.8,4c-0.3,0.9-1.1,1.7-2,2.1c-1.4,0.3-2.8,0.4-4.2,0.1c1,2.1,4.5,2.2,4.5,2.2s0.3,0,0.7,0
			c2,0,4-0.2,5.9-0.6c2.4-0.6,5-1.6,6.3-3.9c0.1-0.1,0.2-0.3,0.2-0.4c0.3,1.4,1,2.8,1.9,3.9l0.1,0.2c-0.6,0.5-1.3,1-2,1.4
			c-3.7,2.5-8,3.8-12.4,3.9c-5.4,0.1-10.7-0.6-15.8-2.1c-0.7-0.2-1.2-0.4-1.8-0.6c2.7-1.4,4.1-4.4,4.1-7.6c0-1.9-0.5-3.8-1.3-5.6
			c-1.9-4-5.5-6.5-9.1-6.5c-1,0-2.1,0.2-3,0.7c-0.3,0.1-0.5,0.3-0.8,0.5c-0.8,0.3-3.9,1.9-5.7,7.3c-1.8,5.6-8.4,21.5-19.3,30.2
			c-0.9,0.7-1.8,1.5-2.6,2.4c-1.6,1.8-2.6,4.1-2.7,6.5c0.1,2.7,1.3,5.2,3.4,6.9c1.8,1.6,4.2,2.6,6.6,2.7c2.1,0.1,4.3-0.3,6.3-1.2
			c-1.6,2.4-2.5,5.2-2.6,8c0,2.2,0.6,4.4,1.7,6.3c-0.3,0.3-0.6,0.6-1,0.8c-1.3,0.8-2.7,1.2-4.2,1.2c-2.5-0.1-5-0.8-7.1-2.1l-1.1-0.6
			l-0.5,1.2c-0.4,1.1-0.6,2.2-0.6,3.3c0,2.7,1,6.6,5.4,10c-0.4,0.3-0.7,0.6-1,1c-1.7,1.8-2.7,4.1-2.9,6.6c-0.1,2.1-0.6,4.2-1.5,6.1
			c-0.6,1.2-1.7,2.1-3,2.4l-2.6,0.6l2.2,1.5c1.8,1.1,3.8,1.7,5.9,1.7c3.2-0.1,6.2-1.3,8.4-3.6c0,0.4,0,0.8,0,1.3
			c0,2.1-0.6,4.1-1.8,5.9c-0.8,1.3-2,2.3-3.3,2.9l-2,0.6l1.6,1.4c1,0.8,2.1,1.4,3.3,1.7c-0.5,0.2-1.1,0.5-1.7,0.7
			c-2.1,0.7-3.9,2-5.3,3.7c-1.7,2.2-2.6,4.9-2.5,7.7c0,1.7,0.2,3.4,0.7,5c-0.9,2.2-1.4,4.5-1.4,6.8c0,3,0.9,6,2.8,8.5
			c-0.7,0.1-1.4,0.1-2,0.1c-1.2,0-2.4-0.1-3.5-0.4l-2.2-0.4l0.9,2.1c1.9,4,5,7.5,8.7,9.9c-0.8,0.4-1.6,0.9-2.3,1.4
			c-3.3,2.5-5.1,6.5-4.9,10.6c0,0.4,0,0.7,0,1.1c0.1,0.8,0.3,1.6,0.7,2.3c0.4,0.7,0.9,1.3,1.6,1.7c0.8,0.5,1.7,0.7,2.6,0.7
			c0,0,0,0.1,0.1,0.1c0.5,0.8,1.3,1.4,2.3,1.6c12.9,3.6,23.4,12.9,28.7,25.3c0.4,1.1,1,2.2,1.9,3c2.1,2,4.9,3.1,7.8,3h0
			c0.7,0,1.4,0,2.1-0.1c1.6-0.3,3.1-0.8,4.5-1.7c3.1-2.1,5-5.4,5.3-9.1c0-0.3,0-0.6,0-1c0-1.4-0.2-2.8-0.7-4.2
			c-0.4-1.2-1.1-2.3-1.9-3.3c0.7-0.2,1.5-0.5,2.4-0.9c1.1,0.5,2.3,0.7,3.5,0.7c2.3,0,4.9-1,7.7-3.6c0,0.1,0,0.3,0,0.4
			c0,2.9,1.7,5.7,4.2,7.8c2.6,2.3,6,3.5,9.5,3.6h0c0.6,0,1.2-0.1,1.7-0.3c1.3-0.3,2.5-0.8,3.6-1.6c1.8-1.2,3.2-3,4-5
			c0.8,2,2.2,3.8,4,5c1.6,1.1,3.4,1.7,5.3,1.8h0c3.5,0,6.8-1.3,9.5-3.6c2.5-2.1,4.2-4.9,4.2-7.8c0-0.1,0-0.3,0-0.4
			c2.7,2.7,5.4,3.6,7.7,3.6c1.2,0,2.4-0.3,3.5-0.7c0.9,0.3,1.7,0.6,2.4,0.9c-0.9,1-1.5,2.1-1.9,3.3c-0.5,1.3-0.7,2.8-0.7,4.2
			c0,0.3,0,0.6,0,1c0.3,3.7,2.2,7.1,5.3,9.1c1.4,0.9,2.9,1.5,4.5,1.7c0.7,0.1,1.4,0.1,2.1,0.1h0c2.9,0.1,5.7-0.9,7.8-3
			c0.9-0.9,1.5-1.9,1.9-3c5.2-12.3,15.8-21.6,28.7-25.3c0.9-0.2,1.8-0.8,2.3-1.6c0,0,0-0.1,0.1-0.1c0.9,0,1.8-0.3,2.6-0.7
			c0.7-0.4,1.2-1,1.6-1.7c0.4-0.7,0.6-1.5,0.7-2.3c0-0.4,0-0.8,0-1.1c0.2-4.1-1.7-8.1-4.9-10.6c-0.7-0.6-1.5-1-2.3-1.4
			C210.5,194,213.5,190.6,215.4,186.5 M208.9,176.7c0.1,3-1.1,5.9-3.2,8.1c0,0,0,0-0.1,0c2.1-3.1,2.9-6.9,2.3-10.6
			c0,3.8-1.3,7.7-3.9,10.1c0,0,0,0,0,0c1.1-1.6,5.5-8.4,1.6-16.4c0.6,0.7,1.2,1.4,1.8,2.2l0.2,0.4l0,0.1c0,0.1,0.1,0.2,0.1,0.3
			c0.1,0.3,0.3,0.8,0.5,1.3C208.7,173.7,208.9,175.2,208.9,176.7 M201.9,155.7c1.7,0.6,3.2,1.6,4.3,3c1.4,1.8,2.1,3.9,2,6.2
			c0,1-0.1,2-0.3,3c-2.8-2.8-5.4-2.7-5.4-2.7c0.9,0.6,1.7,1.3,2.5,2.1c0.8,2.8,2.5,11.1-2.3,16.4c-0.5-0.2-1-0.5-1.4-0.9
			c-2.7,11.8-10.6,11.2-12.8,10.7c-0.8-0.4-1.6-0.8-2.3-1.3c-1.2-0.7-2.2-1.6-3.2-2.6c4.4-1.5,7.3-3.6,9.1-5.8
			c1.7-2.1,2.7-4.8,2.7-7.5c0-1.7-0.3-3.4-0.9-5c0.2-0.2,0.4-0.4,0.6-0.6c1.4,3.5,2,7.6,0.2,11.2c2.5-3.7,2.3-8.6,0.9-12.8
			c0.1-0.2,0.2-0.3,0.2-0.5c1.2,2.6,1.7,5.4,1.6,8.3c0.7-3.4,0.5-7-0.8-10.3c0.5-2.4,0.1-5.3-1.8-8.9c0.1,0.5,2.6,8.9-3.6,12.7
			c0,0,1.9-5.9-3.9-21.3c0.4-0.5,0.5-1.2,0.5-1.8c0-1.1-0.4-2.1-1-3c-0.5-0.7-1.2-1.3-2-1.5c-0.2-1.1-0.3-2.2-0.3-3.3
			c0.1-3.4,0.7-6.7,1.7-10c-0.6,15.5,9.6,22.9,9.6,22.9C197.5,153.9,199.7,155,201.9,155.7 M187.9,201.5c-0.5,0.1-1,0.2-1.5,0.2
			c-0.9,0-1.7-0.2-2.5-0.5l-0.5-0.2c-1.3-0.8-2.4-1.9-3.1-3.3c0.3,1.4,1,2.7,1.9,3.8l0,0c-0.6,0.2-1.2,0.3-1.8,0.3
			c-0.7,0-1.4-0.1-2-0.4c0-2.6-1.7-4.6-3.2-6c-0.6-0.6-1.2-1.1-1.9-1.6c1.4-1.6,2.2-3.7,2.3-5.8c0-1.6-0.6-3.2-1.8-4.4
			c-0.5-0.6-1.1-1-1.8-1.4l-1.3-0.7l-0.4,1.5c-0.5,2.1-1.7,4-3.3,5.5c-1.6,1.4-3.5,2.6-5.6,3.4c-1.9,0.8-3.9,1.4-6,1.8
			c0.6-0.4,1.5-1.1,2.6-2c2.3-1.9,4.4-4,6.3-6.2c1.7-1.9,3.3-4,4.7-6.2c2.9-0.6,5.8-1.5,8.5-2.8c-2.4,0.7-5,1.2-7.5,1.2
			c0.2-0.3,0.4-0.7,0.6-1c1.8-0.3,3.7-0.7,5.4-1.4c1.9-0.7,3.9-1.9,4.7-3.9c-2.1,3-5.9,3.5-9.3,3.6c0.3-0.6,0.6-1.3,0.9-1.9
			c2.5-0.2,4.9-1.3,6.6-3.1c1.4-1.8,2.1-4,2-6.3c-0.2-3.3-0.8-6.5-2-9.5c-0.3-0.8-0.6-1.7-0.9-2.6c2,3.3,3.8,7.2,3.8,11.3
			c0.5-4-0.6-8-2.2-11.8h0c1.1,1.7,1.9,3.4,2.6,5.3c-0.2-1.8-0.5-3.6-1.1-5.4c1.1-0.1,2.1-0.2,3.2-0.4c0.3-0.1,0.6-0.1,1-0.2
			c0.8,2.3,1.6,4.5,2.2,6.8c1,5.1,0.3,10.4-2,15.1c1.2-1.9,2.2-4,2.7-6.1c-0.2,3-1,6-2.4,8.7c1.6-2.3,2.7-4.9,3.3-7.7
			c0.1,2.9-0.6,5.7-2,8.3c-0.7,1.4-1.7,2.6-2.8,3.7c1.8-1.2,3.3-2.7,4.5-4.4c0.8-0.4,1.5-0.8,2.3-1.2c-1.1,2.6-2.8,4.8-5.1,6.4
			c2.5-1.2,4.6-3.1,6.1-5.5c0,0.1,0,0.2,0.1,0.4c-1.2,2.3-2.6,4.7-5,6c2-0.8,3.8-2,5.1-3.7c0,0.5-0.1,0.9-0.2,1.4
			c-1.4,1.5-3.1,2.8-5,3.5c1.4-0.2,2.8-0.6,4.1-1.3c-0.3,0.5-0.6,1-0.9,1.4c-1.5,0.7-3,1.2-4.5,1.6c1,0,2,0,3.1,0
			c-0.2,0.2-0.4,0.3-0.6,0.5c-2.1,0.7-4.3,1.2-6.5,1.5c1.3,0.1,2.6,0.2,3.9,0.3c-0.4,0.2-0.8,0.4-1.2,0.6l-3.7,0.4l1.5,0.5
			c-0.6,0.2-1.2,0.4-1.8,0.6l-1.6,0.5l1,1.3c1.2,1.6,2.7,3,4.4,4.1c3.9,2.6,8.4,4,13.1,4h0c0.7,0,1.5,0,2.3-0.1
			c-0.2,0.3-0.4,0.5-0.7,0.8c-1,0.9-3.3,2-8,2c-0.2,0-0.5,0-0.7,0l-0.5,0c-3.5-0.8-6.4-3.2-8-6.4C182.1,194.7,184,200.2,187.9,201.5
			 M172,217.5l-1.5-0.5c-1-0.3-2.1-0.4-3.1-0.4c1.1,0.5,2.1,1.2,3,1.9c0,0,0,0,0,0.1c0,0.1,0,0.2-0.1,0.3c-0.1,0.3-0.2,0.7-0.4,1
			c-0.5,0.6-1.2,1.4-3.2,1.4c-0.7,0-1.4-0.2-1.9-0.7c-0.6-0.5-1.2-1.1-1.6-1.8c-0.7-1.1-1.2-2.3-1.6-3.6c-0.4-1.5-1-2.8-1.8-4.1
			c-1.4-2.1-3.3-3.9-5.5-5.1c0.3,0,0.6,0,0.9,0c2.2,1.2,4.2,2.8,5.7,4.8c-1-1.7-2.4-3.3-3.9-4.6c1.6,0.5,3.1,1.2,4.5,2.1
			c-1-0.8-2.1-1.5-3.2-2.1c2.9,0.2,5.7,0.7,8.4,1.4c-2.5-1-5.1-1.7-7.8-2.2c4.2,0.2,8.4,0.9,12.4,2.2c-4-1.6-8.1-2.6-12.4-3.1
			c4.5,0.3,8.8,0.9,11.7,2l0.1,0l0.1,0c0,0,0.1,0,0.1,0c0.1,0,0.2,0,0.3,0.1c0.4,0.1,0.7,0.3,1.1,0.4c0.9,0.4,1.8,1.1,2.4,1.9
			c0.4,0.6,0.6,1.3,0.6,2c0,0,0,0.1,0,0.1c-1.2-0.1-2.4,0-3.6,0.2c1.2,0.2,2.3,0.8,3.3,1.5l0.5,0.5l0,0c0,0,0.1,0.1,0.2,0.1
			c0.1,0.1,0.3,0.3,0.6,0.6c0.6,0.6,1.2,1.3,1.8,2.1c1.5,1.8,2.3,4,2.5,6.3c0,1-0.2,1.9-0.6,2.7c-0.2-0.7-0.5-1.4-0.8-2
			C177.7,220.4,175.1,218.4,172,217.5 M178.2,227.7c-1.2-2.8-3.4-5.2-6.2-6.6c0,0,0-0.1,0.1-0.1c2.1,0.7,3.9,2,5.3,3.6
			C177.8,225.6,178.1,226.6,178.2,227.7 M172.4,231.6c0.2,0.3,0.4,0.6,0.5,0.9c0,0,0,0,0,0c-0.5-0.5-1-1-1.5-1.4
			c-0.5-0.6-1-1.2-1.6-1.6C170.7,230.1,171.6,230.8,172.4,231.6 M170.3,228.6l0.1-0.3c0.7,0.5,1.4,1.1,2,1.8
			c-0.4-0.3-0.7-0.5-1.1-0.7C170.9,229.1,170.6,228.8,170.3,228.6L170.3,228.6L170.3,228.6z M171.1,231c-0.8-0.6-1.6-1-2.5-1.4
			c0.1-0.1,0.1-0.1,0.2-0.2C169.7,229.8,170.4,230.3,171.1,231 M169.1,227.7l-0.1-0.1c0.1,0,0.1,0,0.2-0.1c0,0,0,0,0,0
			C169.2,227.7,169.1,227.7,169.1,227.7 M166.6,229.2c0.5,0.1,1,0.3,1.5,0.6c-0.1,0.2-0.1,0.3-0.2,0.5c-0.5-0.3-1.1-0.5-1.6-0.7
			C166.4,229.5,166.5,229.3,166.6,229.2 M166.3,227.9c0,0,0.1-0.1,0.1-0.1c0.1,0,0.2,0.1,0.3,0.1c0,0,0,0.1-0.1,0.1
			C166.5,227.9,166.4,227.9,166.3,227.9 M166.8,229.1c0.1-0.1,0.2-0.2,0.3-0.3c0.4,0.1,0.8,0.2,1.3,0.4c0,0.1-0.1,0.2-0.1,0.3
			C167.7,229.3,167.3,229.2,166.8,229.1 M166,229c-0.1,0.1-0.1,0.3-0.2,0.4c-0.4-0.1-0.8-0.1-1.3-0.1c0.2-0.3,0.5-0.5,0.8-0.7
			c0.3,0,0.6,0,0.9,0.1C166.1,228.8,166.1,228.9,166,229c-0.2-0.1-0.4-0.1-0.7-0.1C165.5,228.9,165.8,229,166,229 M164.8,227.6
			c0,0,0.1-0.1,0.1-0.1c0,0,0,0,0.1,0C164.9,227.5,164.9,227.5,164.8,227.6L164.8,227.6z M164.1,228.6c-0.2,0.3-0.3,0.5-0.5,0.8
			l-0.6,0.1c0.2-0.3,0.4-0.6,0.6-0.8L164.1,228.6 M161.3,221.3c0.1-0.3,0.2-0.5,0.3-0.8c0.3,0.4,0.6,0.8,1,1.2
			C162.1,221.5,161.7,221.4,161.3,221.3 M162.2,228.8c-0.1,0.3-0.3,0.6-0.4,0.8l-0.4,0.1c0.2-0.3,0.3-0.6,0.5-0.9
			C162,228.9,162.1,228.9,162.2,228.8 M160,230.3C160,230.4,160,230.4,160,230.3C159.9,230.4,159.9,230.4,160,230.3
			C159.9,230.4,159.9,230.4,160,230.3 M173.7,205.1c-0.7-0.3-1.4-0.6-2.1-0.8c-4.7-1.7-11.6-2.2-17.8-2.3c7.8-1.8,16.6-5.9,17.6-15
			c0.3-0.5,0.6-1.1,0.8-1.7c0.7,0.8,1.1,1.8,1.1,2.8c0,1.2-0.5,3-2.6,5.3l-1,1.1l1.2,0.7c0,0,0.1,0,0.2,0.1s0.3,0.2,0.6,0.4
			c0.6,0.5,1.2,0.9,1.8,1.5c1.3,1.2,2.5,2.9,2.5,4.3C176,202.5,175.6,203.7,173.7,205.1 M151.5,198.8c4.6-0.5,8.9-2.2,12.7-4.9
			c-3.7,2.2-7.8,3.4-12.1,3.6c3-0.3,5.9-1.3,8.5-2.8c2.6-0.8,5.1-2.1,7.3-3.8c0.9-0.7,1.7-1.6,2.5-2.5c-2,4.7-7.4,11.8-22.5,11.9
			c6.2-0.3,12.3-2.1,17.1-5.8C160.9,197.1,156.3,198.6,151.5,198.8 M154.9,196.1c1.8-0.3,3.6-0.7,5.4-1.3
			C158.5,195.6,156.7,196,154.9,196.1 M173.8,168.7c0.1-0.2,0.1-0.5,0.2-0.7c1.7-0.9,1.9-2.7,2.5-4c-0.5,0.9-1.3,1.8-2.2,2.4
			c0.2-0.8,0.3-1.7,0.3-2.5c0.3-3.3,0.5-7.7,0.6-12.7h0.4c0.4,1.3,0.8,2.6,1.2,3.8c1.1,2.8,1.7,5.7,1.9,8.7c0.1,1.7-0.4,3.4-1.5,4.8
			c-1,1.1-2.4,1.9-3.9,2.1c0-0.1,0-0.1,0-0.2c2.6-0.9,4.5-3.3,4.7-6.1C177.5,166.4,175.9,168.1,173.8,168.7 M176.1,112.2l0.6-4.9
			l0.5,2.2l0.7-3.3l0.4,0l0.6,1.4l0.6-1.3h0.1c0.2,0,0.3,0,0.5,0l0.6,0.8l0.6-0.9c0.4-0.1,0.8-0.1,1.2-0.2c-0.7,6.6-0.7,8.4-0.7,8.4
			c-1,4.7-1.4,9.4-1.1,14.2c0,0,0,0,0,0.1l0,0c0.2,4.8,1,9.5,2.3,14c-1.9,0.1-4.9,0.4-6.9,0.6c-0.2-0.7-0.3-1.4-0.4-1.8
			c0.1-4.4,0.2-9,0.2-13.7c0.1-5.8,0.1-11.7,0.2-17.2L176.1,112.2z M175.9,104.2c0-1.1,0-2.2,0-3.3c1.2,0.3,2.4,0.4,3.6,0.4
			c1.9,0,3.7-0.4,5.4-1.2c0,0,0,0,0.1,0h0l0,0c0.2,0.3,0.2,0.6,0.2,1c0.1,1-0.3,1.9-1,2.5c-1.5,0.7-3.1,1-4.7,1
			C178.3,104.6,177.1,104.5,175.9,104.2 M178.5,144.8c2.3-0.2,4.8-0.4,5.6-0.4c0.5,0.1,0.9,0.4,1.1,0.9c0.4,0.6,0.7,1.3,0.7,2
			c0,0.4-0.1,0.7-0.3,1c-0.5,0.3-1,0.5-1.5,0.5c-1,0.2-2.1,0.3-3.1,0.4c-2.1,0.2-4.3,0.2-5.7,0.2c0-1.4,0.1-2.9,0.1-4.4
			C176.2,145,177.3,144.9,178.5,144.8 M205,127.8c0.4,0.9,0.6,1.8,0.7,2.8c0.1,2.2,0.6,4.4,1.5,6.5c-4.2-4-4.9-7.7-7-10.3
			c1.3,1,2.3,2.4,3,3.9c-0.4-1.7-1.2-3.4-2.4-4.7c1.4,0.3,2.6,1.2,3.3,2.5c-0.2-1-0.7-1.9-1.4-2.6
			C203.7,126.2,204.5,126.8,205,127.8 M207.1,112.7c0,2.3-0.8,5.7-5.8,9.1l-1.7,1.1c0,0-3.2,1.1-8.6-0.5c0.6,0.6,1.3,1.1,2.1,1.4h0
			c0.4,0.2,0.9,0.4,1.3,0.5c2.6,1.5,4.7,3.7,5.9,6.4c1.9,3.6,4.8,6.5,8.4,8.4c0.2,0.2,0.5,0.5,0.8,0.7c-0.8,0.2-1.6,0.3-2.4,0.3
			c-2.2,0-5-0.8-7.9-4.1c-0.1-0.2-0.7-1-1.3-1.9c-0.6-0.9-1.2-1.8-1.7-2.8c-0.4-1.1-1.1-2.1-1.9-2.9c-0.4-0.3-0.9-0.5-1.4-0.5
			c-0.5,0-1,0.2-1.4,0.6c-0.4,0.4-0.6,0.9-0.6,1.4c0,0.5,0.2,1,0.4,1.4c0.2,0.4,0.5,0.7,0.8,1c0.5,0.6,1.1,1.1,1.4,1.3
			c0.2,0.2,0.5,0.5,0.8,0.7c0.3,0.3,0.7,0.7,0.9,1.1c0.8,1.4,1.2,3,1.2,4.6c0,2.6,0.8,5,2.2,7.2c0.7,1,1.5,2,2.5,2.7
			c-2.8-1.3-4.8-3.8-5.5-6.8c0.1,1.9,0.8,3.7,1.9,5.3c-1.6-1.7-2.9-3.7-3.6-5.9c0.3,1.9,0.9,3.8,1.9,5.4c-2-2.5-3.7-5.3-5-8.2
			c0.8,2.8,1.9,5.4,3.3,7.9c-9.4-10.8-5.8-24.9-3-32.2c2.3,0.7,11.8,3.2,15.9-3.6C207.1,112.3,207.1,112.5,207.1,112.7 M200.1,113.3
			c2.2-0.1,4.5-0.6,6.5-1.6c-2.3,1.7-8,4.9-14.2,1.2c0.1-0.2,0.1-0.3,0.2-0.5c1.8,1,3.8,1.5,5.9,1.5c-1.9-0.5-3.7-1.4-5.2-2.8
			c0.1-0.2,0.2-0.3,0.2-0.3c0.3,0.3,0.6,0.5,0.9,0.7C196,112.7,198.1,113.3,200.1,113.3 M194.2,102.6c0,2-0.6,4-1.8,5.7L192,109
			c-2.1,4-3.8,8.1-4.9,12.5c-1.3,2.9-2.3,5.9-3.2,8.9c0.5-3.2,1.4-6.2,2.7-9.2c-1.4,2.6-2.6,5.3-3.4,8.1c0.4-2.4,1-4.7,1.7-6.9
			c-1.1,2-2,4.1-2.7,6.2c0.3-1.5,0.7-2.9,1.2-4.3c-0.4,0.5-0.8,1.1-1.2,1.7l0.4-1.5l-0.6,0.5c0-5.7,1-11.4,3.1-16.8
			c2-2,4.4-3.3,3.4-9.9c0.7,1.6,0.9,3.4,0.7,5.1c0.7-2.2,0.7-4.6-0.1-6.8c0.7,0.8,1.3,1.7,1.9,2.6c-0.4-1.5-1-2.9-1.8-4.2
			c1.5,1.6,2.7,3.4,3.5,5.5c-0.4-1.8-1-3.5-1.9-5c1.7,1.9,2.7,4.4,3,6.9c0.1-2.2-0.5-4.4-1.5-6.4C193.4,98,194.2,100.3,194.2,102.6
			 M199.2,93.1c1.5,0.1,3-0.1,4.4-0.6c-1,0.6-2.1,0.9-3.3,0.9c-1.5,0-2.9-0.2-4.3-0.6c-1.3-0.3-2.4-1.2-3.2-2.3
			c-0.3-0.5-0.5-1-0.6-1.6c0.2,0.5,0.5,1,0.8,1.5c1.3,1.4,3.2,2.3,5.2,2.4c-1.8-0.4-3.4-1.4-4.5-2.9c-0.4-0.7-0.6-1.4-0.6-2.2
			c0.1,0.4,0.2,0.9,0.4,1.3c0.8,1.4,2.2,2.3,3.8,2.6c-1.4-0.5-2.5-1.6-3-2.9c-0.2-0.7-0.2-1.5,0-2.3c0,0.9,0.3,1.7,0.9,2.4
			c-0.4-0.9-0.3-2,0.2-2.9c0.1,0.4,0.2,0.8,0.3,1.2c0-0.9,0.7-1.8,1-1.7c1,0.6,1.7,1.8,1,4c0,0,3.6-2.3,0.8-5.1
			c0.9,0.1,1.8,0.4,2.7,0.8c0.3,0.7,0.2,1.5-0.2,2.1c0.6-0.2,1-0.7,1.3-1.2c0.2,1-0.1,2-0.8,2.8c0.7-0.3,1.3-0.9,1.7-1.5
			c-0.2,1.3-1.1,2.5-2.3,3.1c1.2-0.2,2.2-0.8,3-1.6c-0.8,1.5-2.2,2.7-3.9,3.3c1.5-0.2,2.9-0.7,4.2-1.6
			C203,91.9,201.2,92.9,199.2,93.1 M168.2,50.8c0-1.6,0.4-3.1,1.1-4.5c1.1-2.4,3.1-4.2,5.6-5c-3.1,1.6-5.3,4.5-6,7.9
			c0.9-2.8,2.9-5,5.5-6.3c-1.9,1.2-3.3,3.1-4,5.3c1.1-2.3,3.1-4,5.6-4.8c-1.8,0.8-3.2,2.4-3.7,4.3c1.1-2.2,3.3-3.6,5.8-3.6
			c-1.9,0.4-3.4,1.6-4.3,3.3c1.2-1.5,3.1-2.2,5-2.1c-1.6,0.4-2.9,1.4-3.8,2.7c1.4-1.2,3.2-1.7,5-1.3v0c-2.1,0.3-4,1.5-5.1,3.3
			c1.3-1.3,3.2-1.9,5-1.7c0,0.3-0.1,0.5-0.1,0.8c-1.4,0-2.7,0.4-3.8,1.3c1.2-0.3,2.4-0.3,3.5,0.2l-0.1,0.4c-0.8-0.2-1.7-0.1-2.5,0.3
			c0.7,0.1,1.4,0.4,2,0.9c-0.2,0.4-0.4,0.7-0.7,1c-1.4-2.4-5.1-1.5-5.1-1.5c1.4,0.2,2.5,1.3,2.5,2.7c-0.9,0-1.7-0.2-2.5-0.6
			c0.5,0.7,1.2,1.3,1.9,1.7c-1.9-0.2-3.6-1.2-4.7-2.6c0.7,1.4,1.7,2.6,3,3.4c-1.4-0.3-2.7-1-3.7-2c0.5,1,1.3,1.8,2.1,2.5
			c-0.3-0.1-0.6-0.2-0.8-0.3C169.3,55.4,168.2,53.4,168.2,50.8 M138,58.7c4.2,3,9.2,4.6,14.4,4.7c5.2,0.1,10.4-0.6,15.4-1.9
			c-19.2,6.9-29.1,0.8-33.5-4c3.1,2.8,6.8,4.7,10.9,5.5c-4.2-1.3-7.9-3.8-10.7-7.1c0.6,0.5,1.2,1.1,2,1.7l0,0.2l0.1-0.1
			C137,58,137.4,58.3,138,58.7 M134.7,51.9c0.1,0.2,0.2,0.4,0.3,0.6c0.2,0.4,0.4,0.8,0.5,1.2c-0.3-0.3-0.6-0.6-0.8-0.8
			c0-0.1,0-0.3,0-0.4C134.7,52.3,134.7,52.1,134.7,51.9 M137.7,46c-0.1-0.1-0.1-0.1-0.2-0.2c0,0,0.1,0,0.1,0c0.3,0,0.5-0.1,0.8-0.1
			c0.1,0,0.2,0,0.2,0c0,0.1,0,0.1,0,0.2c0,0.2,0,0.4,0.1,0.7c0,0.2,0,0.5,0,0.8C138.4,46.9,138.1,46.5,137.7,46 M146.9,39.7
			L146.9,39.7c0,0,0,0.1,0.1,0.2c0,0.1,0.1,0.2,0.2,0.4c0.1,0.3,0.3,0.8,0.5,1.3c0.4,1.3,0.6,2.6,0.7,3.9c0,0.3,0,0.7-0.1,1
			c-0.1,0.5-0.1,1.1-0.1,1.6c0,1.2,0.2,2.5,0.5,3.7c-0.9-1.5-1.5-3.1-1.6-4.9c-0.3,2.5,0.2,5,1.6,7c-0.6-0.1-1.2-0.2-1.8-0.3
			c-2.1-0.5-4.1-1.4-4.8-2.8c-0.8-1.5-1.1-3.3-1.1-5c0-0.6-0.2-1.1-0.5-1.5c-0.2-0.3-0.5-0.6-0.9-0.7c-0.4-0.2-0.8-0.2-1.3-0.2
			c-0.4,0-0.8,0-1.2,0.1c-0.2,0-0.4,0.1-0.6,0.2c-0.4,0.1-0.8,0.4-1.1,0.8c-0.3,0.4-0.5,0.8-0.5,1.3c0,0.7,0.4,1.4,0.9,1.9
			c0.5,0.5,0.9,1,1.3,1.5c0.3,0.4,0.5,0.9,0.5,1.5c0,0.5-0.1,0.9-0.3,1.4c-0.3-0.7-0.7-1.4-1.3-2c-0.6-0.7-1.4-1.1-2.4-1.1
			c-0.6,0-1.1,0.2-1.6,0.5l-0.2,0.1c-0.6-1.2-1.4-2.2-2.4-2.9c-0.2-1.5,0.4-3,1.4-4c-1.4,0.7-2.4,1.9-2.8,3.3
			c0.2-2.5,1.5-4.7,3.4-6.2c-2.5,1.3-4.3,3.5-5,6.2c-0.1,0-0.2-0.1-0.3-0.1c0.3-2.5,1.5-4.8,3.3-6.5c3.5-3,7.9-3.8,5.7-7.5
			c0,0,2.7-0.7,4.3,2.6c0.1,0.1,0.1,0.3,0.1,0.4c0,0.2,0,0.4-0.1,0.6l-0.6,2.1l1-0.3c1.9,0.6,3.4,1.9,4.5,3.5
			c-0.4-1.3-1.1-2.5-2-3.5c2.3,1.2,4.1,4.1,4.8,6.9c-0.1-2.6-1.1-5.1-2.8-7.1c0.2,0.1,0.3,0.1,0.5,0.2
			C145.8,37.7,146.6,38.6,146.9,39.7L146.9,39.7z M144.5,32.8c0.8,0.7,1.5,1.5,1.9,2.5c-0.1-0.1-0.3-0.2-0.4-0.2
			c-1.1-0.6-2.3-0.9-3.5-0.9c-0.2,0-0.3,0-0.4,0c-0.1-0.6-0.3-1.3-0.7-1.8c0.1-0.2,0.2-0.5,0.2-0.8
			C142.6,31.7,143.6,32.1,144.5,32.8 M124.6,36.9c1-3.9,2.7-8.6,5.5-11.5c1.4-1.5,3.1-2.5,5.1-3c-0.3,0.8-0.5,1.7-0.6,2.5l-0.2,1.7
			l1.6-0.3h0c0.1,0,0.1,0,0.2,0c0.2,0,0.4,0,0.8,0c1.5,0,3,0.4,4.3,1.2c1,0.6,1.8,1.4,2.5,2.4c-0.8-0.3-1.6-0.5-2.4-0.5
			c-0.6,0-1.2,0.1-1.8,0.3l-1.3,0.4c-1.9-1-4.2-0.8-5.9,0.4c0,0,2.3,2.8,1.2,3.6c-0.7,0.6-2.6,1.6-4.5,3.2c0.2-0.6,0.4-1.2,0.7-1.8
			c-0.8,0.9-1.6,1.8-2.3,2.8c0.5-1.9,1.3-3.7,2.4-5.3c-1.8,2-3.2,4.3-4.2,6.8c0.4-2,1.1-4,2.2-5.8c-1.5,1.9-2.6,4.1-3.3,6.4
			c0.2-2.1,0.7-4.1,1.4-6.1c-0.8,1.4-1.4,2.9-1.9,4.5C124.3,38.1,124.5,37.5,124.6,36.9 M124.4,47c0.6,0,1.3,0.2,1.9,0.4l0.5,0.2
			l0.6-0.1c0.1,0,0.2,0,0.3,0c0.8,0.1,1.4,0.5,1.9,1.2c1.1,1.2,1.8,2.8,2,4.4c0,0,0,0.1-0.1,0.1c0,0,0,0,0,0c-1.4-0.9-3-1.4-4.6-1.5
			h-0.1c-0.4-1-0.4-2.2,0-3.2c-0.3,0.4-0.5,0.9-0.7,1.4c-0.2,0.7,0.1,1.3-0.6,1.5c-0.3-0.1-0.6-0.2-0.9-0.2h-4.2
			c-0.3,0-0.6,0.1-0.9,0.2c-0.7-0.3-0.4-0.8-0.6-1.5c-0.1-0.5-0.4-0.9-0.7-1.4c0.3,1.1,0.3,2.2,0,3.2h-0.1c-1.6,0.1-3.2,0.6-4.6,1.5
			c0,0,0,0,0,0c0,0,0-0.1-0.1-0.1c0.2-1.6,0.9-3.2,2-4.4c0.4-0.6,1.1-1,1.9-1.2c0.1,0,0.2,0,0.3,0l0.6,0.1l0.5-0.2
			c0.6-0.2,1.2-0.4,1.9-0.4L124.4,47z M103.2,27.4c1.3-0.8,2.8-1.2,4.3-1.2c0.3,0,0.6,0,0.8,0c0.1,0,0.1,0,0.2,0h0l1.6,0.3l-0.2-1.7
			c-0.1-0.9-0.3-1.7-0.6-2.5c2,0.4,3.7,1.5,5.1,3c2.8,2.9,4.6,7.6,5.5,11.5c0.2,0.6,0.3,1.2,0.4,1.8c-0.5-1.6-1.1-3.1-1.9-4.5
			c0.7,2,1.2,4,1.4,6.1c-0.7-2.3-1.8-4.5-3.3-6.4c1.1,1.8,1.8,3.7,2.2,5.8c-1-2.5-2.4-4.8-4.2-6.8c1.1,1.6,1.9,3.4,2.4,5.3
			c-0.7-1-1.5-1.9-2.3-2.8c0.3,0.6,0.5,1.2,0.7,1.8c-1.9-1.5-3.8-2.6-4.5-3.2c-1.1-0.9,1.2-3.6,1.2-3.6c-1.7-1.2-4-1.4-5.9-0.4
			l-1.3-0.4c-0.6-0.2-1.2-0.3-1.8-0.3c-0.8,0-1.7,0.2-2.4,0.5C101.3,28.8,102.2,28,103.2,27.4 M100.1,32.8c0.8-0.7,1.9-1,2.9-1.1
			c0,0.3,0.1,0.5,0.2,0.8c-0.4,0.5-0.6,1.1-0.7,1.8c-0.1,0-0.3,0-0.4,0c-1.2,0-2.5,0.3-3.6,0.9c-0.1,0.1-0.2,0.1-0.4,0.2
			C98.6,34.3,99.3,33.5,100.1,32.8 M104,44.3c-0.3,0.5-0.5,1-0.5,1.5c0,1.7-0.3,3.4-1.1,5c-0.7,1.3-2.6,2.3-4.7,2.8
			c-0.6,0.1-1.2,0.3-1.8,0.3c1.4-2.1,1.9-4.6,1.6-7c-0.1,1.7-0.6,3.4-1.6,4.9c0.4-1.2,0.5-2.4,0.5-3.7c0-0.5,0-1.1-0.1-1.6
			c0-0.3-0.1-0.7-0.1-1c0-1.3,0.3-2.7,0.7-3.9c0.2-0.6,0.3-1,0.5-1.3c0.1-0.2,0.1-0.3,0.2-0.4c0-0.1,0-0.1,0-0.1l0,0l0,0
			c0.3-1.1,1.1-2,2.1-2.6c0.2-0.1,0.3-0.2,0.5-0.2c-1.7,2-2.7,4.5-2.8,7.1c0.7-2.9,2.4-5.8,4.8-6.9c-0.9,1-1.6,2.2-2,3.5
			c1-1.7,2.6-2.9,4.5-3.5l1,0.3l-0.6-2.1c-0.1-0.2-0.1-0.4-0.1-0.6c0-0.1,0-0.3,0.1-0.4c0.6-1.5,2-2.6,3.6-2.6c0.2,0,0.4,0,0.6,0.1
			c-2.2,3.6,2.2,4.5,5.7,7.5c1.9,1.7,3.1,4,3.3,6.5c-0.1,0-0.2,0.1-0.3,0.1c-0.7-2.7-2.5-5-4.9-6.2c2,1.5,3.2,3.8,3.4,6.2
			c-0.5-1.4-1.5-2.6-2.9-3.3c1.1,1,1.6,2.5,1.5,4c-1,0.8-1.9,1.8-2.4,2.9l-0.2-0.1c-0.5-0.3-1-0.4-1.6-0.5c-0.9,0-1.8,0.4-2.4,1.1
			c-0.5,0.6-0.9,1.3-1.3,2c-0.2-0.4-0.3-0.9-0.3-1.4c0-0.5,0.2-1,0.5-1.5c0.4-0.5,0.8-1,1.3-1.5c0.5-0.5,0.8-1.2,0.9-1.9
			c0-0.5-0.2-0.9-0.5-1.3c-0.3-0.3-0.7-0.6-1.1-0.8c-0.2-0.1-0.4-0.1-0.6-0.2c-0.4-0.1-0.8-0.1-1.2-0.1c-0.4,0-0.9,0.1-1.3,0.2
			C104.5,43.8,104.2,44,104,44.3 M109.9,52.8c-0.2,0.2-0.5,0.5-0.8,0.8c0.1-0.4,0.3-0.8,0.5-1.2c0.1-0.2,0.2-0.4,0.3-0.6
			c0,0.2,0,0.3,0,0.5C109.9,52.6,109.9,52.7,109.9,52.8 M105.8,47.4c0-0.3,0-0.5,0-0.8c0-0.3,0-0.5,0.1-0.7c0-0.1,0-0.1,0-0.2
			c0.1,0,0.2,0,0.2,0c0.3,0,0.5,0,0.8,0.1c0,0,0.1,0,0.1,0c0,0.1-0.1,0.1-0.2,0.2C106.5,46.5,106.1,46.9,105.8,47.4 M92.2,63.4
			c5.2-0.1,10.2-1.7,14.4-4.7c0.5-0.4,1-0.7,1.5-1.1l0.1,0.1l0-0.2c0.8-0.6,1.5-1.2,2-1.7c-2.8,3.4-6.5,5.8-10.7,7.1
			c4.1-0.8,7.8-2.7,10.9-5.5c-4.5,4.9-14.4,10.9-33.5,4C81.9,62.8,87,63.5,92.2,63.4 M70.8,47.3c-0.9-1.7-2.5-2.9-4.3-3.3
			c2.5,0,4.7,1.4,5.8,3.6c-0.5-1.9-1.9-3.5-3.7-4.3c2.4,0.7,4.5,2.5,5.6,4.8c-0.7-2.2-2.1-4-4-5.3c2.6,1.3,4.6,3.5,5.5,6.3
			c-0.7-3.4-2.9-6.3-6-7.9c2.5,0.8,4.5,2.6,5.6,5c0.7,1.4,1.1,2.9,1.1,4.5c0,2.6-1.1,4.6-2.9,5.5c-0.3,0.1-0.5,0.2-0.8,0.3
			c0.9-0.7,1.6-1.5,2.1-2.5c-1,1-2.3,1.7-3.7,2c1.3-0.8,2.3-2,3-3.4c-1.2,1.5-2.9,2.4-4.7,2.6c0.8-0.4,1.4-1,1.9-1.7
			c-0.8,0.4-1.6,0.6-2.5,0.6c0-1.4,1.1-2.6,2.5-2.7c0,0-3.6-0.9-5.1,1.5c-0.2-0.3-0.5-0.7-0.7-1c0.6-0.5,1.2-0.8,2-0.9
			c-0.8-0.3-1.7-0.4-2.5-0.3l-0.1-0.4c1.1-0.5,2.4-0.5,3.5-0.2c-1.1-0.8-2.4-1.3-3.8-1.3c0-0.3-0.1-0.5-0.1-0.8
			c1.8-0.2,3.7,0.4,5,1.7c-1.1-1.8-3-3-5.1-3.3v0c1.8-0.4,3.7,0.1,5,1.3c-0.9-1.3-2.3-2.3-3.8-2.7C67.6,45.1,69.5,45.9,70.8,47.3
			 M37.4,89.2c-0.5-0.9-0.8-2-0.9-3c0.1-1.9,0.8-3.6,2.1-5c0.5-0.5,1-1,1.5-1.5c0.2-0.2,0.4-0.3,0.5-0.4c0.1,0,0.1-0.1,0.1-0.1l0,0
			l0,0l0,0C52.5,69.9,59,53.7,61,47.8c0.5-1.9,1.5-3.6,2.9-4.9c0.3-0.3,0.7-0.6,1-0.8c0.1,0,0.2-0.1,0.3-0.1c0,0,0,0,0,0l0.2,0
			l0.1,0c-0.2,0.2-0.4,0.4-0.6,0.6h-0.1l0,0.1c-1.7,2.2-2.3,5-1.7,7.7c0.9,5.3,4.7,7.2,7.2,8.5c0.4,0.3,0.8,0.5,1.3,0.7
			c5.9,3.2,30.6,14.8,44-5.7c0.8-0.3,1.5-0.4,2.3-0.5c0.5,2.1-1.1,4.9-1.2,5.2c1.7-1.7,2-5,2-5c0.4-0.5,1.1-0.8,1.7-0.8
			c0.2,0,0.5,0,0.7,0.1h2.3l0,0.4v-0.4c0.2-0.1,0.5-0.1,0.7-0.1c0.7,0,1.3,0.3,1.7,0.8c0,0,0.3,3.3,2,5c-0.2-0.3-1.7-3.1-1.2-5.2
			c0.8,0.1,1.6,0.2,2.3,0.5c13.4,20.5,38.1,8.9,44,5.7c0.4-0.2,0.9-0.5,1.3-0.7c2.5-1.3,6.2-3.2,7.2-8.5c0.6-2.7,0-5.6-1.7-7.7
			l0-0.1h-0.1c-0.2-0.2-0.4-0.4-0.6-0.6l0.1,0l0.2,0c0,0,0,0,0,0c0.1,0,0.2,0.1,0.3,0.1c0.4,0.2,0.7,0.5,1,0.8
			c1.4,1.4,2.4,3.1,2.9,4.9c2,5.8,8.5,22,20.1,31.3l0,0l0,0l0,0c0,0,0.1,0.1,0.1,0.1c0.1,0.1,0.3,0.2,0.5,0.4c0.5,0.4,1,0.9,1.5,1.5
			c1.3,1.4,2,3.1,2.1,5c0,1.1-0.3,2.1-0.9,3c-0.5-2.4-2.1-5.9-7.7-6.6c-6.4-0.8-11.6,3-14.4,9.9c0.2-1.2,0.6-2.3,1-3.4
			c-1.3,2.2-2.2,4.7-2.8,7.2c0.1-3.2,0.8-6.3,2.1-9.2c-1.7,2.8-2.8,5.9-3.3,9.1c0-2.5,0.2-5,0.7-7.5c-1.1,3.1-1.8,6.3-2.1,9.6
			c-0.3-3-0.3-6.1-0.1-9.2c-0.7,2.8-1.1,5.6-1.3,8.4l-0.5-3.6l-0.5,3.8l-0.7-7.8l-0.5,6.4l-0.6-10.7l-0.5,8.1v-3.4
			c0-1.9,0-3.5,0-4.9v-3.3c0-0.7-0.2-1.4-0.5-2.1c-0.6-1.4-1.6-2.5-2.9-3.3c-0.3-0.2-0.6-0.4-1.1-0.7c1.9-0.4,3.8-1.1,5.5-2.1
			c-2.5,0.8-5.1,1.1-7.7,0.9c-0.3-0.2-0.7-0.3-1-0.5c3.3-0.4,6.5-1.4,9.4-3c-3.9,1.6-8.2,2.1-12.4,1.6c-0.2-0.1-0.4-0.2-0.6-0.3
			c3.7,0,7.3-0.9,10.6-2.5c-4.5,1.6-9.4,2-14.2,1c-0.2-0.1-0.5-0.2-0.7-0.3c3.5,0.2,6.9-0.3,10.2-1.4c-5.2,1.5-10.7,0.8-15.8-0.6
			c0,0-0.1,0-0.1,0c-1.2-0.4-2.5-0.8-3.8-1.2c-3-0.9-6.3-1.7-9.7-2.3c-6.1-1.2-12.4-1.8-18.6-1.8h-0.2c-6.2,0-12.5,0.6-18.6,1.8
			c-3.5,0.7-6.7,1.5-9.7,2.3c-1.3,0.4-2.6,0.8-3.8,1.2c0,0-0.1,0-0.1,0c-5.1,1.4-10.6,2.1-15.8,0.6c3.3,1.2,6.7,1.7,10.2,1.4
			c-0.3,0.1-0.5,0.2-0.7,0.3c-4.7,0.9-9.6,0.6-14.2-1c3.3,1.6,7,2.4,10.6,2.5c-0.2,0.1-0.4,0.2-0.6,0.3c-4.2,0.5-8.4,0-12.4-1.6
			c2.9,1.6,6.1,2.6,9.4,3c-0.4,0.2-0.7,0.3-1,0.5c-2.6,0.3-5.2,0-7.7-0.9c1.7,1,3.6,1.7,5.5,2.1c-0.5,0.3-0.9,0.5-1.1,0.7
			c-1.3,0.8-2.3,1.9-3,3.3c-0.3,0.7-0.5,1.4-0.5,2.1v0.1c0,0.8,0,1.8,0,3.2v8.3l-0.5-8.1l-0.6,10.7L67,89.9l-0.6,7.8l-0.5-3.8
			l-0.5,3.6c-0.2-2.8-0.6-5.6-1.3-8.4c0.2,3,0.2,6.1-0.1,9.2c-0.3-3.3-1-6.5-2.1-9.6c0.5,2.5,0.8,5,0.7,7.5
			c-0.5-3.2-1.6-6.3-3.3-9.1c1.3,2.9,2,6,2.1,9.2c-0.6-2.5-1.5-4.9-2.8-7.2c0.4,1.1,0.8,2.2,1,3.4c-2.8-6.9-8-10.7-14.4-9.9
			C39.5,83.3,37.9,86.8,37.4,89.2 M71.3,170.5c-1.5-0.2-2.9-1-3.9-2.1c-1-1.4-1.6-3.1-1.5-4.8c0.2-3,0.8-5.9,1.9-8.7
			c0.4-1.2,0.8-2.5,1.2-3.8h0.4c0.2,5,0.4,9.4,0.6,12.7c0.1,0.8,0.2,1.7,0.3,2.5c-0.9-0.6-1.6-1.4-2.1-2.4c0.5,1.3,0.7,3.1,2.5,4
			c0.1,0.3,0.1,0.5,0.2,0.7c-2.1-0.6-3.7-2.3-4.3-4.5c0.3,2.8,2.1,5.2,4.7,6.1v0C71.2,170.4,71.2,170.5,71.3,170.5 M68.5,175.2
			c1.7,0.7,3.5,1.1,5.4,1.4c0.2,0.3,0.4,0.7,0.6,1c-2.5-0.1-5.1-0.5-7.5-1.2c2.7,1.3,5.5,2.2,8.4,2.8c1.5,2.3,3.1,4.5,4.9,6.5
			c2,2.2,4.1,4.3,6.4,6.1c0.9,0.7,1.6,1.3,2.1,1.6c0.1,0,0.1,0.1,0.2,0.1c-2-0.4-4.1-1-6-1.8c-2-0.8-3.9-1.9-5.5-3.4
			c-1.6-1.5-2.8-3.4-3.3-5.5l-0.4-1.5l-1.3,0.7c-0.7,0.4-1.3,0.9-1.8,1.4c-1.1,1.2-1.8,2.8-1.8,4.4c0.1,2.1,0.9,4.2,2.3,5.8
			c-0.7,0.5-1.3,1-1.9,1.6c-1.5,1.4-3.1,3.4-3.2,6c-0.6,0.3-1.3,0.4-2,0.4c-0.6,0-1.2-0.1-1.8-0.3c0,0,0,0,0,0
			c0.9-1.1,1.6-2.4,1.9-3.8c-0.7,1.4-1.8,2.5-3.1,3.3l-0.5,0.2c-0.8,0.3-1.7,0.5-2.5,0.5c-0.5,0-1-0.1-1.5-0.2
			c4.1-1.4,6-7.1,6.1-7.6c-1.6,3.2-4.5,5.6-8,6.4l-0.5,0c-0.2,0-0.5,0-0.7,0c-4.8,0-7-1.1-8-2c-0.3-0.2-0.5-0.5-0.7-0.8
			c0.8,0.1,1.6,0.1,2.3,0.1h0c4.7,0,9.3-1.4,13.1-4c1.7-1.1,3.2-2.5,4.4-4.1l1-1.3l-1.6-0.5c-0.6-0.2-1.2-0.4-1.8-0.6l1.5-0.5
			l-3.7-0.4c-0.4-0.2-0.8-0.4-1.2-0.6c1.3,0,2.6-0.1,3.9-0.3c-2.2-0.3-4.4-0.8-6.5-1.5c-0.2-0.2-0.4-0.3-0.6-0.5c1,0.1,2,0.1,3.1,0
			c-1.6-0.4-3.1-0.9-4.5-1.6c-0.3-0.4-0.7-0.9-0.9-1.4c1.3,0.7,2.7,1.1,4.1,1.3c-1.9-0.8-3.6-2-5-3.5c-0.1-0.5-0.2-0.9-0.2-1.4
			c1.3,1.7,3.1,2.9,5.1,3.7c-2.4-1.3-3.8-3.7-5-6c0-0.1,0-0.3,0.1-0.4c1.5,2.4,3.6,4.2,6.1,5.5c-2.3-1.6-4-3.8-5.1-6.4
			c0.7,0.5,1.5,0.9,2.3,1.2c1.2,1.7,2.8,3.2,4.5,4.4c-1.1-1.1-2.1-2.3-2.8-3.7c-1.4-2.5-2.1-5.4-2-8.3c0.6,2.8,1.7,5.4,3.3,7.7
			c-1.4-2.7-2.2-5.7-2.4-8.7c0.6,2.2,1.5,4.2,2.7,6.1c-2.3-4.7-2.9-10-2-15.1c0.7-2.3,1.4-4.6,2.2-6.8c0.3,0.1,0.6,0.2,1,0.2
			c1,0.2,2.1,0.3,3.2,0.4c-0.6,1.8-0.9,3.6-1.1,5.4c0.7-1.8,1.5-3.6,2.6-5.3h0c-1.6,3.7-2.7,7.8-2.2,11.8c0-4.1,1.7-7.9,3.8-11.3
			c-0.3,0.9-0.6,1.8-0.9,2.6c-1.2,3-1.9,6.3-2,9.5c-0.1,2.3,0.6,4.5,2,6.3c1.7,1.8,4.1,2.9,6.6,3.1c0.3,0.7,0.6,1.3,0.9,1.9
			c-3.4-0.2-7.2-0.6-9.3-3.6C64.5,173.3,66.6,174.5,68.5,175.2 M93,198.8c-4.8-0.3-9.4-1.7-13.4-4.3c4.8,3.7,10.9,5.4,17.1,5.8
			c-15.1-0.2-20.5-7.3-22.5-11.9c0.7,0.9,1.5,1.8,2.5,2.5c2.2,1.7,4.6,3,7.3,3.8c2.6,1.5,5.5,2.5,8.5,2.8c-4.3-0.2-8.4-1.4-12.1-3.6
			C84.1,196.6,88.4,198.3,93,198.8 M84.6,211.1c-0.8,1.3-1.4,2.6-1.8,4.1c-0.3,1.3-0.9,2.5-1.5,3.6c-0.4,0.7-0.9,1.3-1.6,1.8
			c-0.5,0.4-1.2,0.7-1.9,0.7c-2,0-2.7-0.7-3.2-1.4c-0.2-0.3-0.3-0.6-0.4-1c0-0.1,0-0.2-0.1-0.3c0,0,0,0,0-0.1c0.9-0.8,1.9-1.4,3-1.9
			c-1.1,0-2.1,0.1-3.1,0.4l-1.5,0.5c-3.1,0.9-5.6,2.9-7.2,5.7c-0.3,0.6-0.6,1.3-0.8,2c-0.4-0.9-0.6-1.8-0.6-2.7
			c0.1-2.3,1-4.5,2.5-6.3c0.5-0.7,1.1-1.4,1.8-2.1c0.2-0.3,0.4-0.4,0.6-0.6c0.1-0.1,0.1-0.1,0.2-0.1c0,0,0,0,0,0l0.6-0.5
			c1-0.8,2.1-1.3,3.3-1.5c-1.2-0.3-2.4-0.3-3.6-0.2c0,0,0-0.1,0-0.1c0-0.7,0.2-1.4,0.6-2c0.6-0.8,1.4-1.5,2.4-1.9
			c0.3-0.2,0.7-0.3,1.1-0.4c0.1,0,0.3-0.1,0.3-0.1c0,0,0.1,0,0.1,0l0.1,0l0.1,0c2.9-1.1,7.2-1.7,11.7-2c-4.2,0.5-8.4,1.5-12.4,3.1
			c4-1.3,8.2-2,12.4-2.2c-2.7,0.5-5.3,1.2-7.8,2.2c2.8-0.8,5.6-1.3,8.4-1.4c-1.1,0.6-2.2,1.3-3.2,2.1c1.4-0.9,2.9-1.6,4.5-2.1
			c-1.6,1.3-2.9,2.8-3.9,4.6c1.5-2,3.5-3.6,5.7-4.8c0.3,0,0.6,0,0.9,0C87.8,207.2,86,209,84.6,211.1 M84.6,230.4
			C84.6,230.4,84.6,230.4,84.6,230.4C84.6,230.4,84.6,230.4,84.6,230.4C84.6,230.4,84.6,230.4,84.6,230.4 M82,221.7
			c0.3-0.4,0.7-0.8,1-1.2c0.1,0.3,0.2,0.5,0.3,0.8C82.9,221.4,82.5,221.5,82,221.7 M83.1,229.8l-0.4-0.1c-0.1-0.3-0.3-0.6-0.4-0.8
			c0.1,0,0.2,0,0.3,0.1C82.8,229.2,82.9,229.5,83.1,229.8 M81.5,229.4c-0.2,0-0.4,0-0.6-0.1c-0.1-0.3-0.3-0.5-0.5-0.8l0.4,0
			C81.1,228.9,81.3,229.1,81.5,229.4 M78.5,228.9c0-0.1-0.1-0.2-0.2-0.3c0.3,0,0.6-0.1,0.9-0.1c0.3,0.2,0.5,0.5,0.8,0.7
			c-0.4,0-0.8,0.1-1.3,0.1C78.7,229.3,78.6,229.2,78.5,228.9c0.3,0,0.5,0,0.7-0.1C79,228.9,78.8,228.9,78.5,228.9 M79.6,227.5
			C79.6,227.5,79.7,227.5,79.6,227.5c0.1,0,0.1,0.1,0.2,0.1l-0.1,0C79.7,227.5,79.6,227.5,79.6,227.5 M77.9,229.2
			c0.1,0.1,0.2,0.2,0.3,0.4c-0.6,0.2-1.1,0.4-1.6,0.7c0-0.2-0.1-0.3-0.2-0.5C76.9,229.5,77.4,229.4,77.9,229.2 M76.4,229.5
			c0-0.1-0.1-0.2-0.1-0.3c0.4-0.2,0.8-0.3,1.3-0.4c0.1,0.1,0.2,0.2,0.3,0.3C77.3,229.2,76.8,229.3,76.4,229.5 M77.9,228
			c0,0,0-0.1-0.1-0.1c0.1,0,0.2-0.1,0.3-0.1c0,0,0.1,0,0.1,0.1C78.2,227.9,78,227.9,77.9,228 M74.8,229.5c-0.6,0.5-1.1,1-1.6,1.6
			c-0.5,0.4-1.1,0.9-1.5,1.4c0,0,0,0,0,0c0.2-0.3,0.3-0.6,0.5-0.9C73,230.8,73.8,230.1,74.8,229.5 M72.2,230.1
			c0.6-0.7,1.2-1.3,2-1.8l0.1,0.3h0l0,0c-0.3,0.2-0.6,0.5-0.9,0.8C73,229.6,72.6,229.8,72.2,230.1 M75.7,229.4
			c0.1,0.1,0.1,0.1,0.2,0.2c-0.9,0.3-1.7,0.8-2.5,1.4C74.1,230.3,74.9,229.8,75.7,229.4 M75.3,227.6
			C75.4,227.6,75.4,227.6,75.3,227.6c0.1,0,0.2,0,0.2,0l-0.1,0.1C75.4,227.7,75.4,227.7,75.3,227.6 M72.6,221.1
			c-2.8,1.4-4.9,3.8-6.2,6.6c0.1-1.1,0.3-2.1,0.8-3.1c1.4-1.7,3.2-2.9,5.3-3.6C72.5,221,72.5,221.1,72.6,221.1 M72.9,204.3
			c-0.7,0.2-1.5,0.5-2.1,0.8c-1.8-1.4-2.3-2.6-2.3-3.6c0-1.4,1.1-3.1,2.5-4.3c0.6-0.5,1.2-1,1.8-1.5c0.2-0.2,0.4-0.3,0.6-0.4
			c0.1-0.1,0.2-0.1,0.2-0.1l1.2-0.7l-1-1.1c-2.1-2.3-2.6-4-2.6-5.3c0-1,0.4-2.1,1.2-2.8c0.2,0.6,0.5,1.1,0.8,1.7
			c0.9,9.1,9.8,13.2,17.6,15C84.5,202,77.6,202.5,72.9,204.3 M84.3,194.9c1.8,0.6,3.6,1,5.4,1.3C87.8,196,86,195.6,84.3,194.9
			 M62.9,114.4c0,0,0-1.8-0.7-8.4c0.4,0.1,0.8,0.2,1.2,0.2l0.6,0.9l0.6-0.8c0.2,0,0.3,0,0.5,0h0.1l0.6,1.3l0.6-1.4l0.4,0l0.7,3.3
			l0.5-2.2l0.6,4.9l0.2-1.6c0,5.5,0.1,11.4,0.2,17.3c0.1,4.6,0.1,9.3,0.2,13.6c-0.1,0.4-0.3,1.1-0.4,1.8c-2-0.2-5.1-0.5-6.9-0.6
			c1.3-4.6,2.1-9.3,2.3-14v-0.1C64.2,123.9,63.9,119.1,62.9,114.4 M60.4,103.6c-0.7-0.6-1.1-1.6-1-2.5c0-0.3,0-0.7,0.2-1l0,0h0
			c0,0,0,0,0.1,0c1.7,0.8,3.6,1.2,5.4,1.2c1.2,0,2.4-0.1,3.5-0.4c0,1.1,0,2.1,0,3.3c-1.2,0.3-2.4,0.4-3.6,0.4
			C63.4,104.7,61.8,104.3,60.4,103.6 M66.1,144.8c1.2,0.1,2.3,0.2,3.1,0.3c0,1.5,0.1,3,0.1,4.4c-1.3,0-3.6,0-5.7-0.2
			c-1-0.1-2.1-0.2-3.1-0.4c-0.5-0.1-1.1-0.3-1.5-0.5c-0.2-0.3-0.4-0.7-0.3-1c0-0.7,0.3-1.4,0.7-2c0.2-0.4,0.7-0.8,1.1-0.9
			C61.2,144.4,63.8,144.6,66.1,144.8 M48.6,92.8c-1.4,0.4-2.8,0.6-4.3,0.6c-1.2,0-2.3-0.4-3.3-0.9c1.4,0.5,2.9,0.8,4.4,0.6
			c-2-0.2-3.8-1.2-5.1-2.8c1.2,0.9,2.6,1.5,4.2,1.6c-1.7-0.5-3.1-1.7-3.9-3.3c0.8,0.8,1.9,1.4,3,1.6c-1.2-0.6-2.1-1.7-2.3-3.1
			c0.4,0.7,1,1.2,1.7,1.5c-0.7-0.8-1-1.8-0.8-2.8c0.2,0.6,0.7,1,1.3,1.2c-0.5-0.6-0.5-1.4-0.2-2.1c0.8-0.4,1.8-0.7,2.7-0.8
			c-2.9,2.9,0.8,5.1,0.8,5.1c-0.7-2.3,0-3.5,1-4c0.3-0.1,1,0.8,1,1.7c0.2-0.4,0.3-0.8,0.3-1.2c0.5,0.9,0.6,1.9,0.2,2.9
			c0.6-0.6,0.9-1.5,0.9-2.4c0.2,0.7,0.3,1.5,0,2.3c-0.5,1.4-1.6,2.4-3,2.9c1.6-0.3,2.9-1.2,3.8-2.6c0.2-0.4,0.3-0.8,0.4-1.2
			c0,0.8-0.2,1.5-0.6,2.2c-1.1,1.5-2.7,2.5-4.5,2.9c2-0.1,3.8-1,5.2-2.4c0.4-0.4,0.6-0.9,0.8-1.5c-0.1,0.5-0.3,1.1-0.6,1.6
			C51,91.7,49.9,92.5,48.6,92.8 M52.4,96c-1.1,1.9-1.6,4.1-1.5,6.4c0.3-2.6,1.3-5,3-6.9c-0.9,1.6-1.5,3.3-1.9,5c0.8-2,2-3.9,3.5-5.5
			c-0.8,1.3-1.4,2.7-1.8,4.2c0.5-0.9,1.2-1.8,1.9-2.6c-0.8,2.2-0.9,4.6-0.1,6.8c-0.2-1.7,0-3.5,0.7-5.1c-1,6.6,1.4,7.9,3.4,9.9
			c2,5.4,3.1,11,3.1,16.8l-0.6-0.5l0.4,1.5c-0.4-0.6-0.8-1.1-1.2-1.7c0.5,1.4,0.9,2.8,1.2,4.3c-0.7-2.1-1.6-4.2-2.7-6.2
			c0.8,2.3,1.4,4.6,1.7,6.9c-0.9-2.8-2-5.6-3.4-8.1c1.2,3,2.1,6,2.7,9.2c-0.8-3.1-1.9-6-3.2-8.9c-1.1-4.3-2.8-8.5-4.9-12.5l-0.4-0.6
			c-1.1-1.7-1.8-3.7-1.8-5.7C50.4,100.2,51.1,98,52.4,96 M44.4,113.3c2.1,0,4.1-0.6,5.8-1.8c0.3-0.2,0.6-0.5,0.9-0.7
			c0,0,0.1,0.1,0.2,0.3c-1.5,1.3-3.3,2.3-5.2,2.8c2.1,0,4.1-0.5,5.9-1.5c0.1,0.1,0.1,0.3,0.2,0.5c-6.2,3.7-11.9,0.5-14.2-1.2
			C40,112.7,42.2,113.2,44.4,113.3 M38.8,130.5c0.1-1,0.3-1.9,0.7-2.8c0.5-0.9,1.3-1.6,2.3-1.9c-0.7,0.7-1.2,1.6-1.4,2.6
			c0.6-1.3,1.8-2.2,3.3-2.5c-1.2,1.3-2,3-2.4,4.7c0.6-1.5,1.7-2.9,3-3.9c-2,2.6-2.8,6.2-7,10.3C38.2,135,38.7,132.8,38.8,130.5
			 M43.4,150.2c1-0.8,1.8-1.7,2.5-2.7c1.4-2.1,2.2-4.6,2.2-7.2c-0.1-1.6,0.3-3.2,1.2-4.6c0.3-0.4,0.6-0.8,0.9-1.1
			c0.3-0.3,0.6-0.5,0.8-0.7s0.8-0.8,1.4-1.3c0.3-0.3,0.5-0.7,0.8-1c0.3-0.4,0.4-0.9,0.4-1.4c0-0.5-0.2-1-0.6-1.4
			c-0.4-0.4-0.9-0.6-1.4-0.6c-0.5,0-1,0.2-1.3,0.5c-0.9,0.8-1.5,1.8-1.9,2.9c-0.5,1-1,1.9-1.7,2.8c-0.6,0.9-1.1,1.7-1.3,1.9
			c-3,3.3-5.7,4.1-7.9,4.1c-0.8,0-1.6-0.1-2.4-0.3c0.3-0.2,0.5-0.4,0.8-0.7c3.6-1.9,6.5-4.8,8.4-8.4c1.2-2.7,3.3-5,6-6.4
			c0.4-0.2,0.9-0.3,1.3-0.5h0c0.8-0.3,1.5-0.8,2.1-1.4c-5.4,1.6-8.6,0.5-8.6,0.5l-1.7-1.1c-4.9-3.3-5.7-6.8-5.8-9.1
			c0-0.2,0-0.4,0-0.6c4.1,6.7,13.6,4.3,15.9,3.6c2.9,7.3,6.5,21.4-3,32.2c1.4-2.5,2.5-5.2,3.3-7.9c-1.3,2.9-3,5.7-5,8.2
			c1-1.7,1.6-3.5,1.9-5.4c-0.7,2.2-1.9,4.3-3.6,5.9c1.1-1.5,1.8-3.4,1.9-5.3C48.2,146.4,46.2,148.9,43.4,150.2 M38.3,158.7
			c1.1-1.4,2.6-2.4,4.3-3c2.3-0.7,4.4-1.8,6.3-3.3c0,0,10.2-7.4,9.6-22.9c1,3.2,1.6,6.6,1.7,10c0,1.1-0.1,2.2-0.3,3.3
			c-0.8,0.2-1.6,0.8-2,1.5c-0.6,0.9-0.9,1.9-1,3c0,0.7,0.2,1.3,0.5,1.8c-5.8,15.4-3.9,21.3-3.9,21.3c-6.2-3.8-3.7-12.2-3.6-12.7
			c-2,3.6-2.4,6.5-1.8,8.9c-1.3,3.3-1.6,6.9-0.8,10.3c-0.2-2.8,0.4-5.7,1.6-8.3c0.1,0.2,0.2,0.3,0.2,0.5c-1.4,4.3-1.6,9.1,0.9,12.8
			c-1.8-3.6-1.3-7.8,0.2-11.2c0.2,0.2,0.4,0.4,0.6,0.6c-0.6,1.6-0.9,3.3-0.9,5c0,2.7,0.9,5.4,2.7,7.5c1.8,2.3,4.7,4.3,9.1,5.8
			c-1,1-2,1.8-3.2,2.6c-0.7,0.5-1.5,0.9-2.3,1.3c-2.3,0.5-10.2,1.1-12.8-10.7c-0.4,0.4-0.9,0.7-1.4,0.9c-4.9-5.3-3.1-13.6-2.3-16.4
			c0.8-0.8,1.6-1.5,2.5-2.1c0,0-2.6-0.1-5.4,2.7c-0.2-1-0.3-2-0.3-3C36.2,162.6,36.9,160.4,38.3,158.7 M35.6,176.7
			c0-1.5,0.2-3,0.7-4.5c0.2-0.6,0.3-1,0.5-1.3c0.1-0.2,0.1-0.3,0.1-0.3l0-0.1l0.2-0.4c0.6-0.8,1.2-1.5,1.8-2.2
			c-3.9,7.9,0.5,14.8,1.6,16.4c0,0,0,0-0.1,0c-2.6-2.3-4-6.3-3.9-10.1c-0.6,3.7,0.2,7.5,2.3,10.6c0,0,0,0-0.1,0
			C36.7,182.6,35.6,179.7,35.6,176.7 M33.6,189.3c-0.5-0.6-0.9-1.2-1.2-1.7c0.6,0,1.1,0.1,1.6,0.1c1.6,0,3.2-0.2,4.6-0.7
			c0,0,1.5-0.4,3.4-1c0,0,2.2,7.5,7.9,8.7c-3.8-0.5-7-3-8.4-6.6c0.9,3.1,3,5.6,5.9,7.1c-3.2-1-6-3.2-7.7-6.1c1,2.5,2.7,4.6,4.9,6.2
			c-0.1,0-0.2,0-0.3,0c-2.9-1.5-5.4-3.8-7-6.7c0.7,2,1.8,3.8,3.2,5.4c-2.1-1.4-4-3.2-5.6-5.3c1,2,2.4,3.9,3.9,5.5
			C36.8,192.9,35,191.2,33.6,189.3 M66.9,236.6c-5.9-11.2-16.2-19.4-28.4-22.9c-0.3-0.1-0.6-0.2-0.9-0.5c-0.1-1.2-0.1-4.2,2.5-8.2
			c0,0-3.3,1.6-4.6,6.9c-0.5,0-1-0.1-1.4-0.4c-0.5-0.3-0.8-0.8-1-1.3c-0.1-0.2-0.1-0.4-0.2-0.6c0-0.1,0-0.1,0-0.2c0,0,0,0,0,0
			c0-0.3,0-0.7,0-1c0-4.7,2-7.2,4-8.8c0.9-0.6,1.8-1.2,2.8-1.6c0.4-0.1,0.7-0.2,0.9-0.3c0.1,0,0.2,0,0.2-0.1c0,0,0,0,0.1,0l1.2-0.2
			c0,0.1,0,0.2,0.1,0.3c-3.9,1.4-6.9,4.8-7.7,8.9c1.2-3.8,4.4-6.7,8.3-7.5c0,0,0,0,0,0.1c-2.2,1-4,2.8-5,5.1
			c1.4-2.1,3.6-3.5,6.1-3.9c0.2,0.1,0.3,0.3,0.6,0.4c-0.8,0.7-1.5,1.6-2,2.6c0.9-0.9,2-1.6,3.3-2c0.1,0,0.2,0.1,0.3,0.1
			c-1.9,1.8-3.2,4.1-3.9,6.7c1.2-2.6,3.1-4.7,5.5-6.1c0.1,0,0.2,0.1,0.3,0.1c-1.2,1.3-2.2,2.9-2.8,4.6c1.1-1.8,2.7-3.3,4.5-4.3
			c0.1,0,0.3,0,0.4,0c-0.7,1.1-1.2,2.3-1.5,3.6c0.8-1.3,1.9-2.5,3.2-3.4c0.2,0,0.3,0,0.5,0c-1,1.4-1.7,3-2,4.6
			c0.9-1.8,2.1-3.3,3.7-4.4c0.1,0,0.1,0.1,0.2,0.1c-1,1.2-1.6,2.7-1.9,4.3c0.7-1.5,1.8-2.8,3.2-3.7c0.1,0.1,0.3,0.1,0.4,0.1
			c-0.7,1.1-1.1,2.4-1.3,3.7c0.6-1.3,1.6-2.5,2.7-3.5c0.2,0,0.3,0,0.5,0c-0.6,1.1-1.2,2.3-1.6,3.5c0.9-1.4,2.1-2.6,3.4-3.6
			c0.2,0,0.4-0.1,0.6-0.1c-0.9,1.2-1.6,2.5-1.9,4c0.8-1.6,2-2.9,3.5-3.8c0.2,0,0.4,0.1,0.6,0.1c-1,1.1-1.8,2.3-2.3,3.7
			c1.1-1.6,2.7-2.8,4.4-3.5c0.4,0,0.8-0.1,1.2-0.2c-1.7,1.4-3.1,3.2-4.1,5.3c1.4-1.9,3.3-3.4,5.4-4.5c0.1,0.1,0.2,0.2,0.3,0.3
			c-2.3,1.7-4.2,3.9-5.5,6.4c1.7-2.3,4-4.1,6.5-5.3c0.1,0.1,0.1,0.1,0.2,0.2c-0.1,0.1-0.2,0.2-0.3,0.3c-3.1,2.1-5.4,5.1-6.8,8.6
			c1.3-2.3,3.1-4.3,5.2-5.8c0,0.1-0.1,0.3-0.1,0.4c-2.5,2.3-4.3,5.2-5.3,8.4c1.2-2.5,3.1-4.7,5.3-6.4c0,0,0,0,0,0
			c-0.9,0.8-1.7,1.7-2.4,2.7c-1.8,2.2-2.8,4.9-3,7.7c0,2.5,1.1,4.9,2.9,6.6l2.3,2.2l-0.2-3c1.3-2.3,3.4-4.2,5.8-5.4
			c-2.3,1.5-4.1,3.7-5.1,6.3c1.4-2.4,3.5-4.3,6-5.3c-3.6,2.3-6.1,6-6.8,10.2c1.3-4.7,5-8.7,9.3-9.8c-2.1,1-4.1,2.3-5.7,4
			C67.7,230.4,66.6,233.5,66.9,236.6 M70.8,239.6c0-0.1-0.1-0.1-0.1-0.2C70.7,239.4,70.8,239.5,70.8,239.6L70.8,239.6z M71.1,237.7
			c-0.1-0.3-0.2-0.5-0.3-0.8l0-0.2c0.1,0.2,0.2,0.4,0.3,0.6C71.1,237.4,71.1,237.5,71.1,237.7 M71.9,235.7c0,0.1-0.1,0.2-0.1,0.2
			c-0.1-0.3-0.3-0.7-0.4-1C71.6,235.2,71.7,235.5,71.9,235.7 M71.8,239.1c0-0.1-0.1-0.1-0.1-0.2c0-0.3,0-0.6,0-0.9
			c0.1,0.1,0.2,0.2,0.2,0.3C71.9,238.6,71.8,238.8,71.8,239.1 M85.7,233.1c0.2,0.8,0.3,1.5,0.3,2.3c0,0.2,0,0.4,0,0.5
			c0,0.1,0,0.1,0,0.1v0c-0.5,4.1-2.4,6.2-4.3,7.4c-0.8,0.5-1.6,0.9-2.5,1.1c-0.3,0.1-0.6,0.2-0.8,0.2c-0.1,0-0.1,0-0.2,0h0
			c-0.6,0.1-1.2,0.1-1.8,0.1c-0.4,0-0.8,0-1.1-0.1c-0.4-0.3-0.8-0.6-1.2-1c2.8,1,5.9-0.1,8.2-1.5c-2.6,1.3-5.9,2-8.4,0.5
			c-0.3-0.2-0.5-0.4-0.8-0.6c-0.2-0.3-0.3-0.6-0.4-1c2.3,1.8,5.4,1.5,7.8,0.5c-2.7,0.8-5.8,0.6-7.6-1.4c-0.2-0.2-0.3-0.4-0.5-0.6
			c0-0.3,0-0.7,0-1c0,0,0.1,0.1,0.1,0.1c1.4,1.9,4,2.7,6.3,1.9c-2.2,0.5-4.5-0.5-5.6-2.4c-0.2-0.3-0.3-0.6-0.5-0.8
			c0.1-0.2,0.1-0.4,0.2-0.7c1.1,1.4,2.6,2.6,4.4,2.5c-1.9-0.2-3.1-1.8-4-3.3c0-0.1,0.1-0.1,0.1-0.2c0,0.1-0.1,0.1-0.1,0.2
			c0,0,0,0,0,0c-0.1-0.3-0.3-0.6-0.4-0.9c0.4-0.7,1-1.4,1.6-2c-0.6,0.5-1.2,1-1.7,1.7c-0.2-0.4-0.3-0.7-0.5-1.1
			c1-1.6,2.4-2.9,4.1-3.8c0.1,0.1,0.2,0.3,0.3,0.4c-0.8,0.5-1.5,1-2.2,1.7c1.2-1,2.7-1.6,4.3-1.9c0.3,0.4,0.5,0.9,0.7,1.3
			c-0.1-0.5-0.2-0.9-0.3-1.3c0.5,0,1,0,1.4,0.1c0.1,0,0.2,0,0.3,0c0.6,0.8,1,1.8,1.3,2.8c-0.1-0.9-0.3-1.8-0.6-2.6
			c0.3,0.1,0.6,0.2,0.9,0.3c0.8,1.5,1.3,3,1.5,4.6c0-1.4-0.2-2.8-0.6-4.2c0.2,0.1,0.5,0.3,0.7,0.4c0.8,1.9,1.2,3.9,1.1,6
			c0.4-1.7,0.4-3.4,0.1-5.1C85.3,232.7,85.5,232.9,85.7,233.1 M72,236.5c0.1-0.1,0.1-0.3,0.2-0.4c0.1,0.1,0.2,0.2,0.2,0.3l0.2,0.3
			c-0.1,0.2-0.2,0.3-0.3,0.5C72.3,237,72.1,236.8,72,236.5 M91.6,225.4c-1,0-2-0.3-2.9-0.7l-0.5-0.2c-0.6-0.6-1.1-1.3-1.7-2.1
			c-1.5-1.9-2-4.3-1.5-6.6c0.1-0.2,0.1-0.4,0.1-0.4c0.3-1.1,0.8-2.1,1.4-3c1.5-2.3,3.8-4.1,6.4-5.1c2.6-1,5.3-1.5,8-1.5
			c1.8,0,3.6,0.2,5.4,0.6c-3.1-0.5-6.3-0.2-9.2,0.9c2-0.5,4-0.6,6-0.3c-2.9,0-5.6,1-7.8,2.9c3.1-2.1,6.8-2.3,10.3-1.5
			c-0.5-0.1-1-0.1-1.5-0.1c-0.4,0-0.7,0-0.9,0c-0.1,0-0.2,0-0.3,0c-1.5,0-3.1,0.2-4.5,0.7c-2.1,0.6-3.8,2.1-4.6,4.1
			c-0.5,1.3-0.8,2.7-0.8,4.1c0,2.1,0.2,3.4,1.4,4.4h0l1.3,1c0.4,0.3,0.8,0.5,1.1,0.7C95.5,224.5,93.6,225.3,91.6,225.4 M95.7,219
			c0-0.1-0.1-0.2-0.1-0.4c1.6-1.5,2.8-3.4,3.7-5.5c-1.1,1.5-2.4,2.7-3.9,3.7v-0.1c0.9-0.9,1.6-1.9,2.1-3.1c-0.6,0.5-1.2,1-1.9,1.4
			c0.1-0.4,0.3-0.9,0.4-1.3c0.6-1.3,1.7-2.3,3.1-2.7c0.8-0.3,1.7-0.4,2.6-0.5c0,0.3,0,0.5,0,0.7c0,1.8-0.6,3.6-1.7,5
			c-0.6,0.9-1.3,1.6-2.1,2.3c1.4-1.7,2.4-3.7,2.8-5.9C99.7,215.3,98,217.5,95.7,219 M99.6,221.8l-0.2-0.1l0,0
			c-0.3-0.1-0.5-0.2-0.8-0.4c0.8-0.6,1.5-1.3,2.1-2C100.1,220.1,99.8,221,99.6,221.8 M102,217.7c1.3-1.9,2.1-4.1,2.1-6.4
			c0-0.3,0-0.5,0-0.8h0c1.1,0,2.1,0.2,3.2,0.5c0,0.2,0,0.3,0,0.5c0,1,0.5,2,1.4,2.6c0.9,0.6,1.9,1,3,1.1h0c0.4,0,0.8-0.1,1.1-0.2
			c0.1,0.1,0.2,0.2,0.3,0.4c1.6,2,2.6,4.5,2.6,7.1c0,1.2-0.2,2.3-0.6,3.4c-0.5,1.4-1.8,2.3-3.3,2.3c-1.6,0-3-0.6-4.1-1.7
			c0.3-0.1,0.5-0.2,0.8-0.3c1.3-0.6,2.2-2,2.1-3.5c0-1.7-0.7-3.3-2-4.4c-1-0.8-2.3-1.3-3.6-1.3c-1.3,0-2.5,0.6-3.4,1.5
			C101.7,218.1,101.9,217.9,102,217.7 M108.9,211.5c0.1-0.9,0.5-1.7,1.1-2.4c0.1-0.1,0.2-0.3,0.3-0.4l3.7,2.6
			c-0.3,0.4-0.6,0.9-1.1,1.5c-0.3,0.4-0.7,0.6-1.2,0.6c-0.5,0-1-0.1-1.4-0.4c-0.2-0.1-0.3-0.2-0.5-0.3c0,0-0.1-0.1-0.1-0.1l0,0
			C109.2,212.5,108.9,212,108.9,211.5 M116.9,232.2c-0.9,0.6-1.8,1-2.8,1.2c-0.3,0.1-0.6,0.1-0.9,0.2c-0.1,0-0.2,0-0.2,0
			c0,0,0,0,0,0c-2.9-0.1-5.7-1.1-8-3c-2.1-1.8-3.4-4.1-3.4-6c-0.1-1.6,0.4-3.1,1.3-4.3c0.5-0.6,1.3-1,2.1-1.1c0.8,0,1.5,0.3,2.2,0.8
			c0.8,0.6,1.2,1.6,1.2,2.6c0,0.3-0.1,0.6-0.2,0.9c-0.3,0.3-0.6,0.5-1,0.6c-0.4,0.1-0.9,0.2-1.3,0.2c-0.1,0-0.2,0-0.2,0h-0.1
			l-2.6-0.3l1.5,2.1c2.3,3.2,5.2,4.3,7.5,4.3c0.8,0,1.7-0.1,2.5-0.4c1.5-0.6,2.6-1.9,3-3.4c0.5-1.4,0.7-2.8,0.7-4.2
			c0-2.5-0.7-4.9-2.1-7.1c1.3,1.5,2.2,3.2,2.6,5.1c-0.2-3-1.3-5.8-3.3-8.1l0,0l0.1,0.1c1.7,1.7,3.1,3.8,4,6.1
			c-0.2-1.4-0.6-2.8-1.2-4l1.1,0.8c0.7,1.4,1.2,3,1.4,4.6c0.1,0.8,0.2,1.5,0.2,1.9c0,0.2,0,0.4,0,0.6s0,0.2,0,0.2
			C121.1,228.2,119,230.8,116.9,232.2 M123.4,213.6l-1.1,0.8l-1.1-0.8l0,0l-0.1-0.2L91,192.1l0,0c0,0-0.1,0-0.2-0.1
			c-3.5-2.5-6.7-5.5-9.5-8.8c-4.2-5-8.3-11.7-8.9-19.4c-0.4-5.3-0.7-13.3-0.9-22.3h0c-0.4-17.7-0.4-39.1-0.4-51.1v-8.2
			c0-0.1,0-0.2,0-0.3c0.3-1.3,1.1-2.4,2.3-3c5-2.9,10.3-5.2,15.8-7c10.7-3.7,21.9-5.6,33.2-5.7h0c11.3,0.1,22.5,2,33.2,5.7
			c5.5,1.8,10.8,4.2,15.8,7c1.2,0.6,2,1.7,2.3,3c0,0.1,0,0.2,0,0.3v8.2c0,12,0,33.4-0.4,51.1c-0.1,4.5-0.2,8.7-0.4,12.5
			s-0.3,7.1-0.5,9.8c-0.6,7.7-4.7,14.5-8.9,19.4c-2.8,3.3-6,6.3-9.5,8.8c-0.1,0.1-0.2,0.1-0.2,0.1l0,0l-30.1,21.4L123.4,213.6
			L123.4,213.6z M135.6,211.5c0,0.5-0.3,1-0.7,1.2l0,0c0,0-0.1,0-0.1,0.1c-0.2,0.1-0.3,0.2-0.5,0.3c-0.4,0.2-0.9,0.4-1.4,0.4
			c-0.5,0-0.9-0.2-1.2-0.6c-0.5-0.6-0.9-1.1-1.1-1.5l3.7-2.6c0.1,0.1,0.2,0.2,0.3,0.4C135.1,209.8,135.5,210.6,135.6,211.5
			 M139.6,230.6c-2.2,1.9-5,2.9-8,3c0,0,0,0,0,0c-0.1,0-0.2,0-0.2,0c-0.3,0-0.6-0.1-0.9-0.2c-1-0.2-2-0.7-2.8-1.2
			c-2-1.4-4.1-4-4.2-9.7c0,0,0-0.1,0-0.2c0-0.1,0-0.3,0-0.6c0-0.5,0.1-1.2,0.2-1.9c0.2-1.6,0.7-3.1,1.4-4.6l1.1-0.8
			c-0.6,1.3-1,2.6-1.2,4c0.9-2.3,2.3-4.3,4-6.1l0.1-0.1l0,0c-2,2.3-3.1,5.1-3.3,8.1c0.4-1.9,1.3-3.7,2.6-5.1
			c-1.3,2.1-2.1,4.6-2.1,7.1c0,1.4,0.3,2.8,0.7,4.2c0.5,1.5,1.6,2.8,3,3.4c0.8,0.3,1.6,0.4,2.5,0.4c2.3,0,5.2-1.1,7.5-4.3l1.6-2.1
			l-2.6,0.3H139c0,0-0.1,0-0.2,0c-0.4,0-0.9-0.1-1.3-0.2c-0.4-0.1-0.8-0.3-1-0.6c-0.2-0.3-0.2-0.6-0.2-0.9c-0.1-1,0.4-2,1.2-2.6
			c0.6-0.5,1.4-0.8,2.2-0.8c0.8,0.1,1.6,0.4,2.1,1.1c1,1.2,1.4,2.8,1.3,4.3C143,226.5,141.7,228.8,139.6,230.6 M139.5,216.8
			c-1.3,0-2.6,0.5-3.6,1.3c-1.3,1.1-2.1,2.7-2,4.4c0,0.8,0.2,1.6,0.6,2.2c0.4,0.6,0.9,1,1.5,1.3c0.3,0.1,0.5,0.2,0.8,0.3
			c-1.1,1.1-2.6,1.7-4.1,1.7c-1.5,0-2.8-0.9-3.3-2.3c-0.4-1.1-0.6-2.2-0.6-3.4c0-2.6,1-5.1,2.6-7.1c0.1-0.1,0.2-0.3,0.3-0.4
			c0.4,0.2,0.8,0.2,1.1,0.2h0c1.1-0.1,2.1-0.4,3-1.1c0.9-0.6,1.4-1.5,1.4-2.6c0-0.2,0-0.3,0-0.5c1-0.3,2.1-0.5,3.2-0.5h0
			c0,0.3,0,0.5,0,0.8c0,2.3,0.8,4.5,2.1,6.4c0.1,0.2,0.3,0.4,0.4,0.6C142.1,217.4,140.8,216.8,139.5,216.8 M145.3,221.7L145.3,221.7
			l-0.3,0.1c-0.2-0.9-0.6-1.7-1.1-2.5c0.7,0.7,1.4,1.4,2.1,2C145.8,221.5,145.5,221.6,145.3,221.7 M146.6,218.7
			c-0.8-0.7-1.5-1.5-2.1-2.3c-1.1-1.5-1.7-3.2-1.7-5c0-0.2,0-0.5,0-0.7c0.9,0.1,1.7,0.2,2.6,0.5c1.4,0.4,2.6,1.4,3.1,2.7
			c0.2,0.4,0.3,0.9,0.4,1.3c-0.7-0.4-1.3-0.9-1.9-1.4c0.5,1.2,1.2,2.2,2.1,3.1c0,0,0,0.1,0,0.1c-1.5-1-2.8-2.2-3.9-3.7
			c0.8,2.1,2.1,3.9,3.7,5.5c0,0.1-0.1,0.2-0.1,0.4c-2.2-1.6-4-3.7-5-6.2C144.2,215,145.2,217,146.6,218.7 M158,222.4
			c-0.5,0.7-1.1,1.4-1.7,2.1l-0.5,0.2c-0.9,0.5-1.9,0.7-2.9,0.7c-2-0.1-3.9-0.9-5.3-2.3c0.3-0.2,0.7-0.5,1.1-0.7l1.3-1
			c0.6-0.4,1-1.1,1.2-1.8c0.2-0.8,0.3-1.7,0.3-2.6c0-1.4-0.3-2.8-0.8-4.1c-0.8-2-2.5-3.5-4.6-4.1c-1.5-0.5-3-0.7-4.5-0.7
			c-0.1,0-0.2,0-0.3,0c-0.2,0-0.5,0-0.9,0c-0.5,0-1,0-1.5,0.1c3.5-0.7,7.2-0.6,10.3,1.5c-2.2-1.8-5-2.8-7.8-2.9c2-0.3,4-0.2,6,0.3
			c-2.9-1.1-6.1-1.4-9.2-0.9c1.8-0.4,3.6-0.6,5.4-0.6c2.8,0,5.5,0.5,8,1.5c2.6,1,4.8,2.8,6.4,5.1c0.6,0.9,1.1,1.9,1.4,3
			c0,0.1,0.1,0.2,0.1,0.4C160,218.1,159.5,220.6,158,222.4 M172.2,239.9c-0.2,0.2-0.3,0.4-0.5,0.6c-1.8,2-5,2.3-7.6,1.4
			c2.4,1,5.5,1.3,7.8-0.5c-0.1,0.3-0.2,0.7-0.4,1c-0.3,0.2-0.5,0.4-0.8,0.6c-2.5,1.5-5.8,0.8-8.4-0.5c2.3,1.4,5.3,2.5,8.2,1.5
			c-0.4,0.4-0.7,0.7-1.2,1c-0.4,0-0.7,0-1.1,0.1c-0.6,0-1.2,0-1.8-0.1h0c-0.1,0-0.1,0-0.2,0c-0.2,0-0.4-0.1-0.8-0.2
			c-0.9-0.3-1.7-0.6-2.5-1.1c-1.8-1.2-3.7-3.3-4.3-7.4v0c0,0,0-0.1,0-0.1c0-0.1,0-0.3,0-0.5c0-0.8,0.1-1.6,0.3-2.3
			c0.2-0.2,0.4-0.4,0.6-0.6c-0.3,1.7-0.3,3.4,0.1,5.1c-0.1-2,0.2-4.1,1.1-6c0.2-0.2,0.5-0.3,0.7-0.4c-0.3,1.4-0.5,2.8-0.6,4.2
			c0.3-1.6,0.8-3.2,1.5-4.6c0.3-0.1,0.6-0.2,0.9-0.3c-0.3,0.8-0.5,1.7-0.6,2.6c0.3-1,0.7-1.9,1.3-2.8c0.1,0,0.2,0,0.3,0
			c0.5-0.1,1-0.1,1.4-0.1c-0.1,0.4-0.2,0.9-0.3,1.3c0.2-0.5,0.4-0.9,0.7-1.3c1.6,0.2,3,0.9,4.3,1.9c-0.7-0.7-1.4-1.2-2.2-1.7
			l0.4-0.4c1.7,0.9,3.1,2.2,4.1,3.8c-0.1,0.4-0.3,0.7-0.5,1.1c-0.5-0.6-1.1-1.2-1.7-1.7c0.6,0.6,1.2,1.3,1.6,2
			c-0.1,0.3-0.3,0.6-0.4,0.9c0,0,0,0,0,0c0-0.1-0.1-0.1-0.1-0.2c0,0.1,0.1,0.1,0.1,0.2c-0.9,1.5-2.1,3.1-4,3.3
			c1.8,0.1,3.3-1.2,4.4-2.5c0.1,0.2,0.2,0.5,0.2,0.7c-0.2,0.3-0.3,0.6-0.5,0.8c-1.1,2-3.4,3-5.6,2.4c2.3,0.8,4.8,0,6.3-1.9
			c0,0,0-0.1,0.1-0.1C172.3,239.2,172.3,239.5,172.2,239.9 M172.2,237.2c-0.1-0.2-0.2-0.3-0.3-0.5l0.2-0.3c0.1-0.1,0.2-0.2,0.2-0.3
			c0.1,0.1,0.1,0.3,0.2,0.4C172.4,236.8,172.3,237,172.2,237.2 M172.8,239.1c0-0.2-0.1-0.5-0.2-0.7c0.1-0.1,0.2-0.2,0.3-0.3
			c0,0.3,0,0.6,0,0.9L172.8,239.1 M172.8,235.9c0-0.1-0.1-0.2-0.1-0.2c0.2-0.3,0.3-0.5,0.5-0.8C173,235.3,172.9,235.6,172.8,235.9
			 M173.4,237.3c0.1-0.2,0.2-0.4,0.3-0.6l0,0.2c-0.1,0.3-0.2,0.5-0.3,0.8C173.4,237.5,173.4,237.4,173.4,237.3 M173.7,239.6
			L173.7,239.6c0-0.1,0.1-0.2,0.1-0.2C173.8,239.4,173.8,239.5,173.7,239.6 M207.6,199.7c2,1.6,4,4.1,4,8.8c0,0.3,0,0.7,0,1
			c0,0,0,0,0,0s0,0.1,0,0.2c0,0.2-0.1,0.4-0.2,0.6c-0.2,0.5-0.5,1-1,1.3c-0.4,0.3-0.9,0.4-1.4,0.4c-1.3-5.3-4.6-6.9-4.6-6.9
			c2.6,4,2.6,7.1,2.5,8.2c-0.2,0.3-0.5,0.4-0.9,0.5c-12.2,3.4-22.4,11.7-28.4,22.9c0.3-3.1-0.8-6.2-3-8.4c-1.6-1.7-3.6-3-5.7-4
			c4.4,1.2,8,5.2,9.3,9.8c-0.7-4.2-3.2-7.9-6.8-10.2c2.5,1.1,4.6,3,6,5.3c-1-2.6-2.8-4.8-5.1-6.3c2.4,1.2,4.4,3.1,5.8,5.4l-0.2,3
			l2.3-2.2c1.8-1.7,2.9-4.1,2.9-6.6c-0.1-2.8-1.2-5.5-3-7.7c-0.7-1-1.5-1.9-2.4-2.7c0,0,0,0,0,0c2.3,1.7,4.1,3.9,5.3,6.4
			c-1-3.2-2.8-6.1-5.3-8.4c0-0.1,0-0.3-0.1-0.4c2.1,1.6,3.9,3.5,5.2,5.8c-1.4-3.5-3.7-6.5-6.8-8.6c-0.1-0.1-0.2-0.2-0.3-0.3
			c0.1-0.1,0.2-0.1,0.2-0.2c2.6,1.2,4.8,3.1,6.5,5.3c-1.3-2.5-3.2-4.8-5.5-6.4c0.1-0.1,0.2-0.2,0.3-0.3c2.1,1.1,4,2.6,5.4,4.5
			c-1-2-2.4-3.8-4.1-5.3c0.4,0.1,0.8,0.2,1.2,0.2c1.8,0.7,3.3,2,4.4,3.5c-0.5-1.4-1.3-2.6-2.3-3.7c0.2,0,0.4-0.1,0.6-0.1
			c1.5,0.9,2.7,2.2,3.5,3.8c-0.3-1.4-0.9-2.8-1.9-4c0.2,0,0.4,0.1,0.6,0.1c1.3,1,2.5,2.2,3.4,3.6c-0.4-1.2-0.9-2.4-1.6-3.5
			c0.2,0,0.3,0,0.5,0c1.1,1,2,2.1,2.7,3.5c-0.2-1.3-0.6-2.6-1.3-3.7c0.1,0,0.3-0.1,0.4-0.1c1.4,0.9,2.5,2.2,3.2,3.7
			c-0.3-1.6-0.9-3-1.9-4.3c0.1,0,0.2-0.1,0.2-0.1c1.6,1.1,2.9,2.6,3.7,4.4c-0.3-1.7-1-3.2-2-4.6c0.2,0,0.3,0,0.5,0
			c1.3,0.9,2.3,2.1,3.2,3.4c-0.3-1.3-0.8-2.5-1.5-3.6c0.1,0,0.3,0,0.4,0c1.8,1,3.4,2.5,4.5,4.3c-0.6-1.7-1.5-3.3-2.8-4.6
			c0.1,0,0.2-0.1,0.3-0.1c2.4,1.4,4.4,3.6,5.5,6.1c-0.7-2.5-2-4.8-3.9-6.7c0.1,0,0.2-0.1,0.3-0.1c1.2,0.4,2.3,1.1,3.3,2
			c-0.5-1-1.2-1.9-2-2.6c0.2-0.1,0.4-0.3,0.6-0.4c2.5,0.5,4.7,1.9,6.1,3.9c-1-2.3-2.8-4.1-5-5.1c0,0,0,0,0-0.1
			c3.9,0.8,7.1,3.6,8.3,7.5c-0.8-4.1-3.7-7.5-7.7-8.9c0-0.1,0.1-0.2,0.1-0.3l1.2,0.2c0,0,0,0,0.1,0c0.1,0,0.2,0,0.2,0.1
			c0.2,0.1,0.5,0.2,0.9,0.3C205.8,198.5,206.7,199,207.6,199.7 M205.7,194.2c1.5-1.6,2.9-3.5,3.9-5.5c-1.6,2.1-3.4,3.8-5.6,5.3
			c1.4-1.6,2.5-3.4,3.2-5.4c-1.7,2.8-4.1,5.2-7,6.7c-0.1,0-0.2,0-0.3,0c2.2-1.6,3.9-3.8,4.9-6.2c-1.7,2.9-4.4,5.1-7.7,6.1
			c2.8-1.5,5-4,5.9-7.1c-1.4,3.5-4.6,6-8.4,6.6c5.6-1.2,7.9-8.7,7.9-8.7c1.9,0.6,3.4,1,3.4,1c1.5,0.5,3.1,0.7,4.6,0.7
			c0.5,0,1,0,1.6-0.1c-0.3,0.5-0.7,1.1-1.2,1.7C209.5,191.2,207.7,192.9,205.7,194.2"/>
		<path class="st0" d="M137.8,174.5c0-1.8-0.4-3.5-1.2-5.1l0-0.1l-4.4-3.6l-0.4-4.5c0-0.5-0.3-1-0.6-1.4c-0.4-0.4-0.9-0.5-1.4-0.5
			l-5.7,0.3l-1.2-0.8l-0.1-0.1l0,0h0c0,0,0,0,0,0s0,0,0,0s0,0,0,0c0,0,0,0,0,0c0,0,0,0,0,0c0,0,0,0,0,0c0,0,0,0,0,0l0,0l0,0h0v0h0
			c0,0,0,0,0,0c0,0,0,0,0,0h0c0,0,0,0,0,0h0c0,0,0,0,0,0h-0.1c0,0-0.1,0-0.1,0c0,0,0,0,0,0h0c0,0,0,0,0,0l0,0h0c0,0,0,0,0,0l0,0h0
			c0,0,0,0,0,0h0l0,0h0c0,0,0,0,0,0c0,0,0,0,0,0v0c0,0,0,0,0,0l0,0l0,0c0,0,0,0,0,0h0l0,0l-0.1,0.1l-1.2,0.9l-5.7-0.4
			c-0.5,0-1,0.2-1.4,0.5c-0.4,0.4-0.6,0.8-0.6,1.4l-0.4,4.5l-4.4,3.6l0,0.1c-0.8,1.6-1.2,3.3-1.2,5.1c0,0.7,0.1,1.5,0.2,2.2
			c-0.1,0.5-0.2,1-0.2,1.4c-0.1,2.3,1.1,4.5,3.2,5.5c0.3,2.7,2.7,4.7,5.4,4.5c1,1.5,2.7,2.4,4.6,2.4c0.8,0,1.6-0.2,2.3-0.5
			c0.7,0.3,1.5,0.5,2.3,0.5c1.8,0,3.5-0.9,4.6-2.4c2.7,0.2,5.1-1.8,5.4-4.5c2.1-1,3.3-3.2,3.2-5.5c0-0.5-0.1-1-0.2-1.4
			C137.7,176,137.8,175.3,137.8,174.5 M113.8,161.3L113.8,161.3c0-0.3,0.1-0.5,0.3-0.7c0.2-0.2,0.4-0.3,0.7-0.3l4.4,0.3l-4.7,3.4
			l-1.1,0.9L113.8,161.3z M108.9,170l4.4-3.7l1.9-1.6l4.1-3l-11.5,13.7c0-0.3-0.1-0.7,0-1C107.8,173,108.2,171.4,108.9,170
			 M107.8,178.2c0-0.4,0-0.8,0.1-1.2v0l12.1-14.4l-9.7,20.1C108.7,181.8,107.7,180,107.8,178.2 M115.3,187.2c-1,0.1-2-0.3-2.8-0.9
			c-0.9-0.7-1.4-1.7-1.5-2.8l9.8-20.2L115.3,187.2z M121.8,189.2c-0.5,0.3-1.2,0.4-1.8,0.4c-1.5,0-3-0.8-3.8-2.1l5.5-24L121.8,189.2
			z M129.7,160.3c0.3,0,0.5,0.1,0.7,0.3c0.2,0.2,0.3,0.4,0.3,0.7l0.3,3.5l-1-0.8l-4.7-3.4L129.7,160.3z M124.5,189.6
			c-0.6,0-1.2-0.1-1.8-0.4v-25.7l5.5,24C127.5,188.8,126.1,189.6,124.5,189.6 M132.1,186.2c-0.8,0.7-1.8,1-2.8,0.9l-5.5-23.8
			l9.8,20.2C133.5,184.6,132.9,185.6,132.1,186.2 M134.3,182.7l-9.7-20.1l12.1,14.4v0c0.1,0.4,0.1,0.8,0.1,1.2
			C136.8,180,135.9,181.7,134.3,182.7 M136.7,175.5l-11.5-13.7l4.1,3l1.9,1.6l4.4,3.7c0.7,1.4,1.1,3,1.1,4.5
			C136.8,174.9,136.7,175.2,136.7,175.5"/>
		<path class="st0" d="M118.1,101.3c0-1.8-0.4-3.5-1.2-5.1l0-0.1l-4.4-3.6l-0.4-4.5c-0.1-1.1-1-1.9-2.1-1.9l-5.7,0.3l-1.2-0.9
			l-0.1-0.1l0,0c0,0,65.7-65.8,0,0l0,0c0,0,0,0,0,0c0,0,0,0,0,0h0v0h0l0,0h0c0,0,0,0,0,0h0v0h0v0h0c0,0,0,0,0,0l0,0c0,0,0,0,0,0
			c0,0,0,0,0,0h0c0,0,0,0,0,0h0c0,0,0,0,0,0c0,0,0,0,0,0h-0.1c0,0,0,0,0,0c0,0,0,0,0,0h0v0c0,0,0,0,0,0h0v0h0v0c0,0,0,0,0,0l0,0l0,0
			c0,0,0,0,0,0c0,0,0,0,0,0c0,0,0,0,0,0c0,0,0,0,0,0l-0.1,0.1l-1.2,0.9L95.2,86h-0.1c-1.1,0-1.9,0.8-2,1.9l-0.4,4.5l-4.4,3.6l0,0.1
			c-0.8,1.6-1.2,3.3-1.2,5.1c0,0.7,0.1,1.4,0.2,2.2c-0.1,0.5-0.2,1-0.2,1.4c-0.1,2.3,1.1,4.5,3.2,5.5c0.1,1.3,0.8,2.5,1.8,3.3
			c1,0.8,2.3,1.2,3.6,1.1c1,1.5,2.7,2.4,4.6,2.4c0.8,0,1.6-0.2,2.3-0.5c0.7,0.3,1.5,0.5,2.3,0.5c1.8,0,3.5-0.9,4.6-2.4
			c1.3,0.1,2.6-0.3,3.6-1.1c1-0.8,1.7-2,1.8-3.3c2.1-1.1,3.3-3.2,3.2-5.5c0-0.5-0.1-1-0.2-1.4C118,102.7,118.1,102,118.1,101.3
			 M94.1,88L94.1,88c0-0.6,0.5-1,1-1l4.4,0.3l-4.7,3.4l-1.1,0.9L94.1,88z M89.1,96.7l4.4-3.7l1.9-1.6l4.1-2.9l-11.5,13.7
			c0-0.3-0.1-0.7,0-1C88.1,99.7,88.4,98.1,89.1,96.7 M88.1,104.9c0-0.4,0-0.8,0.1-1.2l12.1-14.4l-9.7,20.1
			C89,108.5,88,106.7,88.1,104.9 M95.6,113.9c-1,0.1-2-0.3-2.8-0.9c-0.9-0.7-1.4-1.7-1.4-2.8l9.8-20.1L95.6,113.9z M102.1,115.9
			c-0.6,0.3-1.2,0.4-1.8,0.4c-1.5,0-2.9-0.8-3.8-2l5.5-24L102.1,115.9z M110,87.1c0.5,0,1,0.4,1,0.9l0.3,3.5l-1-0.8l-4.7-3.4
			L110,87.1z M104.8,116.3c-0.6,0-1.2-0.1-1.8-0.4V90.2l5.5,24C107.8,115.5,106.4,116.3,104.8,116.3 M112.4,113
			c-0.8,0.7-1.8,1-2.8,0.9L104.1,90l9.8,20.1C113.8,111.3,113.2,112.3,112.4,113 M114.5,109.4l-9.7-20.1l12.1,14.4
			c0.1,0.4,0.1,0.8,0.1,1.2C117.1,106.7,116.2,108.5,114.5,109.4 M117,102.2l-11.4-13.7l4.1,2.9l1.9,1.6l4.4,3.7
			c0.7,1.4,1.1,3,1.1,4.5C117.1,101.6,117,101.9,117,102.2"/>
		<path class="st0" d="M157.5,101.3c0-1.8-0.4-3.5-1.2-5.1l0-0.1l-4.4-3.6l-0.4-4.5c-0.1-1.1-1-1.9-2.1-1.9l-5.7,0.3l-1.2-0.9
			l-0.1-0.1c0,0,0,0,0,0l0,0l0,0c0,0,0,0,0,0c0,0,0,0,0,0h0v0h0c0,0,0,0,0,0h0c0,0,0,0,0,0h0v0h0v0h0c0,0,0,0,0,0c0,0,0,0,0,0
			c0,0,0,0,0,0h0c0,0,0,0,0,0h0c0,0,0,0,0,0h-0.1c0,0,0,0,0,0h0v0c0,0,0,0,0,0h0c0,0,0,0,0,0h0v0c0,0,0,0,0,0l0,0l0,0c0,0,0,0,0,0
			c0,0,0,0,0,0c0,0,0,0,0,0c0,0,0,0,0,0l-0.1,0.1l-1.2,0.9l-5.7-0.3h-0.1c-1.1,0-2,0.8-2,1.9l-0.4,4.5l-4.4,3.6l0,0.1
			c-0.8,1.6-1.2,3.3-1.2,5.1c0,0.7,0.1,1.4,0.2,2.2c-0.1,0.5-0.2,1-0.2,1.4c-0.1,2.3,1.1,4.5,3.2,5.5c0.1,1.3,0.8,2.5,1.8,3.3
			c1,0.8,2.3,1.2,3.6,1.1c1,1.5,2.7,2.4,4.6,2.4c0.8,0,1.6-0.2,2.3-0.5c0.7,0.3,1.5,0.5,2.3,0.5c1.8,0,3.5-0.9,4.6-2.4
			c1.3,0.1,2.6-0.3,3.6-1.1c1-0.8,1.7-2,1.8-3.3c2.1-1.1,3.3-3.2,3.2-5.5c0-0.5-0.1-1-0.2-1.4C157.4,102.7,157.5,102,157.5,101.3
			 M133.5,88L133.5,88c0-0.6,0.5-1,1-1l4.4,0.3l-4.7,3.4l-1.1,0.9L133.5,88z M128.6,96.7l6.3-5.3l4.1-2.9l-11.5,13.7
			c0-0.3-0.1-0.6,0-1C127.5,99.7,127.9,98.1,128.6,96.7 M127.5,104.9c0-0.4,0-0.8,0.1-1.2l12.1-14.4l-9.7,20.1
			C128.4,108.5,127.4,106.7,127.5,104.9 M135,113.9c-1,0.1-2-0.3-2.8-0.9c-0.9-0.7-1.4-1.7-1.5-2.8v0l9.8-20.1L135,113.9z
			 M141.5,115.9c-0.6,0.3-1.2,0.4-1.8,0.4c-1.5,0-3-0.8-3.8-2l5.5-24V115.9z M149.4,87.1c0.5,0,1,0.4,1,0.9l0.3,3.5l-1-0.8l-4.7-3.4
			L149.4,87.1z M144.2,116.3c-0.6,0-1.2-0.1-1.8-0.4V90.2l5.5,24C147.2,115.5,145.8,116.3,144.2,116.3 M153.2,110.2
			c-0.1,1.1-0.6,2.1-1.5,2.8c-0.8,0.7-1.8,1-2.8,0.9L143.5,90L153.2,110.2L153.2,110.2z M154,109.4l-9.7-20.1l12.1,14.4
			c0.1,0.4,0.1,0.8,0.1,1.2C156.5,106.7,155.6,108.5,154,109.4 M156.4,102.2L145,88.6l4.1,2.9l1.9,1.6c0,0,0,0,0,0l4.4,3.6
			c0.7,1.4,1.1,3,1.1,4.5C156.5,101.6,156.4,101.9,156.4,102.2"/>
		<path class="st0" d="M157.5,139.7c0-1.8-0.4-3.5-1.2-5.1l0-0.1l-4.4-3.6l-0.4-4.5c0-0.5-0.3-1-0.6-1.4c-0.4-0.4-0.9-0.5-1.4-0.5
			l-5.7,0.3l-1.2-0.9l-0.1-0.1l0,0v0c0,0,0,0,0,0s0,0,0,0c0,0,0,0,0,0c0,0,0,0,0,0c0,0,0,0,0,0c0,0,0,0,0,0v0h0l0,0h0v0h0
			c0,0,0,0-0.1,0c0,0,0,0,0,0c0,0,0,0,0,0c0,0,0,0,0,0H142c0,0,0,0,0,0h-0.1c0,0,0,0,0,0h0v0h0c0,0,0,0,0,0c0,0,0,0,0,0h0v0h0v0
			c0,0,0,0,0,0l0,0h0v0c0,0,0,0,0,0l0,0c0,0,0,0,0,0h0v0c0,0,0,0,0,0l-0.1,0.1l-1.2,0.9l-5.7-0.3c-1.1,0-2,0.8-2.1,1.9l-0.4,4.5
			l-4.4,3.6l0,0.1c-1.2,2.2-1.5,4.8-1,7.3c-0.1,0.5-0.2,1-0.2,1.4c-0.1,2.3,1.1,4.5,3.2,5.5c0.3,2.7,2.7,4.7,5.4,4.5
			c1,1.5,2.7,2.4,4.6,2.4c0.8,0,1.6-0.2,2.3-0.5c0.7,0.3,1.5,0.5,2.3,0.5c1.8,0,3.5-0.9,4.6-2.4c1.3,0.1,2.6-0.3,3.6-1.1
			c1-0.8,1.7-2,1.8-3.3c2.1-1.1,3.3-3.2,3.2-5.5c0-0.5-0.1-1-0.2-1.4C157.4,141.1,157.5,140.4,157.5,139.7 M133.5,126.4L133.5,126.4
			c0-0.6,0.5-1,1-1l4.4,0.3l-4.7,3.4l-1.1,0.9L133.5,126.4z M128.6,135.1l4.4-3.7l1.9-1.6l4.1-2.9l-11.5,13.7c0-0.3-0.1-0.6,0-1
			C127.5,138.1,127.9,136.5,128.6,135.1 M127.5,143.3c0-0.4,0-0.8,0.1-1.2l12.1-14.4l-9.7,20.1C128.4,146.9,127.4,145.1,127.5,143.3
			 M135,152.3c-1,0.1-2-0.2-2.8-0.9c-0.9-0.7-1.4-1.7-1.5-2.8l9.8-20.2L135,152.3z M141.5,154.3c-0.6,0.3-1.2,0.4-1.8,0.4
			c-1.5,0-3-0.8-3.8-2l5.5-24V154.3z M149.4,125.4c0.5,0,1,0.4,1,1l0.3,3.5l-1-0.8l-4.7-3.4L149.4,125.4z M144.2,154.7
			c-0.6,0-1.2-0.1-1.8-0.4v-25.7l5.5,24C147.2,153.9,145.8,154.7,144.2,154.7 M151.8,151.4c-0.8,0.7-1.8,1-2.8,0.9l-5.5-23.9
			l9.8,20.2C153.2,149.7,152.6,150.7,151.8,151.4 M154,147.8l-9.7-20.1l12.1,14.4c0.1,0.4,0.1,0.8,0.1,1.2
			C156.5,145.1,155.6,146.9,154,147.8 M156.4,140.6L145,126.9l4.1,2.9l1.9,1.6c0,0,0,0,0,0l4.4,3.6c0.7,1.4,1.1,3,1.1,4.5
			C156.5,140,156.4,140.3,156.4,140.6"/>
		<path class="st0" d="M118.1,139.6c0-1.8-0.4-3.5-1.2-5.1l0-0.1l-4.4-3.6l-0.4-4.5c-0.1-1.1-1-1.9-2.1-1.9l-5.7,0.3l-1.2-0.8
			l-0.1-0.1h0c0,0,0,0,0,0c0,0,0,0,0,0c0,0,0,0,0,0s0,0,0,0s0,0,0,0c0,0,0,0,0,0l0,0c0,0,0,0,0,0h0v0h0v0c0,0,0,0,0,0l0,0h0v0h0
			c0,0,0,0,0,0l0,0h0c0,0,0,0,0,0c0,0,0,0,0,0c0,0,0,0,0,0c0,0,0,0,0,0h-0.1c0,0,0,0,0,0h0c0,0,0,0,0,0h0v0h0c0,0,0,0,0,0l0,0h0
			c0,0,0,0,0,0h0v0h0v0c0,0,0,0,0,0l0,0h0v0c0,0,0,0,0,0l0,0l0,0c0,0,0,0,0,0l0,0c0,0,0,0,0,0c0,0,0,0,0,0l-0.1,0.1l-1.2,0.9
			l-5.7-0.3h-0.1c-1.1,0-1.9,0.8-2,1.9l-0.4,4.5l-4.4,3.6l0,0.1c-1.2,2.2-1.5,4.8-1,7.3c-0.1,0.5-0.2,1-0.2,1.4
			c-0.1,2.3,1.1,4.5,3.2,5.5c0.3,2.7,2.7,4.7,5.4,4.5c1,1.5,2.7,2.4,4.6,2.4c0.8,0,1.6-0.2,2.3-0.5c0.7,0.4,1.5,0.5,2.3,0.5
			c1.8,0,3.5-0.9,4.6-2.4c1.3,0.1,2.6-0.3,3.6-1.1c1.1-0.8,1.7-2,1.8-3.3c2.1-1,3.3-3.2,3.2-5.5c0-0.5-0.1-1-0.2-1.4
			C118,141.1,118.1,140.3,118.1,139.6 M94.1,126.4L94.1,126.4c0-0.6,0.5-1,1-1c0,0,0,0,0,0l4.4,0.3l-4.7,3.4l-1.1,0.9L94.1,126.4z
			 M89.1,135.1l4.4-3.7l1.9-1.6l4.1-3l-11.5,13.7c0-0.3-0.1-0.7,0-1C88.1,138,88.4,136.5,89.1,135.1 M88.1,143.2
			c0-0.4,0-0.8,0.1-1.2v0l12.1-14.4l-9.7,20.1C89,146.8,88,145.1,88.1,143.2 M95.6,152.2c-1,0.1-2-0.3-2.8-0.9
			c-0.9-0.7-1.4-1.7-1.5-2.8l9.8-20.2L95.6,152.2z M102.1,154.2c-0.5,0.3-1.2,0.4-1.8,0.4c-1.5,0-3-0.8-3.8-2.1l5.5-24L102.1,154.2z
			 M110,125.4c0.5,0,1,0.4,1,0.9c0,0,0,0,0,0l0.3,3.5l-1-0.8l-4.7-3.4L110,125.4z M104.8,154.6c-0.6,0-1.2-0.1-1.8-0.4v-25.7l5.5,24
			C107.8,153.9,106.4,154.6,104.8,154.6 M112.4,151.3c-0.8,0.7-1.8,1-2.8,0.9l-5.5-23.9l9.8,20.2
			C113.8,149.6,113.2,150.6,112.4,151.3 M114.5,147.7l-9.7-20.1l12.1,14.4c0.1,0.4,0.1,0.8,0.1,1.2
			C117.1,145.1,116.2,146.8,114.5,147.7 M117,140.6l-11.5-13.7l4.1,3l1.9,1.6l4.4,3.7c0.7,1.4,1.1,3,1.1,4.5
			C117.1,139.9,117,140.3,117,140.6"/>
	</g>
</g>
</svg>
