<svg xmlns="http://www.w3.org/2000/svg" width="244.54" height="14.211" viewBox="0 0 244.54 14.211"><path d="M7.281,244.552c-2.334,0-4.737-1.81-4.737-6.316,0-4.6,1.942-6.658,4.235-6.658,2.061,0,3.439,1.489,4.505,4.194h.241V231.1h-.19l-.845.905a7.559,7.559,0,0,0-3.46-.784A6.966,6.966,0,0,0,0,238.448c0,4.164,2.635,6.839,6.587,6.839A5.894,5.894,0,0,0,12.2,241.5l-.322-.171a5.018,5.018,0,0,1-4.6,3.228" transform="translate(0 -231.096)" fill="#fff"/><path d="M24.264,242.857l-4.3-11.706h-.814L15.052,241.53c-.815,2.072-1.509,2.826-2.776,3.169v.251h4.505V244.7c-1.75-.282-2.082-.936-1.217-3.208l.653-1.68h4.546l1.157,3.309c.382,1.086.111,1.489-1.71,1.579v.251h6.306V244.7c-1.479-.211-1.77-.533-2.253-1.841m-7.9-3.429,2.192-5.682h.08l2,5.682Z" transform="translate(1.161 -231.091)" fill="#fff"/><path d="M32.653,237c-2.223-.734-3.47-1.347-3.47-3.007a2.348,2.348,0,0,1,2.5-2.363c1.559,0,2.786,1.266,3.852,3.811H35.8v-4.294h-.232l-.683.774a7,7,0,0,0-2.9-.653c-2.6,0-4.536,1.578-4.536,4.113,0,2.484,2,3.1,3.922,3.771,2.394.835,3.54,1.508,3.54,3.2a2.565,2.565,0,0,1-2.826,2.484c-2.061,0-3.429-1.79-4.575-4.354h-.271V245.3h.231l1.157-.946a7.1,7.1,0,0,0,3.228.866,4.225,4.225,0,0,0,4.586-4.425c0-2.5-1.971-3.179-3.792-3.792" transform="translate(2.576 -231.091)" fill="#fff"/><path d="M38.122,231.5,38,235.684l.271.021c1.206-2.525,2.443-3.832,3.871-3.832h.744V243.4c0,.795-.574,1.217-2.293,1.268v.252h6.819v-.252c-1.71-.05-2.293-.473-2.293-1.268V231.873h.754c1.458,0,2.695,1.4,3.881,3.832l.273-.021-.111-4.183Z" transform="translate(3.593 -231.058)" fill="#fff"/><path d="M58.237,244.555H55.963v-6.406H57c1.6,0,2.444.593,2.966,2.636h.252v-5.642h-.252c-.522,2.041-1.367,2.635-2.966,2.635H55.963v-5.9h2.314c2.282,0,3.168,1.267,4.284,4l.271-.041-.06-4.334H51.609v.231c1.68.06,2.1.5,2.1,1.277V243.4c0,.795-.421,1.217-2.1,1.268v.252H63.3l.1-4.576-.271-.02c-1.177,2.947-2.192,4.234-4.887,4.234" transform="translate(4.88 -231.058)" fill="#fff"/><path d="M71.061,244.555H69.552V233.009c0-.814.231-1.217,1.991-1.277V231.5H65.208v.231c1.669.06,2.092.5,2.092,1.277V243.4c0,.795-.423,1.217-2.092,1.268v.252H76.219l.192-4.505-.271-.011c-1.307,3.249-2.423,4.154-5.079,4.154" transform="translate(6.166 -231.058)" fill="#fff"/><path d="M83.593,244.555h-1.5V233.009c0-.814.231-1.217,1.981-1.277V231.5H77.74v.231c1.679.06,2.1.5,2.1,1.277V243.4c0,.795-.423,1.217-2.1,1.268v.252H88.751l.192-4.505-.262-.011c-1.317,3.249-2.433,4.154-5.089,4.154" transform="translate(7.35 -231.058)" fill="#fff"/><path d="M97.057,231.207c-3.47,0-6.527,2.826-6.527,7.06,0,4.274,2.966,7.01,6.527,7.01,3.439,0,6.506-2.826,6.506-7.07,0-4.264-2.966-7-6.506-7m.07,13.7c-2.4,0-4.043-1.629-4.043-6.678,0-5,1.489-6.657,3.873-6.657,2.4,0,4.063,1.639,4.063,6.678,0,5.008-1.5,6.657-3.892,6.657" transform="translate(8.56 -231.086)" fill="#fff"/><path d="M115.931,231.5h-6.024v.231c1.68.06,2.1.5,2.1,1.277V243.4c0,.795-.423,1.217-2.1,1.268v.252h6.255c4.908,0,7.03-3.39,7.03-6.949,0-3.691-2.485-6.467-7.261-6.467m-.382,13.054h-1.287V231.873h1.347c3.359,0,5.038,1.247,5.038,6.255,0,4.947-1.247,6.426-5.1,6.426" transform="translate(10.392 -231.058)" fill="#fff"/><path d="M124.92,231.732c1.76.06,2.162.5,2.162,1.277V243.4c0,.795-.4,1.217-2.162,1.268v.252h6.547v-.252c-1.749-.05-2.152-.473-2.152-1.268V233.009c0-.775.4-1.217,2.152-1.277V231.5H124.92Z" transform="translate(11.811 -231.058)" fill="#fff"/><path d="M144,231.5h-5.711v.231c1.679.06,2.1.5,2.1,1.277V243.4c0,.795-.423,1.217-2.1,1.268v.251h6.587v-.251c-1.831-.05-2.233-.443-2.233-1.268v-4.385h1.268c4.274,0,5.662-1.851,5.662-3.811,0-2.1-1.328-3.7-5.572-3.7m-.07,7.14h-1.287v-6.769H144c2.5,0,3.128,1.388,3.128,3.309,0,2.192-.564,3.46-3.2,3.46" transform="translate(13.075 -231.058)" fill="#fff"/><path d="M161.128,242.857l-4.3-11.706h-.814l-4.093,10.379c-.815,2.072-1.509,2.826-2.776,3.169v.251h4.505V244.7c-1.75-.282-2.082-.936-1.217-3.208l.653-1.68h4.546l1.157,3.309c.382,1.086.111,1.489-1.72,1.579v.251h6.316V244.7c-1.479-.211-1.77-.533-2.253-1.841m-7.9-3.429,2.192-5.682h.081l2,5.682Z" transform="translate(14.101 -231.091)" fill="#fff"/><path d="M169.508,237c-2.212-.734-3.46-1.347-3.46-3.007a2.349,2.349,0,0,1,2.5-2.363c1.559,0,2.786,1.266,3.852,3.811h.262v-4.294h-.231l-.694.774a6.918,6.918,0,0,0-2.886-.653c-2.6,0-4.536,1.578-4.536,4.113,0,2.484,2,3.1,3.922,3.771,2.384.835,3.54,1.508,3.54,3.2a2.564,2.564,0,0,1-2.825,2.484c-2.062,0-3.429-1.79-4.586-4.354h-.262V245.3h.231l1.147-.946a7.179,7.179,0,0,0,3.238.866A4.216,4.216,0,0,0,173.3,240.8c0-2.5-1.961-3.179-3.792-3.792" transform="translate(15.517 -231.091)" fill="#fff"/><path d="M174.976,231.5l-.109,4.183.271.021c1.206-2.525,2.444-3.832,3.862-3.832h.753V243.4c0,.795-.571,1.217-2.293,1.268v.252h6.819v-.252c-1.71-.05-2.292-.473-2.292-1.268V231.873h.754c1.458,0,2.695,1.4,3.881,3.832l.271-.021-.109-4.183Z" transform="translate(16.534 -231.058)" fill="#fff"/><path d="M188.6,231.732c1.75.06,2.152.5,2.152,1.277V243.4c0,.795-.4,1.217-2.152,1.268v.252h6.537v-.252c-1.749-.05-2.152-.473-2.152-1.268V233.009c0-.775.4-1.217,2.152-1.277V231.5H188.6Z" transform="translate(17.833 -231.058)" fill="#fff"/><path d="M206.449,231.732c1.931.271,2.584,1.086,2.584,2.966v6.97h-.02L201.37,231.5h-4.1v.231a2.156,2.156,0,0,1,2.353,2.233v7.744c0,1.88-.543,2.675-2.353,2.956v.252h5.279v-.252c-1.97-.262-2.463-1.076-2.463-2.956v-8.026h.019l8.751,11.526h.643V234.7c0-1.88.443-2.654,2.243-2.966V231.5h-5.289Z" transform="translate(18.652 -231.058)" fill="#fff"/><path d="M224.162,240.32c-1.167,2.947-2.192,4.234-4.887,4.234H217v-6.406h1.046c1.6,0,2.443.593,2.966,2.636h.242v-5.642h-.242c-.523,2.041-1.367,2.635-2.966,2.635H217v-5.9h2.313c2.293,0,3.179,1.268,4.3,4l.271-.04-.06-4.334H212.657v.231c1.669.061,2.1.5,2.1,1.277V243.4c0,.794-.432,1.216-2.1,1.266v.252h11.685l.091-4.576Z" transform="translate(20.107 -231.058)" fill="#fff"/></svg>