<?xml version="1.0" encoding="utf-8"?>
<!-- Generator: Adobe Illustrator 27.7.0, SVG Export Plug-In . SVG Version: 6.00 Build 0)  -->
<svg version="1.1" id="Layer_1" xmlns="http://www.w3.org/2000/svg" xmlns:xlink="http://www.w3.org/1999/xlink" x="0px" y="0px"
	 viewBox="0 0 244.5 267.2" style="enable-background:new 0 0 244.5 267.2;" xml:space="preserve">
<style type="text/css">
	.st0{fill:none;}
</style>
<rect y="0" class="st0" width="244.5" height="267.2"/>
<g>
	<path d="M169.4,62.5c-0.1-0.1-0.2-0.1-0.2-0.2c-14.3-7.8-30.4-12-46.8-12.1h-0.2c-11.4,0.1-22.6,2.1-33.3,6
		c-4.7,1.6-9.2,3.7-13.5,6.1c-0.1,0.1-0.2,0.1-0.2,0.2c-0.1,0.1-0.2,0.2-0.2,0.4v7.6c0,18.3,0.1,33.8,0.3,46s0.6,21.4,1,27
		c1.2,14.5,16.7,25.3,16.9,25.4l0,0l0,0l28.7,20.4c0.1,0.1,0.2,0.1,0.3,0.1h0c0.1,0,0.2,0,0.3-0.1l28.7-20.4l0,0l0,0
		c2.9-2.2,5.6-4.6,8.1-7.3c4.1-4.5,8.2-10.8,8.8-18.1c0.4-5.6,0.8-14.7,1-27s0.3-27.8,0.3-46v-7.6C169.6,62.8,169.5,62.6,169.4,62.5
		 M168.5,70.5c0,18.3-0.1,33.7-0.3,46s-0.6,21.4-1,26.9c-1,13.8-16.3,24.6-16.5,24.7l0,0l0,0l-28.4,20.2l-28.4-20.2l0,0l-0.1,0
		c-2.9-2.1-5.5-4.5-7.9-7.2c-4-4.4-8-10.6-8.6-17.5c-0.4-5.6-0.8-14.7-1-26.9S76,88.8,76,70.5v-7.3c14.2-7.7,30-11.8,46.2-12h0.2
		c16.1,0.1,32,4.2,46.2,12L168.5,70.5z"/>
	<path d="M215.4,166.7l0.9-2.1l-2.2,0.4c-1.2,0.2-2.4,0.4-3.5,0.4c-0.7,0-1.4,0-2-0.1c1.8-2.4,2.8-5.4,2.8-8.5
		c0-2.3-0.5-4.7-1.4-6.8c0.4-1.6,0.7-3.3,0.7-5c0.1-2.8-0.8-5.5-2.5-7.7c-1.4-1.7-3.2-2.9-5.3-3.7c-0.7-0.2-1.2-0.5-1.7-0.7
		c1.2-0.3,2.4-0.9,3.3-1.7l1.6-1.4l-2-0.6c-1.4-0.6-2.6-1.6-3.3-2.9c-1.2-1.7-1.8-3.8-1.8-5.9c0-0.4,0-0.9,0-1.3
		c2.2,2.2,5.2,3.5,8.4,3.6c2.1,0,4.1-0.6,5.9-1.7l2.2-1.5l-2.6-0.6c-1.3-0.3-2.4-1.2-3-2.4c-0.9-1.9-1.4-4-1.5-6.1
		c-0.2-2.5-1.2-4.8-2.9-6.6c-0.3-0.3-0.7-0.7-1-1c4.3-3.5,5.4-7.4,5.4-10c0-1.1-0.2-2.3-0.6-3.3l-0.5-1.2l-1.1,0.6
		c-2.2,1.3-4.6,2-7.1,2.1c-1.5,0-3-0.4-4.2-1.2c-0.4-0.2-0.7-0.5-1-0.8c1.1-1.9,1.7-4.1,1.7-6.3c-0.1-2.9-1-5.7-2.6-8
		c2,0.8,4.1,1.3,6.3,1.2c2.5-0.1,4.8-1.1,6.6-2.7c2.1-1.7,3.4-4.2,3.4-6.9c-0.1-2.4-1-4.7-2.7-6.5c-0.8-0.9-1.6-1.7-2.6-2.4
		c-11-8.7-17.5-24.6-19.3-30.2c-1.8-5.4-4.8-7-5.7-7.3c-0.2-0.2-0.5-0.3-0.8-0.5c-0.9-0.5-2-0.7-3-0.7c-3.6,0-7.2,2.6-9.1,6.5
		c-0.9,1.7-1.3,3.6-1.3,5.6c0,3.2,1.4,6.1,4.1,7.6c-0.5,0.2-1.1,0.4-1.8,0.6c-5.1,1.5-10.5,2.2-15.8,2.1c-4.4-0.1-8.7-1.4-12.4-3.9
		c-0.7-0.5-1.4-1-2-1.4l0.1-0.2c0.9-1.2,1.5-2.5,1.9-3.9c0.1,0.1,0.1,0.3,0.2,0.4c1.3,2.3,3.9,3.3,6.3,3.9c1.9,0.4,3.9,0.6,5.9,0.6
		c0.4,0,0.7,0,0.7,0s3.5-0.1,4.5-2.2c-1.4,0.3-2.8,0.2-4.2-0.1c-0.9-0.4-1.6-1.2-2-2.1c-0.5-1.3-0.8-2.6-0.8-4c0-0.4,0-0.9,0.1-1.3
		c0.1-0.4,0.1-0.9,0.1-1.3c-0.1-2.3-0.6-4.6-1.6-6.7c-0.3-0.7-0.6-1.4-1.1-2.1c0.5-1.2,0.5-2.5,0.1-3.7c-1.3-4-3.4-6.3-5.5-7.7
		c-1.6-1-3.5-1.6-5.3-1.6c0.2-0.7,0.5-1.4,1-2l1.9-2h-2.8c-3.4,0-6.6,1.4-8.9,3.9c-2.1,2.4-3.8,5.2-4.8,8.3c-0.5,1.5-1,3-1.4,4.6
		c-0.4-1.6-0.8-3.1-1.4-4.6c-1-3-2.7-5.9-4.8-8.3c-2.3-2.5-5.5-3.9-8.9-3.9h-2.8l1.9,2c0.5,0.6,0.8,1.3,1,2c-1.9,0-3.7,0.6-5.3,1.6
		c-2.1,1.3-4.2,3.7-5.5,7.7c-0.4,1.2-0.4,2.5,0.1,3.7c-0.5,0.6-0.9,1.3-1.1,2.1c-0.9,2.1-1.5,4.4-1.6,6.7c0,0.4,0,0.9,0.1,1.3
		c0,0.4,0.1,0.9,0.1,1.3c0,1.4-0.3,2.7-0.8,4c-0.3,0.9-1.1,1.7-2,2.1c-1.4,0.3-2.8,0.4-4.2,0.1c1,2.1,4.5,2.2,4.5,2.2s0.3,0,0.7,0
		c2,0,4-0.2,5.9-0.6c2.4-0.6,5-1.6,6.3-3.9c0.1-0.1,0.2-0.3,0.2-0.4c0.3,1.4,1,2.8,1.9,3.9l0.1,0.2c-0.6,0.5-1.3,1-2,1.4
		c-3.7,2.5-8,3.8-12.4,3.9c-5.4,0.1-10.7-0.6-15.8-2.1c-0.7-0.2-1.2-0.4-1.8-0.6c2.7-1.4,4.1-4.4,4.1-7.6c0-1.9-0.5-3.8-1.3-5.6
		c-1.9-4-5.5-6.5-9.1-6.5c-1,0-2.1,0.2-3,0.7c-0.3,0.1-0.5,0.3-0.8,0.5c-0.8,0.3-3.9,1.9-5.7,7.3c-1.8,5.6-8.4,21.5-19.3,30.2
		c-0.9,0.7-1.8,1.5-2.6,2.4c-1.6,1.8-2.6,4.1-2.7,6.5c0.1,2.7,1.3,5.2,3.4,6.9c1.8,1.6,4.2,2.6,6.6,2.7c2.1,0.1,4.3-0.3,6.3-1.2
		c-1.6,2.4-2.5,5.2-2.6,8c0,2.2,0.6,4.4,1.7,6.3c-0.3,0.3-0.6,0.6-1,0.8c-1.3,0.8-2.7,1.2-4.2,1.2c-2.5-0.1-5-0.8-7.1-2.1l-1.1-0.6
		l-0.5,1.2c-0.4,1.1-0.6,2.2-0.6,3.3c0,2.7,1,6.6,5.4,10c-0.4,0.3-0.7,0.6-1,1c-1.7,1.8-2.7,4.1-2.9,6.6c-0.1,2.1-0.6,4.2-1.5,6.1
		c-0.6,1.2-1.7,2.1-3,2.4l-2.6,0.6l2.2,1.5c1.8,1.1,3.8,1.7,5.9,1.7c3.2-0.1,6.2-1.3,8.4-3.6c0,0.4,0,0.8,0,1.3
		c0,2.1-0.6,4.1-1.8,5.9c-0.8,1.3-2,2.3-3.3,2.9l-2,0.6l1.6,1.4c1,0.8,2.1,1.4,3.3,1.7c-0.5,0.2-1.1,0.5-1.7,0.7
		c-2.1,0.7-3.9,2-5.3,3.7c-1.7,2.2-2.6,4.9-2.5,7.7c0,1.7,0.2,3.4,0.7,5c-0.9,2.2-1.4,4.5-1.4,6.8c0,3,0.9,6,2.8,8.5
		c-0.7,0.1-1.4,0.1-2,0.1c-1.2,0-2.4-0.1-3.5-0.4l-2.2-0.4l0.9,2.1c1.9,4,5,7.5,8.7,9.9c-0.8,0.4-1.6,0.9-2.3,1.4
		c-3.3,2.5-5.1,6.5-4.9,10.6c0,0.4,0,0.7,0,1.1c0.1,0.8,0.3,1.6,0.7,2.3c0.4,0.7,0.9,1.3,1.6,1.7c0.8,0.5,1.7,0.7,2.6,0.7
		c0,0,0,0.1,0.1,0.1c0.5,0.8,1.3,1.4,2.3,1.6c12.9,3.6,23.4,12.9,28.7,25.3c0.4,1.1,1,2.2,1.9,3c2.1,2,4.9,3.1,7.8,3h0
		c0.7,0,1.4,0,2.1-0.1c1.6-0.3,3.1-0.8,4.5-1.7c3.1-2.1,5-5.4,5.3-9.1c0-0.3,0-0.6,0-1c0-1.4-0.2-2.8-0.7-4.2
		c-0.4-1.2-1.1-2.3-1.9-3.3c0.7-0.2,1.5-0.5,2.4-0.9c1.1,0.5,2.3,0.7,3.5,0.7c2.3,0,4.9-1,7.7-3.6c0,0.1,0,0.3,0,0.4
		c0,2.9,1.7,5.7,4.2,7.8c2.6,2.3,6,3.5,9.5,3.6h0c0.6,0,1.2-0.1,1.7-0.3c1.3-0.3,2.5-0.8,3.6-1.6c1.8-1.2,3.2-3,4-5
		c0.8,2,2.2,3.8,4,5c1.6,1.1,3.4,1.7,5.3,1.8h0c3.5,0,6.8-1.3,9.5-3.6c2.5-2.1,4.2-4.9,4.2-7.8c0-0.1,0-0.3,0-0.4
		c2.7,2.7,5.4,3.6,7.7,3.6c1.2,0,2.4-0.3,3.5-0.7c0.9,0.3,1.7,0.6,2.4,0.9c-0.9,1-1.5,2.1-1.9,3.3c-0.5,1.3-0.7,2.8-0.7,4.2
		c0,0.3,0,0.6,0,1c0.3,3.7,2.2,7.1,5.3,9.1c1.4,0.9,2.9,1.5,4.5,1.7c0.7,0.1,1.4,0.1,2.1,0.1h0c2.9,0.1,5.7-0.9,7.8-3
		c0.9-0.9,1.5-1.9,1.9-3c5.2-12.3,15.8-21.6,28.7-25.3c0.9-0.2,1.8-0.8,2.3-1.6c0,0,0-0.1,0.1-0.1c0.9,0,1.8-0.3,2.6-0.7
		c0.7-0.4,1.2-1,1.6-1.7c0.4-0.7,0.6-1.5,0.7-2.3c0-0.4,0-0.8,0-1.1c0.2-4.1-1.7-8.1-4.9-10.6c-0.7-0.6-1.5-1-2.3-1.4
		C210.5,174.2,213.5,170.7,215.4,166.7 M208.9,156.9c0.1,3-1.1,5.9-3.2,8.1c0,0,0,0-0.1,0c2.1-3.1,2.9-6.9,2.3-10.6
		c0,3.8-1.3,7.7-3.9,10.1c0,0,0,0,0,0c1.1-1.6,5.5-8.4,1.6-16.4c0.6,0.7,1.2,1.4,1.8,2.2l0.2,0.4l0,0.1c0,0.1,0.1,0.2,0.1,0.3
		c0.1,0.3,0.3,0.8,0.5,1.3C208.7,153.8,208.9,155.3,208.9,156.9 M201.9,135.9c1.7,0.6,3.2,1.6,4.3,3c1.4,1.8,2.1,3.9,2,6.2
		c0,1-0.1,2-0.3,3c-2.8-2.8-5.4-2.7-5.4-2.7c0.9,0.6,1.7,1.3,2.5,2.1c0.8,2.8,2.5,11.1-2.3,16.4c-0.5-0.2-1-0.5-1.4-0.9
		c-2.7,11.8-10.6,11.2-12.8,10.7c-0.8-0.4-1.6-0.8-2.3-1.3c-1.2-0.7-2.2-1.6-3.2-2.6c4.4-1.5,7.3-3.6,9.1-5.8
		c1.7-2.1,2.7-4.8,2.7-7.5c0-1.7-0.3-3.4-0.9-5c0.2-0.2,0.4-0.4,0.6-0.6c1.4,3.5,2,7.6,0.2,11.2c2.5-3.7,2.3-8.6,0.9-12.8
		c0.1-0.2,0.2-0.3,0.2-0.5c1.2,2.6,1.7,5.4,1.6,8.3c0.7-3.4,0.5-7-0.8-10.3c0.5-2.4,0.1-5.3-1.8-8.9c0.1,0.5,2.6,8.9-3.6,12.7
		c0,0,1.9-5.9-3.9-21.3c0.4-0.5,0.5-1.2,0.5-1.8c0-1.1-0.4-2.1-1-3c-0.5-0.7-1.2-1.3-2-1.5c-0.2-1.1-0.3-2.2-0.3-3.3
		c0.1-3.4,0.7-6.7,1.7-10c-0.6,15.5,9.6,22.9,9.6,22.9C197.5,134,199.7,135.1,201.9,135.9 M187.9,181.7c-0.5,0.1-1,0.2-1.5,0.2
		c-0.9,0-1.7-0.2-2.5-0.5l-0.5-0.2c-1.3-0.8-2.4-1.9-3.1-3.3c0.3,1.4,1,2.7,1.9,3.8l0,0c-0.6,0.2-1.2,0.3-1.8,0.3
		c-0.7,0-1.4-0.1-2-0.4c0-2.6-1.7-4.6-3.2-6c-0.6-0.6-1.2-1.1-1.9-1.6c1.4-1.6,2.2-3.7,2.3-5.8c0-1.6-0.6-3.2-1.8-4.4
		c-0.5-0.6-1.1-1-1.8-1.4l-1.3-0.7l-0.4,1.5c-0.5,2.1-1.7,4-3.3,5.5c-1.6,1.4-3.5,2.6-5.6,3.4c-1.9,0.8-3.9,1.4-6,1.8
		c0.6-0.4,1.5-1.1,2.6-2c2.3-1.9,4.4-4,6.3-6.2c1.7-1.9,3.3-4,4.7-6.2c2.9-0.6,5.8-1.5,8.5-2.8c-2.4,0.7-5,1.2-7.5,1.2
		c0.2-0.3,0.4-0.7,0.6-1c1.8-0.3,3.7-0.7,5.4-1.4c1.9-0.7,3.9-1.9,4.7-3.9c-2.1,3-5.9,3.5-9.3,3.6c0.3-0.6,0.6-1.3,0.9-1.9
		c2.5-0.2,4.9-1.3,6.6-3.1c1.4-1.8,2.1-4,2-6.3c-0.2-3.3-0.8-6.5-2-9.5c-0.3-0.8-0.6-1.7-0.9-2.6c2,3.3,3.8,7.2,3.8,11.3
		c0.5-4-0.6-8-2.2-11.8h0c1.1,1.7,1.9,3.4,2.6,5.3c-0.2-1.8-0.5-3.6-1.1-5.4c1.1-0.1,2.1-0.2,3.2-0.4c0.3-0.1,0.6-0.1,1-0.2
		c0.8,2.3,1.6,4.5,2.2,6.8c1,5.1,0.3,10.4-2,15.1c1.2-1.9,2.2-4,2.7-6.1c-0.2,3-1,6-2.4,8.7c1.6-2.3,2.7-4.9,3.3-7.7
		c0.1,2.9-0.6,5.7-2,8.3c-0.7,1.4-1.7,2.6-2.8,3.7c1.8-1.2,3.3-2.7,4.5-4.4c0.8-0.4,1.5-0.8,2.3-1.2c-1.1,2.6-2.8,4.8-5.1,6.4
		c2.5-1.2,4.6-3.1,6.1-5.5c0,0.1,0,0.2,0.1,0.4c-1.2,2.3-2.6,4.7-5,6c2-0.8,3.8-2,5.1-3.7c0,0.5-0.1,0.9-0.2,1.4
		c-1.4,1.5-3.1,2.8-5,3.5c1.4-0.2,2.8-0.6,4.1-1.3c-0.3,0.5-0.6,1-0.9,1.4c-1.5,0.7-3,1.2-4.5,1.6c1,0,2,0,3.1,0
		c-0.2,0.2-0.4,0.3-0.6,0.5c-2.1,0.7-4.3,1.2-6.5,1.5c1.3,0.1,2.6,0.2,3.9,0.3c-0.4,0.2-0.8,0.4-1.2,0.6l-3.7,0.4l1.5,0.5
		c-0.6,0.2-1.2,0.4-1.8,0.6l-1.6,0.5l1,1.3c1.2,1.6,2.7,3,4.4,4.1c3.9,2.6,8.4,4,13.1,4h0c0.7,0,1.5,0,2.3-0.1
		c-0.2,0.3-0.4,0.5-0.7,0.8c-1,0.9-3.3,2-8,2c-0.2,0-0.5,0-0.7,0l-0.5,0c-3.5-0.8-6.4-3.2-8-6.4C182.1,174.9,184,180.4,187.9,181.7
		 M172,197.7l-1.5-0.5c-1-0.3-2.1-0.4-3.1-0.4c1.1,0.5,2.1,1.2,3,1.9c0,0,0,0,0,0.1c0,0.1,0,0.2-0.1,0.3c-0.1,0.3-0.2,0.7-0.4,1
		c-0.5,0.6-1.2,1.4-3.2,1.4c-0.7,0-1.4-0.2-1.9-0.7c-0.6-0.5-1.2-1.1-1.6-1.8c-0.7-1.1-1.2-2.3-1.6-3.6c-0.4-1.5-1-2.8-1.8-4.1
		c-1.4-2.1-3.3-3.9-5.5-5.1c0.3,0,0.6,0,0.9,0c2.2,1.2,4.2,2.8,5.7,4.8c-1-1.7-2.4-3.3-3.9-4.6c1.6,0.5,3.1,1.2,4.5,2.1
		c-1-0.8-2.1-1.5-3.2-2.1c2.9,0.2,5.7,0.7,8.4,1.4c-2.5-1-5.1-1.7-7.8-2.2c4.2,0.2,8.4,0.9,12.4,2.2c-4-1.6-8.1-2.6-12.4-3.1
		c4.5,0.3,8.8,0.9,11.7,2l0.1,0l0.1,0c0,0,0.1,0,0.1,0c0.1,0,0.2,0,0.3,0.1c0.4,0.1,0.7,0.3,1.1,0.4c0.9,0.4,1.8,1.1,2.4,1.9
		c0.4,0.6,0.6,1.3,0.6,2c0,0,0,0.1,0,0.1c-1.2-0.1-2.4,0-3.6,0.2c1.2,0.2,2.3,0.8,3.3,1.5l0.5,0.5l0,0c0,0,0.1,0.1,0.2,0.1
		c0.1,0.1,0.3,0.3,0.6,0.6c0.6,0.6,1.2,1.3,1.8,2.1c1.5,1.8,2.3,4,2.5,6.3c0,1-0.2,1.9-0.6,2.7c-0.2-0.7-0.5-1.4-0.8-2
		C177.7,200.6,175.1,198.6,172,197.7 M178.2,207.9c-1.2-2.8-3.4-5.2-6.2-6.6c0,0,0-0.1,0.1-0.1c2.1,0.7,3.9,2,5.3,3.6
		C177.8,205.8,178.1,206.8,178.2,207.9 M172.4,211.8c0.2,0.3,0.4,0.6,0.5,0.9c0,0,0,0,0,0c-0.5-0.5-1-1-1.5-1.4
		c-0.5-0.6-1-1.2-1.6-1.6C170.7,210.3,171.6,211,172.4,211.8 M170.3,208.7l0.1-0.3c0.7,0.5,1.4,1.1,2,1.8c-0.4-0.3-0.7-0.5-1.1-0.7
		C170.9,209.3,170.6,209,170.3,208.7L170.3,208.7L170.3,208.7z M171.1,211.2c-0.8-0.6-1.6-1-2.5-1.4c0.1-0.1,0.1-0.1,0.2-0.2
		C169.7,210,170.4,210.5,171.1,211.2 M169.1,207.9l-0.1-0.1c0.1,0,0.1,0,0.2-0.1c0,0,0,0,0,0C169.2,207.8,169.1,207.9,169.1,207.9
		 M166.6,209.4c0.5,0.1,1,0.3,1.5,0.6c-0.1,0.2-0.1,0.3-0.2,0.5c-0.5-0.3-1.1-0.5-1.6-0.7C166.4,209.6,166.5,209.5,166.6,209.4
		 M166.3,208c0,0,0.1-0.1,0.1-0.1c0.1,0,0.2,0.1,0.3,0.1c0,0,0,0.1-0.1,0.1C166.5,208.1,166.4,208.1,166.3,208 M166.8,209.3
		c0.1-0.1,0.2-0.2,0.3-0.3c0.4,0.1,0.8,0.2,1.3,0.4c0,0.1-0.1,0.2-0.1,0.3C167.7,209.5,167.2,209.4,166.8,209.3 M166,209.2
		c-0.1,0.1-0.1,0.3-0.2,0.4c-0.4-0.1-0.8-0.1-1.3-0.1c0.2-0.3,0.5-0.5,0.8-0.7c0.3,0,0.6,0,0.9,0.1C166.1,208.9,166.1,209,166,209.2
		c-0.2-0.1-0.4-0.1-0.7-0.1C165.5,209.1,165.8,209.2,166,209.2 M164.8,207.7c0,0,0.1-0.1,0.1-0.1c0,0,0,0,0.1,0
		C164.9,207.7,164.9,207.7,164.8,207.7L164.8,207.7z M164.1,208.8c-0.2,0.3-0.3,0.5-0.5,0.8l-0.6,0.1c0.2-0.3,0.4-0.6,0.6-0.8
		L164.1,208.8 M161.3,201.5c0.1-0.3,0.2-0.5,0.3-0.8c0.3,0.4,0.6,0.8,1,1.2C162.1,201.7,161.7,201.6,161.3,201.5 M162.2,209
		c-0.1,0.3-0.3,0.6-0.4,0.8l-0.4,0.1c0.2-0.3,0.3-0.6,0.5-0.9C162,209,162.1,209,162.2,209 M160,210.5
		C160,210.6,160,210.6,160,210.5C159.9,210.6,159.9,210.6,160,210.5C159.9,210.6,159.9,210.6,160,210.5 M173.7,185.3
		c-0.7-0.3-1.4-0.6-2.1-0.8c-4.7-1.7-11.6-2.2-17.8-2.3c7.8-1.8,16.6-5.9,17.6-15c0.3-0.5,0.6-1.1,0.8-1.7c0.7,0.8,1.1,1.8,1.1,2.8
		c0,1.2-0.5,3-2.6,5.3l-1,1.1l1.2,0.7c0,0,0.1,0,0.2,0.1s0.3,0.2,0.6,0.4c0.6,0.5,1.2,0.9,1.8,1.5c1.3,1.2,2.5,2.9,2.5,4.3
		C176,182.7,175.6,183.9,173.7,185.3 M151.5,179c4.6-0.5,8.9-2.2,12.7-4.9c-3.7,2.2-7.8,3.4-12.1,3.6c3-0.3,5.9-1.3,8.5-2.8
		c2.6-0.8,5.1-2.1,7.3-3.8c0.9-0.7,1.7-1.6,2.5-2.5c-2,4.7-7.4,11.8-22.5,11.9c6.2-0.3,12.3-2.1,17.1-5.8
		C160.9,177.3,156.3,178.8,151.5,179 M154.9,176.3c1.8-0.3,3.6-0.7,5.4-1.3C158.5,175.7,156.7,176.2,154.9,176.3 M173.8,148.9
		c0.1-0.2,0.1-0.5,0.2-0.7c1.7-0.9,1.9-2.7,2.5-4c-0.5,0.9-1.3,1.8-2.2,2.4c0.2-0.8,0.3-1.7,0.3-2.5c0.3-3.3,0.5-7.7,0.6-12.7h0.4
		c0.4,1.3,0.8,2.6,1.2,3.8c1.1,2.8,1.7,5.7,1.9,8.7c0.1,1.7-0.4,3.4-1.5,4.8c-1,1.1-2.4,1.9-3.9,2.1c0-0.1,0-0.1,0-0.2
		c2.6-0.9,4.5-3.3,4.7-6.1C177.5,146.6,175.9,148.2,173.8,148.9 M176.1,92.4l0.6-4.9l0.5,2.2l0.7-3.3l0.4,0l0.6,1.4l0.6-1.3h0.1
		c0.2,0,0.3,0,0.5,0l0.6,0.8l0.6-0.9c0.4-0.1,0.8-0.1,1.2-0.2c-0.7,6.6-0.7,8.4-0.7,8.4c-1,4.7-1.4,9.4-1.1,14.2c0,0,0,0,0,0.1l0,0
		c0.2,4.8,1,9.5,2.3,14c-1.9,0.1-4.9,0.4-6.9,0.6c-0.2-0.7-0.3-1.4-0.4-1.8c0.1-4.4,0.2-9,0.2-13.7c0.1-5.8,0.1-11.7,0.2-17.2
		L176.1,92.4z M175.9,84.4c0-1.1,0-2.2,0-3.3c1.2,0.3,2.4,0.4,3.6,0.4c1.9,0,3.7-0.4,5.4-1.2c0,0,0,0,0.1,0h0l0,0
		c0.2,0.3,0.2,0.6,0.2,1c0.1,1-0.3,1.9-1,2.5c-1.5,0.7-3.1,1-4.7,1C178.3,84.8,177.1,84.7,175.9,84.4 M178.5,125
		c2.3-0.2,4.8-0.4,5.6-0.4c0.5,0.1,0.9,0.4,1.1,0.9c0.4,0.6,0.7,1.3,0.7,2c0,0.4-0.1,0.7-0.3,1c-0.5,0.3-1,0.5-1.5,0.5
		c-1,0.2-2.1,0.3-3.1,0.4c-2.1,0.2-4.3,0.2-5.7,0.2c0-1.4,0.1-2.9,0.1-4.4C176.2,125.2,177.3,125.1,178.5,125 M205,107.9
		c0.4,0.9,0.6,1.8,0.7,2.8c0.1,2.2,0.6,4.4,1.5,6.5c-4.2-4-4.9-7.7-7-10.3c1.3,1,2.3,2.4,3,3.9c-0.4-1.7-1.2-3.4-2.4-4.7
		c1.4,0.3,2.6,1.2,3.3,2.5c-0.2-1-0.7-1.9-1.4-2.6C203.7,106.3,204.5,107,205,107.9 M207.1,92.9c0,2.3-0.8,5.7-5.8,9.1l-1.7,1.1
		c0,0-3.2,1.1-8.6-0.5c0.6,0.6,1.3,1.1,2.1,1.4h0c0.4,0.2,0.9,0.4,1.3,0.5c2.6,1.5,4.7,3.7,5.9,6.4c1.9,3.6,4.8,6.5,8.4,8.4
		c0.2,0.2,0.5,0.5,0.8,0.7c-0.8,0.2-1.6,0.3-2.4,0.3c-2.2,0-5-0.8-7.9-4.1c-0.1-0.2-0.7-1-1.3-1.9c-0.6-0.9-1.2-1.8-1.7-2.8
		c-0.4-1.1-1.1-2.1-1.9-2.9c-0.4-0.3-0.9-0.5-1.4-0.5c-0.5,0-1,0.2-1.4,0.6c-0.4,0.4-0.6,0.9-0.6,1.4c0,0.5,0.2,1,0.4,1.4
		c0.2,0.4,0.5,0.7,0.8,1c0.5,0.6,1.1,1.1,1.4,1.3s0.5,0.5,0.8,0.7c0.3,0.3,0.7,0.7,0.9,1.1c0.8,1.4,1.2,3,1.2,4.6
		c0,2.6,0.8,5,2.2,7.2c0.7,1,1.5,2,2.5,2.7c-2.8-1.3-4.8-3.8-5.5-6.8c0.1,1.9,0.8,3.7,1.9,5.3c-1.6-1.7-2.9-3.7-3.6-5.9
		c0.3,1.9,0.9,3.8,1.9,5.4c-2-2.5-3.7-5.3-5-8.2c0.8,2.8,1.9,5.4,3.3,7.9c-9.4-10.8-5.8-24.9-3-32.2c2.3,0.7,11.8,3.2,15.9-3.6
		C207.1,92.5,207.1,92.7,207.1,92.9 M200.1,93.4c2.2-0.1,4.5-0.6,6.5-1.6c-2.3,1.7-8,4.9-14.2,1.2c0.1-0.2,0.1-0.3,0.2-0.5
		c1.8,1,3.8,1.5,5.9,1.5c-1.9-0.5-3.7-1.4-5.2-2.8c0.1-0.2,0.2-0.3,0.2-0.3c0.3,0.3,0.6,0.5,0.9,0.7C196,92.9,198.1,93.5,200.1,93.4
		 M194.2,82.8c0,2-0.6,4-1.8,5.7l-0.4,0.6c-2.1,4-3.8,8.1-4.9,12.5c-1.3,2.9-2.3,5.9-3.2,8.9c0.5-3.2,1.4-6.2,2.7-9.2
		c-1.4,2.6-2.6,5.3-3.4,8.1c0.4-2.4,1-4.7,1.7-6.9c-1.1,2-2,4.1-2.7,6.2c0.3-1.5,0.7-2.9,1.2-4.3c-0.4,0.5-0.8,1.1-1.2,1.7l0.4-1.5
		l-0.6,0.5c0-5.7,1-11.4,3.1-16.8c2-2,4.4-3.3,3.4-9.9c0.7,1.6,0.9,3.4,0.7,5.1c0.7-2.2,0.7-4.6-0.1-6.8c0.7,0.8,1.3,1.7,1.9,2.6
		c-0.4-1.5-1-2.9-1.8-4.2c1.5,1.6,2.7,3.4,3.5,5.5c-0.4-1.8-1-3.5-1.9-5c1.7,1.9,2.7,4.4,3,6.9c0.1-2.2-0.5-4.4-1.5-6.4
		C193.4,78.2,194.1,80.4,194.2,82.8 M199.2,73.3c1.5,0.1,3-0.1,4.4-0.6c-1,0.6-2.1,0.9-3.3,0.9c-1.5,0-2.9-0.2-4.3-0.6
		c-1.3-0.3-2.4-1.2-3.2-2.3c-0.3-0.5-0.5-1-0.6-1.6c0.2,0.5,0.5,1,0.8,1.5c1.3,1.4,3.2,2.3,5.2,2.4c-1.8-0.4-3.4-1.4-4.5-2.9
		c-0.4-0.7-0.6-1.4-0.6-2.2c0.1,0.4,0.2,0.9,0.4,1.3c0.8,1.4,2.2,2.3,3.8,2.6c-1.4-0.5-2.5-1.6-3-2.9c-0.2-0.7-0.2-1.5,0-2.3
		c0,0.9,0.3,1.7,0.9,2.4c-0.4-0.9-0.3-2,0.2-2.9c0.1,0.4,0.2,0.8,0.3,1.2c0-0.9,0.7-1.8,1-1.7c1,0.6,1.7,1.8,1,4
		c0,0,3.6-2.3,0.8-5.1c0.9,0.1,1.8,0.4,2.7,0.8c0.3,0.7,0.2,1.5-0.2,2.1c0.6-0.2,1-0.7,1.3-1.2c0.2,1-0.1,2-0.8,2.8
		c0.7-0.3,1.3-0.9,1.7-1.5c-0.2,1.3-1.1,2.5-2.3,3.1c1.2-0.2,2.2-0.8,3-1.6c-0.8,1.5-2.2,2.7-3.9,3.3c1.5-0.2,2.9-0.7,4.2-1.6
		C203,72.1,201.2,73.1,199.2,73.3 M168.2,31c0-1.6,0.4-3.1,1.1-4.5c1.1-2.4,3.1-4.2,5.6-5c-3.1,1.6-5.3,4.5-6,7.9
		c0.9-2.8,2.9-5,5.5-6.3c-1.9,1.2-3.3,3.1-4,5.3c1.1-2.3,3.1-4,5.6-4.8c-1.8,0.8-3.2,2.4-3.7,4.3c1.1-2.2,3.3-3.6,5.8-3.6
		c-1.9,0.4-3.4,1.6-4.3,3.3c1.2-1.5,3.1-2.2,5-2.1c-1.6,0.4-2.9,1.4-3.8,2.7c1.4-1.2,3.2-1.7,5-1.3v0c-2.1,0.3-4,1.5-5.1,3.3
		c1.3-1.3,3.2-1.9,5-1.7c0,0.3-0.1,0.5-0.1,0.8c-1.4,0-2.7,0.4-3.8,1.3c1.2-0.3,2.4-0.3,3.5,0.2l-0.1,0.4c-0.8-0.2-1.7-0.1-2.5,0.3
		c0.7,0.1,1.4,0.4,2,0.9c-0.2,0.4-0.4,0.7-0.7,1c-1.4-2.4-5.1-1.5-5.1-1.5c1.4,0.2,2.5,1.3,2.5,2.7c-0.9,0-1.7-0.2-2.5-0.6
		c0.5,0.7,1.2,1.3,1.9,1.7c-1.9-0.2-3.6-1.2-4.7-2.6c0.7,1.4,1.7,2.6,3,3.4c-1.4-0.3-2.7-1-3.7-2c0.5,1,1.3,1.8,2.1,2.5
		c-0.3-0.1-0.6-0.2-0.8-0.3C169.3,35.6,168.2,33.5,168.2,31 M138,38.9c4.2,3,9.2,4.6,14.4,4.7c5.2,0.1,10.4-0.6,15.4-1.9
		c-19.2,6.9-29.1,0.8-33.5-4c3.1,2.8,6.8,4.7,10.9,5.5c-4.2-1.3-7.9-3.8-10.7-7.1c0.6,0.5,1.2,1.1,2,1.7l0,0.2l0.1-0.1
		C136.9,38.2,137.4,38.5,138,38.9 M134.6,32.1c0.1,0.2,0.2,0.4,0.3,0.6c0.2,0.4,0.4,0.8,0.5,1.2c-0.3-0.3-0.6-0.6-0.8-0.8
		c0-0.1,0-0.3,0-0.4C134.7,32.5,134.7,32.3,134.6,32.1 M137.7,26.2c-0.1-0.1-0.1-0.1-0.2-0.2c0,0,0.1,0,0.1,0c0.3,0,0.5-0.1,0.8-0.1
		c0.1,0,0.2,0,0.2,0c0,0.1,0,0.1,0,0.2c0,0.2,0,0.4,0.1,0.7c0,0.2,0,0.5,0,0.8C138.4,27.1,138.1,26.7,137.7,26.2 M146.9,19.9
		L146.9,19.9c0,0,0,0.1,0.1,0.2s0.1,0.2,0.2,0.4c0.1,0.3,0.3,0.8,0.5,1.3c0.4,1.3,0.6,2.6,0.7,3.9c0,0.3,0,0.7-0.1,1
		c-0.1,0.5-0.1,1.1-0.1,1.6c0,1.2,0.2,2.5,0.5,3.7c-0.9-1.5-1.5-3.1-1.6-4.9c-0.3,2.5,0.2,5,1.6,7c-0.6-0.1-1.2-0.2-1.8-0.3
		c-2.1-0.5-4.1-1.4-4.8-2.8c-0.8-1.5-1.1-3.3-1.1-5c0-0.6-0.2-1.1-0.5-1.5c-0.2-0.3-0.5-0.6-0.9-0.7c-0.4-0.2-0.8-0.2-1.3-0.2
		c-0.4,0-0.8,0-1.2,0.1c-0.2,0-0.4,0.1-0.6,0.2c-0.4,0.1-0.8,0.4-1.1,0.8c-0.3,0.4-0.5,0.8-0.5,1.3c0,0.7,0.4,1.4,0.9,1.9
		c0.5,0.5,0.9,1,1.3,1.5c0.3,0.4,0.5,0.9,0.5,1.5c0,0.5-0.1,0.9-0.3,1.4c-0.3-0.7-0.7-1.4-1.3-2c-0.6-0.7-1.4-1.1-2.4-1.1
		c-0.6,0-1.1,0.2-1.6,0.5l-0.2,0.1c-0.6-1.2-1.4-2.2-2.4-2.9c-0.2-1.5,0.4-3,1.4-4c-1.4,0.7-2.4,1.9-2.8,3.3
		c0.2-2.5,1.5-4.7,3.4-6.2c-2.5,1.3-4.3,3.5-5,6.2c-0.1,0-0.2-0.1-0.3-0.1c0.3-2.5,1.5-4.8,3.3-6.5c3.5-3,7.9-3.8,5.7-7.5
		c0,0,2.7-0.7,4.3,2.6c0.1,0.1,0.1,0.3,0.1,0.4c0,0.2,0,0.4-0.1,0.6l-0.6,2.1l1-0.3c1.9,0.6,3.4,1.9,4.5,3.5c-0.4-1.3-1.1-2.5-2-3.5
		c2.3,1.2,4.1,4.1,4.8,6.9c-0.1-2.6-1.1-5.1-2.8-7.1c0.2,0.1,0.3,0.1,0.5,0.2C145.8,17.9,146.6,18.8,146.9,19.9L146.9,19.9z
		 M144.5,13c0.8,0.7,1.5,1.5,1.9,2.5c-0.1-0.1-0.3-0.2-0.4-0.2c-1.1-0.6-2.3-0.9-3.5-0.9c-0.2,0-0.3,0-0.4,0
		c-0.1-0.6-0.3-1.3-0.7-1.8c0.1-0.2,0.2-0.5,0.2-0.8C142.6,11.9,143.6,12.3,144.5,13 M124.6,17.1c1-3.9,2.7-8.6,5.5-11.5
		c1.4-1.5,3.1-2.5,5.1-3c-0.3,0.8-0.5,1.7-0.6,2.5l-0.2,1.7l1.6-0.3h0c0.1,0,0.1,0,0.2,0c0.2,0,0.4,0,0.8,0c1.5,0,3,0.4,4.3,1.2
		c1,0.6,1.8,1.4,2.5,2.4c-0.8-0.3-1.6-0.5-2.4-0.5c-0.6,0-1.2,0.1-1.8,0.3l-1.3,0.4c-1.9-1-4.2-0.8-5.9,0.4c0,0,2.3,2.8,1.2,3.6
		c-0.7,0.6-2.6,1.6-4.5,3.2c0.2-0.6,0.4-1.2,0.7-1.8c-0.8,0.9-1.6,1.8-2.3,2.8c0.5-1.9,1.3-3.7,2.4-5.3c-1.8,2-3.2,4.3-4.2,6.8
		c0.4-2,1.1-4,2.2-5.8c-1.5,1.9-2.6,4.1-3.3,6.4c0.2-2.1,0.7-4.1,1.4-6.1c-0.8,1.4-1.4,2.9-1.9,4.5
		C124.3,18.3,124.5,17.7,124.6,17.1 M124.3,27.2c0.6,0,1.3,0.2,1.9,0.4l0.5,0.2l0.6-0.1c0.1,0,0.2,0,0.3,0c0.8,0.1,1.4,0.5,1.9,1.2
		c1.1,1.2,1.8,2.8,2,4.4c0,0,0,0.1-0.1,0.1c0,0,0,0,0,0c-1.4-0.9-3-1.4-4.6-1.5h-0.1c-0.4-1-0.4-2.2,0-3.2c-0.3,0.4-0.5,0.9-0.7,1.4
		c-0.2,0.7,0.1,1.3-0.6,1.5c-0.3-0.1-0.6-0.2-0.9-0.2h-4.2c-0.3,0-0.6,0.1-0.9,0.2c-0.7-0.3-0.4-0.8-0.6-1.5
		c-0.1-0.5-0.4-0.9-0.7-1.4c0.3,1.1,0.3,2.2,0,3.2h-0.1c-1.6,0.1-3.2,0.6-4.6,1.5c0,0,0,0,0,0c0,0,0-0.1-0.1-0.1
		c0.2-1.6,0.9-3.2,2-4.4c0.4-0.6,1.1-1,1.9-1.2c0.1,0,0.2,0,0.3,0l0.6,0.1l0.5-0.2c0.6-0.2,1.2-0.4,1.9-0.4L124.3,27.2z M103.2,7.6
		c1.3-0.8,2.8-1.2,4.3-1.2c0.3,0,0.6,0,0.8,0c0.1,0,0.1,0,0.2,0h0l1.6,0.3l-0.2-1.7c-0.1-0.9-0.3-1.7-0.6-2.5c2,0.4,3.7,1.5,5.1,3
		c2.8,2.9,4.6,7.6,5.5,11.5c0.2,0.6,0.3,1.2,0.4,1.8c-0.5-1.6-1.1-3.1-1.9-4.5c0.7,2,1.2,4,1.4,6.1c-0.7-2.3-1.8-4.5-3.3-6.4
		c1.1,1.8,1.8,3.7,2.2,5.8c-1-2.5-2.4-4.8-4.2-6.8c1.1,1.6,1.9,3.4,2.4,5.3c-0.7-1-1.5-1.9-2.3-2.8c0.3,0.6,0.5,1.2,0.7,1.8
		c-1.9-1.5-3.8-2.6-4.5-3.2c-1.1-0.9,1.2-3.6,1.2-3.6c-1.7-1.2-4-1.4-5.9-0.4l-1.3-0.4c-0.6-0.2-1.2-0.3-1.8-0.3
		c-0.8,0-1.7,0.2-2.4,0.5C101.3,9,102.2,8.2,103.2,7.6 M100.1,13c0.8-0.7,1.9-1,2.9-1.1c0,0.3,0.1,0.5,0.2,0.8
		c-0.4,0.5-0.6,1.1-0.7,1.8c-0.1,0-0.3,0-0.4,0c-1.2,0-2.5,0.3-3.6,0.9c-0.1,0.1-0.2,0.1-0.4,0.2C98.6,14.5,99.2,13.7,100.1,13
		 M104,24.5c-0.3,0.5-0.5,1-0.5,1.5c0,1.7-0.3,3.4-1.1,5c-0.7,1.3-2.6,2.3-4.7,2.8c-0.6,0.1-1.2,0.3-1.8,0.3c1.4-2.1,1.9-4.6,1.6-7
		c-0.1,1.7-0.6,3.4-1.6,4.9c0.4-1.2,0.5-2.4,0.5-3.7c0-0.5,0-1.1-0.1-1.6c0-0.3-0.1-0.7-0.1-1c0-1.3,0.3-2.7,0.7-3.9
		c0.2-0.6,0.3-1,0.5-1.3c0.1-0.2,0.1-0.3,0.2-0.4s0-0.1,0-0.1l0,0l0,0c0.3-1.1,1.1-2,2.1-2.6c0.2-0.1,0.3-0.2,0.5-0.2
		c-1.7,2-2.7,4.5-2.8,7.1c0.7-2.9,2.4-5.8,4.8-6.9c-0.9,1-1.6,2.2-2,3.5c1-1.7,2.6-2.9,4.5-3.5l1,0.3l-0.6-2.1
		c-0.1-0.2-0.1-0.4-0.1-0.6c0-0.1,0-0.3,0.1-0.4c0.6-1.5,2-2.6,3.6-2.6c0.2,0,0.4,0,0.6,0.1c-2.2,3.6,2.2,4.5,5.7,7.5
		c1.9,1.7,3.1,4,3.3,6.5c-0.1,0-0.2,0.1-0.3,0.1c-0.7-2.7-2.5-5-4.9-6.2c2,1.5,3.2,3.8,3.4,6.2c-0.5-1.4-1.5-2.6-2.9-3.3
		c1.1,1,1.6,2.5,1.5,4c-1,0.8-1.9,1.8-2.4,2.9l-0.2-0.1c-0.5-0.3-1-0.4-1.6-0.5c-0.9,0-1.8,0.4-2.4,1.1c-0.5,0.6-0.9,1.3-1.3,2
		c-0.2-0.4-0.3-0.9-0.3-1.4c0-0.5,0.2-1,0.5-1.5c0.4-0.5,0.8-1,1.3-1.5c0.5-0.5,0.8-1.2,0.9-1.9c0-0.5-0.2-0.9-0.5-1.3
		c-0.3-0.3-0.7-0.6-1.1-0.8c-0.2-0.1-0.4-0.1-0.6-0.2c-0.4-0.1-0.8-0.1-1.2-0.1c-0.4,0-0.9,0.1-1.3,0.2
		C104.5,24,104.2,24.2,104,24.5 M109.9,33c-0.2,0.2-0.5,0.5-0.8,0.8c0.1-0.4,0.3-0.8,0.5-1.2c0.1-0.2,0.2-0.4,0.3-0.6
		c0,0.2,0,0.3,0,0.5C109.9,32.8,109.9,32.9,109.9,33 M105.8,27.5c0-0.3,0-0.5,0-0.8c0-0.3,0-0.5,0.1-0.7c0-0.1,0-0.1,0-0.2
		c0.1,0,0.2,0,0.2,0c0.3,0,0.5,0,0.8,0.1c0,0,0.1,0,0.1,0c0,0.1-0.1,0.1-0.2,0.2C106.5,26.7,106.1,27.1,105.8,27.5 M92.2,43.6
		c5.2-0.1,10.2-1.7,14.4-4.7c0.5-0.4,1-0.7,1.5-1.1l0.1,0.1l0-0.2c0.8-0.6,1.5-1.2,2-1.7c-2.8,3.4-6.5,5.8-10.7,7.1
		c4.1-0.8,7.8-2.7,10.9-5.5c-4.5,4.9-14.4,10.9-33.5,4C81.9,43,87,43.7,92.2,43.6 M70.8,27.5c-0.9-1.7-2.5-2.9-4.3-3.3
		c2.5,0,4.7,1.4,5.8,3.6c-0.5-1.9-1.9-3.5-3.7-4.3c2.4,0.7,4.5,2.5,5.6,4.8c-0.7-2.2-2.1-4-4-5.3c2.6,1.3,4.6,3.5,5.5,6.3
		c-0.7-3.4-2.9-6.3-6-7.9c2.5,0.8,4.5,2.6,5.6,5c0.7,1.4,1.1,2.9,1.1,4.5c0,2.6-1.1,4.6-2.9,5.5c-0.3,0.1-0.5,0.2-0.8,0.3
		c0.9-0.7,1.6-1.5,2.1-2.5c-1,1-2.3,1.7-3.7,2c1.3-0.8,2.3-2,3-3.4c-1.2,1.5-2.9,2.4-4.7,2.6c0.8-0.4,1.4-1,1.9-1.7
		c-0.8,0.4-1.6,0.6-2.5,0.6c0-1.4,1.1-2.6,2.5-2.7c0,0-3.6-0.9-5.1,1.5c-0.2-0.3-0.5-0.7-0.7-1c0.6-0.5,1.2-0.8,2-0.9
		C66.7,31,65.9,30.9,65,31l-0.1-0.4c1.1-0.5,2.4-0.5,3.5-0.2c-1.1-0.8-2.4-1.3-3.8-1.3c0-0.3-0.1-0.5-0.1-0.8c1.8-0.2,3.7,0.4,5,1.7
		c-1.1-1.8-3-3-5.1-3.3v0c1.8-0.4,3.7,0.1,5,1.3c-0.9-1.3-2.3-2.3-3.8-2.7C67.6,25.3,69.5,26.1,70.8,27.5 M37.4,69.4
		c-0.5-0.9-0.8-2-0.9-3c0.1-1.9,0.8-3.6,2.1-5c0.5-0.5,1-1,1.5-1.5c0.2-0.2,0.4-0.3,0.5-0.4c0.1,0,0.1-0.1,0.1-0.1l0,0l0,0l0,0
		C52.5,50.1,59,33.8,61,28c0.5-1.9,1.5-3.6,2.9-4.9c0.3-0.3,0.7-0.6,1-0.8c0.1,0,0.2-0.1,0.3-0.1c0,0,0,0,0,0l0.2,0l0.1,0
		c-0.2,0.2-0.4,0.4-0.6,0.6h-0.1l0,0.1c-1.7,2.2-2.3,5-1.7,7.7c0.9,5.3,4.7,7.2,7.2,8.5c0.4,0.3,0.8,0.5,1.3,0.7
		c5.9,3.2,30.6,14.8,44-5.7c0.8-0.3,1.5-0.4,2.3-0.5c0.5,2.1-1.1,4.9-1.2,5.2c1.7-1.7,2-5,2-5c0.4-0.5,1.1-0.8,1.7-0.8
		c0.2,0,0.5,0,0.7,0.1h2.3l0,0.4v-0.4c0.2-0.1,0.5-0.1,0.7-0.1c0.7,0,1.3,0.3,1.7,0.8c0,0,0.3,3.3,2,5c-0.2-0.3-1.7-3.1-1.2-5.2
		c0.8,0.1,1.6,0.2,2.3,0.5c13.4,20.5,38.1,8.9,44,5.7c0.4-0.2,0.9-0.5,1.3-0.7c2.5-1.3,6.2-3.2,7.2-8.5c0.6-2.7,0-5.6-1.7-7.7l0-0.1
		h-0.1c-0.2-0.2-0.4-0.4-0.6-0.6l0.1,0l0.2,0c0,0,0,0,0,0c0.1,0,0.2,0.1,0.3,0.1c0.4,0.2,0.7,0.5,1,0.8c1.4,1.4,2.4,3.1,2.9,4.9
		c2,5.8,8.5,22,20.1,31.3l0,0l0,0l0,0c0,0,0.1,0.1,0.1,0.1c0.1,0.1,0.3,0.2,0.5,0.4c0.5,0.4,1,0.9,1.5,1.5c1.3,1.4,2,3.1,2.1,5
		c0,1.1-0.3,2.1-0.9,3c-0.5-2.4-2.1-5.9-7.7-6.6c-6.4-0.8-11.6,3-14.4,9.9c0.2-1.2,0.6-2.3,1-3.4c-1.3,2.2-2.2,4.7-2.8,7.2
		c0.1-3.2,0.8-6.3,2.1-9.2c-1.7,2.8-2.8,5.9-3.3,9.1c0-2.5,0.2-5,0.7-7.5c-1.1,3.1-1.8,6.3-2.1,9.6c-0.3-3-0.3-6.1-0.1-9.2
		c-0.7,2.8-1.1,5.6-1.3,8.4l-0.5-3.6l-0.5,3.8l-0.7-7.8l-0.5,6.4l-0.6-10.7l-0.5,8.1v-3.4c0-1.9,0-3.5,0-4.9v-3.3
		c0-0.7-0.2-1.4-0.5-2.1c-0.6-1.4-1.6-2.5-2.9-3.3c-0.3-0.2-0.6-0.4-1.1-0.7c1.9-0.4,3.8-1.1,5.5-2.1c-2.5,0.8-5.1,1.1-7.7,0.9
		c-0.3-0.2-0.7-0.3-1-0.5c3.3-0.4,6.5-1.4,9.4-3c-3.9,1.6-8.2,2.1-12.4,1.6c-0.2-0.1-0.4-0.2-0.6-0.3c3.7,0,7.3-0.9,10.6-2.5
		c-4.5,1.6-9.4,2-14.2,1c-0.2-0.1-0.5-0.2-0.7-0.3c3.5,0.2,6.9-0.3,10.2-1.4c-5.2,1.5-10.7,0.8-15.8-0.6c0,0-0.1,0-0.1,0
		c-1.2-0.4-2.5-0.8-3.8-1.2c-3-0.9-6.3-1.7-9.7-2.3c-6.1-1.2-12.4-1.8-18.6-1.8h-0.2c-6.2,0-12.5,0.6-18.6,1.8
		c-3.5,0.7-6.7,1.5-9.7,2.3c-1.3,0.4-2.6,0.8-3.8,1.2c0,0-0.1,0-0.1,0c-5.1,1.4-10.6,2.1-15.8,0.6c3.3,1.2,6.7,1.7,10.2,1.4
		c-0.3,0.1-0.5,0.2-0.7,0.3c-4.7,0.9-9.6,0.6-14.2-1c3.3,1.6,7,2.4,10.6,2.5c-0.2,0.1-0.4,0.2-0.6,0.3c-4.2,0.5-8.4,0-12.4-1.6
		c2.9,1.6,6.1,2.6,9.4,3c-0.4,0.2-0.7,0.3-1,0.5c-2.6,0.3-5.2,0-7.7-0.9c1.7,1,3.6,1.7,5.5,2.1c-0.5,0.3-0.9,0.5-1.1,0.7
		c-1.3,0.8-2.3,1.9-3,3.3c-0.3,0.7-0.5,1.4-0.5,2.1v0.1c0,0.8,0,1.8,0,3.2v8.3l-0.5-8.1l-0.6,10.7l-0.5-6.4l-0.7,7.8l-0.5-3.8
		l-0.5,3.6c-0.2-2.8-0.6-5.6-1.3-8.4c0.2,3,0.2,6.1-0.1,9.2c-0.3-3.3-1-6.5-2.1-9.6c0.5,2.5,0.8,5,0.7,7.5c-0.5-3.2-1.6-6.3-3.3-9.1
		c1.3,2.9,2,6,2.1,9.2c-0.6-2.5-1.5-4.9-2.8-7.2c0.4,1.1,0.8,2.2,1,3.4c-2.8-6.9-8-10.7-14.4-9.9C39.5,63.5,37.9,67,37.4,69.4
		 M71.3,150.7c-1.5-0.2-2.9-1-3.9-2.1c-1-1.4-1.6-3.1-1.5-4.8c0.2-3,0.8-5.9,1.9-8.7c0.4-1.2,0.8-2.5,1.2-3.8h0.4
		c0.2,5,0.4,9.4,0.6,12.7c0.1,0.8,0.2,1.7,0.3,2.5c-0.9-0.6-1.6-1.4-2.1-2.4c0.5,1.3,0.7,3.1,2.5,4c0.1,0.3,0.1,0.5,0.2,0.7
		c-2.1-0.6-3.7-2.3-4.3-4.5c0.3,2.8,2.1,5.2,4.7,6.1v0C71.2,150.6,71.2,150.7,71.3,150.7 M68.5,155.4c1.7,0.7,3.5,1.1,5.4,1.4
		c0.2,0.3,0.4,0.7,0.6,1c-2.5-0.1-5.1-0.5-7.5-1.2c2.7,1.3,5.5,2.2,8.4,2.8c1.5,2.3,3.1,4.5,4.9,6.5c2,2.2,4.1,4.3,6.4,6.1
		c0.9,0.7,1.6,1.3,2.1,1.6c0.1,0,0.1,0.1,0.2,0.1c-2-0.4-4.1-1-6-1.8c-2-0.8-3.9-1.9-5.5-3.4c-1.6-1.5-2.8-3.4-3.3-5.5l-0.4-1.5
		l-1.3,0.7c-0.7,0.4-1.3,0.9-1.8,1.4c-1.1,1.2-1.8,2.8-1.8,4.4c0.1,2.1,0.9,4.2,2.3,5.8c-0.7,0.5-1.3,1-1.9,1.6
		c-1.5,1.4-3.1,3.4-3.2,6c-0.6,0.3-1.3,0.4-2,0.4c-0.6,0-1.2-0.1-1.8-0.3c0,0,0,0,0,0c0.9-1.1,1.6-2.4,1.9-3.8
		c-0.7,1.4-1.8,2.5-3.1,3.3l-0.5,0.2c-0.8,0.3-1.7,0.5-2.5,0.5c-0.5,0-1-0.1-1.5-0.2c4.1-1.4,6-7.1,6.1-7.6c-1.6,3.2-4.5,5.6-8,6.4
		l-0.5,0c-0.2,0-0.5,0-0.7,0c-4.8,0-7-1.1-8-2c-0.3-0.2-0.5-0.5-0.7-0.8c0.8,0.1,1.6,0.1,2.3,0.1h0c4.7,0,9.3-1.4,13.1-4
		c1.7-1.1,3.2-2.5,4.4-4.1l1-1.3l-1.6-0.5c-0.6-0.2-1.2-0.4-1.8-0.6l1.5-0.5l-3.7-0.4c-0.4-0.2-0.8-0.4-1.2-0.6
		c1.3,0,2.6-0.1,3.9-0.3c-2.2-0.3-4.4-0.8-6.5-1.5c-0.2-0.2-0.4-0.3-0.6-0.5c1,0.1,2,0.1,3.1,0c-1.6-0.4-3.1-0.9-4.5-1.6
		c-0.3-0.4-0.7-0.9-0.9-1.4c1.3,0.7,2.7,1.1,4.1,1.3c-1.9-0.8-3.6-2-5-3.5c-0.1-0.5-0.2-0.9-0.2-1.4c1.3,1.7,3.1,2.9,5.1,3.7
		c-2.4-1.3-3.8-3.7-5-6c0-0.1,0-0.3,0.1-0.4c1.5,2.4,3.6,4.2,6.1,5.5c-2.3-1.6-4-3.8-5.1-6.4c0.7,0.5,1.5,0.9,2.3,1.2
		c1.2,1.7,2.8,3.2,4.5,4.4c-1.1-1.1-2.1-2.3-2.8-3.7c-1.4-2.5-2.1-5.4-2-8.3c0.6,2.8,1.7,5.4,3.3,7.7c-1.4-2.7-2.2-5.7-2.4-8.7
		c0.6,2.2,1.5,4.2,2.7,6.1c-2.3-4.7-2.9-10-2-15.1c0.7-2.3,1.4-4.6,2.2-6.8c0.3,0.1,0.6,0.2,1,0.2c1,0.2,2.1,0.3,3.2,0.4
		c-0.6,1.8-0.9,3.6-1.1,5.4c0.7-1.8,1.5-3.6,2.6-5.3h0c-1.6,3.7-2.7,7.8-2.2,11.8c0-4.1,1.7-7.9,3.8-11.3c-0.3,0.9-0.6,1.8-0.9,2.6
		c-1.2,3-1.9,6.3-2,9.5c-0.1,2.3,0.6,4.5,2,6.3c1.7,1.8,4.1,2.9,6.6,3.1c0.3,0.7,0.6,1.3,0.9,1.9c-3.4-0.2-7.2-0.6-9.3-3.6
		C64.5,153.5,66.6,154.7,68.5,155.4 M93,179c-4.8-0.3-9.4-1.7-13.4-4.3c4.8,3.7,10.9,5.4,17.1,5.8c-15.1-0.2-20.5-7.3-22.5-11.9
		c0.7,0.9,1.5,1.8,2.5,2.5c2.2,1.7,4.6,3,7.3,3.8c2.6,1.5,5.5,2.5,8.5,2.8c-4.3-0.2-8.4-1.4-12.1-3.6C84.1,176.8,88.4,178.5,93,179
		 M84.6,191.3c-0.8,1.3-1.4,2.6-1.8,4.1c-0.3,1.3-0.9,2.5-1.5,3.6c-0.4,0.7-0.9,1.3-1.6,1.8c-0.5,0.4-1.2,0.7-1.9,0.7
		c-2,0-2.7-0.7-3.2-1.4c-0.2-0.3-0.3-0.6-0.4-1c0-0.1,0-0.2-0.1-0.3c0,0,0,0,0-0.1c0.9-0.8,1.9-1.4,3-1.9c-1.1,0-2.1,0.1-3.1,0.4
		l-1.5,0.5c-3.1,0.9-5.6,2.9-7.2,5.7c-0.3,0.6-0.6,1.3-0.8,2c-0.4-0.9-0.6-1.8-0.6-2.7c0.1-2.3,1-4.5,2.5-6.3
		c0.5-0.7,1.1-1.4,1.8-2.1c0.2-0.3,0.4-0.4,0.6-0.6c0.1-0.1,0.1-0.1,0.2-0.1s0,0,0,0l0.6-0.5c1-0.8,2.1-1.3,3.3-1.5
		c-1.2-0.3-2.4-0.3-3.6-0.2c0,0,0-0.1,0-0.1c0-0.7,0.2-1.4,0.6-2c0.6-0.8,1.4-1.5,2.4-1.9c0.3-0.2,0.7-0.3,1.1-0.4
		c0.1,0,0.3-0.1,0.3-0.1c0,0,0.1,0,0.1,0l0.1,0l0.1,0c2.9-1.1,7.2-1.7,11.7-2c-4.2,0.5-8.4,1.5-12.4,3.1c4-1.3,8.2-2,12.4-2.2
		c-2.7,0.5-5.3,1.2-7.8,2.2c2.8-0.8,5.6-1.3,8.4-1.4c-1.1,0.6-2.2,1.3-3.2,2.1c1.4-0.9,2.9-1.6,4.5-2.1c-1.6,1.3-2.9,2.8-3.9,4.6
		c1.5-2,3.5-3.6,5.7-4.8c0.3,0,0.6,0,0.9,0C87.8,187.4,85.9,189.2,84.6,191.3 M84.6,210.6C84.6,210.6,84.6,210.6,84.6,210.6
		C84.6,210.6,84.6,210.6,84.6,210.6C84.6,210.6,84.6,210.6,84.6,210.6 M82,201.8c0.3-0.4,0.7-0.8,1-1.2c0.1,0.3,0.2,0.5,0.3,0.8
		C82.9,201.6,82.5,201.7,82,201.8 M83.1,210l-0.4-0.1c-0.1-0.3-0.3-0.6-0.4-0.8c0.1,0,0.2,0,0.3,0.1C82.8,209.4,82.9,209.7,83.1,210
		 M81.5,209.6c-0.2,0-0.4,0-0.6-0.1c-0.1-0.3-0.3-0.5-0.5-0.8l0.4,0C81.1,209,81.3,209.3,81.5,209.6 M78.5,209.1
		c0-0.1-0.1-0.2-0.2-0.3c0.3,0,0.6-0.1,0.9-0.1c0.3,0.2,0.5,0.5,0.8,0.7c-0.4,0-0.8,0.1-1.3,0.1C78.7,209.5,78.6,209.3,78.5,209.1
		c0.3,0,0.5,0,0.7-0.1C79,209.1,78.8,209.1,78.5,209.1 M79.6,207.6C79.6,207.6,79.7,207.6,79.6,207.6c0.1,0,0.1,0.1,0.2,0.1l-0.1,0
		C79.7,207.7,79.6,207.7,79.6,207.6 M77.9,209.4c0.1,0.1,0.2,0.2,0.3,0.4c-0.6,0.2-1.1,0.4-1.6,0.7c0-0.2-0.1-0.3-0.2-0.5
		C76.9,209.7,77.4,209.5,77.9,209.4 M76.4,209.7c0-0.1-0.1-0.2-0.1-0.3c0.4-0.2,0.8-0.3,1.3-0.4c0.1,0.1,0.2,0.2,0.3,0.3
		C77.3,209.3,76.8,209.5,76.4,209.7 M77.9,208.1c0,0,0-0.1-0.1-0.1c0.1,0,0.2-0.1,0.3-0.1c0,0,0.1,0,0.1,0.1
		C78.2,208.1,78,208.1,77.9,208.1 M74.8,209.7c-0.6,0.5-1.1,1-1.6,1.6c-0.5,0.4-1.1,0.9-1.5,1.4c0,0,0,0,0,0
		c0.2-0.3,0.3-0.6,0.5-0.9C73,211,73.8,210.3,74.8,209.7 M72.2,210.2c0.6-0.7,1.2-1.3,2-1.8l0.1,0.3h0l0,0c-0.3,0.2-0.6,0.5-0.9,0.8
		C73,209.8,72.6,210,72.2,210.2 M75.7,209.6c0.1,0.1,0.1,0.1,0.2,0.2c-0.9,0.3-1.7,0.8-2.5,1.4C74.1,210.5,74.9,210,75.7,209.6
		 M75.3,207.8C75.4,207.8,75.4,207.8,75.3,207.8c0.1,0,0.2,0,0.2,0l-0.1,0.1C75.4,207.9,75.4,207.9,75.3,207.8 M72.6,201.3
		c-2.8,1.4-4.9,3.8-6.2,6.6c0.1-1.1,0.3-2.1,0.8-3.1c1.4-1.7,3.2-2.9,5.3-3.6C72.5,201.2,72.5,201.3,72.6,201.3 M72.9,184.5
		c-0.7,0.2-1.5,0.5-2.1,0.8c-1.8-1.4-2.3-2.6-2.3-3.6c0-1.4,1.1-3.1,2.5-4.3c0.6-0.5,1.2-1,1.8-1.5c0.2-0.2,0.4-0.3,0.6-0.4
		s0.2-0.1,0.2-0.1l1.2-0.7l-1-1.1c-2.1-2.3-2.6-4-2.6-5.3c0-1,0.4-2.1,1.2-2.8c0.2,0.6,0.5,1.1,0.8,1.7c0.9,9.1,9.8,13.2,17.6,15
		C84.5,182.2,77.6,182.7,72.9,184.5 M84.3,175c1.8,0.6,3.6,1,5.4,1.3C87.8,176.2,86,175.7,84.3,175 M62.9,94.6c0,0,0-1.8-0.7-8.4
		c0.4,0.1,0.8,0.2,1.2,0.2l0.6,0.9l0.6-0.8c0.2,0,0.3,0,0.5,0h0.1l0.6,1.3l0.6-1.4l0.4,0l0.7,3.3l0.5-2.2l0.6,4.9l0.2-1.6
		c0,5.5,0.1,11.4,0.2,17.3c0.1,4.6,0.1,9.3,0.2,13.6c-0.1,0.4-0.3,1.1-0.4,1.8c-2-0.2-5.1-0.5-6.9-0.6c1.3-4.6,2.1-9.3,2.3-14v-0.1
		C64.2,104.1,63.9,99.3,62.9,94.6 M60.4,83.8c-0.7-0.6-1.1-1.6-1-2.5c0-0.3,0-0.7,0.2-1l0,0h0c0,0,0,0,0.1,0
		c1.7,0.8,3.6,1.2,5.4,1.2c1.2,0,2.4-0.1,3.5-0.4c0,1.1,0,2.1,0,3.3c-1.2,0.3-2.4,0.4-3.6,0.4C63.4,84.8,61.8,84.5,60.4,83.8
		 M66.1,125c1.2,0.1,2.3,0.2,3.1,0.3c0,1.5,0.1,3,0.1,4.4c-1.3,0-3.6,0-5.7-0.2c-1-0.1-2.1-0.2-3.1-0.4c-0.5-0.1-1.1-0.3-1.5-0.5
		c-0.2-0.3-0.4-0.7-0.3-1c0-0.7,0.3-1.4,0.7-2c0.2-0.4,0.7-0.8,1.1-0.9C61.2,124.6,63.8,124.8,66.1,125 M48.6,73
		c-1.4,0.4-2.8,0.6-4.3,0.6c-1.2,0-2.3-0.4-3.3-0.9c1.4,0.5,2.9,0.8,4.4,0.6c-2-0.2-3.8-1.2-5.1-2.8c1.2,0.9,2.6,1.5,4.2,1.6
		c-1.7-0.5-3.1-1.7-3.9-3.3c0.8,0.8,1.9,1.4,3,1.6c-1.2-0.6-2.1-1.7-2.3-3.1c0.4,0.7,1,1.2,1.7,1.5c-0.7-0.8-1-1.8-0.8-2.8
		c0.2,0.6,0.7,1,1.3,1.2c-0.5-0.6-0.5-1.4-0.2-2.1c0.8-0.4,1.8-0.7,2.7-0.8c-2.9,2.9,0.8,5.1,0.8,5.1c-0.7-2.3,0-3.5,1-4
		c0.3-0.1,1,0.8,1,1.7c0.2-0.4,0.3-0.8,0.3-1.2c0.5,0.9,0.6,1.9,0.2,2.9c0.6-0.6,0.9-1.5,0.9-2.4c0.2,0.7,0.3,1.5,0,2.3
		c-0.5,1.4-1.6,2.4-3,2.9c1.6-0.3,2.9-1.2,3.8-2.6c0.2-0.4,0.3-0.8,0.4-1.2c0,0.8-0.2,1.5-0.6,2.2c-1.1,1.5-2.7,2.5-4.5,2.9
		c2-0.1,3.8-1,5.2-2.4c0.4-0.4,0.6-0.9,0.8-1.5c-0.1,0.5-0.3,1.1-0.6,1.6C51,71.9,49.9,72.7,48.6,73 M52.4,76.2
		c-1.1,1.9-1.6,4.1-1.5,6.4c0.3-2.6,1.3-5,3-6.9c-0.9,1.6-1.5,3.3-1.9,5c0.8-2,2-3.9,3.5-5.5c-0.8,1.3-1.4,2.7-1.8,4.2
		c0.5-0.9,1.2-1.8,1.9-2.6c-0.8,2.2-0.9,4.6-0.1,6.8c-0.2-1.7,0-3.5,0.7-5.1c-1,6.6,1.4,7.9,3.4,9.9c2,5.4,3.1,11,3.1,16.8l-0.6-0.5
		l0.4,1.5c-0.4-0.6-0.8-1.1-1.2-1.7c0.5,1.4,0.9,2.8,1.2,4.3c-0.7-2.1-1.6-4.2-2.7-6.2c0.8,2.3,1.4,4.6,1.7,6.9
		c-0.9-2.8-2-5.6-3.4-8.1c1.2,3,2.1,6,2.7,9.2c-0.8-3.1-1.9-6-3.2-8.9c-1.1-4.3-2.8-8.5-4.9-12.5l-0.4-0.6c-1.1-1.7-1.8-3.7-1.8-5.7
		C50.4,80.4,51.1,78.2,52.4,76.2 M44.4,93.4c2.1,0,4.1-0.6,5.8-1.8c0.3-0.2,0.6-0.5,0.9-0.7c0,0,0.1,0.1,0.2,0.3
		c-1.5,1.3-3.3,2.3-5.2,2.8c2.1,0,4.1-0.5,5.9-1.5c0.1,0.1,0.1,0.3,0.2,0.5c-6.2,3.7-11.9,0.5-14.2-1.2
		C39.9,92.9,42.2,93.4,44.4,93.4 M38.8,110.7c0.1-1,0.3-1.9,0.7-2.8c0.5-0.9,1.3-1.6,2.3-1.9c-0.7,0.7-1.2,1.6-1.4,2.6
		c0.6-1.3,1.8-2.2,3.3-2.5c-1.2,1.3-2,3-2.4,4.7c0.6-1.5,1.7-2.9,3-3.9c-2,2.6-2.8,6.2-7,10.3C38.2,115.1,38.7,112.9,38.8,110.7
		 M43.4,130.4c1-0.8,1.8-1.7,2.5-2.7c1.4-2.1,2.2-4.6,2.2-7.2c-0.1-1.6,0.3-3.2,1.2-4.6c0.3-0.4,0.6-0.8,0.9-1.1
		c0.3-0.3,0.6-0.5,0.8-0.7s0.8-0.8,1.4-1.3c0.3-0.3,0.5-0.7,0.8-1c0.3-0.4,0.4-0.9,0.4-1.4c0-0.5-0.2-1-0.6-1.4
		c-0.4-0.4-0.9-0.6-1.4-0.6c-0.5,0-1,0.2-1.3,0.5c-0.9,0.8-1.5,1.8-1.9,2.9c-0.5,1-1,1.9-1.7,2.8c-0.6,0.9-1.1,1.7-1.3,1.9
		c-3,3.3-5.7,4.1-7.9,4.1c-0.8,0-1.6-0.1-2.4-0.3c0.3-0.2,0.5-0.4,0.8-0.7c3.6-1.9,6.5-4.8,8.4-8.4c1.2-2.7,3.3-5,5.9-6.4
		c0.4-0.2,0.9-0.3,1.3-0.5h0c0.8-0.3,1.5-0.8,2.1-1.4c-5.4,1.6-8.6,0.5-8.6,0.5l-1.7-1.1c-4.9-3.3-5.7-6.8-5.8-9.1
		c0-0.2,0-0.4,0-0.6c4.1,6.7,13.6,4.3,15.9,3.6c2.9,7.3,6.5,21.4-3,32.2c1.4-2.5,2.5-5.2,3.3-7.9c-1.3,2.9-3,5.7-5,8.2
		c1-1.7,1.6-3.5,1.9-5.4c-0.7,2.2-1.9,4.3-3.6,5.9c1.1-1.5,1.8-3.4,1.9-5.3C48.2,126.6,46.2,129.1,43.4,130.4 M38.3,138.8
		c1.1-1.4,2.6-2.4,4.3-3c2.3-0.7,4.4-1.8,6.3-3.3c0,0,10.2-7.4,9.6-22.9c1,3.2,1.6,6.6,1.7,10c0,1.1-0.1,2.2-0.3,3.3
		c-0.8,0.2-1.6,0.8-2,1.5c-0.6,0.9-0.9,1.9-1,3c0,0.7,0.2,1.3,0.5,1.8c-5.8,15.4-3.9,21.3-3.9,21.3c-6.2-3.8-3.7-12.2-3.6-12.7
		c-2,3.6-2.4,6.5-1.8,8.9c-1.3,3.3-1.6,6.9-0.8,10.3c-0.2-2.8,0.4-5.7,1.6-8.3c0.1,0.2,0.2,0.3,0.2,0.5c-1.4,4.3-1.6,9.1,0.9,12.8
		c-1.8-3.6-1.3-7.8,0.2-11.2c0.2,0.2,0.4,0.4,0.6,0.6c-0.6,1.6-0.9,3.3-0.9,5c0,2.7,0.9,5.4,2.7,7.5c1.8,2.3,4.7,4.3,9.1,5.8
		c-1,1-2,1.8-3.2,2.6c-0.7,0.5-1.5,0.9-2.3,1.3c-2.3,0.5-10.2,1.1-12.8-10.7c-0.4,0.4-0.9,0.7-1.4,0.9c-4.9-5.3-3.1-13.6-2.3-16.4
		c0.8-0.8,1.6-1.5,2.5-2.1c0,0-2.6-0.1-5.4,2.7c-0.2-1-0.3-2-0.3-3C36.2,142.8,36.9,140.6,38.3,138.8 M35.6,156.9
		c0-1.5,0.2-3,0.7-4.5c0.2-0.6,0.3-1,0.5-1.3c0.1-0.2,0.1-0.3,0.1-0.3l0-0.1l0.2-0.4c0.6-0.8,1.2-1.5,1.8-2.2
		c-3.9,7.9,0.5,14.8,1.6,16.4c0,0,0,0-0.1,0c-2.6-2.3-4-6.3-3.9-10.1c-0.6,3.7,0.2,7.5,2.3,10.6c0,0,0,0-0.1,0
		C36.7,162.8,35.6,159.9,35.6,156.9 M33.6,169.5c-0.5-0.6-0.9-1.2-1.2-1.7c0.6,0,1.1,0.1,1.6,0.1c1.6,0,3.2-0.2,4.7-0.7
		c0,0,1.5-0.4,3.4-1c0,0,2.2,7.5,7.9,8.7c-3.8-0.5-7-3-8.4-6.6c0.9,3.1,3,5.6,5.9,7.1c-3.2-1-6-3.2-7.7-6.1c1,2.5,2.7,4.6,4.9,6.2
		c-0.1,0-0.2,0-0.3,0c-2.9-1.5-5.4-3.8-7-6.7c0.7,2,1.8,3.8,3.2,5.4c-2.1-1.4-4-3.2-5.6-5.3c1,2,2.4,3.9,3.9,5.5
		C36.8,173,35,171.4,33.6,169.5 M66.9,216.8C61,205.6,50.7,197.4,38.5,194c-0.3-0.1-0.6-0.2-0.9-0.5c-0.1-1.2-0.1-4.2,2.5-8.2
		c0,0-3.3,1.6-4.6,6.9c-0.5,0-1-0.1-1.4-0.4c-0.5-0.3-0.8-0.8-1-1.3c-0.1-0.2-0.1-0.4-0.2-0.6c0-0.1,0-0.1,0-0.2c0,0,0,0,0,0
		c0-0.3,0-0.7,0-1c0-4.7,2-7.2,4-8.8c0.9-0.6,1.8-1.2,2.8-1.6c0.4-0.1,0.7-0.2,0.9-0.3c0.1,0,0.2,0,0.2-0.1c0,0,0,0,0.1,0l1.2-0.2
		c0,0.1,0,0.2,0.1,0.3c-3.9,1.4-6.9,4.8-7.7,8.9c1.2-3.8,4.4-6.7,8.3-7.5c0,0,0,0,0,0.1c-2.2,1-4,2.8-5,5.1c1.4-2.1,3.6-3.5,6.1-3.9
		c0.2,0.1,0.3,0.3,0.6,0.4c-0.8,0.7-1.5,1.6-2,2.6c0.9-0.9,2-1.6,3.3-2c0.1,0,0.2,0.1,0.3,0.1c-1.9,1.8-3.2,4.1-3.9,6.7
		c1.2-2.6,3.1-4.7,5.5-6.1c0.1,0,0.2,0.1,0.3,0.1c-1.2,1.3-2.2,2.9-2.8,4.6c1.1-1.8,2.7-3.3,4.5-4.3c0.1,0,0.3,0,0.4,0
		c-0.7,1.1-1.2,2.3-1.5,3.6c0.8-1.3,1.9-2.5,3.2-3.4c0.2,0,0.3,0,0.5,0c-1,1.4-1.7,3-2,4.6c0.9-1.8,2.1-3.3,3.7-4.4
		c0.1,0,0.1,0.1,0.2,0.1c-1,1.2-1.6,2.7-1.9,4.3c0.7-1.5,1.8-2.8,3.2-3.7c0.1,0.1,0.3,0.1,0.4,0.1c-0.7,1.1-1.1,2.4-1.3,3.7
		c0.6-1.3,1.6-2.5,2.7-3.5c0.2,0,0.3,0,0.5,0c-0.6,1.1-1.2,2.3-1.6,3.5c0.9-1.4,2.1-2.6,3.4-3.6c0.2,0,0.4-0.1,0.6-0.1
		c-0.9,1.2-1.6,2.5-1.9,4c0.8-1.6,2-2.9,3.5-3.8c0.2,0,0.4,0.1,0.6,0.1c-1,1.1-1.8,2.3-2.3,3.7c1.1-1.6,2.7-2.8,4.4-3.5
		c0.4,0,0.8-0.1,1.2-0.2c-1.7,1.4-3.1,3.2-4.1,5.3c1.4-1.9,3.3-3.4,5.4-4.5c0.1,0.1,0.2,0.2,0.3,0.3c-2.3,1.7-4.2,3.9-5.5,6.4
		c1.7-2.3,4-4.1,6.5-5.3c0.1,0.1,0.1,0.1,0.2,0.2c-0.1,0.1-0.2,0.2-0.3,0.3c-3.1,2.1-5.4,5.1-6.8,8.6c1.3-2.3,3.1-4.3,5.2-5.8
		c0,0.1-0.1,0.3-0.1,0.4c-2.5,2.3-4.3,5.2-5.3,8.4c1.2-2.5,3.1-4.7,5.3-6.4c0,0,0,0,0,0c-0.9,0.8-1.7,1.7-2.4,2.7
		c-1.8,2.2-2.8,4.9-3,7.7c0,2.5,1.1,4.9,2.9,6.6l2.3,2.2l-0.2-3c1.3-2.3,3.4-4.2,5.8-5.4c-2.3,1.5-4.1,3.7-5.1,6.3
		c1.4-2.4,3.5-4.3,6-5.3c-3.6,2.3-6.1,6-6.8,10.2c1.3-4.7,5-8.7,9.3-9.8c-2.1,1-4.1,2.3-5.7,4C67.7,210.6,66.6,213.7,66.9,216.8
		 M70.8,219.8c0-0.1-0.1-0.1-0.1-0.2C70.7,219.6,70.8,219.6,70.8,219.8L70.8,219.8z M71.1,217.8c-0.1-0.3-0.2-0.5-0.3-0.8l0-0.2
		c0.1,0.2,0.2,0.4,0.3,0.6C71.1,217.6,71.1,217.7,71.1,217.8 M71.9,215.9c0,0.1-0.1,0.2-0.1,0.2c-0.1-0.3-0.3-0.7-0.4-1
		C71.6,215.4,71.7,215.6,71.9,215.9 M71.8,219.2c0-0.1-0.1-0.1-0.1-0.2c0-0.3,0-0.6,0-0.9c0.1,0.1,0.2,0.2,0.2,0.3
		C71.9,218.8,71.8,219,71.8,219.2 M85.7,213.3c0.2,0.8,0.3,1.5,0.3,2.3c0,0.2,0,0.4,0,0.5c0,0.1,0,0.1,0,0.1v0
		c-0.5,4.1-2.4,6.2-4.3,7.4c-0.8,0.5-1.6,0.9-2.5,1.1c-0.3,0.1-0.6,0.2-0.8,0.2c-0.1,0-0.1,0-0.2,0h0c-0.6,0.1-1.2,0.1-1.8,0.1
		c-0.4,0-0.8,0-1.1-0.1c-0.4-0.3-0.8-0.6-1.2-1c2.8,1,5.9-0.1,8.2-1.5c-2.6,1.3-5.9,2-8.4,0.5c-0.3-0.2-0.5-0.4-0.8-0.6
		c-0.2-0.3-0.3-0.6-0.4-1c2.3,1.8,5.4,1.5,7.8,0.5c-2.7,0.8-5.8,0.6-7.6-1.4c-0.2-0.2-0.3-0.4-0.5-0.6c0-0.3,0-0.7,0-1
		c0,0,0.1,0.1,0.1,0.1c1.4,1.9,4,2.7,6.3,1.9c-2.2,0.5-4.5-0.5-5.6-2.4c-0.2-0.3-0.3-0.6-0.5-0.8c0.1-0.2,0.1-0.4,0.2-0.7
		c1.1,1.4,2.6,2.6,4.4,2.5c-1.9-0.2-3.1-1.8-4-3.3c0-0.1,0.1-0.1,0.1-0.2c0,0.1-0.1,0.1-0.1,0.2c0,0,0,0,0,0
		c-0.1-0.3-0.3-0.6-0.4-0.9c0.4-0.7,1-1.4,1.6-2c-0.6,0.5-1.2,1-1.7,1.7c-0.2-0.4-0.3-0.7-0.5-1.1c1-1.6,2.4-2.9,4.1-3.8
		c0.1,0.1,0.2,0.3,0.3,0.4c-0.8,0.5-1.5,1-2.2,1.7c1.2-1,2.7-1.6,4.3-1.9c0.3,0.4,0.5,0.9,0.7,1.3c-0.1-0.5-0.2-0.9-0.3-1.3
		c0.5,0,1,0,1.4,0.1c0.1,0,0.2,0,0.3,0c0.6,0.8,1,1.8,1.3,2.8c-0.1-0.9-0.3-1.8-0.6-2.6c0.3,0.1,0.6,0.2,0.9,0.3
		c0.8,1.5,1.3,3,1.5,4.6c0-1.4-0.2-2.8-0.6-4.2c0.2,0.1,0.5,0.3,0.7,0.4c0.8,1.9,1.2,3.9,1.1,6c0.4-1.7,0.4-3.4,0.1-5.1
		C85.3,212.9,85.5,213.1,85.7,213.3 M72,216.7c0.1-0.1,0.1-0.3,0.2-0.4c0.1,0.1,0.2,0.2,0.2,0.3l0.2,0.3c-0.1,0.2-0.2,0.3-0.3,0.5
		C72.2,217.2,72.1,217,72,216.7 M91.6,205.6c-1,0-2-0.3-2.9-0.7l-0.5-0.2c-0.6-0.6-1.1-1.3-1.7-2.1c-1.5-1.9-2-4.3-1.5-6.6
		c0.1-0.2,0.1-0.4,0.1-0.4c0.3-1.1,0.8-2.1,1.4-3c1.5-2.3,3.8-4.1,6.4-5.1c2.6-1,5.3-1.5,8-1.5c1.8,0,3.6,0.2,5.4,0.6
		c-3.1-0.5-6.3-0.2-9.2,0.9c2-0.5,4-0.6,6-0.3c-2.9,0-5.6,1-7.8,2.9c3.1-2.1,6.8-2.3,10.3-1.5c-0.5-0.1-1-0.1-1.5-0.1
		c-0.4,0-0.7,0-0.9,0c-0.1,0-0.2,0-0.3,0c-1.5,0-3.1,0.2-4.5,0.7c-2.1,0.6-3.8,2.1-4.6,4.1c-0.5,1.3-0.8,2.7-0.8,4.1
		c0,2.1,0.2,3.4,1.4,4.4h0l1.3,1c0.4,0.3,0.8,0.5,1.1,0.7C95.5,204.7,93.6,205.5,91.6,205.6 M95.7,199.2c0-0.1-0.1-0.2-0.1-0.4
		c1.6-1.5,2.8-3.4,3.7-5.5c-1.1,1.5-2.4,2.7-3.9,3.7V197c0.9-0.9,1.6-1.9,2.1-3.1c-0.6,0.5-1.2,1-1.9,1.4c0.1-0.4,0.3-0.9,0.4-1.3
		c0.6-1.3,1.7-2.3,3.1-2.7c0.8-0.3,1.7-0.4,2.6-0.5c0,0.3,0,0.5,0,0.7c0,1.8-0.6,3.6-1.7,5c-0.6,0.9-1.3,1.6-2.1,2.3
		c1.4-1.7,2.4-3.7,2.8-5.9C99.7,195.5,98,197.7,95.7,199.2 M99.6,202l-0.2-0.1l0,0c-0.3-0.1-0.5-0.2-0.8-0.4c0.8-0.6,1.5-1.3,2.1-2
		C100.1,200.3,99.8,201.1,99.6,202 M102,197.9c1.3-1.9,2.1-4.1,2.1-6.4c0-0.3,0-0.5,0-0.8h0c1.1,0,2.1,0.2,3.2,0.5
		c0,0.2,0,0.3,0,0.5c0,1,0.5,2,1.4,2.6c0.9,0.6,1.9,1,3,1.1h0c0.4,0,0.8-0.1,1.1-0.2c0.1,0.1,0.2,0.2,0.3,0.4c1.6,2,2.6,4.5,2.6,7.1
		c0,1.2-0.2,2.3-0.6,3.4c-0.5,1.4-1.8,2.3-3.3,2.3c-1.6,0-3-0.6-4.1-1.7c0.3-0.1,0.5-0.2,0.8-0.3c1.3-0.6,2.2-2,2.1-3.5
		c0-1.7-0.7-3.3-2-4.4c-1-0.8-2.3-1.3-3.6-1.3c-1.3,0-2.5,0.6-3.4,1.5C101.7,198.3,101.8,198.1,102,197.9 M108.9,191.7
		c0.1-0.9,0.5-1.7,1.1-2.4c0.1-0.1,0.2-0.3,0.3-0.4l3.7,2.6c-0.3,0.4-0.7,0.9-1.1,1.5c-0.3,0.4-0.7,0.6-1.2,0.6
		c-0.5,0-1-0.1-1.4-0.4c-0.2-0.1-0.3-0.2-0.5-0.3c0,0-0.1-0.1-0.1-0.1l0,0C109.2,192.7,108.9,192.2,108.9,191.7 M116.9,212.4
		c-0.9,0.6-1.8,1-2.8,1.2c-0.3,0.1-0.6,0.1-0.9,0.2c-0.1,0-0.2,0-0.2,0c0,0,0,0,0,0c-2.9-0.1-5.7-1.1-8-3c-2.1-1.8-3.4-4.1-3.4-6
		c-0.1-1.6,0.4-3.1,1.3-4.3c0.5-0.6,1.3-1,2.1-1.1c0.8,0,1.5,0.3,2.2,0.8c0.8,0.6,1.2,1.6,1.2,2.6c0,0.3-0.1,0.6-0.2,0.9
		c-0.3,0.3-0.6,0.5-1,0.6c-0.4,0.1-0.9,0.2-1.3,0.2c-0.1,0-0.2,0-0.2,0h-0.1l-2.6-0.3l1.5,2.1c2.3,3.2,5.2,4.3,7.5,4.3
		c0.8,0,1.7-0.1,2.5-0.4c1.5-0.6,2.6-1.9,3-3.4c0.5-1.4,0.7-2.8,0.7-4.2c0-2.5-0.7-4.9-2.1-7.1c1.3,1.5,2.2,3.2,2.6,5.1
		c-0.2-3-1.3-5.8-3.3-8.1l0,0l0.1,0.1c1.7,1.7,3.1,3.8,4,6.1c-0.2-1.4-0.6-2.8-1.2-4l1.1,0.8c0.7,1.4,1.2,3,1.4,4.6
		c0.1,0.8,0.2,1.5,0.2,1.9c0,0.2,0,0.4,0,0.6s0,0.2,0,0.2C121.1,208.4,119,211,116.9,212.4 M123.4,193.8l-1.1,0.8l-1.1-0.8l0,0
		l-0.1-0.2L91,172.2l0,0c0,0-0.1,0-0.2-0.1c-3.5-2.5-6.7-5.5-9.5-8.8c-4.2-5-8.3-11.7-8.9-19.4c-0.4-5.3-0.7-13.3-0.9-22.3h0
		C71.1,103.9,71,82.5,71,70.5v-8.2c0-0.1,0-0.2,0-0.3c0.3-1.3,1.1-2.4,2.3-3c5-2.9,10.3-5.2,15.8-7c10.7-3.7,21.9-5.6,33.2-5.7h0
		c11.3,0.1,22.5,2,33.2,5.7c5.5,1.8,10.8,4.2,15.8,7c1.2,0.6,2,1.7,2.3,3c0,0.1,0,0.2,0,0.3v8.2c0,12,0,33.4-0.4,51.1
		c-0.1,4.5-0.2,8.7-0.4,12.5s-0.3,7.1-0.5,9.8c-0.6,7.7-4.7,14.5-8.9,19.4c-2.8,3.3-6,6.3-9.5,8.8c-0.1,0.1-0.2,0.1-0.2,0.1l0,0
		l-30.1,21.4L123.4,193.8L123.4,193.8z M135.6,191.7c0,0.5-0.3,1-0.7,1.2l0,0c0,0-0.1,0-0.1,0.1c-0.2,0.1-0.3,0.2-0.5,0.3
		c-0.4,0.2-0.9,0.4-1.4,0.4c-0.5,0-0.9-0.2-1.2-0.6c-0.5-0.6-0.9-1.1-1.1-1.5l3.7-2.6c0.1,0.1,0.2,0.2,0.3,0.4
		C135.1,190,135.5,190.8,135.6,191.7 M139.6,210.8c-2.2,1.9-5,2.9-8,3c0,0,0,0,0,0c-0.1,0-0.2,0-0.2,0c-0.3,0-0.6-0.1-0.9-0.2
		c-1-0.2-2-0.7-2.8-1.2c-2-1.4-4.1-4-4.2-9.7c0,0,0-0.1,0-0.2s0-0.3,0-0.6c0-0.5,0.1-1.2,0.2-1.9c0.2-1.6,0.7-3.1,1.4-4.6l1.1-0.8
		c-0.6,1.3-1,2.6-1.2,4c0.9-2.3,2.3-4.3,4-6.1l0.1-0.1l0,0c-2,2.3-3.1,5.1-3.3,8.1c0.4-1.9,1.3-3.7,2.6-5.1
		c-1.3,2.1-2.1,4.6-2.1,7.1c0,1.4,0.3,2.8,0.7,4.2c0.5,1.5,1.6,2.8,3,3.4c0.8,0.3,1.6,0.4,2.5,0.4c2.3,0,5.2-1.1,7.5-4.3l1.6-2.1
		l-2.6,0.3H139c0,0-0.1,0-0.2,0c-0.4,0-0.9-0.1-1.3-0.2c-0.4-0.1-0.8-0.3-1-0.6c-0.2-0.3-0.2-0.6-0.2-0.9c-0.1-1,0.4-2,1.2-2.6
		c0.6-0.5,1.4-0.8,2.2-0.8c0.8,0.1,1.6,0.4,2.1,1.1c1,1.2,1.4,2.8,1.3,4.3C143,206.7,141.7,209,139.6,210.8 M139.5,197
		c-1.3,0-2.6,0.5-3.6,1.3c-1.3,1.1-2.1,2.7-2,4.4c0,0.8,0.2,1.6,0.6,2.2c0.4,0.6,0.9,1,1.5,1.3c0.3,0.1,0.5,0.2,0.8,0.3
		c-1.1,1.1-2.6,1.7-4.1,1.7c-1.5,0-2.8-0.9-3.3-2.3c-0.4-1.1-0.6-2.2-0.6-3.4c0-2.6,1-5.1,2.6-7.1c0.1-0.1,0.2-0.3,0.3-0.4
		c0.4,0.2,0.8,0.2,1.1,0.2h0c1.1-0.1,2.1-0.4,3-1.1c0.9-0.6,1.4-1.5,1.4-2.6c0-0.2,0-0.3,0-0.5c1-0.3,2.1-0.5,3.2-0.5h0
		c0,0.3,0,0.5,0,0.8c0,2.3,0.8,4.5,2.1,6.4c0.1,0.2,0.3,0.4,0.4,0.6C142.1,197.6,140.8,197,139.5,197 M145.3,201.9L145.3,201.9
		L145,202c-0.2-0.9-0.6-1.7-1.1-2.5c0.7,0.7,1.4,1.4,2.1,2C145.8,201.7,145.5,201.8,145.3,201.9 M146.6,198.9
		c-0.8-0.7-1.5-1.5-2.1-2.3c-1.1-1.5-1.7-3.2-1.7-5c0-0.2,0-0.5,0-0.7c0.9,0.1,1.7,0.2,2.6,0.5c1.4,0.4,2.6,1.4,3.1,2.7
		c0.2,0.4,0.3,0.9,0.4,1.3c-0.7-0.4-1.3-0.9-1.9-1.4c0.5,1.2,1.2,2.2,2.1,3.1c0,0,0,0.1,0,0.1c-1.5-1-2.8-2.2-3.9-3.7
		c0.8,2.1,2.1,3.9,3.7,5.5c0,0.1-0.1,0.2-0.1,0.4c-2.2-1.6-4-3.7-5-6.2C144.2,195.1,145.2,197.2,146.6,198.9 M158,202.6
		c-0.5,0.7-1.1,1.4-1.7,2.1l-0.5,0.2c-0.9,0.5-1.9,0.7-2.9,0.7c-2-0.1-3.9-0.9-5.3-2.3c0.3-0.2,0.7-0.5,1.1-0.7l1.3-1
		c0.6-0.4,1-1.1,1.2-1.8c0.2-0.8,0.3-1.7,0.3-2.6c0-1.4-0.3-2.8-0.8-4.1c-0.8-2-2.5-3.5-4.6-4.1c-1.5-0.5-3-0.7-4.5-0.7
		c-0.1,0-0.2,0-0.3,0c-0.2,0-0.5,0-0.9,0c-0.5,0-1,0-1.5,0.1c3.5-0.7,7.2-0.6,10.3,1.5c-2.2-1.8-5-2.8-7.8-2.9c2-0.3,4-0.2,6,0.3
		c-2.9-1.1-6.1-1.4-9.2-0.9c1.8-0.4,3.6-0.6,5.4-0.6c2.8,0,5.5,0.5,8,1.5c2.6,1,4.8,2.8,6.4,5.1c0.6,0.9,1.1,1.9,1.4,3
		c0,0.1,0.1,0.2,0.1,0.4C160,198.3,159.5,200.7,158,202.6 M172.2,220c-0.2,0.2-0.3,0.4-0.5,0.6c-1.8,2-5,2.3-7.6,1.4
		c2.4,1,5.5,1.3,7.8-0.5c-0.1,0.3-0.2,0.7-0.4,1c-0.3,0.2-0.5,0.4-0.8,0.6c-2.5,1.5-5.8,0.8-8.4-0.5c2.3,1.4,5.3,2.5,8.2,1.5
		c-0.4,0.4-0.7,0.7-1.2,1c-0.4,0-0.7,0-1.1,0.1c-0.6,0-1.2,0-1.8-0.1h0c-0.1,0-0.1,0-0.2,0c-0.2,0-0.4-0.1-0.8-0.2
		c-0.9-0.3-1.7-0.6-2.5-1.1c-1.8-1.2-3.7-3.3-4.3-7.4v0c0,0,0-0.1,0-0.1c0-0.1,0-0.3,0-0.5c0-0.8,0.1-1.6,0.3-2.3
		c0.2-0.2,0.4-0.4,0.6-0.6c-0.3,1.7-0.3,3.4,0.1,5.1c-0.1-2,0.2-4.1,1.1-6c0.2-0.2,0.5-0.3,0.7-0.4c-0.3,1.4-0.5,2.8-0.6,4.2
		c0.3-1.6,0.8-3.2,1.5-4.6c0.3-0.1,0.6-0.2,0.9-0.3c-0.3,0.8-0.5,1.7-0.6,2.6c0.3-1,0.7-1.9,1.3-2.8c0.1,0,0.2,0,0.3,0
		c0.5-0.1,1-0.1,1.4-0.1c-0.1,0.4-0.2,0.9-0.3,1.3c0.2-0.5,0.4-0.9,0.7-1.3c1.6,0.2,3,0.9,4.3,1.9c-0.7-0.7-1.4-1.2-2.2-1.7l0.4-0.4
		c1.7,0.9,3.1,2.2,4.1,3.8c-0.1,0.4-0.3,0.7-0.5,1.1c-0.5-0.6-1.1-1.2-1.7-1.7c0.6,0.6,1.2,1.3,1.6,2c-0.1,0.3-0.3,0.6-0.4,0.9
		c0,0,0,0,0,0c0-0.1-0.1-0.1-0.1-0.2c0,0.1,0.1,0.1,0.1,0.2c-0.9,1.5-2.1,3.1-4,3.3c1.8,0.1,3.3-1.2,4.4-2.5
		c0.1,0.2,0.2,0.5,0.2,0.7c-0.2,0.3-0.3,0.6-0.5,0.8c-1.1,2-3.4,3-5.6,2.4c2.3,0.8,4.8,0,6.3-1.9c0,0,0-0.1,0.1-0.1
		C172.3,219.3,172.3,219.7,172.2,220 M172.2,217.4c-0.1-0.2-0.2-0.3-0.3-0.5l0.2-0.3c0.1-0.1,0.2-0.2,0.2-0.3
		c0.1,0.1,0.1,0.3,0.2,0.4C172.4,217,172.3,217.2,172.2,217.4 M172.8,219.2c0-0.2-0.1-0.5-0.2-0.7c0.1-0.1,0.2-0.2,0.3-0.3
		c0,0.3,0,0.6,0,0.9L172.8,219.2 M172.8,216.1c0-0.1-0.1-0.2-0.1-0.2c0.2-0.3,0.3-0.5,0.5-0.8C173,215.5,172.9,215.8,172.8,216.1
		 M173.4,217.5c0.1-0.2,0.2-0.4,0.3-0.6l0,0.2c-0.1,0.3-0.2,0.5-0.3,0.8C173.4,217.7,173.4,217.6,173.4,217.5 M173.7,219.7
		L173.7,219.7c0-0.1,0.1-0.2,0.1-0.2C173.8,219.6,173.8,219.7,173.7,219.7 M207.6,179.8c2,1.6,4,4.1,4,8.8c0,0.3,0,0.7,0,1
		c0,0,0,0,0,0s0,0.1,0,0.2c0,0.2-0.1,0.4-0.2,0.6c-0.2,0.5-0.5,1-1,1.3c-0.4,0.3-0.9,0.4-1.4,0.4c-1.3-5.3-4.6-6.9-4.6-6.9
		c2.6,4,2.6,7.1,2.5,8.2c-0.2,0.3-0.5,0.4-0.9,0.5c-12.2,3.4-22.4,11.7-28.4,22.9c0.3-3.1-0.8-6.2-3-8.4c-1.6-1.7-3.6-3-5.7-4
		c4.4,1.2,8,5.2,9.3,9.8c-0.7-4.2-3.2-7.9-6.8-10.2c2.5,1.1,4.6,3,6,5.3c-1-2.6-2.8-4.8-5.1-6.3c2.4,1.2,4.4,3.1,5.8,5.4l-0.2,3
		l2.3-2.2c1.8-1.7,2.9-4.1,2.9-6.6c-0.1-2.8-1.2-5.5-3-7.7c-0.7-1-1.5-1.9-2.4-2.7c0,0,0,0,0,0c2.3,1.7,4.1,3.9,5.3,6.4
		c-1-3.2-2.8-6.1-5.3-8.4c0-0.1,0-0.3-0.1-0.4c2.1,1.6,3.9,3.5,5.2,5.8c-1.4-3.5-3.7-6.5-6.8-8.6c-0.1-0.1-0.2-0.2-0.3-0.3
		c0.1-0.1,0.2-0.1,0.2-0.2c2.6,1.2,4.8,3.1,6.5,5.3c-1.3-2.5-3.2-4.8-5.5-6.4c0.1-0.1,0.2-0.2,0.3-0.3c2.1,1.1,4,2.6,5.4,4.5
		c-1-2-2.4-3.8-4.1-5.3c0.4,0.1,0.8,0.2,1.2,0.2c1.8,0.7,3.3,2,4.4,3.5c-0.5-1.4-1.3-2.6-2.3-3.7c0.2,0,0.4-0.1,0.6-0.1
		c1.5,0.9,2.7,2.2,3.5,3.8c-0.3-1.4-0.9-2.8-1.9-4c0.2,0,0.4,0.1,0.6,0.1c1.3,1,2.5,2.2,3.4,3.6c-0.4-1.2-0.9-2.4-1.6-3.5
		c0.2,0,0.3,0,0.5,0c1.1,1,2,2.1,2.7,3.5c-0.2-1.3-0.6-2.6-1.3-3.7c0.1,0,0.3-0.1,0.4-0.1c1.4,0.9,2.5,2.2,3.2,3.7
		c-0.3-1.6-0.9-3-1.9-4.3c0.1,0,0.2-0.1,0.2-0.1c1.6,1.1,2.9,2.6,3.7,4.4c-0.3-1.7-1-3.2-2-4.6c0.2,0,0.3,0,0.5,0
		c1.3,0.9,2.3,2.1,3.2,3.4c-0.3-1.3-0.8-2.5-1.5-3.6c0.1,0,0.3,0,0.4,0c1.8,1,3.4,2.5,4.5,4.3c-0.6-1.7-1.5-3.3-2.8-4.6
		c0.1,0,0.2-0.1,0.3-0.1c2.4,1.4,4.4,3.6,5.5,6.1c-0.7-2.5-2-4.8-3.9-6.7c0.1,0,0.2-0.1,0.3-0.1c1.2,0.4,2.3,1.1,3.3,2
		c-0.5-1-1.2-1.9-2-2.6c0.2-0.1,0.4-0.3,0.6-0.4c2.5,0.5,4.7,1.9,6.1,3.9c-1-2.3-2.8-4.1-5-5.1c0,0,0,0,0-0.1
		c3.9,0.8,7.1,3.6,8.3,7.5c-0.8-4.1-3.7-7.5-7.7-8.9c0-0.1,0.1-0.2,0.1-0.3l1.2,0.2c0,0,0,0,0.1,0c0.1,0,0.2,0,0.2,0.1
		c0.2,0.1,0.5,0.2,0.9,0.3C205.8,178.7,206.7,179.2,207.6,179.8 M205.7,174.4c1.5-1.6,2.9-3.5,3.9-5.5c-1.6,2.1-3.4,3.8-5.6,5.3
		c1.4-1.6,2.5-3.4,3.2-5.4c-1.7,2.8-4.1,5.2-7,6.7c-0.1,0-0.2,0-0.3,0c2.2-1.6,3.9-3.8,4.9-6.2c-1.7,2.9-4.4,5.1-7.7,6.1
		c2.8-1.5,5-4,5.9-7.1c-1.4,3.5-4.6,6-8.4,6.6c5.6-1.2,7.9-8.7,7.9-8.7c1.9,0.6,3.4,1,3.4,1c1.5,0.5,3.1,0.7,4.6,0.7
		c0.5,0,1,0,1.6-0.1c-0.3,0.5-0.7,1.1-1.2,1.7C209.5,171.4,207.7,173.1,205.7,174.4"/>
	<path d="M137.8,154.7c0-1.8-0.4-3.5-1.2-5.1l0-0.1l-4.4-3.6l-0.4-4.5c0-0.5-0.3-1-0.6-1.4c-0.4-0.4-0.9-0.5-1.4-0.5l-5.7,0.3
		l-1.2-0.8l-0.1-0.1l0,0h0c0,0,0,0,0,0s0,0,0,0s0,0,0,0c0,0,0,0,0,0c0,0,0,0,0,0c0,0,0,0,0,0c0,0,0,0,0,0l0,0l0,0h0v0h0c0,0,0,0,0,0
		c0,0,0,0,0,0h0c0,0,0,0,0,0h0c0,0,0,0,0,0h-0.1c0,0-0.1,0-0.1,0c0,0,0,0,0,0h0c0,0,0,0,0,0l0,0h0c0,0,0,0,0,0l0,0h0c0,0,0,0,0,0h0
		l0,0h0c0,0,0,0,0,0c0,0,0,0,0,0v0c0,0,0,0,0,0l0,0l0,0c0,0,0,0,0,0h0l0,0l-0.1,0.1l-1.2,0.9l-5.7-0.4c-0.5,0-1,0.2-1.4,0.5
		c-0.4,0.4-0.6,0.8-0.6,1.4l-0.4,4.5l-4.4,3.6l0,0.1c-0.8,1.6-1.2,3.3-1.2,5.1c0,0.7,0.1,1.5,0.2,2.2c-0.1,0.5-0.2,1-0.2,1.4
		c-0.1,2.3,1.1,4.5,3.2,5.5c0.3,2.7,2.7,4.7,5.4,4.5c1,1.5,2.7,2.4,4.6,2.4c0.8,0,1.6-0.2,2.3-0.5c0.7,0.3,1.5,0.5,2.3,0.5
		c1.8,0,3.5-0.9,4.6-2.4c2.7,0.2,5.1-1.8,5.4-4.5c2.1-1,3.3-3.2,3.2-5.5c0-0.5-0.1-1-0.2-1.4C137.7,156.2,137.8,155.5,137.8,154.7
		 M113.8,141.5L113.8,141.5c0-0.3,0.1-0.5,0.3-0.7c0.2-0.2,0.4-0.3,0.7-0.3l4.4,0.3l-4.7,3.4l-1.1,0.9L113.8,141.5z M108.8,150.2
		l4.4-3.7l1.9-1.6l4.1-3l-11.5,13.7c0-0.3-0.1-0.7,0-1C107.8,153.1,108.2,151.6,108.8,150.2 M107.8,158.3c0-0.4,0-0.8,0.1-1.2v0
		l12.1-14.4l-9.7,20.1C108.7,161.9,107.7,160.2,107.8,158.3 M115.3,167.3c-1,0.1-2-0.3-2.8-0.9c-0.9-0.7-1.4-1.7-1.5-2.8l9.8-20.2
		L115.3,167.3z M121.8,169.4c-0.5,0.3-1.2,0.4-1.8,0.4c-1.5,0-3-0.8-3.8-2.1l5.5-24L121.8,169.4z M129.7,140.5
		c0.3,0,0.5,0.1,0.7,0.3c0.2,0.2,0.3,0.4,0.3,0.7l0.3,3.5l-1-0.8l-4.7-3.4L129.7,140.5z M124.5,169.7c-0.6,0-1.2-0.1-1.8-0.4v-25.7
		l5.5,24C127.5,169,126.1,169.8,124.5,169.7 M132.1,166.4c-0.8,0.7-1.8,1-2.8,0.9l-5.5-23.8l9.8,20.2
		C133.5,164.7,132.9,165.8,132.1,166.4 M134.2,162.8l-9.7-20.1l12.1,14.4v0c0.1,0.4,0.1,0.8,0.1,1.2
		C136.8,160.2,135.9,161.9,134.2,162.8 M136.7,155.7L125.2,142l4.1,3l1.9,1.6l4.4,3.7c0.7,1.4,1.1,3,1.1,4.5
		C136.8,155,136.7,155.4,136.7,155.7"/>
	<path d="M118.1,81.5c0-1.8-0.4-3.5-1.2-5.1l0-0.1l-4.4-3.6l-0.4-4.5c-0.1-1.1-1-1.9-2.1-1.9l-5.7,0.3l-1.2-0.9l-0.1-0.1l0,0
		c0,0,0.1,0.1,0,0l0,0c0,0,0,0,0,0c0,0,0,0,0,0h0v0h0l0,0h0c0,0,0,0,0,0h0v0h0v0h0c0,0,0,0,0,0l0,0c0,0,0,0,0,0c0,0,0,0,0,0h0
		c0,0,0,0,0,0h0c0,0,0,0,0,0c0,0,0,0,0,0h-0.1c0,0,0,0,0,0c0,0,0,0,0,0h0v0c0,0,0,0,0,0h0v0h0v0c0,0,0,0,0,0l0,0l0,0c0,0,0,0,0,0
		c0,0,0,0,0,0c0,0,0,0,0,0c0,0,0,0,0,0l-0.1,0.1l-1.2,0.9l-5.7-0.3h-0.1c-1.1,0-1.9,0.8-2,1.9l-0.4,4.5l-4.4,3.6l0,0.1
		c-0.8,1.6-1.2,3.3-1.2,5.1c0,0.7,0.1,1.4,0.2,2.2c-0.1,0.5-0.2,1-0.2,1.4c-0.1,2.3,1.1,4.5,3.2,5.5c0.1,1.3,0.8,2.5,1.8,3.3
		c1,0.8,2.3,1.2,3.6,1.1c1,1.5,2.7,2.4,4.6,2.4c0.8,0,1.6-0.2,2.3-0.5c0.7,0.3,1.5,0.5,2.3,0.5c1.8,0,3.5-0.9,4.6-2.4
		c1.3,0.1,2.6-0.3,3.6-1.1c1-0.8,1.7-2,1.8-3.3c2.1-1.1,3.3-3.2,3.2-5.5c0-0.5-0.1-1-0.2-1.4C118,82.9,118.1,82.2,118.1,81.5
		 M94.1,68.2L94.1,68.2c0-0.6,0.5-1,1-1l4.4,0.3l-4.7,3.4l-1.1,0.9L94.1,68.2z M89.1,76.9l4.4-3.7l1.9-1.6l4.1-2.9L88.1,82.4
		c0-0.3-0.1-0.7,0-1C88.1,79.9,88.4,78.3,89.1,76.9 M88.1,85.1c0-0.4,0-0.8,0.1-1.2l12.1-14.4l-9.7,20.1C89,88.7,88,86.9,88.1,85.1
		 M95.6,94.1c-1,0.1-2-0.3-2.8-0.9c-0.9-0.7-1.4-1.7-1.4-2.8l9.8-20.1L95.6,94.1z M102.1,96.1c-0.6,0.3-1.2,0.4-1.8,0.4
		c-1.5,0-2.9-0.8-3.8-2l5.5-24L102.1,96.1z M110,67.2c0.5,0,1,0.4,1,0.9l0.3,3.5l-1-0.8l-4.7-3.4L110,67.2z M104.8,96.5
		c-0.6,0-1.2-0.1-1.8-0.4V70.4l5.5,24C107.8,95.7,106.3,96.5,104.8,96.5 M112.4,93.2c-0.8,0.7-1.8,1-2.8,0.9l-5.5-23.9l9.8,20.1
		C113.8,91.5,113.2,92.5,112.4,93.2 M114.5,89.6l-9.7-20.1l12.1,14.4c0.1,0.4,0.1,0.8,0.1,1.2C117.1,86.9,116.2,88.7,114.5,89.6
		 M117,82.4l-11.4-13.7l4.1,2.9l1.9,1.6l4.4,3.7c0.7,1.4,1.1,3,1.1,4.5C117.1,81.8,117,82.1,117,82.4"/>
	<path d="M157.5,81.5c0-1.8-0.4-3.5-1.2-5.1l0-0.1l-4.4-3.6l-0.4-4.5c-0.1-1.1-1-1.9-2.1-1.9l-5.7,0.3l-1.2-0.9l-0.1-0.1
		c0,0,0,0,0,0l0,0l0,0c0,0,0,0,0,0c0,0,0,0,0,0h0v0h0c0,0,0,0,0,0h0c0,0,0,0,0,0h0v0h0v0h0c0,0,0,0,0,0c0,0,0,0,0,0c0,0,0,0,0,0h0
		c0,0,0,0,0,0h0c0,0,0,0,0,0h-0.1c0,0,0,0,0,0h0v0c0,0,0,0,0,0h0c0,0,0,0,0,0h0v0c0,0,0,0,0,0l0,0l0,0c0,0,0,0,0,0c0,0,0,0,0,0
		c0,0,0,0,0,0c0,0,0,0,0,0l-0.1,0.1l-1.2,0.9l-5.7-0.3h-0.1c-1.1,0-2,0.8-2,1.9l-0.4,4.5l-4.4,3.6l0,0.1c-0.8,1.6-1.2,3.3-1.2,5.1
		c0,0.7,0.1,1.4,0.2,2.2c-0.1,0.5-0.2,1-0.2,1.4c-0.1,2.3,1.1,4.5,3.2,5.5c0.1,1.3,0.8,2.5,1.8,3.3c1,0.8,2.3,1.2,3.6,1.1
		c1,1.5,2.7,2.4,4.6,2.4c0.8,0,1.6-0.2,2.3-0.5c0.7,0.3,1.5,0.5,2.3,0.5c1.8,0,3.5-0.9,4.6-2.4c1.3,0.1,2.6-0.3,3.6-1.1
		c1-0.8,1.7-2,1.8-3.3c2.1-1.1,3.3-3.2,3.2-5.5c0-0.5-0.1-1-0.2-1.4C157.4,82.9,157.5,82.2,157.5,81.5 M133.5,68.2L133.5,68.2
		c0-0.6,0.5-1,1-1l4.4,0.3l-4.7,3.4l-1.1,0.9L133.5,68.2z M128.6,76.9l6.3-5.3l4.1-2.9l-11.5,13.7c0-0.3-0.1-0.6,0-1
		C127.5,79.9,127.9,78.3,128.6,76.9 M127.5,85.1c0-0.4,0-0.8,0.1-1.2l12.1-14.4L130,89.6C128.4,88.7,127.4,86.9,127.5,85.1
		 M135,94.1c-1,0.1-2-0.3-2.8-0.9c-0.9-0.7-1.4-1.7-1.5-2.8v0l9.8-20.1L135,94.1z M141.5,96.1c-0.6,0.3-1.2,0.4-1.8,0.4
		c-1.5,0-3-0.8-3.8-2l5.5-24V96.1z M149.4,67.2c0.5,0,1,0.4,1,0.9l0.3,3.5l-1-0.8l-4.7-3.4L149.4,67.2z M144.2,96.5
		c-0.6,0-1.2-0.1-1.8-0.4V70.4l5.5,24C147.2,95.7,145.8,96.5,144.2,96.5 M153.2,90.4c-0.1,1.1-0.6,2.1-1.5,2.8
		c-0.8,0.7-1.8,1-2.8,0.9l-5.5-23.9L153.2,90.4L153.2,90.4z M154,89.6l-9.7-20.1l12.1,14.4c0.1,0.4,0.1,0.8,0.1,1.2
		C156.5,86.9,155.6,88.7,154,89.6 M156.4,82.4L145,68.7l4.1,2.9l1.9,1.6c0,0,0,0,0,0l4.4,3.6c0.7,1.4,1.1,3,1.1,4.5
		C156.5,81.8,156.4,82.1,156.4,82.4"/>
	<path d="M157.5,119.8c0-1.8-0.4-3.5-1.2-5.1l0-0.1l-4.4-3.6l-0.4-4.5c0-0.5-0.3-1-0.6-1.4c-0.4-0.4-0.9-0.5-1.4-0.5l-5.7,0.3
		l-1.2-0.9l-0.1-0.1l0,0v0c0,0,0,0,0,0s0,0,0,0c0,0,0,0,0,0c0,0,0,0,0,0c0,0,0,0,0,0c0,0,0,0,0,0v0h0l0,0h0v0h0c0,0,0,0-0.1,0
		c0,0,0,0,0,0c0,0,0,0,0,0c0,0,0,0,0,0H142c0,0,0,0,0,0h-0.1c0,0,0,0,0,0h0v0h0c0,0,0,0,0,0c0,0,0,0,0,0h0v0h0v0c0,0,0,0,0,0l0,0h0
		v0c0,0,0,0,0,0l0,0c0,0,0,0,0,0h0v0c0,0,0,0,0,0l-0.1,0.1l-1.2,0.9l-5.7-0.3c-1.1,0-2,0.8-2.1,1.9l-0.4,4.5l-4.4,3.6l0,0.1
		c-1.2,2.2-1.5,4.8-1,7.3c-0.1,0.5-0.2,1-0.2,1.4c-0.1,2.3,1.1,4.5,3.2,5.5c0.3,2.7,2.7,4.7,5.4,4.5c1,1.5,2.7,2.4,4.6,2.4
		c0.8,0,1.6-0.2,2.3-0.5c0.7,0.3,1.5,0.5,2.3,0.5c1.8,0,3.5-0.9,4.6-2.4c1.3,0.1,2.6-0.3,3.6-1.1c1-0.8,1.7-2,1.8-3.3
		c2.1-1.1,3.3-3.2,3.2-5.5c0-0.5-0.1-1-0.2-1.4C157.4,121.3,157.5,120.6,157.5,119.8 M133.5,106.6L133.5,106.6c0-0.6,0.5-1,1-1
		l4.4,0.3l-4.7,3.4l-1.1,0.9L133.5,106.6z M128.6,115.3l4.4-3.7l1.9-1.6l4.1-2.9l-11.5,13.7c0-0.3-0.1-0.6,0-1
		C127.5,118.3,127.9,116.7,128.6,115.3 M127.5,123.5c0-0.4,0-0.8,0.1-1.2l12.1-14.4L130,128C128.4,127.1,127.4,125.3,127.5,123.5
		 M135,132.5c-1,0.1-2-0.2-2.8-0.9c-0.9-0.7-1.4-1.7-1.5-2.8l9.8-20.2L135,132.5z M141.5,134.5c-0.6,0.3-1.2,0.4-1.8,0.4
		c-1.5,0-3-0.8-3.8-2l5.5-24V134.5z M149.4,105.6c0.5,0,1,0.4,1,1l0.3,3.5l-1-0.8l-4.7-3.4L149.4,105.6z M144.2,134.9
		c-0.6,0-1.2-0.1-1.8-0.4v-25.7l5.5,24C147.2,134.1,145.8,134.9,144.2,134.9 M151.8,131.5c-0.8,0.7-1.8,1-2.8,0.9l-5.5-23.9
		l9.8,20.2C153.2,129.8,152.6,130.9,151.8,131.5 M154,128l-9.7-20.1l12.1,14.4c0.1,0.4,0.1,0.8,0.1,1.2
		C156.5,125.3,155.6,127,154,128 M156.4,120.8L145,107.1l4.1,2.9l1.9,1.6c0,0,0,0,0,0l4.4,3.6c0.7,1.4,1.1,3,1.1,4.5
		C156.5,120.2,156.4,120.5,156.4,120.8"/>
	<path d="M118.1,119.8c0-1.8-0.4-3.5-1.2-5.1l0-0.1l-4.4-3.6l-0.4-4.5c-0.1-1.1-1-1.9-2.1-1.9l-5.7,0.3l-1.2-0.8L103,104h0
		c0,0,0,0,0,0c0,0,0,0,0,0c0,0,0,0,0,0c0,0,0,0,0,0c0,0,0,0,0,0c0,0,0,0,0,0l0,0c0,0,0,0,0,0h0v0h0v0c0,0,0,0,0,0l0,0h0v0h0
		c0,0,0,0,0,0l0,0h0c0,0,0,0,0,0c0,0,0,0,0,0c0,0,0,0,0,0c0,0,0,0,0,0h-0.1c0,0,0,0,0,0h0c0,0,0,0,0,0h0v0h0c0,0,0,0,0,0l0,0h0
		c0,0,0,0,0,0h0v0h0v0c0,0,0,0,0,0l0,0h0v0c0,0,0,0,0,0l0,0l0,0c0,0,0,0,0,0l0,0c0,0,0,0,0,0c0,0,0,0,0,0l-0.1,0.1l-1.2,0.9
		l-5.7-0.3h-0.1c-1.1,0-1.9,0.8-2,1.9l-0.4,4.5l-4.4,3.6l0,0.1c-1.2,2.2-1.5,4.8-1,7.3c-0.1,0.5-0.2,1-0.2,1.4
		c-0.1,2.3,1.1,4.5,3.2,5.5c0.3,2.7,2.7,4.7,5.4,4.5c1,1.5,2.7,2.4,4.6,2.4c0.8,0,1.6-0.2,2.3-0.5c0.7,0.4,1.5,0.5,2.3,0.5
		c1.8,0,3.5-0.9,4.6-2.4c1.3,0.1,2.6-0.3,3.6-1.1c1.1-0.8,1.7-2,1.8-3.3c2.1-1,3.3-3.2,3.2-5.5c0-0.5-0.1-1-0.2-1.4
		C118,121.2,118,120.5,118.1,119.8 M94.1,106.5L94.1,106.5c0-0.6,0.5-1,1-1c0,0,0,0,0,0l4.4,0.3l-4.7,3.4l-1.1,0.9L94.1,106.5z
		 M89.1,115.3l4.4-3.7l1.9-1.6l4.1-3l-11.5,13.7c0-0.3-0.1-0.7,0-1C88.1,118.2,88.4,116.7,89.1,115.3 M88.1,123.4
		c0-0.4,0-0.8,0.1-1.2v0l12.1-14.4l-9.7,20.1C89,127,88,125.3,88.1,123.4 M95.6,132.4c-1,0.1-2-0.3-2.8-0.9
		c-0.9-0.7-1.4-1.7-1.5-2.8l9.8-20.2L95.6,132.4z M102.1,134.4c-0.5,0.3-1.2,0.4-1.8,0.4c-1.5,0-3-0.8-3.8-2.1l5.5-24L102.1,134.4z
		 M110,105.6c0.5,0,1,0.4,1,0.9c0,0,0,0,0,0l0.3,3.5l-1-0.8l-4.7-3.4L110,105.6z M104.8,134.8c-0.6,0-1.2-0.1-1.8-0.4v-25.7l5.5,24
		C107.8,134,106.4,134.8,104.8,134.8 M112.4,131.5c-0.8,0.7-1.8,1-2.8,0.9l-5.5-23.9l9.8,20.2C113.8,129.8,113.2,130.8,112.4,131.5
		 M114.5,127.9l-9.7-20.1l12.1,14.4c0.1,0.4,0.1,0.8,0.1,1.2C117.1,125.2,116.2,127,114.5,127.9 M117,120.8l-11.5-13.7l4.1,3
		l1.9,1.6l4.4,3.7c0.7,1.4,1.1,3,1.1,4.5C117.1,120.1,117,120.4,117,120.8"/>
	<path d="M7.3,266.4c-2.3,0-4.7-1.8-4.7-6.3c0-4.6,1.9-6.7,4.2-6.7c2.1,0,3.4,1.5,4.5,4.2h0.2V253h-0.2l-0.8,0.9
		c-1.1-0.5-2.3-0.8-3.5-0.8c-3.8,0-7,3-7,6.9c0,0.1,0,0.2,0,0.3c0,4.2,2.6,6.8,6.6,6.8c2.5,0,4.7-1.5,5.6-3.8l-0.3-0.2
		C11.1,265.1,9.3,266.4,7.3,266.4"/>
	<path d="M25.4,264.7L21.1,253h-0.8l-4.1,10.4c-0.8,2.1-1.5,2.8-2.8,3.2v0.3h4.5v-0.2c-1.8-0.3-2.1-0.9-1.2-3.2l0.7-1.7h4.5l1.2,3.3
		c0.4,1.1,0.1,1.5-1.7,1.6v0.3h6.3v-0.3C26.2,266.3,25.9,266,25.4,264.7 M17.5,261.3l2.2-5.7h0.1l2,5.7H17.5z"/>
	<path d="M35.2,258.9c-2.2-0.7-3.5-1.3-3.5-3c0-1.3,1-2.4,2.3-2.4c0.1,0,0.1,0,0.2,0c1.6,0,2.8,1.3,3.9,3.8h0.3V253h-0.2l-0.7,0.8
		c-0.9-0.4-1.9-0.6-2.9-0.7c-2.6,0-4.5,1.6-4.5,4.1c0,2.5,2,3.1,3.9,3.8c2.4,0.8,3.5,1.5,3.5,3.2c0,1.4-1.2,2.5-2.6,2.5
		c-0.1,0-0.1,0-0.2,0c-2.1,0-3.4-1.8-4.6-4.4h-0.3v4.8H30l1.2-0.9c1,0.5,2.1,0.8,3.2,0.9c2.3,0.2,4.4-1.5,4.6-3.8c0-0.2,0-0.4,0-0.6
		C39,260.2,37,259.5,35.2,258.9"/>
	<path d="M41.7,253.4l-0.1,4.2l0.3,0c1.2-2.5,2.4-3.8,3.9-3.8h0.7v11.5c0,0.8-0.6,1.2-2.3,1.3v0.3H51v-0.3c-1.7-0.1-2.3-0.5-2.3-1.3
		v-11.5h0.8c1.5,0,2.7,1.4,3.9,3.8l0.3,0l-0.1-4.2L41.7,253.4z"/>
	<path d="M63.1,266.4h-2.3V260h1c1.6,0,2.4,0.6,3,2.6h0.3V257h-0.3c-0.5,2-1.4,2.6-3,2.6h-1v-5.9h2.3c2.3,0,3.2,1.3,4.3,4l0.3,0
		l-0.1-4.3H56.5v0.2c1.7,0.1,2.1,0.5,2.1,1.3v10.4c0,0.8-0.4,1.2-2.1,1.3v0.3h11.7l0.1-4.6l-0.3,0C66.8,265.2,65.8,266.4,63.1,266.4
		"/>
	<path d="M77.2,266.4h-1.5v-11.5c0-0.8,0.2-1.2,2-1.3v-0.2h-6.3v0.2c1.7,0.1,2.1,0.5,2.1,1.3v10.4c0,0.8-0.4,1.2-2.1,1.3v0.3h11
		l0.2-4.5l-0.3,0C81,265.5,79.9,266.4,77.2,266.4"/>
	<path d="M90.9,266.4h-1.5v-11.5c0-0.8,0.2-1.2,2-1.3v-0.2h-6.3v0.2c1.7,0.1,2.1,0.5,2.1,1.3v10.4c0,0.8-0.4,1.2-2.1,1.3v0.3h11
		l0.2-4.5l-0.3,0C94.7,265.5,93.6,266.4,90.9,266.4"/>
	<path d="M105.6,253.1c-3.5,0-6.5,2.8-6.5,7.1c0,4.3,3,7,6.5,7c3.4,0,6.5-2.8,6.5-7.1C112.1,255.8,109.2,253.1,105.6,253.1
		 M105.7,266.8c-2.4,0-4-1.6-4-6.7c0-5,1.5-6.7,3.9-6.7c2.4,0,4.1,1.6,4.1,6.7C109.6,265.1,108.1,266.8,105.7,266.8"/>
	<path d="M126.3,253.4h-6v0.2c1.7,0.1,2.1,0.5,2.1,1.3v10.4c0,0.8-0.4,1.2-2.1,1.3v0.3h6.3c4.9,0,7-3.4,7-6.9
		C133.6,256.2,131.1,253.4,126.3,253.4 M125.9,266.4h-1.3v-12.7h1.3c3.4,0,5,1.2,5,6.3C131,265,129.8,266.4,125.9,266.4"/>
	<path d="M136.7,253.6c1.8,0.1,2.2,0.5,2.2,1.3v10.4c0,0.8-0.4,1.2-2.2,1.3v0.3h6.5v-0.3c-1.7-0.1-2.2-0.5-2.2-1.3v-10.4
		c0-0.8,0.4-1.2,2.2-1.3v-0.2h-6.5V253.6z"/>
	<path d="M157.1,253.4h-5.7v0.2c1.7,0.1,2.1,0.5,2.1,1.3v10.4c0,0.8-0.4,1.2-2.1,1.3v0.3h6.6v-0.3c-1.8-0.1-2.2-0.4-2.2-1.3v-4.4
		h1.3c4.3,0,5.7-1.9,5.7-3.8C162.6,255,161.3,253.4,157.1,253.4 M157,260.5h-1.3v-6.8h1.4c2.5,0,3.1,1.4,3.1,3.3
		C160.2,259.3,159.6,260.5,157,260.5"/>
	<path d="M175.2,264.7l-4.3-11.7h-0.8l-4.1,10.4c-0.8,2.1-1.5,2.8-2.8,3.2v0.3h4.5v-0.2c-1.8-0.3-2.1-0.9-1.2-3.2l0.7-1.7h4.5
		l1.2,3.3c0.4,1.1,0.1,1.5-1.7,1.6v0.3h6.3v-0.3C176,266.3,175.7,266,175.2,264.7 M167.3,261.3l2.2-5.7h0.1l2,5.7H167.3z"/>
	<path d="M185,258.9c-2.2-0.7-3.5-1.3-3.5-3c0-1.3,1-2.4,2.3-2.4c0.1,0,0.1,0,0.2,0c1.6,0,2.8,1.3,3.9,3.8h0.3V253h-0.2l-0.7,0.8
		c-0.9-0.4-1.9-0.6-2.9-0.7c-2.6,0-4.5,1.6-4.5,4.1c0,2.5,2,3.1,3.9,3.8c2.4,0.8,3.5,1.5,3.5,3.2c0,1.4-1.2,2.5-2.6,2.5
		c-0.1,0-0.1,0-0.2,0c-2.1,0-3.4-1.8-4.6-4.4h-0.3v4.8h0.2l1.1-0.9c1,0.5,2.1,0.8,3.2,0.9c2.3,0.2,4.4-1.5,4.6-3.8
		c0-0.2,0-0.4,0-0.6C188.8,260.2,186.9,259.5,185,258.9"/>
	<path d="M191.5,253.4l-0.1,4.2l0.3,0c1.2-2.5,2.4-3.8,3.9-3.8h0.8v11.5c0,0.8-0.6,1.2-2.3,1.3v0.3h6.8v-0.3
		c-1.7-0.1-2.3-0.5-2.3-1.3v-11.5h0.8c1.5,0,2.7,1.4,3.9,3.8l0.3,0l-0.1-4.2L191.5,253.4z"/>
	<path d="M206.4,253.6c1.8,0.1,2.2,0.5,2.2,1.3v10.4c0,0.8-0.4,1.2-2.2,1.3v0.3h6.5v-0.3c-1.7-0.1-2.2-0.5-2.2-1.3v-10.4
		c0-0.8,0.4-1.2,2.2-1.3v-0.2h-6.5V253.6z"/>
	<path d="M225.1,253.6c1.9,0.3,2.6,1.1,2.6,3v7h0l-7.6-10.2h-4.1v0.2c1.2-0.1,2.2,0.8,2.3,1.9c0,0.1,0,0.2,0,0.3v7.7
		c0,1.9-0.5,2.7-2.4,3v0.3h5.3v-0.3c-2-0.3-2.5-1.1-2.5-3v-8h0l8.8,11.5h0.6v-10.5c0-1.9,0.4-2.7,2.2-3v-0.2h-5.3L225.1,253.6z"/>
	<path d="M244.3,262.2c-1.2,2.9-2.2,4.2-4.9,4.2h-2.3V260h1c1.6,0,2.4,0.6,3,2.6h0.2V257h-0.2c-0.5,2-1.4,2.6-3,2.6h-1v-5.9h2.3
		c2.3,0,3.2,1.3,4.3,4l0.3,0l-0.1-4.3h-11.2v0.2c1.7,0.1,2.1,0.5,2.1,1.3v10.4c0,0.8-0.4,1.2-2.1,1.3v0.3h11.7l0.1-4.6L244.3,262.2z
		"/>
</g>
</svg>
