<svg xmlns="http://www.w3.org/2000/svg" xmlns:xlink="http://www.w3.org/1999/xlink" width="244.54" height="267.157" viewBox="0 0 244.54 267.157"><defs><clipPath id="a"><rect width="244.54" height="267.157" fill="#fff"/></clipPath></defs><g clip-path="url(#a)"><path d="M162.887,58.205a1.39,1.39,0,0,0-.241-.181,99,99,0,0,0-46.776-12.142h-.157a99.073,99.073,0,0,0-33.283,6.022,81.915,81.915,0,0,0-13.491,6.12,2.521,2.521,0,0,0-.242.169.508.508,0,0,0-.193.4v7.566c0,18.287.108,33.754.337,46.04s.567,21.406,1,27.02c1.181,14.516,16.7,25.273,16.877,25.418l.048.036.024.012,28.694,20.394a.553.553,0,0,0,.289.1h.024a.562.562,0,0,0,.3-.1l28.682-20.382.048-.036.024-.024a52.826,52.826,0,0,0,8.071-7.324c4.06-4.518,8.228-10.831,8.818-18.094.445-5.614.771-14.733,1-27.02s.337-27.753.337-46.04V58.591a.468.468,0,0,0-.193-.385m-.819,7.951c0,18.287-.12,33.742-.337,46.028s-.554,21.382-.988,26.948c-1.048,13.829-16.334,24.611-16.454,24.671l-.036.024-.048.036-28.418,20.189-28.4-20.189-.024-.012-.06-.048a50.753,50.753,0,0,1-7.891-7.168c-3.962-4.433-8.046-10.589-8.565-17.5-.433-5.566-.759-14.672-.987-26.948s-.337-27.741-.337-46.028v-7.3a98.014,98.014,0,0,1,46.2-11.962h.169a97.982,97.982,0,0,1,46.186,11.962Z" transform="translate(6.477 4.338)" fill="#fff"/><path d="M212.977,166.695l.867-2.06-2.18.447a18.183,18.183,0,0,1-3.542.361,16.087,16.087,0,0,1-2.048-.132,13.884,13.884,0,0,0,2.771-8.457,18.365,18.365,0,0,0-1.386-6.83,20.875,20.875,0,0,0,.674-5.012,11.841,11.841,0,0,0-2.53-7.673,12.393,12.393,0,0,0-5.312-3.686c-.651-.229-1.229-.47-1.747-.686a8.789,8.789,0,0,0,3.348-1.7l1.578-1.409-2.024-.6a7.018,7.018,0,0,1-3.348-2.879,10.69,10.69,0,0,1-1.807-5.855c0-.445-.012-.88-.048-1.276a12.189,12.189,0,0,0,8.408,3.59,11.344,11.344,0,0,0,5.926-1.675l2.241-1.531-2.65-.59a4.423,4.423,0,0,1-3.023-2.42,15.858,15.858,0,0,1-1.53-6.133,10.938,10.938,0,0,0-2.939-6.612,12.385,12.385,0,0,0-1.049-.964c4.349-3.457,5.421-7.372,5.4-10.023a9.327,9.327,0,0,0-.567-3.349l-.506-1.192-1.144.615a15.128,15.128,0,0,1-7.12,2.12,7.467,7.467,0,0,1-4.24-1.205,6.725,6.725,0,0,1-1.011-.831,12.556,12.556,0,0,0,1.687-6.264,14.941,14.941,0,0,0-2.578-8.023,14.843,14.843,0,0,0,6.263,1.192,10.726,10.726,0,0,0,6.638-2.685,9.2,9.2,0,0,0,3.445-6.9,10.187,10.187,0,0,0-2.662-6.542,14.208,14.208,0,0,0-2.578-2.361C191.691,48.8,185.174,32.85,183.331,27.285c-1.771-5.4-4.819-6.964-5.674-7.275a5.416,5.416,0,0,0-.771-.458,7.024,7.024,0,0,0-3.024-.687c-3.625.023-7.179,2.59-9.119,6.542a12.717,12.717,0,0,0-1.326,5.553c0,3.168,1.362,6.144,4.06,7.554-.518.192-1.1.4-1.759.6a52.461,52.461,0,0,1-15.84,2.121,22.959,22.959,0,0,1-12.42-3.891c-.746-.482-1.421-.963-2.036-1.447l.132-.193a10.2,10.2,0,0,0,1.879-3.939c.06.134.132.278.2.41,1.326,2.325,3.9,3.348,6.288,3.927a27.467,27.467,0,0,0,5.9.627c.433,0,.7-.013.71-.013s3.458-.1,4.481-2.192a10.188,10.188,0,0,1-4.167-.1,3.622,3.622,0,0,1-1.988-2.095,9.716,9.716,0,0,1-.808-4,11.078,11.078,0,0,1,.072-1.288,8.535,8.535,0,0,0,.1-1.338,17.847,17.847,0,0,0-1.553-6.661,7.567,7.567,0,0,0-1.121-2.072,5.344,5.344,0,0,0,.12-3.723c-1.312-3.963-3.384-6.347-5.5-7.662A10.433,10.433,0,0,0,134.82,4a5.951,5.951,0,0,1,.976-2.011L137.7,0h-2.758a12.02,12.02,0,0,0-8.926,3.926,23.754,23.754,0,0,0-4.818,8.252,44.731,44.731,0,0,0-1.374,4.589,44.546,44.546,0,0,0-1.362-4.589,23.753,23.753,0,0,0-4.818-8.252A12.02,12.02,0,0,0,104.717,0h-2.758l1.9,1.987A5.961,5.961,0,0,1,104.837,4a10.4,10.4,0,0,0-5.348,1.59c-2.12,1.315-4.192,3.7-5.506,7.662a5.344,5.344,0,0,0,.12,3.723,7.536,7.536,0,0,0-1.12,2.072,17.817,17.817,0,0,0-1.554,6.661,8.534,8.534,0,0,0,.1,1.338,11.08,11.08,0,0,1,.072,1.288,9.715,9.715,0,0,1-.808,4A3.624,3.624,0,0,1,88.8,34.428a10.193,10.193,0,0,1-4.168.1c1.023,2.1,4.481,2.192,4.481,2.192s.265.013.71.013a27.46,27.46,0,0,0,5.9-.627c2.385-.579,4.963-1.6,6.276-3.927a3.3,3.3,0,0,0,.217-.41A10.2,10.2,0,0,0,104.1,35.7l.132.193c-.614.484-1.289.965-2.036,1.447a22.959,22.959,0,0,1-12.42,3.891,52.461,52.461,0,0,1-15.84-2.121c-.663-.2-1.241-.409-1.759-.6,2.7-1.41,4.06-4.386,4.06-7.554a12.7,12.7,0,0,0-1.326-5.553c-1.94-3.952-5.492-6.519-9.119-6.542a7.024,7.024,0,0,0-3.024.687,6.33,6.33,0,0,0-.783.458c-.843.312-3.891,1.878-5.662,7.275C54.485,32.85,47.968,48.8,36.993,57.461a14.762,14.762,0,0,0-2.566,2.361,10.187,10.187,0,0,0-2.662,6.542,9.194,9.194,0,0,0,3.446,6.9,10.72,10.72,0,0,0,6.637,2.685,14.845,14.845,0,0,0,6.264-1.192,14.932,14.932,0,0,0-2.579,8.023,12.556,12.556,0,0,0,1.687,6.264,6.724,6.724,0,0,1-1.011.831,7.467,7.467,0,0,1-4.24,1.205,15.128,15.128,0,0,1-7.12-2.12L33.7,88.347,33.2,89.539a9.355,9.355,0,0,0-.567,3.349c-.024,2.651,1.049,6.566,5.4,10.023a12.556,12.556,0,0,0-1.049.964,10.938,10.938,0,0,0-2.939,6.612,15.859,15.859,0,0,1-1.53,6.133,4.421,4.421,0,0,1-3.023,2.42l-2.65.59,2.241,1.531A11.344,11.344,0,0,0,35,122.836a12.187,12.187,0,0,0,8.408-3.59c-.036.4-.048.831-.048,1.276a10.7,10.7,0,0,1-1.806,5.855,7.025,7.025,0,0,1-3.349,2.879l-2.036.6,1.59,1.409a8.789,8.789,0,0,0,3.348,1.7c-.518.217-1.1.458-1.747.686a12.322,12.322,0,0,0-5.312,3.686,11.841,11.841,0,0,0-2.53,7.673,20.875,20.875,0,0,0,.674,5.012,18.371,18.371,0,0,0-1.385,6.83,13.8,13.8,0,0,0,2.77,8.457,16.073,16.073,0,0,1-2.048.132,18.183,18.183,0,0,1-3.542-.361l-2.18-.447.868,2.06a23.624,23.624,0,0,0,8.745,9.855,12.954,12.954,0,0,0-2.325,1.433,12.812,12.812,0,0,0-4.916,10.637c0,.373.012.746.036,1.144a5.646,5.646,0,0,0,.711,2.325,4.639,4.639,0,0,0,1.565,1.675,5.322,5.322,0,0,0,2.639.746.63.63,0,0,1,.06.1,3.623,3.623,0,0,0,2.277,1.625,44.123,44.123,0,0,1,28.658,25.273,8.054,8.054,0,0,0,1.9,3.023,10.488,10.488,0,0,0,7.83,2.988h.048a19.087,19.087,0,0,0,2.12-.132,11.354,11.354,0,0,0,4.481-1.735,12.031,12.031,0,0,0,5.3-9.119,9.372,9.372,0,0,0,.048-.952,12.81,12.81,0,0,0-.7-4.18,9.807,9.807,0,0,0-1.928-3.312c.686-.229,1.506-.507,2.421-.856a8.736,8.736,0,0,0,3.482.736c2.265.012,4.939-.952,7.661-3.614-.012.144-.012.289-.012.421.012,2.928,1.7,5.722,4.192,7.83a14.845,14.845,0,0,0,9.481,3.553h.024a9.024,9.024,0,0,0,1.711-.253,11.02,11.02,0,0,0,3.6-1.553,10.852,10.852,0,0,0,4.024-5.036,10.95,10.95,0,0,0,4.036,5.036,10.7,10.7,0,0,0,5.312,1.806h.012a14.853,14.853,0,0,0,9.493-3.553c2.493-2.108,4.18-4.9,4.192-7.83,0-.132,0-.277-.012-.421,2.722,2.662,5.4,3.626,7.661,3.614A8.731,8.731,0,0,0,154,207.23c.9.349,1.735.627,2.421.856a9.808,9.808,0,0,0-1.927,3.312,12.81,12.81,0,0,0-.7,4.18,6.476,6.476,0,0,0,.048.952,12.031,12.031,0,0,0,5.3,9.119,11.35,11.35,0,0,0,4.482,1.735,19.055,19.055,0,0,0,2.12.132h.047a10.488,10.488,0,0,0,7.83-2.988,8.054,8.054,0,0,0,1.9-3.023,44.126,44.126,0,0,1,28.658-25.273,3.623,3.623,0,0,0,2.277-1.625.862.862,0,0,1,.06-.1,5.322,5.322,0,0,0,2.639-.746,4.639,4.639,0,0,0,1.565-1.675,5.645,5.645,0,0,0,.711-2.325c.024-.4.036-.771.036-1.144a12.815,12.815,0,0,0-4.915-10.637,13,13,0,0,0-2.326-1.433,23.641,23.641,0,0,0,8.747-9.855m-6.493-9.841a11.338,11.338,0,0,1-3.2,8.107.118.118,0,0,0-.06-.011,14.568,14.568,0,0,0,2.325-10.578c.048,3.794-1.338,7.733-3.927,10.082-.012-.012-.036-.012-.048-.023,1.133-1.566,5.542-8.434,1.6-16.359a26.949,26.949,0,0,1,1.8,2.168l.193.4.048.1c.036.071.084.192.144.349.12.3.289.757.458,1.312a15.864,15.864,0,0,1,.675,4.457m-7.012-20.985a9.923,9.923,0,0,1,4.313,2.963,9.394,9.394,0,0,1,1.988,6.18,16.7,16.7,0,0,1-.289,3.036c-2.843-2.82-5.421-2.71-5.421-2.71a15.3,15.3,0,0,1,2.494,2.095c.783,2.8,2.53,11.1-2.325,16.408a5.427,5.427,0,0,1-1.374-.915c-2.674,11.84-10.565,11.166-12.841,10.708a21.425,21.425,0,0,1-2.289-1.265,19.178,19.178,0,0,1-3.193-2.59c4.421-1.542,7.313-3.59,9.132-5.843a11.708,11.708,0,0,0,2.674-7.5,13.611,13.611,0,0,0-.94-4.952c.206-.2.4-.421.591-.637,1.421,3.481,2,7.649.169,11.238,2.493-3.684,2.289-8.553.9-12.8.084-.158.169-.3.241-.458a17.644,17.644,0,0,1,1.554,8.263,17.757,17.757,0,0,0-.843-10.3c.518-2.373.144-5.289-1.843-8.867.144.482,2.614,8.9-3.6,12.685,0,0,1.9-5.927-3.927-21.286a3.308,3.308,0,0,0,.531-1.842,5.556,5.556,0,0,0-.976-2.988,3.491,3.491,0,0,0-2.012-1.53,15.318,15.318,0,0,1-.337-3.325,36.072,36.072,0,0,1,1.711-9.962c-.566,15.528,9.6,22.948,9.6,22.948a21.919,21.919,0,0,0,6.312,3.252m-14,45.849a5.093,5.093,0,0,1-1.53.217,7.176,7.176,0,0,1-2.517-.483l-.494-.181a7.845,7.845,0,0,1-3.084-3.288,9.158,9.158,0,0,0,1.94,3.806l-.012.012a6.268,6.268,0,0,1-1.831.3,4.612,4.612,0,0,1-2-.445c-.036-2.579-1.7-4.591-3.18-6.011a17.558,17.558,0,0,0-1.891-1.554,9.617,9.617,0,0,0,2.349-5.819,6.478,6.478,0,0,0-1.771-4.4,7.163,7.163,0,0,0-1.759-1.422l-1.336-.71-.373,1.458a10.99,10.99,0,0,1-3.337,5.468,18.767,18.767,0,0,1-5.554,3.385,31.538,31.538,0,0,1-5.974,1.759c.554-.409,1.457-1.1,2.59-2.036a59.933,59.933,0,0,0,6.324-6.18,47.694,47.694,0,0,0,4.674-6.2,34.034,34.034,0,0,0,8.456-2.818,29.467,29.467,0,0,1-7.505,1.24c.2-.325.386-.662.555-1a24.274,24.274,0,0,0,5.408-1.386c1.9-.745,3.939-1.9,4.734-3.855-2.108,2.964-5.9,3.459-9.311,3.614.313-.625.59-1.264.867-1.915a10.035,10.035,0,0,0,6.638-3.118,9.474,9.474,0,0,0,2.035-6.313,30.417,30.417,0,0,0-2.011-9.517c-.29-.831-.579-1.722-.856-2.626,2.036,3.349,3.759,7.179,3.759,11.275.518-4-.59-8.022-2.216-11.769h.036a28.009,28.009,0,0,1,2.6,5.288,26.148,26.148,0,0,0-1.084-5.4,27.534,27.534,0,0,0,3.156-.421,8.947,8.947,0,0,0,.952-.241c.783,2.253,1.577,4.529,2.229,6.806a24.149,24.149,0,0,1-1.964,15.07,21.418,21.418,0,0,0,2.734-6.132,22.092,22.092,0,0,1-2.409,8.735,21.92,21.92,0,0,0,3.336-7.687,16.169,16.169,0,0,1-2.048,8.252,15.573,15.573,0,0,1-2.806,3.724,17.762,17.762,0,0,0,4.517-4.386,19.512,19.512,0,0,0,2.253-1.217,14.727,14.727,0,0,1-5.083,6.36,15.113,15.113,0,0,0,6.132-5.468c.024.12.036.241.06.373-1.181,2.3-2.639,4.7-5.012,6.024a12.032,12.032,0,0,0,5.1-3.688,10.045,10.045,0,0,1-.217,1.41,13.121,13.121,0,0,1-4.964,3.529,12.436,12.436,0,0,0,4.12-1.264,9.521,9.521,0,0,1-.915,1.4,27.311,27.311,0,0,1-4.541,1.589,29.062,29.062,0,0,0,3.071-.023c-.181.155-.361.312-.566.47a33.422,33.422,0,0,1-6.5,1.457c1.276.144,2.554.241,3.855.265-.373.194-.76.385-1.181.578l-3.686.362,1.482.531c-.566.2-1.156.4-1.783.578l-1.577.468.963,1.338a18.456,18.456,0,0,0,4.385,4.084,22.749,22.749,0,0,0,13.106,4h.012c.734,0,1.506-.036,2.3-.108a3.406,3.406,0,0,1-.686.759c-1.037.879-3.277,1.964-8.035,1.964-.241,0-.482-.012-.722-.012l-.506-.011A12.039,12.039,0,0,1,179.4,174.2c.229.724,2.12,6.156,6.071,7.517M169.6,197.69l-1.457-.494a10.324,10.324,0,0,0-3.121-.41,16.549,16.549,0,0,1,3.024,1.94c0,.024-.012.036-.012.06-.012.072-.036.181-.06.3a3.266,3.266,0,0,1-.435.951c-.482.65-1.2,1.35-3.2,1.374a3.13,3.13,0,0,1-1.915-.663,6.419,6.419,0,0,1-1.566-1.771,14.716,14.716,0,0,1-1.554-3.6,13.245,13.245,0,0,0-1.782-4.1,14.862,14.862,0,0,0-5.482-5.059c.289,0,.59.012.879.012a17.113,17.113,0,0,1,5.71,4.77,17.136,17.136,0,0,0-3.915-4.577,17.565,17.565,0,0,1,4.457,2.06,16.311,16.311,0,0,0-3.2-2.108,41.087,41.087,0,0,1,8.444,1.434,40.98,40.98,0,0,0-7.818-2.218,46.647,46.647,0,0,1,12.444,2.218,46.951,46.951,0,0,0-12.36-3.109c4.457.266,8.77.867,11.7,2l.084.024.072.024a.38.38,0,0,1,.1.024c.06.012.169.049.313.1a7.908,7.908,0,0,1,1.06.421,6.1,6.1,0,0,1,2.386,1.879,3.566,3.566,0,0,1,.638,2.048c0,.048-.012.1-.012.132a11.471,11.471,0,0,0-3.626.217,7.728,7.728,0,0,1,3.313,1.519l.542.47.048.047c.036.024.084.073.157.132.132.132.337.313.578.566a19.613,19.613,0,0,1,1.759,2.06,11.069,11.069,0,0,1,2.481,6.276,6.089,6.089,0,0,1-.638,2.746,10.54,10.54,0,0,0-.819-1.987,12.245,12.245,0,0,0-7.2-5.71m6.1,10.215a13.611,13.611,0,0,0-6.168-6.613c.024-.036.048-.073.072-.108a12.4,12.4,0,0,1,5.289,3.625,8.347,8.347,0,0,1,.807,3.1m-5.807,3.878a7.6,7.6,0,0,1,.519.916c-.012.012-.012.024-.012.048a11.948,11.948,0,0,0-1.518-1.4,9.248,9.248,0,0,0-1.59-1.625,9.769,9.769,0,0,1,2.6,2.059m-2.048-3.047.06-.253a10.45,10.45,0,0,1,1.964,1.759,9.608,9.608,0,0,0-1.108-.687,9.325,9.325,0,0,0-.892-.807l-.012-.012Zm.8,2.433a11.142,11.142,0,0,0-2.481-1.362c.072-.072.132-.132.2-.193a8.165,8.165,0,0,1,2.277,1.554m-1.988-3.24-.144-.072a1.861,1.861,0,0,1,.2-.06c.012,0,.024.012.036.012-.036.036-.06.084-.1.12m-2.457,1.469a8.808,8.808,0,0,1,1.457.567c-.06.169-.108.337-.157.494a8.885,8.885,0,0,0-1.637-.686,4.775,4.775,0,0,1,.337-.374m-.349-1.361a1.053,1.053,0,0,1,.12-.072c.1.024.193.06.289.084-.024.036-.048.06-.072.1-.108-.036-.229-.072-.337-.108m.47,1.216c.1-.084.181-.169.277-.253a9.443,9.443,0,0,1,1.253.385,1.841,1.841,0,0,1-.1.265,9.756,9.756,0,0,0-1.434-.4m-.784-.036a4.488,4.488,0,0,0-.193.421,7.257,7.257,0,0,0-1.264-.144,9,9,0,0,1,.771-.746c.3.024.59.048.892.1a3.311,3.311,0,0,0-.17.289c-.241-.024-.482-.048-.722-.06a6.963,6.963,0,0,1,.686.144m-1.216-1.481a.778.778,0,0,0,.108-.1.131.131,0,0,0,.06.012c-.024.036-.06.06-.084.1Zm-.71,1.011c-.17.253-.314.518-.459.771l-.566.072c.2-.289.409-.554.626-.807l.4-.036m-2.723-7.275c.108-.265.193-.531.277-.8a10.914,10.914,0,0,0,.964,1.169c-.482-.157-.9-.277-1.241-.373m.868,7.54c-.144.277-.265.554-.385.844l-.362.108c.157-.3.313-.6.483-.892.1-.024.181-.036.265-.06m-2.229,1.518c-.012.024-.012.048-.024.06s-.024.012-.036.024c.024-.024.036-.06.06-.084m13.768-25.225a11.193,11.193,0,0,0-2.132-.831c-4.686-1.747-11.576-2.241-17.8-2.313,7.793-1.843,16.611-5.927,17.551-15.034a13.451,13.451,0,0,0,.819-1.662,4.062,4.062,0,0,1,1.145,2.805c0,1.241-.542,2.976-2.614,5.277l-.952,1.072,1.241.734s.06.037.2.12.349.23.59.4a17.09,17.09,0,0,1,1.807,1.481c1.338,1.23,2.493,2.892,2.457,4.325-.012,1.037-.482,2.229-2.313,3.626M149.1,179.018a26.726,26.726,0,0,0,12.661-4.878,25.955,25.955,0,0,1-12.083,3.59,21.219,21.219,0,0,0,8.481-2.806,24.014,24.014,0,0,0,7.275-3.82,15.369,15.369,0,0,0,2.457-2.481c-1.951,4.674-7.4,11.759-22.466,11.926,6.168-.349,12.251-2.06,17.082-5.793a28.117,28.117,0,0,1-13.407,4.263m3.324-2.686a36.683,36.683,0,0,0,5.385-1.288,18.021,18.021,0,0,1-5.385,1.288m18.937-27.454a7.155,7.155,0,0,0,.157-.734c1.747-.88,1.94-2.686,2.481-3.987a7.652,7.652,0,0,1-2.168,2.385,24.326,24.326,0,0,0,.325-2.493c.266-3.348.471-7.722.639-12.709h.361c.385,1.29.783,2.579,1.2,3.759a28.656,28.656,0,0,1,1.879,8.745,7.192,7.192,0,0,1-1.481,4.782,6.8,6.8,0,0,1-3.927,2.1.876.876,0,0,0,.048-.167,7.222,7.222,0,0,0,4.746-6.133,6.316,6.316,0,0,1-4.264,4.457m2.3-56.484.614-4.915.459,2.229.674-3.3.361.036.578,1.387.555-1.339h.144c.157,0,.313,0,.482-.011l.566.818.627-.9c.409-.06.819-.12,1.24-.217-.734,6.649-.734,8.446-.734,8.446a53.121,53.121,0,0,0-1.085,14.189.285.285,0,0,0-.048.072l.048.012a60.9,60.9,0,0,0,2.289,14.035c-1.879.107-4.939.385-6.926.577-.193-.746-.337-1.371-.433-1.794.1-4.385.181-9.011.241-13.66.072-5.82.12-11.7.157-17.215Zm-.169-8.023c0-1.109.012-2.192,0-3.253a16.229,16.229,0,0,0,3.554.4,12.148,12.148,0,0,0,5.432-1.205.131.131,0,0,1,.06-.012h.012l.012.012a1.672,1.672,0,0,1,.181.965,3.056,3.056,0,0,1-1.023,2.516,10.428,10.428,0,0,1-4.674,1.023,15.03,15.03,0,0,1-3.554-.445m2.554,40.6c2.265-.206,4.807-.41,5.626-.41a1.693,1.693,0,0,1,1.132.88,3.774,3.774,0,0,1,.687,2.036,1.429,1.429,0,0,1-.349,1.035,3.938,3.938,0,0,1-1.518.531,24.688,24.688,0,0,1-3.1.4c-2.084.182-4.325.217-5.673.217.048-1.434.084-2.9.132-4.409.795-.072,1.9-.169,3.059-.276m26.539-17.035a9.335,9.335,0,0,1,.7,2.77,19.392,19.392,0,0,0,1.53,6.5c-4.156-4.048-4.928-7.709-6.976-10.287a9.4,9.4,0,0,1,2.964,3.89,10.5,10.5,0,0,0-2.361-4.722,4.611,4.611,0,0,1,3.252,2.493,4.382,4.382,0,0,0-1.4-2.577,4.133,4.133,0,0,1,2.289,1.926m2.1-15.046c-.036,2.289-.832,5.735-5.758,9.083l-1.711,1.145s-3.18,1.109-8.625-.47a7.641,7.641,0,0,0,2.072,1.4h.012a11.236,11.236,0,0,0,1.3.542,14.09,14.09,0,0,1,5.95,6.445,20.465,20.465,0,0,0,8.4,8.421,8.46,8.46,0,0,0,.76.687,9.046,9.046,0,0,1-2.421.336c-2.229-.011-4.988-.8-7.939-4.132-.132-.192-.674-.964-1.277-1.855a21.252,21.252,0,0,1-1.662-2.817,7.627,7.627,0,0,0-1.915-2.916,2.109,2.109,0,0,0-1.35-.507,1.971,1.971,0,0,0-1.4.6,2.007,2.007,0,0,0-.59,1.421,2.806,2.806,0,0,0,.409,1.386,7.6,7.6,0,0,0,.76,1.024c.53.59,1.12,1.108,1.361,1.348s.519.458.808.746a6.1,6.1,0,0,1,.915,1.121,8.16,8.16,0,0,1,1.157,4.626,13.056,13.056,0,0,0,2.216,7.168,11.323,11.323,0,0,0,2.542,2.734,10.117,10.117,0,0,1-5.506-6.794,10.043,10.043,0,0,0,1.879,5.252,14.574,14.574,0,0,1-3.553-5.95,14.92,14.92,0,0,0,1.854,5.444,40.257,40.257,0,0,1-5-8.239,37.088,37.088,0,0,0,3.349,7.914c-9.433-10.758-5.843-24.875-2.952-32.2,2.337.724,11.806,3.157,15.89-3.565.012.193.024.4.024.6m-6.988.554a16,16,0,0,0,6.493-1.553c-2.349,1.711-8.022,4.867-14.214,1.18.072-.167.144-.325.217-.47a12.114,12.114,0,0,0,5.891,1.47,12.022,12.022,0,0,1-5.229-2.771c.12-.216.193-.336.193-.336a7.881,7.881,0,0,0,.856.709,9.828,9.828,0,0,0,5.793,1.771m-5.914-10.66A10.5,10.5,0,0,1,190,88.528l-.409.625a56.711,56.711,0,0,0-4.88,12.492,64.119,64.119,0,0,0-3.168,8.938,42.841,42.841,0,0,1,2.674-9.2,41.737,41.737,0,0,0-3.446,8.133,41.405,41.405,0,0,1,1.735-6.926,39.307,39.307,0,0,0-2.71,6.19,28.824,28.824,0,0,1,1.157-4.311c-.423.53-.82,1.1-1.205,1.675l.4-1.531-.638.484a46.542,46.542,0,0,1,3.071-16.782c1.964-1.952,4.433-3.264,3.41-9.878a10.51,10.51,0,0,1,.71,5.132,10.24,10.24,0,0,0-.12-6.807A15.782,15.782,0,0,1,188.45,79.4a16.2,16.2,0,0,0-1.819-4.18,16.632,16.632,0,0,1,3.458,5.48,17.719,17.719,0,0,0-1.9-5.047,12.677,12.677,0,0,1,3.011,6.914,12.545,12.545,0,0,0-1.529-6.359,12.506,12.506,0,0,1,2.108,6.577m4.963-9.456a9.9,9.9,0,0,0,4.373-.639,7.492,7.492,0,0,1-3.3.915,14.308,14.308,0,0,1-4.288-.59,5.617,5.617,0,0,1-3.192-2.265,4.675,4.675,0,0,1-.614-1.553,4.815,4.815,0,0,0,.831,1.469,7.631,7.631,0,0,0,5.155,2.4,7.245,7.245,0,0,1-4.469-2.88,4.121,4.121,0,0,1-.578-2.192,4.388,4.388,0,0,0,.421,1.253,5.579,5.579,0,0,0,3.771,2.614,5.189,5.189,0,0,1-3-2.938,3.968,3.968,0,0,1,.048-2.278,3.513,3.513,0,0,0,.939,2.373,3.293,3.293,0,0,1,.181-2.879,4.665,4.665,0,0,0,.349,1.216c.036-.878.711-1.783,1.049-1.686,1.035.59,1.675,1.8,1,4.047,0,0,3.65-2.251.772-5.131a8.857,8.857,0,0,1,2.686.831,2.016,2.016,0,0,1-.229,2.072,2.331,2.331,0,0,0,1.264-1.228,3.385,3.385,0,0,1-.795,2.758,3.976,3.976,0,0,0,1.723-1.541,4.316,4.316,0,0,1-2.313,3.072,5.768,5.768,0,0,0,3.047-1.627,6.912,6.912,0,0,1-3.9,3.251,8.434,8.434,0,0,0,4.156-1.637,7.472,7.472,0,0,1-5.083,2.8M165.779,30.959a10.269,10.269,0,0,1,1.085-4.518,9.219,9.219,0,0,1,5.614-5.034,11.173,11.173,0,0,0-5.987,7.877,10.844,10.844,0,0,1,5.5-6.3,9.92,9.92,0,0,0-4,5.265,9.084,9.084,0,0,1,5.589-4.757,6.848,6.848,0,0,0-3.735,4.348,6.542,6.542,0,0,1,5.807-3.625,6.383,6.383,0,0,0-4.313,3.312,5.9,5.9,0,0,1,5.047-2.071,6.69,6.69,0,0,0-3.83,2.733,5.824,5.824,0,0,1,5.011-1.326v.012a6.873,6.873,0,0,0-5.071,3.278,6.107,6.107,0,0,1,5.023-1.711c-.024.264-.06.542-.1.807a6.077,6.077,0,0,0-3.795,1.253,5.386,5.386,0,0,1,3.53.167l-.108.362a4.331,4.331,0,0,0-2.493.252,3.777,3.777,0,0,1,1.988.928,9.533,9.533,0,0,1-.663,1.047c-1.433-2.421-5.059-1.529-5.059-1.529a2.787,2.787,0,0,1,2.481,2.722,5.836,5.836,0,0,1-2.481-.627,6.237,6.237,0,0,0,1.94,1.688,6.978,6.978,0,0,1-4.746-2.638,8.135,8.135,0,0,0,3,3.408,7.758,7.758,0,0,1-3.7-2.048,8.247,8.247,0,0,0,2.144,2.519,5.206,5.206,0,0,1-.819-.29c-1.771-.868-2.868-2.916-2.868-5.5m-30.26,7.927a25.673,25.673,0,0,0,14.359,4.709A56.647,56.647,0,0,0,165.261,41.7c-19.178,6.866-29.055.831-33.536-4.024a22.684,22.684,0,0,0,10.89,5.482,22.385,22.385,0,0,1-10.673-7.12c.554.519,1.228,1.1,2.024,1.712l.036.157.06-.085c.445.349.939.7,1.457,1.062m-3.312-6.77a4.812,4.812,0,0,1,.325.566,9.523,9.523,0,0,1,.494,1.156c-.337-.338-.614-.614-.807-.82.012-.119.012-.252.012-.373,0-.18-.012-.361-.024-.529m3.023-5.879c-.072-.084-.12-.146-.169-.206A.571.571,0,0,0,135.17,26a5.86,5.86,0,0,1,.784-.073,1.146,1.146,0,0,1,.241.013,1.042,1.042,0,0,1,.036.155c.024.157.048.386.072.686.012.229.024.483.048.772a16.364,16.364,0,0,0-1.121-1.312m9.264-6.312.024.035s.012.036.048.121.084.2.157.36c.12.314.289.772.47,1.326a14.026,14.026,0,0,1,.674,3.939,9.153,9.153,0,0,1-.06,1.012,11.96,11.96,0,0,0-.108,1.613,12.892,12.892,0,0,0,.53,3.662,10.139,10.139,0,0,1-1.577-4.88,10.207,10.207,0,0,0,1.6,7.025c-.578-.084-1.192-.194-1.794-.339-2.132-.482-4.06-1.433-4.759-2.769a10.869,10.869,0,0,1-1.1-4.976,3.177,3.177,0,0,0-.518-1.542,2.068,2.068,0,0,0-.88-.71,3.03,3.03,0,0,0-1.252-.24,7.251,7.251,0,0,0-1.181.119,2.5,2.5,0,0,0-.6.169,2.56,2.56,0,0,0-1.121.76,2,2,0,0,0-.458,1.253,2.98,2.98,0,0,0,.867,1.926,13.345,13.345,0,0,1,1.253,1.518,2.67,2.67,0,0,1,.458,1.458,3.841,3.841,0,0,1-.289,1.374,7.413,7.413,0,0,0-1.253-2.013,3.284,3.284,0,0,0-2.361-1.144,3.211,3.211,0,0,0-1.589.458l-.2.108a8.165,8.165,0,0,0-2.446-2.928,4.884,4.884,0,0,1,1.446-4.024,5.587,5.587,0,0,0-2.843,3.29,8.886,8.886,0,0,1,3.433-6.228A9.5,9.5,0,0,0,124.1,25.9c-.072-.024-.169-.06-.265-.084a10.253,10.253,0,0,1,3.348-6.54c3.458-2.988,7.867-3.844,5.7-7.469,0,0,2.746-.7,4.276,2.552a1.213,1.213,0,0,1,.072.435,2.272,2.272,0,0,1-.1.627l-.626,2.059.963-.276a8.328,8.328,0,0,1,4.469,3.529,9.374,9.374,0,0,0-1.964-3.458c2.338,1.156,4.084,4.072,4.783,6.939a12.239,12.239,0,0,0-2.82-7.143c.157.071.326.143.483.228a4.625,4.625,0,0,1,2.06,2.579Zm-2.458-6.95a7.008,7.008,0,0,1,1.9,2.492c-.132-.084-.253-.155-.385-.228a7.21,7.21,0,0,0-3.541-.868c-.158,0-.314,0-.447.011a3.56,3.56,0,0,0-.7-1.77,2.1,2.1,0,0,0,.229-.772,5.556,5.556,0,0,1,2.939,1.134m-19.852,4.083c.952-3.915,2.7-8.564,5.53-11.5a9.917,9.917,0,0,1,5.107-2.976,12.008,12.008,0,0,0-.638,2.543l-.241,1.662,1.649-.349h.036a1.524,1.524,0,0,1,.206-.036c.181-.011.445-.035.795-.035a8.07,8.07,0,0,1,4.288,1.227,9.079,9.079,0,0,1,2.53,2.386,6.831,6.831,0,0,0-2.421-.495,5.377,5.377,0,0,0-1.759.3l-1.288.444a5.7,5.7,0,0,0-5.927.386s2.253,2.759,1.192,3.637c-.686.58-2.626,1.639-4.529,3.17.217-.627.433-1.241.687-1.844-.82.868-1.578,1.8-2.325,2.759a18.008,18.008,0,0,1,2.4-5.336,22.292,22.292,0,0,0-4.18,6.757,17.823,17.823,0,0,1,2.18-5.769,18.973,18.973,0,0,0-3.253,6.408,23.331,23.331,0,0,1,1.434-6.071,22.266,22.266,0,0,0-1.867,4.505q.163-.849.4-1.77m-.277,10.106a5.771,5.771,0,0,1,1.867.409l.506.231.554-.132a1.822,1.822,0,0,1,.266-.025,2.777,2.777,0,0,1,1.854,1.168,8.4,8.4,0,0,1,1.988,4.421.625.625,0,0,1-.072.121.1.1,0,0,0-.036.011,9.357,9.357,0,0,0-4.589-1.529h-.108A5.09,5.09,0,0,1,124.1,28.6a4.4,4.4,0,0,0-.686,1.35c-.193.736.072,1.253-.579,1.518a3.9,3.9,0,0,0-.915-.17h-4.18a3.9,3.9,0,0,0-.915.17c-.651-.265-.385-.783-.579-1.518a4.4,4.4,0,0,0-.686-1.35,5.09,5.09,0,0,1-.036,3.241h-.12a9.361,9.361,0,0,0-4.577,1.529.1.1,0,0,0-.048-.011.857.857,0,0,0-.06-.121,8.359,8.359,0,0,1,1.976-4.421,2.822,2.822,0,0,1,1.867-1.168,1.807,1.807,0,0,1,.265.025l.554.132.506-.231a5.691,5.691,0,0,1,1.867-.409ZM100.742,7.588a8.07,8.07,0,0,1,4.288-1.227c.337,0,.614.024.8.035a1.466,1.466,0,0,1,.2.036h.036l1.649.349-.241-1.662a12.007,12.007,0,0,0-.638-2.543,9.917,9.917,0,0,1,5.107,2.976c2.832,2.94,4.579,7.589,5.53,11.5q.235.921.4,1.77A22.2,22.2,0,0,0,116,14.322a23.331,23.331,0,0,1,1.434,6.071,18.953,18.953,0,0,0-3.253-6.408,17.823,17.823,0,0,1,2.18,5.769A22.292,22.292,0,0,0,112.185,13a18.039,18.039,0,0,1,2.4,5.336c-.748-.964-1.506-1.891-2.325-2.759.253.6.47,1.217.686,1.844-1.9-1.531-3.843-2.59-4.529-3.17-1.061-.878,1.192-3.637,1.192-3.637a5.7,5.7,0,0,0-5.926-.386l-1.289-.444a5.377,5.377,0,0,0-1.759-.3,6.831,6.831,0,0,0-2.421.495,9.08,9.08,0,0,1,2.53-2.386m-3.119,5.386a5.559,5.559,0,0,1,2.939-1.134,2.1,2.1,0,0,0,.229.772,3.559,3.559,0,0,0-.7,1.77c-.144-.011-.289-.011-.445-.011a7.286,7.286,0,0,0-3.554.868c-.12.072-.241.143-.373.228a7.008,7.008,0,0,1,1.9-2.492m3.951,11.539a3.168,3.168,0,0,0-.519,1.542,10.747,10.747,0,0,1-1.108,4.976c-.687,1.336-2.614,2.288-4.746,2.769-.6.146-1.217.255-1.8.339a10.207,10.207,0,0,0,1.6-7.025,10.139,10.139,0,0,1-1.577,4.88,12.892,12.892,0,0,0,.53-3.662,11.959,11.959,0,0,0-.108-1.613,9.153,9.153,0,0,1-.06-1.012,13.607,13.607,0,0,1,.674-3.939c.181-.554.349-1.011.47-1.326.072-.157.121-.289.158-.36s.048-.121.048-.121l.024-.035.012-.048a4.616,4.616,0,0,1,2.06-2.579c.157-.084.325-.157.482-.228a12.247,12.247,0,0,0-2.82,7.143c.7-2.868,2.446-5.784,4.783-6.939a9.373,9.373,0,0,0-1.964,3.458,8.328,8.328,0,0,1,4.469-3.529l.963.276-.626-2.059a2.273,2.273,0,0,1-.1-.627,1.214,1.214,0,0,1,.072-.435,3.958,3.958,0,0,1,3.638-2.614,2.98,2.98,0,0,1,.638.061c-2.168,3.625,2.241,4.481,5.7,7.469a10.253,10.253,0,0,1,3.348,6.54c-.1.024-.193.06-.265.084A9.5,9.5,0,0,0,110.6,19.66a8.886,8.886,0,0,1,3.433,6.228,5.562,5.562,0,0,0-2.855-3.29,4.891,4.891,0,0,1,1.458,4.024,8.151,8.151,0,0,0-2.445,2.928l-.206-.108a3.211,3.211,0,0,0-1.589-.458,3.261,3.261,0,0,0-2.361,1.144,7.413,7.413,0,0,0-1.253,2.013,3.841,3.841,0,0,1-.289-1.374,2.67,2.67,0,0,1,.458-1.458,13.344,13.344,0,0,1,1.253-1.518,3.041,3.041,0,0,0,.867-1.926,2,2,0,0,0-.458-1.253,2.621,2.621,0,0,0-1.121-.76,2.652,2.652,0,0,0-.6-.169,7.25,7.25,0,0,0-1.18-.119,3,3,0,0,0-1.253.24,2.058,2.058,0,0,0-.879.71m5.866,8.5c-.193.206-.47.482-.807.82a9.52,9.52,0,0,1,.494-1.156,4.811,4.811,0,0,1,.325-.566c-.012.167-.024.349-.024.529,0,.121,0,.254.012.373m-4.132-5.468c.024-.289.036-.543.048-.772.024-.3.048-.53.072-.686a1.045,1.045,0,0,1,.036-.155,1.152,1.152,0,0,1,.242-.013,5.847,5.847,0,0,1,.783.073.571.571,0,0,0,.108.035c-.048.06-.1.121-.169.206a16.59,16.59,0,0,0-1.121,1.312M89.78,43.595a25.673,25.673,0,0,0,14.359-4.709c.518-.362,1-.713,1.457-1.062l.06.085.036-.157c.8-.615,1.47-1.193,2.024-1.712a22.385,22.385,0,0,1-10.673,7.12,22.692,22.692,0,0,0,10.891-5.482C103.452,42.534,93.574,48.57,74.4,41.7A56.654,56.654,0,0,0,89.78,43.595M68.313,27.526A6.383,6.383,0,0,0,64,24.214a6.542,6.542,0,0,1,5.807,3.625,6.848,6.848,0,0,0-3.735-4.348,9.088,9.088,0,0,1,5.59,4.757,9.922,9.922,0,0,0-4-5.265,10.844,10.844,0,0,1,5.5,6.3,11.173,11.173,0,0,0-5.987-7.877,9.216,9.216,0,0,1,5.614,5.034,10.269,10.269,0,0,1,1.085,4.518c0,2.589-1.1,4.637-2.88,5.5a4.681,4.681,0,0,1-.807.29,8.247,8.247,0,0,0,2.144-2.519,7.758,7.758,0,0,1-3.7,2.048,8.146,8.146,0,0,0,3-3.408,6.983,6.983,0,0,1-4.747,2.638,6.237,6.237,0,0,0,1.94-1.688,5.832,5.832,0,0,1-2.481.627,2.787,2.787,0,0,1,2.481-2.722s-3.625-.892-5.059,1.529a9.36,9.36,0,0,1-.662-1.047,3.769,3.769,0,0,1,1.988-.928,4.335,4.335,0,0,0-2.494-.252l-.108-.362a5.386,5.386,0,0,1,3.53-.167,6.077,6.077,0,0,0-3.795-1.253c-.036-.265-.072-.543-.1-.807a6.106,6.106,0,0,1,5.023,1.711,6.873,6.873,0,0,0-5.071-3.278v-.012A5.824,5.824,0,0,1,67.1,28.188a6.729,6.729,0,0,0-3.83-2.733,5.9,5.9,0,0,1,5.047,2.071M34.969,69.387a5.979,5.979,0,0,1-.855-3.023,7.955,7.955,0,0,1,2.1-5.013,12.953,12.953,0,0,1,1.506-1.469c.2-.17.373-.3.482-.386.06-.035.1-.072.12-.084l.036-.024.048-.024.036-.036C50.1,50.053,56.6,33.838,58.555,28.02A11.14,11.14,0,0,1,61.483,23.1a5.239,5.239,0,0,1,1.047-.759,1.351,1.351,0,0,1,.265-.121.125.125,0,0,0,.049-.024l.181-.048.06-.036a4.75,4.75,0,0,0-.555.555H62.4l.012.132a9.165,9.165,0,0,0-1.7,7.746c.916,5.275,4.687,7.2,7.156,8.479a11.735,11.735,0,0,0,1.276.722c5.891,3.17,30.634,14.77,44.005-5.734a9.036,9.036,0,0,1,2.349-.494c.494,2.1-1.072,4.892-1.241,5.193,1.711-1.722,1.988-4.976,1.988-4.976a2.374,2.374,0,0,1,1.711-.771,2.133,2.133,0,0,1,.7.12h2.313l.036.4v-.4a2.121,2.121,0,0,1,.7-.12,2.374,2.374,0,0,1,1.711.771s.277,3.254,1.988,4.976c-.169-.3-1.735-3.1-1.241-5.193a9.028,9.028,0,0,1,2.349.494c13.371,20.5,38.115,8.9,44.005,5.734a11.733,11.733,0,0,0,1.276-.722c2.469-1.276,6.24-3.2,7.156-8.479a9.165,9.165,0,0,0-1.7-7.746l.012-.132h-.132a4.763,4.763,0,0,0-.554-.555l.06.036.181.048a.119.119,0,0,0,.036.024,1.114,1.114,0,0,1,.277.121,5.239,5.239,0,0,1,1.047.759A11.14,11.14,0,0,1,181.1,28.02c1.952,5.818,8.456,22.032,20.117,31.306l.036.036.048.024.024.024a1.243,1.243,0,0,1,.132.084c.108.084.277.217.482.386a12,12,0,0,1,1.494,1.469,7.9,7.9,0,0,1,2.108,5.013,5.979,5.979,0,0,1-.855,3.023c-.483-2.362-2.132-5.916-7.722-6.637-6.409-.82-11.612,3.034-14.4,9.927a20.742,20.742,0,0,1,1-3.373,27.883,27.883,0,0,0-2.8,7.166,23.266,23.266,0,0,1,2.06-9.179,23.95,23.95,0,0,0-3.288,9.095,32.885,32.885,0,0,1,.722-7.516,40.065,40.065,0,0,0-2.132,9.588,54.048,54.048,0,0,1-.06-9.154,51.944,51.944,0,0,0-1.288,8.407l-.483-3.59-.506,3.76-.662-7.783-.53,6.385-.627-10.66-.47,8.083V70.5c0-1.88,0-3.531-.012-4.9V62.315a5.425,5.425,0,0,0-.494-2.084,7.377,7.377,0,0,0-2.94-3.289c-.265-.169-.638-.385-1.132-.661a19.177,19.177,0,0,0,5.482-2.073,18.272,18.272,0,0,1-7.71.88c-.325-.17-.674-.338-1.037-.519a25.286,25.286,0,0,0,9.433-2.963,24.581,24.581,0,0,1-12.36,1.589c-.193-.084-.4-.18-.6-.264a25.027,25.027,0,0,0,10.637-2.481A26.712,26.712,0,0,1,158.6,51.461c-.241-.1-.482-.193-.734-.29a24.943,24.943,0,0,0,10.2-1.444c-5.229,1.529-10.7.831-15.841-.566a.669.669,0,0,0-.1-.036c-1.228-.4-2.517-.8-3.843-1.17-3.011-.867-6.264-1.663-9.721-2.325a101.049,101.049,0,0,0-18.612-1.8H119.7a100.946,100.946,0,0,0-18.612,1.8c-3.457.662-6.71,1.458-9.721,2.325-1.326.373-2.614.772-3.843,1.17a.669.669,0,0,0-.1.036c-5.143,1.4-10.613,2.095-15.84.566a24.935,24.935,0,0,0,10.2,1.444c-.253.1-.494.194-.734.29A26.713,26.713,0,0,1,66.879,50.45a25.031,25.031,0,0,0,10.637,2.481c-.2.084-.409.18-.6.264a24.581,24.581,0,0,1-12.36-1.589,25.292,25.292,0,0,0,9.433,2.963c-.362.181-.711.349-1.037.519a18.265,18.265,0,0,1-7.709-.88,19.158,19.158,0,0,0,5.48,2.073c-.494.265-.879.493-1.132.661a7.49,7.49,0,0,0-2.952,3.289,5.559,5.559,0,0,0-.482,2.084v.1c0,.76,0,1.843-.012,3.216v8.252l-.47-8.058-.627,10.66L64.506,70.1l-.65,7.783-.506-3.76-.483,3.59A51.944,51.944,0,0,0,61.58,69.3a54.049,54.049,0,0,1-.06,9.154,40.064,40.064,0,0,0-2.132-9.588,32.883,32.883,0,0,1,.722,7.516,23.932,23.932,0,0,0-3.288-9.095,23.247,23.247,0,0,1,2.06,9.179,27.882,27.882,0,0,0-2.8-7.166,21.891,21.891,0,0,1,1,3.373C54.3,65.784,49.1,61.93,42.691,62.749c-5.59.721-7.239,4.275-7.722,6.637m33.85,81.335a6.838,6.838,0,0,1-3.927-2.1,7.252,7.252,0,0,1-1.469-4.782A28.656,28.656,0,0,1,65.3,135.1c.421-1.18.819-2.468,1.2-3.759h.361c.169,4.987.374,9.361.639,12.709.06.843.169,1.675.3,2.481a7.809,7.809,0,0,1-2.144-2.373c.542,1.3.722,3.1,2.457,3.975.06.253.108.494.181.746a6.294,6.294,0,0,1-4.264-4.457,7.2,7.2,0,0,0,4.722,6.12v.013c.024.06.036.107.06.167m-2.782,4.71a24.08,24.08,0,0,0,5.385,1.386c.181.337.361.674.554,1a29.827,29.827,0,0,1-7.481-1.24,34.278,34.278,0,0,0,8.444,2.818,49.055,49.055,0,0,0,4.94,6.493,58.67,58.67,0,0,0,6.383,6.144c.868.71,1.578,1.264,2.084,1.639.072.048.134.1.194.144a31.882,31.882,0,0,1-5.987-1.759,18.86,18.86,0,0,1-5.542-3.385,11.085,11.085,0,0,1-3.348-5.468l-.362-1.458-1.336.71a6.928,6.928,0,0,0-1.759,1.422,6.428,6.428,0,0,0-1.771,4.4,9.617,9.617,0,0,0,2.349,5.819,17.559,17.559,0,0,0-1.891,1.554c-1.481,1.421-3.144,3.432-3.18,6.011a4.609,4.609,0,0,1-2,.445,6.268,6.268,0,0,1-1.831-.3.012.012,0,0,1-.012-.012,9.159,9.159,0,0,0,1.94-3.806,7.839,7.839,0,0,1-3.083,3.288l-.495.181a7.176,7.176,0,0,1-2.517.483,5.093,5.093,0,0,1-1.53-.217c4.084-1.41,5.963-7.144,6.1-7.578a12.046,12.046,0,0,1-7.986,6.422l-.507.011c-.241,0-.482.012-.722.012-4.758,0-7-1.085-8.035-1.964a3.407,3.407,0,0,1-.686-.759c.795.072,1.566.108,2.3.108h.012a22.749,22.749,0,0,0,13.106-4,18.456,18.456,0,0,0,4.385-4.084l.964-1.338-1.59-.468q-.921-.273-1.771-.578l1.482-.531-3.686-.362c-.421-.193-.807-.384-1.181-.578,1.289-.024,2.579-.12,3.855-.265a33.743,33.743,0,0,1-6.517-1.457c-.193-.158-.373-.314-.554-.47a29.038,29.038,0,0,0,3.071.023,27.312,27.312,0,0,1-4.541-1.589,9.522,9.522,0,0,1-.915-1.4,12.436,12.436,0,0,0,4.12,1.264,13.028,13.028,0,0,1-4.964-3.529,8.544,8.544,0,0,1-.217-1.41,12.032,12.032,0,0,0,5.1,3.688c-2.373-1.327-3.831-3.724-5.012-6.024.024-.132.036-.253.06-.373a15.113,15.113,0,0,0,6.132,5.468,14.727,14.727,0,0,1-5.083-6.36,19.512,19.512,0,0,0,2.253,1.217,17.78,17.78,0,0,0,4.517,4.386,15.6,15.6,0,0,1-2.806-3.724,16.169,16.169,0,0,1-2.048-8.252,21.94,21.94,0,0,0,3.336,7.687,22.091,22.091,0,0,1-2.409-8.735,21.418,21.418,0,0,0,2.734,6.132,24.141,24.141,0,0,1-1.963-15.07c.65-2.277,1.445-4.553,2.229-6.806a8.856,8.856,0,0,0,.951.241,27.554,27.554,0,0,0,3.157.421,26.08,26.08,0,0,0-1.085,5.4,28.009,28.009,0,0,1,2.6-5.288H62.4c-1.625,3.747-2.734,7.769-2.216,11.769,0-4.1,1.723-7.926,3.759-11.275-.277.9-.566,1.8-.855,2.626a30.053,30.053,0,0,0-2.012,9.517,9.469,9.469,0,0,0,2.036,6.313,10.052,10.052,0,0,0,6.625,3.118c.277.651.554,1.29.855,1.915-3.41-.155-7.191-.65-9.287-3.614.795,1.952,2.831,3.11,4.734,3.855m24.526,23.586a28.117,28.117,0,0,1-13.407-4.263c4.83,3.734,10.914,5.444,17.082,5.793-15.07-.167-20.514-7.252-22.466-11.926a15.369,15.369,0,0,0,2.457,2.481,24.014,24.014,0,0,0,7.275,3.82,21.219,21.219,0,0,0,8.481,2.806A25.947,25.947,0,0,1,77.9,174.14a26.67,26.67,0,0,0,12.66,4.878m-8.42,12.263a13.591,13.591,0,0,0-1.794,4.1,14.088,14.088,0,0,1-1.542,3.6,6.619,6.619,0,0,1-1.566,1.771,3.13,3.13,0,0,1-1.915.663c-2-.024-2.722-.724-3.2-1.374a3.231,3.231,0,0,1-.433-.951,2.227,2.227,0,0,1-.06-.3c0-.024-.012-.036-.012-.06a16.516,16.516,0,0,1,3.023-1.94,10.314,10.314,0,0,0-3.119.41l-1.458.494a12.245,12.245,0,0,0-7.2,5.71,10.539,10.539,0,0,0-.819,1.987,6.089,6.089,0,0,1-.638-2.746,10.986,10.986,0,0,1,2.481-6.276,19.743,19.743,0,0,1,1.759-2.06c.241-.253.445-.433.578-.566.072-.059.12-.108.157-.132s.036-.047.036-.047l.554-.47a7.637,7.637,0,0,1,3.313-1.519,11.471,11.471,0,0,0-3.626-.217c0-.036-.012-.084-.012-.132a3.558,3.558,0,0,1,.639-2.048,6.088,6.088,0,0,1,2.385-1.879,7.32,7.32,0,0,1,1.06-.421c.144-.047.253-.084.313-.1a.38.38,0,0,1,.1-.024l.072-.024.084-.024c2.928-1.133,7.228-1.734,11.7-2a46.951,46.951,0,0,0-12.36,3.109A46.647,46.647,0,0,1,83.07,185.6a40.732,40.732,0,0,0-7.818,2.218,41.1,41.1,0,0,1,8.444-1.434,15.964,15.964,0,0,0-3.2,2.108,17.565,17.565,0,0,1,4.457-2.06A17.136,17.136,0,0,0,81.034,191a17.124,17.124,0,0,1,5.71-4.77c.289,0,.578-.012.879-.012a14.862,14.862,0,0,0-5.482,5.059m.06,19.334c-.011-.012-.023-.012-.035-.024s-.013-.036-.025-.06c.025.024.037.06.06.084m-2.662-8.77a9.42,9.42,0,0,0,.952-1.169c.084.265.181.531.289.8-.337.1-.76.217-1.241.373m1.121,8.119-.361-.108c-.12-.29-.254-.567-.386-.844.085.024.17.036.254.06.169.289.337.59.494.892m-1.578-.374c-.193-.024-.385-.048-.566-.072-.144-.253-.3-.518-.47-.771l.409.036c.217.253.421.518.626.807m-2.987-.458c-.048-.1-.108-.193-.169-.289.3-.048.59-.072.891-.1a9,9,0,0,1,.771.746,7.257,7.257,0,0,0-1.264.144,4.49,4.49,0,0,0-.193-.421,6.963,6.963,0,0,1,.686-.144c-.241.012-.482.036-.722.06m1.084-1.481a.131.131,0,0,0,.06-.012.779.779,0,0,0,.108.1l-.084.012c-.024-.036-.06-.06-.084-.1M75.468,209.4a5.016,5.016,0,0,1,.338.374,8.532,8.532,0,0,0-1.639.686c-.048-.157-.1-.325-.157-.494a8.808,8.808,0,0,1,1.457-.567m-1.553.253c-.036-.084-.072-.169-.108-.265A10.121,10.121,0,0,1,75.071,209c.1.084.181.169.277.253a9.7,9.7,0,0,0-1.433.4m1.553-1.505a.422.422,0,0,0-.06-.1c.1-.024.193-.06.289-.084a1.075,1.075,0,0,1,.121.072c-.108.036-.23.072-.35.108m-3.1,1.578a9.248,9.248,0,0,0-1.59,1.625,11.946,11.946,0,0,0-1.518,1.4c0-.024-.012-.036-.012-.048a7.747,7.747,0,0,1,.519-.916,9.769,9.769,0,0,1,2.6-2.059m-2.578.518a10.45,10.45,0,0,1,1.964-1.759l.06.253h-.012l-.012.012a9.46,9.46,0,0,0-.892.807,9.608,9.608,0,0,0-1.108.687m3.5-.627a1.456,1.456,0,0,1,.193.193,11.331,11.331,0,0,0-2.469,1.362,8.181,8.181,0,0,1,2.277-1.554m-.385-1.806c.012,0,.012-.012.024-.012a1.458,1.458,0,0,1,.217.06l-.144.072a.843.843,0,0,1-.1-.12m-2.782-6.517a13.566,13.566,0,0,0-6.168,6.613,8.346,8.346,0,0,1,.807-3.1,12.4,12.4,0,0,1,5.289-3.625c.024.035.048.072.072.108m.373-16.817a11.221,11.221,0,0,0-2.132.831c-1.831-1.4-2.3-2.59-2.313-3.626-.036-1.433,1.12-3.094,2.457-4.325a17.09,17.09,0,0,1,1.807-1.481c.241-.169.445-.3.59-.4s.2-.12.2-.12l1.241-.734-.952-1.072c-2.072-2.3-2.614-4.036-2.626-5.277a4.123,4.123,0,0,1,1.157-2.805,13.449,13.449,0,0,0,.819,1.662c.94,9.107,9.758,13.19,17.551,15.034-6.228.072-13.118.566-17.8,2.313m11.347-9.432a36.683,36.683,0,0,0,5.385,1.288,17.934,17.934,0,0,1-5.385-1.288M60.435,94.624s0-1.8-.734-8.446c.421.1.831.157,1.241.217l.626.9.566-.818c.169.011.325.011.482.011h.144l.555,1.339.578-1.387.361-.036.674,3.3.459-2.229L66,92.394l.193-1.625c.036,5.541.084,11.431.169,17.286.06,4.638.132,9.251.241,13.635-.108.423-.265,1.062-.445,1.819-1.988-.192-5.059-.47-6.926-.577A60.9,60.9,0,0,0,61.519,108.9v-.084a53.739,53.739,0,0,0-1.085-14.189M57.941,83.793a3.056,3.056,0,0,1-1.023-2.516,1.672,1.672,0,0,1,.181-.965l.012-.012h.012a.131.131,0,0,1,.06.012,12.151,12.151,0,0,0,5.432,1.205,16.192,16.192,0,0,0,3.542-.4c0,1.061.012,2.144.012,3.253a15.03,15.03,0,0,1-3.554.445,10.428,10.428,0,0,1-4.674-1.023m5.674,41.175c1.156.107,2.265.2,3.059.276.048,1.506.084,2.975.132,4.409-1.348,0-3.589-.035-5.673-.217a24.688,24.688,0,0,1-3.1-.4,3.929,3.929,0,0,1-1.517-.531,1.424,1.424,0,0,1-.35-1.035,3.766,3.766,0,0,1,.675-2.036,1.731,1.731,0,0,1,1.144-.88c.82,0,3.361.2,5.626.41M46.137,73.012a14.308,14.308,0,0,1-4.288.59,7.492,7.492,0,0,1-3.3-.915,9.9,9.9,0,0,0,4.373.639,7.472,7.472,0,0,1-5.083-2.8,8.434,8.434,0,0,0,4.156,1.637,6.912,6.912,0,0,1-3.9-3.251,5.768,5.768,0,0,0,3.047,1.627,4.284,4.284,0,0,1-2.313-3.072,3.976,3.976,0,0,0,1.723,1.541,3.385,3.385,0,0,1-.795-2.758,2.331,2.331,0,0,0,1.264,1.228,2.016,2.016,0,0,1-.229-2.072,8.866,8.866,0,0,1,2.686-.831c-2.879,2.88.772,5.131.772,5.131-.674-2.251-.036-3.457,1-4.047.337-.1,1.012.808,1.049,1.686a4.666,4.666,0,0,0,.349-1.216,3.293,3.293,0,0,1,.181,2.879,3.513,3.513,0,0,0,.939-2.373,3.949,3.949,0,0,1,.048,2.278,5.188,5.188,0,0,1-3,2.938,5.579,5.579,0,0,0,3.771-2.614A4.794,4.794,0,0,0,49,67.988a4.121,4.121,0,0,1-.578,2.192,7.245,7.245,0,0,1-4.469,2.88,7.629,7.629,0,0,0,5.155-2.4,5.079,5.079,0,0,0,.831-1.469,4.948,4.948,0,0,1-.614,1.553,5.617,5.617,0,0,1-3.192,2.265M49.99,76.2a12.545,12.545,0,0,0-1.529,6.359,12.677,12.677,0,0,1,3.011-6.914,17.368,17.368,0,0,0-1.9,5.047,16.632,16.632,0,0,1,3.458-5.48,15.837,15.837,0,0,0-1.819,4.18,15.845,15.845,0,0,1,1.867-2.639,10.172,10.172,0,0,0-.12,6.807,10.51,10.51,0,0,1,.71-5.132c-1.023,6.614,1.446,7.927,3.41,9.878a46.543,46.543,0,0,1,3.071,16.782l-.638-.484.4,1.531c-.385-.579-.783-1.145-1.2-1.675a28.95,28.95,0,0,1,1.156,4.311,39.308,39.308,0,0,0-2.71-6.19,41.405,41.405,0,0,1,1.735,6.926,41.735,41.735,0,0,0-3.446-8.133,42.84,42.84,0,0,1,2.674,9.2,64.118,64.118,0,0,0-3.168-8.938,56.656,56.656,0,0,0-4.88-12.492l-.409-.625a10.5,10.5,0,0,1-1.771-5.746A12.506,12.506,0,0,1,49.99,76.2M41.968,93.442a9.858,9.858,0,0,0,5.793-1.771,7.774,7.774,0,0,0,.856-.709s.072.12.193.336a12.022,12.022,0,0,1-5.229,2.771,12.114,12.114,0,0,0,5.891-1.47c.072.144.144.3.217.47-6.192,3.688-11.865.531-14.214-1.18a16,16,0,0,0,6.493,1.553M36.379,110.7a8.981,8.981,0,0,1,.7-2.77,4.132,4.132,0,0,1,2.289-1.926,4.382,4.382,0,0,0-1.4,2.577,4.611,4.611,0,0,1,3.252-2.493,10.5,10.5,0,0,0-2.361,4.722,9.407,9.407,0,0,1,2.964-3.89c-2.048,2.578-2.82,6.239-6.976,10.287a19.391,19.391,0,0,0,1.53-6.5m4.589,19.721a11.566,11.566,0,0,0,2.542-2.734,13.056,13.056,0,0,0,2.216-7.168,8.16,8.16,0,0,1,1.157-4.626,6.1,6.1,0,0,1,.915-1.121c.29-.289.555-.494.808-.746s.831-.759,1.361-1.348a7.513,7.513,0,0,0,.76-1.024,2.806,2.806,0,0,0,.409-1.386,2.007,2.007,0,0,0-.59-1.421,1.969,1.969,0,0,0-1.4-.6,2.111,2.111,0,0,0-1.35.507,7.475,7.475,0,0,0-1.914,2.916,21.41,21.41,0,0,1-1.663,2.817c-.6.891-1.145,1.664-1.277,1.855-2.951,3.336-5.709,4.121-7.939,4.132a9.046,9.046,0,0,1-2.421-.336,8.314,8.314,0,0,0,.76-.687,20.465,20.465,0,0,0,8.4-8.421,14.1,14.1,0,0,1,5.95-6.445,11.237,11.237,0,0,0,1.3-.542H49a7.641,7.641,0,0,0,2.072-1.4c-5.445,1.578-8.625.47-8.625.47l-1.711-1.145c-4.927-3.347-5.722-6.794-5.758-9.083,0-.2.012-.409.024-.6,4.084,6.722,13.553,4.288,15.89,3.565,2.891,7.326,6.481,21.442-2.952,32.2a37.089,37.089,0,0,0,3.349-7.914,40.21,40.21,0,0,1-5,8.239,14.923,14.923,0,0,0,1.855-5.444,14.589,14.589,0,0,1-3.554,5.95,10.043,10.043,0,0,0,1.879-5.252,10.114,10.114,0,0,1-5.506,6.794m-5.1,8.407a9.923,9.923,0,0,1,4.313-2.963,21.487,21.487,0,0,0,6.3-3.252s10.179-7.42,9.612-22.948a36.072,36.072,0,0,1,1.711,9.962,15.317,15.317,0,0,1-.337,3.325,3.494,3.494,0,0,0-2.012,1.53,5.555,5.555,0,0,0-.975,2.988,3.307,3.307,0,0,0,.53,1.842c-5.831,15.359-3.927,21.286-3.927,21.286-6.216-3.783-3.747-12.2-3.6-12.685-1.988,3.578-2.361,6.494-1.843,8.867a17.658,17.658,0,0,0-.843,10.3,17.5,17.5,0,0,1,1.554-8.263c.072.155.157.3.229.458-1.386,4.251-1.578,9.12.915,12.8-1.831-3.589-1.252-7.757.169-11.238.194.216.386.432.591.637a13.611,13.611,0,0,0-.94,4.952,11.715,11.715,0,0,0,2.674,7.5c1.819,2.253,4.711,4.3,9.132,5.843a19.178,19.178,0,0,1-3.193,2.59,21.316,21.316,0,0,1-2.289,1.265c-2.277.458-10.167,1.132-12.841-10.708a5.43,5.43,0,0,1-1.373.915c-4.855-5.313-3.109-13.613-2.326-16.408a15.3,15.3,0,0,1,2.494-2.095s-2.579-.109-5.421,2.71a16.7,16.7,0,0,1-.289-3.036,9.394,9.394,0,0,1,1.988-6.18m-2.7,18.022a15.868,15.868,0,0,1,.674-4.457c.169-.555.337-1.012.458-1.312.06-.158.108-.278.144-.349l.048-.1.193-.4a26.946,26.946,0,0,1,1.8-2.168c-3.939,7.926.47,14.793,1.6,16.359-.012.011-.036.011-.06.023-2.578-2.349-3.963-6.288-3.915-10.082a14.568,14.568,0,0,0,2.325,10.578.118.118,0,0,0-.06.011,11.337,11.337,0,0,1-3.2-8.107m-2.06,12.613c-.483-.627-.88-1.217-1.205-1.734q.867.071,1.627.071a13.7,13.7,0,0,0,4.65-.686s1.506-.4,3.4-.976c0,0,2.229,7.458,7.877,8.685a10.7,10.7,0,0,1-8.4-6.553,11.723,11.723,0,0,0,5.879,7.107,13.355,13.355,0,0,1-7.685-6.107,14.845,14.845,0,0,0,4.915,6.241c-.1-.013-.193-.013-.3-.026a17.475,17.475,0,0,1-7.024-6.686,17.372,17.372,0,0,0,3.229,5.361,23.414,23.414,0,0,1-5.566-5.289,24.547,24.547,0,0,0,3.9,5.506,21.62,21.62,0,0,1-5.3-4.915M64.458,216.82A46.36,46.36,0,0,0,36.1,193.956a1.336,1.336,0,0,1-.855-.5c-.12-1.182-.108-4.217,2.457-8.241,0,0-3.277,1.6-4.565,6.938a2.674,2.674,0,0,1-1.386-.385,2.476,2.476,0,0,1-.987-1.312,3.781,3.781,0,0,1-.158-.614.6.6,0,0,1-.024-.17c0-.012-.012-.024-.012-.036-.012-.349-.024-.686-.024-1.011.012-4.675,1.988-7.216,3.987-8.77a11.843,11.843,0,0,1,2.783-1.566c.373-.144.686-.241.9-.3a1.821,1.821,0,0,1,.229-.06.144.144,0,0,0,.06-.024l1.217-.241c.012.072.036.169.06.265a11.735,11.735,0,0,0-7.65,8.866,10.988,10.988,0,0,1,8.348-7.481c.012.024.024.036.036.06a10.051,10.051,0,0,0-5.047,5.072,9.6,9.6,0,0,1,6.132-3.938c.169.131.349.276.554.409a7.845,7.845,0,0,0-2,2.649,8.023,8.023,0,0,1,3.252-1.952c.1.049.206.084.326.132a14.5,14.5,0,0,0-3.879,6.675,13.8,13.8,0,0,1,5.529-6.119c.108.035.229.06.35.1a12.778,12.778,0,0,0-2.771,4.626,12.663,12.663,0,0,1,4.517-4.311c.132.023.253.035.385.047a13.2,13.2,0,0,0-1.517,3.566,11.52,11.52,0,0,1,3.156-3.422c.169,0,.325.012.494.024a11.652,11.652,0,0,0-2.011,4.626,11.694,11.694,0,0,1,3.709-4.4c.072.036.144.084.229.134a9.434,9.434,0,0,0-1.89,4.263,8.8,8.8,0,0,1,3.156-3.674,3.477,3.477,0,0,0,.421.132,10.83,10.83,0,0,0-1.288,3.711,10.74,10.74,0,0,1,2.686-3.457c.169.013.337.024.506.024a17.365,17.365,0,0,0-1.554,3.493,14.8,14.8,0,0,1,3.41-3.649c.181-.036.361-.073.554-.121a9.584,9.584,0,0,0-1.867,3.951,10,10,0,0,1,3.53-3.793c.181.048.361.1.566.131a11.235,11.235,0,0,0-2.277,3.661,10.444,10.444,0,0,1,4.421-3.529,6.55,6.55,0,0,0,1.229-.2,16.041,16.041,0,0,0-4.132,5.252,15.481,15.481,0,0,1,5.408-4.457,2.218,2.218,0,0,0,.254.349,18.443,18.443,0,0,0-5.482,6.446,17.748,17.748,0,0,1,6.529-5.325,1.851,1.851,0,0,0,.229.2c-.108.1-.2.2-.313.314a19.022,19.022,0,0,0-6.794,8.612,19.4,19.4,0,0,1,5.228-5.819c-.036.132-.06.278-.084.409a19.4,19.4,0,0,0-5.324,8.444,17.992,17.992,0,0,1,5.312-6.445.043.043,0,0,0,.012.036,21.516,21.516,0,0,0-2.385,2.711,13.328,13.328,0,0,0-2.951,7.685,9.192,9.192,0,0,0,2.915,6.589l2.253,2.241-.229-3.047a13.586,13.586,0,0,1,5.795-5.433,13.251,13.251,0,0,0-5.108,6.288,12.6,12.6,0,0,1,6-5.336,15.245,15.245,0,0,0-6.818,10.24c1.326-4.651,4.951-8.661,9.3-9.818a19.348,19.348,0,0,0-5.733,4.024,10.606,10.606,0,0,0-2.952,8.432m3.927,2.927a1.373,1.373,0,0,1-.12-.229,1.458,1.458,0,0,0,.12.169Zm.241-1.915c-.108-.253-.193-.518-.277-.771l.036-.181c.108.193.229.385.349.578-.036.12-.072.241-.108.373m.844-1.94a2.352,2.352,0,0,0-.134.23c-.132-.326-.253-.651-.361-.988.157.253.326.506.495.759m-.157,3.349c-.037-.06-.073-.12-.109-.181a5.242,5.242,0,0,1,.036-.868c.084.109.158.218.242.338-.06.229-.12.47-.169.71m13.937-5.975a10.936,10.936,0,0,1,.253,2.313c0,.229,0,.409-.012.53,0,.06-.012.1-.012.134v.024c-.506,4.131-2.433,6.215-4.252,7.408a9.073,9.073,0,0,1-2.457,1.145c-.325.1-.59.157-.771.193a1.4,1.4,0,0,0-.193.036h-.049a14.586,14.586,0,0,1-1.842.12c-.4-.012-.772-.036-1.133-.06a5.9,5.9,0,0,1-1.18-1c2.843.976,5.854-.12,8.166-1.542-2.638,1.313-5.926,2.036-8.432.543a9.539,9.539,0,0,1-.807-.579,6.843,6.843,0,0,1-.385-.975c2.3,1.771,5.432,1.53,7.818.506-2.651.832-5.795.627-7.614-1.421-.169-.194-.325-.386-.482-.591a7.6,7.6,0,0,1,0-1.047c.036.036.06.072.084.1a5.509,5.509,0,0,0,6.276,1.9,5.091,5.091,0,0,1-5.614-2.421c-.181-.266-.349-.555-.518-.844.072-.217.144-.445.241-.674,1.108,1.35,2.614,2.6,4.4,2.505-1.915-.2-3.144-1.8-4-3.324.036-.06.072-.134.108-.206a2.059,2.059,0,0,1-.132.169c0-.011-.012-.023-.024-.036-.144-.289-.289-.578-.433-.879a9.658,9.658,0,0,1,1.59-1.988,9.461,9.461,0,0,0-1.735,1.675c-.169-.361-.313-.734-.458-1.109a10.665,10.665,0,0,1,4.12-3.782c.12.132.241.265.349.4a10.009,10.009,0,0,0-2.192,1.675,8.874,8.874,0,0,1,4.252-1.867,6.389,6.389,0,0,1,.662,1.312,7.48,7.48,0,0,0-.289-1.348,5.842,5.842,0,0,1,1.446.084c.108.012.2.036.313.048a8.432,8.432,0,0,1,1.276,2.77,9.389,9.389,0,0,0-.6-2.6,6.723,6.723,0,0,1,.867.313,15.514,15.514,0,0,1,1.542,4.65,19.439,19.439,0,0,0-.59-4.18,6.344,6.344,0,0,1,.71.445,12.794,12.794,0,0,1,1.061,5.975,12.462,12.462,0,0,0,.072-5.083c.217.193.421.4.6.59m-13.672,3.446c.06-.144.108-.277.169-.421.084.108.157.229.241.337l.217.289a5.009,5.009,0,0,0-.277.506c-.12-.229-.241-.47-.349-.71M89.141,205.6a6.493,6.493,0,0,1-2.9-.711l-.47-.229a18.977,18.977,0,0,1-1.651-2.06,7.731,7.731,0,0,1-1.493-6.6c.06-.229.1-.373.12-.445a11.156,11.156,0,0,1,1.385-3.012,13.2,13.2,0,0,1,6.36-5.082,21.476,21.476,0,0,1,8.047-1.5,20.846,20.846,0,0,1,5.361.615,17.85,17.85,0,0,0-9.192.855,16.231,16.231,0,0,1,5.987-.3,12.451,12.451,0,0,0-7.829,2.855c3.071-2.132,6.842-2.253,10.323-1.529a10.388,10.388,0,0,0-1.529-.1q-.543,0-.9.036c-.084,0-.181-.011-.277-.011a14.928,14.928,0,0,0-4.517.7,7.122,7.122,0,0,0-4.589,4.084,11.5,11.5,0,0,0-.82,4.072c.012,2.084.169,3.36,1.434,4.385H92l1.3.951c.4.289.783.542,1.132.747a8.006,8.006,0,0,1-5.288,2.278m4.12-6.4a2.556,2.556,0,0,1-.12-.362,15.874,15.874,0,0,0,3.673-5.456,14.979,14.979,0,0,1-3.9,3.711v-.108a8.929,8.929,0,0,0,2.133-3.06,10.636,10.636,0,0,1-1.891,1.386,11.481,11.481,0,0,1,.421-1.3,4.785,4.785,0,0,1,3.144-2.7,11.068,11.068,0,0,1,2.554-.518c.024.253.036.495.036.734a8.6,8.6,0,0,1-1.7,5.011,14.359,14.359,0,0,1-2.072,2.337,13.265,13.265,0,0,0,2.77-5.9,14.233,14.233,0,0,1-5.047,6.227m3.854,2.818-.241-.1-.024-.012a7.671,7.671,0,0,1-.795-.373,20.84,20.84,0,0,0,2.132-1.976,7.68,7.68,0,0,0-1.073,2.457m2.434-4.132a11.059,11.059,0,0,0,2.108-6.36c0-.277-.012-.542-.024-.818h.024a11.1,11.1,0,0,1,3.168.5,3.283,3.283,0,0,0-.036.494,3.071,3.071,0,0,0,1.41,2.578,5.745,5.745,0,0,0,3.023,1.074h.048a3.075,3.075,0,0,0,1.145-.241,4.7,4.7,0,0,1,.3.372,11.42,11.42,0,0,1,2.6,7.083,9.35,9.35,0,0,1-.59,3.4,3.36,3.36,0,0,1-3.277,2.289,6.09,6.09,0,0,1-4.144-1.723,6.094,6.094,0,0,0,.8-.313,3.723,3.723,0,0,0,2.132-3.506A5.489,5.489,0,0,0,106.2,198.3a5.96,5.96,0,0,0-3.638-1.312,5.194,5.194,0,0,0-3.434,1.469c.144-.181.278-.373.423-.566m6.914-6.18a4.476,4.476,0,0,1,1.1-2.373c.108-.132.2-.265.3-.372l3.661,2.6c-.277.385-.65.891-1.144,1.531a1.342,1.342,0,0,1-1.157.578,3.157,3.157,0,0,1-1.386-.374,5.273,5.273,0,0,1-.494-.265,1.184,1.184,0,0,0-.12-.084l-.036-.024a1.437,1.437,0,0,1-.722-1.217m8.035,20.672a8.652,8.652,0,0,1-2.844,1.228,6.982,6.982,0,0,1-.915.169,2.074,2.074,0,0,1-.241.012c-.048.012-.048,0-.048.012a12.641,12.641,0,0,1-7.951-3c-2.12-1.771-3.373-4.084-3.361-6.035a6.39,6.39,0,0,1,1.35-4.349,2.967,2.967,0,0,1,2.072-1.072,3.638,3.638,0,0,1,2.168.783,3.122,3.122,0,0,1,1.157,2.59,1.594,1.594,0,0,1-.23.916,1.836,1.836,0,0,1-1.023.638,4.674,4.674,0,0,1-1.313.182c-.108,0-.193-.013-.241-.013h-.072l-2.6-.253,1.542,2.12c2.349,3.216,5.216,4.325,7.5,4.3a7.542,7.542,0,0,0,2.457-.409,5.523,5.523,0,0,0,3.036-3.422,14.105,14.105,0,0,0,.722-4.2,13.407,13.407,0,0,0-2.072-7.059,11.847,11.847,0,0,1,2.6,5.143,13.475,13.475,0,0,0-3.312-8.106l.012-.013.108.086a17.53,17.53,0,0,1,4,6.057,14.586,14.586,0,0,0-1.157-4.036l1.1.772a14.93,14.93,0,0,1,1.445,4.553c.12.771.193,1.458.23,1.94.012.241.023.433.023.554s.013.181.013.193c-.036,5.758-2.132,8.348-4.156,9.722m6.421-18.576-1.1.771-1.1-.771-.012-.012-.109-.193L88.538,172.248l-.012-.012s-.06-.048-.181-.132a54.321,54.321,0,0,1-9.492-8.806c-4.24-4.976-8.324-11.71-8.914-19.443-.421-5.325-.711-13.311-.9-22.274h-.012c-.385-17.66-.433-39.054-.433-51.064v-8.2a1.511,1.511,0,0,1,.036-.288A4.517,4.517,0,0,1,70.891,59,86.991,86.991,0,0,1,86.66,51.979a103.247,103.247,0,0,1,33.163-5.709h.012A103.254,103.254,0,0,1,153,51.979,86.964,86.964,0,0,1,168.767,59a4.517,4.517,0,0,1,2.265,3.024,1.511,1.511,0,0,1,.036.288v8.2c0,12.011-.048,33.4-.445,51.064-.1,4.481-.217,8.722-.361,12.5s-.326,7.108-.543,9.77c-.59,7.733-4.674,14.467-8.914,19.443a54.32,54.32,0,0,1-9.492,8.806c-.12.084-.181.132-.181.132l-.012.012-30.067,21.358-.12.193Zm12.262-2.1a1.393,1.393,0,0,1-.71,1.217l-.036.024c-.024.012-.072.048-.132.084a3.771,3.771,0,0,1-.482.265,3.153,3.153,0,0,1-1.386.374,1.342,1.342,0,0,1-1.157-.578c-.494-.64-.867-1.146-1.144-1.531l3.662-2.6c.1.107.193.24.3.372a4.359,4.359,0,0,1,1.084,2.373m3.975,19.093a12.641,12.641,0,0,1-7.951,3c0-.012,0,0-.048-.012a2.074,2.074,0,0,1-.241-.012,6.982,6.982,0,0,1-.915-.169,8.639,8.639,0,0,1-2.843-1.228c-2.024-1.374-4.12-3.963-4.156-9.722,0-.012,0-.06.012-.193s.012-.313.024-.554c.036-.482.108-1.169.229-1.94a14.93,14.93,0,0,1,1.445-4.553l1.1-.772a14.586,14.586,0,0,0-1.157,4.036,17.546,17.546,0,0,1,4-6.057l.108-.086.012.013a13.475,13.475,0,0,0-3.312,8.106,11.847,11.847,0,0,1,2.6-5.143,13.407,13.407,0,0,0-2.072,7.059,13.731,13.731,0,0,0,.722,4.2,5.523,5.523,0,0,0,3.036,3.422,7.542,7.542,0,0,0,2.457.409c2.289.024,5.155-1.085,7.492-4.3l1.554-2.12-2.6.253h-.072c-.048,0-.132.013-.241.013a4.679,4.679,0,0,1-1.313-.182,1.836,1.836,0,0,1-1.023-.638,1.6,1.6,0,0,1-.229-.916,3.122,3.122,0,0,1,1.156-2.59,3.638,3.638,0,0,1,2.168-.783,2.988,2.988,0,0,1,2.072,1.072,6.333,6.333,0,0,1,1.338,4.349c.024,1.952-1.229,4.264-3.349,6.035m-.06-13.817a5.962,5.962,0,0,0-3.638,1.312,5.451,5.451,0,0,0-2.035,4.421,3.793,3.793,0,0,0,.638,2.229,3.727,3.727,0,0,0,1.493,1.277,6.093,6.093,0,0,0,.8.313,6.111,6.111,0,0,1-4.144,1.723,3.361,3.361,0,0,1-3.277-2.289,9.35,9.35,0,0,1-.59-3.4,11.42,11.42,0,0,1,2.6-7.083,4.7,4.7,0,0,1,.3-.372,3.08,3.08,0,0,0,1.145.241h.048a5.745,5.745,0,0,0,3.023-1.074,3.071,3.071,0,0,0,1.41-2.578,3.284,3.284,0,0,0-.036-.494,11.1,11.1,0,0,1,3.169-.5h.024c-.012.276-.024.541-.024.818a10.965,10.965,0,0,0,2.108,6.36c.144.193.277.385.421.566a5.192,5.192,0,0,0-3.434-1.469m5.71,4.927-.024.012-.241.1a7.655,7.655,0,0,0-1.073-2.457,20.838,20.838,0,0,0,2.132,1.976,7.672,7.672,0,0,1-.795.373m1.312-3.036a14.358,14.358,0,0,1-2.072-2.337,8.6,8.6,0,0,1-1.7-5.011c0-.24.012-.482.036-.734a11.069,11.069,0,0,1,2.554.518,4.783,4.783,0,0,1,3.144,2.7,9.348,9.348,0,0,1,.409,1.3,10.951,10.951,0,0,1-1.878-1.386,9.037,9.037,0,0,0,2.12,3.06.333.333,0,0,1,.012.108,14.979,14.979,0,0,1-3.9-3.711,15.706,15.706,0,0,0,3.673,5.456,2.406,2.406,0,0,1-.132.362,14.306,14.306,0,0,1-5.035-6.227,13.265,13.265,0,0,0,2.77,5.9M155.54,202.6a18.978,18.978,0,0,1-1.651,2.06l-.47.229a6.493,6.493,0,0,1-2.9.711,8.006,8.006,0,0,1-5.288-2.278c.349-.2.734-.458,1.132-.747l1.3-.951a3.29,3.29,0,0,0,1.193-1.8,10.065,10.065,0,0,0,.253-2.59,11.505,11.505,0,0,0-.832-4.072,7.1,7.1,0,0,0-4.577-4.084,14.923,14.923,0,0,0-4.517-.7c-.1,0-.193.011-.277.011q-.361-.036-.9-.036a10.393,10.393,0,0,0-1.53.1c3.481-.723,7.239-.6,10.324,1.529a12.454,12.454,0,0,0-7.83-2.855,16.231,16.231,0,0,1,5.987.3,17.85,17.85,0,0,0-9.192-.855,20.846,20.846,0,0,1,5.361-.615,21.472,21.472,0,0,1,8.047,1.5,13.254,13.254,0,0,1,6.36,5.082,11.539,11.539,0,0,1,1.385,3.012c.024.072.06.217.12.445a7.718,7.718,0,0,1-1.493,6.6m14.25,17.443c-.157.2-.313.4-.482.591-1.819,2.048-4.963,2.253-7.613,1.421,2.385,1.025,5.517,1.265,7.817-.506a8.643,8.643,0,0,1-.385.975,9.541,9.541,0,0,1-.807.579c-2.505,1.493-5.795.771-8.432-.543,2.313,1.422,5.312,2.519,8.168,1.542a6.3,6.3,0,0,1-1.181,1c-.361.024-.734.048-1.132.06a14.59,14.59,0,0,1-1.843-.12h-.048a1.387,1.387,0,0,0-.194-.036c-.181-.036-.445-.1-.771-.193a9.073,9.073,0,0,1-2.457-1.145c-1.819-1.193-3.747-3.277-4.252-7.408v-.024c0-.037-.012-.073-.012-.134-.012-.12-.012-.3-.012-.53a10.935,10.935,0,0,1,.253-2.313c.181-.193.385-.4.59-.59a12.676,12.676,0,0,0,.084,5.083,12.808,12.808,0,0,1,1.061-5.975,6.344,6.344,0,0,1,.71-.445,19.44,19.44,0,0,0-.59,4.18,15.515,15.515,0,0,1,1.542-4.65,6.723,6.723,0,0,1,.867-.313,9.389,9.389,0,0,0-.6,2.6,8.432,8.432,0,0,1,1.276-2.77c.109-.012.206-.036.314-.048a5.83,5.83,0,0,1,1.445-.084,7.48,7.48,0,0,0-.289,1.348,6.387,6.387,0,0,1,.662-1.312,8.874,8.874,0,0,1,4.252,1.867,10.082,10.082,0,0,0-2.2-1.675l.362-.4a10.669,10.669,0,0,1,4.119,3.782c-.144.374-.289.748-.458,1.109a9.461,9.461,0,0,0-1.735-1.675,9.659,9.659,0,0,1,1.59,1.988c-.144.3-.289.59-.433.879-.012.013-.024.025-.024.036a2.059,2.059,0,0,1-.132-.169c.036.072.072.146.108.206-.855,1.529-2.084,3.119-4,3.324,1.783.1,3.289-1.156,4.4-2.505.1.229.169.458.241.674-.169.289-.337.578-.518.844A5.091,5.091,0,0,1,163.43,221a5.509,5.509,0,0,0,6.276-1.9c.024-.024.048-.06.084-.1a7.6,7.6,0,0,1,0,1.047m-.06-2.626a5.016,5.016,0,0,0-.277-.506l.217-.289c.084-.108.157-.229.241-.337.06.144.108.277.169.421-.108.241-.229.482-.349.71m.615,1.819a6.817,6.817,0,0,0-.181-.71c.1-.12.169-.229.253-.338a6.984,6.984,0,0,1,.036.868l-.108.181m-.024-3.119a2.138,2.138,0,0,0-.132-.23c.169-.253.337-.506.494-.759-.108.337-.229.662-.361.988m.6,1.336c.12-.193.241-.385.349-.578l.036.181c-.084.253-.169.518-.277.771-.036-.132-.072-.253-.108-.373m.349,2.289v-.06c.036-.06.084-.108.12-.169a1.373,1.373,0,0,1-.12.229m33.85-39.9c1.988,1.553,3.975,4.095,3.987,8.77,0,.325-.012.662-.024,1.011,0,.012-.012.024-.012.036s-.012.084-.024.17a3.872,3.872,0,0,1-.157.614,2.478,2.478,0,0,1-.988,1.312,2.674,2.674,0,0,1-1.386.385c-1.288-5.336-4.565-6.938-4.565-6.938,2.567,4.024,2.579,7.059,2.458,8.241a1.344,1.344,0,0,1-.856.5A46.36,46.36,0,0,0,175.2,216.82a10.58,10.58,0,0,0-2.963-8.432,19.213,19.213,0,0,0-5.734-4.024c4.361,1.157,7.987,5.167,9.311,9.818A15.245,15.245,0,0,0,169,203.942a12.6,12.6,0,0,1,6,5.336,13.244,13.244,0,0,0-5.108-6.288,13.58,13.58,0,0,1,5.795,5.433l-.229,3.047,2.253-2.241a9.192,9.192,0,0,0,2.915-6.589,13.328,13.328,0,0,0-2.951-7.685,22.436,22.436,0,0,0-2.385-2.711.043.043,0,0,0,.012-.036,17.992,17.992,0,0,1,5.312,6.445,19.4,19.4,0,0,0-5.324-8.444c-.024-.131-.048-.277-.084-.409a19.4,19.4,0,0,1,5.228,5.819,19.022,19.022,0,0,0-6.794-8.612c-.108-.109-.2-.218-.313-.314a1.852,1.852,0,0,0,.229-.2,17.747,17.747,0,0,1,6.529,5.325,18.439,18.439,0,0,0-5.48-6.446,3.551,3.551,0,0,0,.253-.349,15.471,15.471,0,0,1,5.408,4.457,16.2,16.2,0,0,0-4.132-5.252,6.565,6.565,0,0,0,1.229.2,10.445,10.445,0,0,1,4.421,3.529,11.072,11.072,0,0,0-2.289-3.661c.2-.036.4-.083.578-.131a10,10,0,0,1,3.53,3.793,9.584,9.584,0,0,0-1.867-3.951c.193.048.373.085.554.121a14.8,14.8,0,0,1,3.41,3.649,17.3,17.3,0,0,0-1.554-3.493c.169,0,.337-.011.506-.024a10.758,10.758,0,0,1,2.687,3.457,10.855,10.855,0,0,0-1.289-3.711,4.309,4.309,0,0,0,.421-.132,8.809,8.809,0,0,1,3.157,3.674,9.436,9.436,0,0,0-1.891-4.263c.084-.049.157-.1.229-.134a11.7,11.7,0,0,1,3.711,4.4,11.669,11.669,0,0,0-2.012-4.626c.169-.012.325-.024.494-.024a11.52,11.52,0,0,1,3.156,3.422,13.2,13.2,0,0,0-1.517-3.566c.132-.012.253-.024.385-.047a12.654,12.654,0,0,1,4.517,4.311,12.79,12.79,0,0,0-2.77-4.626c.12-.035.241-.06.349-.1a13.8,13.8,0,0,1,5.529,6.119,14.509,14.509,0,0,0-3.878-6.675c.12-.048.229-.083.325-.132a8.023,8.023,0,0,1,3.252,1.952,7.845,7.845,0,0,0-2-2.649c.2-.134.385-.278.555-.409a9.628,9.628,0,0,1,6.131,3.938,10.051,10.051,0,0,0-5.047-5.072c.012-.024.024-.036.036-.06a10.988,10.988,0,0,1,8.348,7.481,11.728,11.728,0,0,0-7.662-8.866,1.481,1.481,0,0,0,.072-.265l1.217.241s0,.012.06.024a1.821,1.821,0,0,1,.229.06c.217.06.53.157.9.3a11.861,11.861,0,0,1,2.782,1.566m-1.879-5.469a24.546,24.546,0,0,0,3.9-5.506,23.414,23.414,0,0,1-5.566,5.289,17.372,17.372,0,0,0,3.229-5.361,17.475,17.475,0,0,1-7.024,6.686c-.108.013-.2.013-.3.026a14.856,14.856,0,0,0,4.916-6.241,13.361,13.361,0,0,1-7.686,6.107,11.723,11.723,0,0,0,5.879-7.107,10.7,10.7,0,0,1-8.4,6.553c5.649-1.227,7.879-8.685,7.879-8.685,1.89.578,3.4.976,3.4.976a13.7,13.7,0,0,0,4.65.686q.759,0,1.626-.071c-.325.517-.722,1.107-1.205,1.734a21.62,21.62,0,0,1-5.3,4.915" transform="translate(2.441 0)" fill="#fff"/><path d="M128.545,142.737a11.089,11.089,0,0,0-1.241-5.084l-.048-.1-4.385-3.638-.373-4.505a2.011,2.011,0,0,0-.639-1.373,2.049,2.049,0,0,0-1.445-.531l-5.674.338L113.547,127l-.109-.06-.012-.012h-.012c0-.012,0-.012-.012-.012s0-.012-.012-.012,0-.024-.012-.012c0-.012,0-.012-.012-.012-.012-.024-.012-.024-.024-.012s-.012-.024-.024-.024a.012.012,0,0,0-.012-.012l-.012-.012h-.024v-.012h-.012a.044.044,0,0,0-.036-.012c0-.012,0-.012-.012-.012h-.024c-.012-.012-.012-.012-.024-.012h-.048a.044.044,0,0,0-.036-.012h-.06a.2.2,0,0,0-.084.012.042.042,0,0,0-.024.012h-.024a.012.012,0,0,0-.012.012h-.012a.012.012,0,0,0-.012.012h-.012a.042.042,0,0,0-.024.012H112.8l-.012.012h-.012c-.012.012-.024.012-.024.024a.037.037,0,0,0-.024.012v.012a.012.012,0,0,0-.012.012l-.012.012a42436.855,42436.855,0,0,1-.024.024h-.012l-.012.012-.108.06-1.193.856-5.685-.35a2.042,2.042,0,0,0-1.434.531,2.014,2.014,0,0,0-.638,1.373l-.373,4.517-4.385,3.626-.048.1a11.076,11.076,0,0,0-1.241,5.084,10.954,10.954,0,0,0,.217,2.168,6.408,6.408,0,0,0-.169,1.445,5.868,5.868,0,0,0,3.2,5.518,5.052,5.052,0,0,0,5.408,4.481,5.511,5.511,0,0,0,4.577,2.421,5.122,5.122,0,0,0,2.265-.53,5.078,5.078,0,0,0,2.253.53,5.51,5.51,0,0,0,4.577-2.421,5.054,5.054,0,0,0,5.409-4.481,5.867,5.867,0,0,0,3.2-5.518,6.408,6.408,0,0,0-.169-1.445,10.955,10.955,0,0,0,.218-2.168m-23.937-13.252v-.012a.986.986,0,0,1,.314-.686.961.961,0,0,1,.7-.265l4.433.265-4.674,3.361-1.061.879Zm-4.975,8.721,4.421-3.661,1.928-1.59L110.089,130l-11.48,13.72a8.89,8.89,0,0,1-.048-.987,10.115,10.115,0,0,1,1.072-4.53M98.61,146.35a4.989,4.989,0,0,1,.132-1.2v-.012l12.07-14.408-9.745,20.129a4.846,4.846,0,0,1-2.457-4.505m7.444,9a3.881,3.881,0,0,1-2.794-.915,3.707,3.707,0,0,1-1.458-2.782l9.758-20.154Zm6.493,2.012a4.042,4.042,0,0,1-1.759.4A4.482,4.482,0,0,1,107,155.711l5.542-24.045Zm7.915-28.838a.97.97,0,0,1,.71.265.989.989,0,0,1,.313.686l.289,3.542-1.023-.843-4.71-3.385ZM115.3,157.759a4.037,4.037,0,0,1-1.758-.4V131.666l5.541,24.033a4.476,4.476,0,0,1-3.783,2.06m7.529-3.325a3.883,3.883,0,0,1-2.794.915L114.534,131.5l9.757,20.154a3.706,3.706,0,0,1-1.457,2.782m2.192-3.578-9.746-20.129,12.071,14.408v.012a5.676,5.676,0,0,1,.132,1.2,4.846,4.846,0,0,1-2.457,4.505m2.445-7.143L116,130l4.108,2.951,1.926,1.59,4.422,3.661a10.115,10.115,0,0,1,1.072,4.53,6.53,6.53,0,0,1-.06.975" transform="translate(9.223 11.986)" fill="#fff"/><path d="M110.54,75.8a11.176,11.176,0,0,0-1.241-5.1l-.048-.084-4.385-3.638-.373-4.505a2,2,0,0,0-2.084-1.9l-5.674.338-1.193-.856L95.433,60l-.024-.012a57984666804.568,57984666804.568,0,0,1-.036-.036l-.012-.012a.042.042,0,0,0-.024-.012c-.012-.012-.012-.024-.024-.024H95.3v-.012h-.012l-.012-.012h-.012c0-.012,0-.012-.012-.012h-.024v-.012h-.012V59.84h-.048a.012.012,0,0,0-.012-.012.023.023,0,0,0-.036,0H95.1a.044.044,0,0,0-.036-.012h-.048a.012.012,0,0,0-.012.012h-.072a.012.012,0,0,0-.012.012h-.048v.012c-.012,0-.012,0-.024.012h-.024v.012h-.024v.012c-.012,0-.012,0-.024.012l-.012.012-.024.012a26.867,26.867,0,0,1-.024.024,26.867,26.867,0,0,1-.024.024.012.012,0,0,0-.012.012l-.132.072-1.193.868-5.685-.35h-.072a2,2,0,0,0-2,1.9l-.373,4.505-4.385,3.638-.048.084a11.162,11.162,0,0,0-1.241,5.1,10.835,10.835,0,0,0,.217,2.156,6.49,6.49,0,0,0-.169,1.445,5.874,5.874,0,0,0,3.2,5.53,4.811,4.811,0,0,0,1.83,3.348,4.911,4.911,0,0,0,3.578,1.133,5.5,5.5,0,0,0,4.577,2.409,5.122,5.122,0,0,0,2.265-.53,5.078,5.078,0,0,0,2.253.53,5.5,5.5,0,0,0,4.577-2.409,4.909,4.909,0,0,0,3.578-1.133,4.809,4.809,0,0,0,1.831-3.348,5.873,5.873,0,0,0,3.2-5.53,6.49,6.49,0,0,0-.169-1.445,10.836,10.836,0,0,0,.218-2.156M86.6,62.55v-.024a.991.991,0,0,1,1.012-.951l4.445.265L87.374,65.2l-1.061.879Zm-4.975,8.721,4.421-3.661,1.928-1.59,4.084-2.927L80.6,76.789a9.035,9.035,0,0,1-.048-.987,10.115,10.115,0,0,1,1.072-4.53M80.6,79.4a5.675,5.675,0,0,1,.132-1.2l12.07-14.42L83.062,83.92A4.852,4.852,0,0,1,80.6,79.4m7.444,9.01a3.931,3.931,0,0,1-2.794-.915A3.79,3.79,0,0,1,83.8,84.7l9.758-20.142Zm6.493,2.012a4.192,4.192,0,0,1-1.759.386A4.482,4.482,0,0,1,89,88.764l5.542-24.033Zm7.915-28.838a.982.982,0,0,1,1.023.939l.289,3.542-1.023-.843-4.71-3.373ZM97.3,90.812a4.2,4.2,0,0,1-1.759-.386V64.731l5.542,24.033A4.481,4.481,0,0,1,97.3,90.812m7.529-3.313a3.932,3.932,0,0,1-2.794.915L96.529,64.562,106.286,84.7a3.789,3.789,0,0,1-1.457,2.794m2.192-3.578L97.276,63.779l12.071,14.432a5.564,5.564,0,0,1,.132,1.192,4.852,4.852,0,0,1-2.457,4.517m2.445-7.143L98.023,63.093l4.084,2.927,1.926,1.59,4.421,3.661a10.1,10.1,0,0,1,1.073,4.53,6.629,6.629,0,0,1-.06.975" transform="translate(7.521 5.656)" fill="#fff"/><path d="M146.55,75.8a11.176,11.176,0,0,0-1.241-5.1l-.048-.084-4.385-3.638-.373-4.505a2,2,0,0,0-2.084-1.9l-5.674.338-1.192-.856-.109-.06c-.012-.012-.012-.012-.024-.012l-.012-.012-.036-.036a.042.042,0,0,0-.024-.012.026.026,0,0,0-.024-.024h-.012v-.012H131.3a.012.012,0,0,0-.012-.012h-.012a.012.012,0,0,0-.012-.012h-.024v-.012h-.012V59.84h-.048a.012.012,0,0,0-.012-.012.023.023,0,0,0-.036,0h-.024a.044.044,0,0,0-.036-.012h-.048a.012.012,0,0,0-.012.012h-.072a.012.012,0,0,0-.012.012h-.048v.012c-.012,0-.012,0-.024.012h-.012c-.012,0-.012,0-.012.012H130.8v.012c-.012,0-.012,0-.024.012l-.012.012-.024.012a.012.012,0,0,0-.012.012c-.012.012-.024.012-.024.024a26.867,26.867,0,0,0-.024.024.037.037,0,0,0-.024.012l-.108.06-1.193.868-5.685-.35H123.6a1.992,1.992,0,0,0-2,1.9l-.373,4.505-4.385,3.638-.048.084a11.012,11.012,0,0,0-1.241,5.1,10.835,10.835,0,0,0,.217,2.156A6.49,6.49,0,0,0,115.6,79.4a5.874,5.874,0,0,0,3.2,5.53,4.811,4.811,0,0,0,1.83,3.348,4.912,4.912,0,0,0,3.578,1.133,5.5,5.5,0,0,0,4.577,2.409,5.122,5.122,0,0,0,2.265-.53,5.078,5.078,0,0,0,2.253.53,5.5,5.5,0,0,0,4.577-2.409,4.925,4.925,0,0,0,3.578-1.133,4.809,4.809,0,0,0,1.831-3.348,5.874,5.874,0,0,0,3.2-5.53,6.491,6.491,0,0,0-.17-1.445,10.837,10.837,0,0,0,.218-2.156M122.6,62.55l.012-.024a.991.991,0,0,1,1.012-.951l4.445.265L123.384,65.2l-1.073.891Zm-4.963,8.721,6.348-5.252,4.084-2.927L116.615,76.777a8.815,8.815,0,0,1-.048-.975,10.115,10.115,0,0,1,1.072-4.53M116.615,79.4a4.891,4.891,0,0,1,.132-1.192l12.07-14.432L119.072,83.92a4.852,4.852,0,0,1-2.457-4.517m7.444,9.01a3.931,3.931,0,0,1-2.794-.915,3.766,3.766,0,0,1-1.458-2.782V84.7l9.758-20.142Zm6.493,2.012a4.188,4.188,0,0,1-1.759.386,4.482,4.482,0,0,1-3.783-2.048l5.542-24.033Zm7.915-28.838a.982.982,0,0,1,1.023.939l.289,3.542-1.023-.843-4.71-3.373ZM133.31,90.812a4.187,4.187,0,0,1-1.758-.386V64.731l5.541,24.021a4.491,4.491,0,0,1-3.783,2.06m8.987-6.1a3.77,3.77,0,0,1-1.458,2.782,3.932,3.932,0,0,1-2.794.915l-5.506-23.851L142.3,84.7Zm.734-.8-9.746-20.141,12.071,14.432a5.563,5.563,0,0,1,.132,1.192,4.852,4.852,0,0,1-2.457,4.517m2.445-7.155L134.033,63.093l4.084,2.927,1.9,1.578c.013.012.024.024.036.024l4.41,3.649a10.115,10.115,0,0,1,1.072,4.53,6.467,6.467,0,0,1-.06.963" transform="translate(10.926 5.656)" fill="#fff"/><path d="M146.55,110.876a11.1,11.1,0,0,0-1.241-5.1l-.048-.084-4.385-3.638-.373-4.505a2.015,2.015,0,0,0-.639-1.385,1.981,1.981,0,0,0-1.445-.518l-5.674.337-1.192-.856-.109-.06-.024-.012v-.012c0-.012-.024-.012-.024-.012s0-.024-.012-.012c0-.012,0-.012-.012-.012-.012-.024-.012-.024-.024-.012a.012.012,0,0,0-.012-.012c-.012-.012-.012-.024-.024-.012v-.012H131.3l-.012-.012h-.012v-.012h-.012a100.108,100.108,0,0,0-.072-.024c-.012-.012-.012-.012-.024-.012a.037.037,0,0,0-.048,0,.044.044,0,0,0-.036-.012h-.06a.012.012,0,0,0-.012.012h-.072a.042.042,0,0,0-.024.012h-.024v.012h-.012c-.012,0-.024.012-.036.012a.042.042,0,0,0-.024.012H130.8v.012h-.024v.012a.037.037,0,0,0-.024.012l-.012.012h-.012v.012a.012.012,0,0,0-.012.012l-.012.012a.012.012,0,0,0-.012.012h-.012v.012a.037.037,0,0,0-.024.012l-.108.06-1.193.856-5.685-.337a1.99,1.99,0,0,0-2.072,1.9l-.373,4.505-4.385,3.638-.048.084a11.01,11.01,0,0,0-1.025,7.253,6.408,6.408,0,0,0-.169,1.445,5.874,5.874,0,0,0,3.2,5.53,5.055,5.055,0,0,0,5.408,4.469,5.511,5.511,0,0,0,4.577,2.421,5.122,5.122,0,0,0,2.265-.53,5.078,5.078,0,0,0,2.253.53,5.51,5.51,0,0,0,4.577-2.421,4.878,4.878,0,0,0,3.578-1.121,4.809,4.809,0,0,0,1.831-3.348,5.874,5.874,0,0,0,3.2-5.53,6.409,6.409,0,0,0-.17-1.445,10.927,10.927,0,0,0,.218-2.156M122.6,97.624l.012-.024a.991.991,0,0,1,1.012-.951l4.433.265-4.674,3.361-1.073.891Zm-4.963,8.709,4.421-3.661,1.928-1.59,4.084-2.927-11.456,13.7a8.815,8.815,0,0,1-.048-.975,10.2,10.2,0,0,1,1.072-4.542m-1.023,8.143a4.891,4.891,0,0,1,.132-1.192l12.07-14.432-9.745,20.129a4.833,4.833,0,0,1-2.457-4.505m7.444,9a3.918,3.918,0,0,1-2.794-.9,3.75,3.75,0,0,1-1.458-2.794l9.758-20.166Zm6.493,2.024a4.188,4.188,0,0,1-1.759.386,4.482,4.482,0,0,1-3.783-2.048l5.542-24.045Zm7.915-28.85a.992.992,0,0,1,1.023.951l.289,3.542-1.023-.843-4.71-3.385Zm-5.156,29.237a4.187,4.187,0,0,1-1.758-.386V99.793l5.541,24.033a4.491,4.491,0,0,1-3.783,2.06m7.529-3.313a3.92,3.92,0,0,1-2.794.9l-5.506-23.863,9.758,20.166a3.754,3.754,0,0,1-1.458,2.794m2.192-3.59-9.746-20.129,12.071,14.432a5.563,5.563,0,0,1,.132,1.192,4.833,4.833,0,0,1-2.457,4.505m2.445-7.143L134.033,98.155l4.084,2.927,1.9,1.578c.013.012.024.024.036.024l4.41,3.649a10.2,10.2,0,0,1,1.072,4.542,6.466,6.466,0,0,1-.06.963" transform="translate(10.926 8.972)" fill="#fff"/><path d="M110.54,110.82a11.082,11.082,0,0,0-1.241-5.083l-.048-.1L104.865,102l-.373-4.5a2,2,0,0,0-2.084-1.9l-5.674.337-1.193-.844-.108-.06H95.42a.011.011,0,0,0-.012-.011c0-.012,0-.012-.012-.012s0-.012-.012-.012,0-.013-.012-.013a.012.012,0,0,0-.012-.012c0-.012,0-.012-.012-.012h-.012v-.012h-.012V94.93c-.012,0-.012-.012-.024-.012l-.012-.011h-.024V94.9H95.24a.012.012,0,0,0-.012-.012h-.012a.042.042,0,0,0-.036-.013c-.012-.012-.012-.012-.024-.012a.037.037,0,0,0-.048,0,.044.044,0,0,0-.036-.012h-.06a.044.044,0,0,0-.036.012h-.048a.042.042,0,0,0-.024.012h-.024v.013h-.024a.012.012,0,0,0-.012.012h-.012a.042.042,0,0,0-.024.012h-.012v.011H94.77v.012a.037.037,0,0,0-.024.012l-.012.012h-.012v.012a.012.012,0,0,0-.012.012l-.012.013a.012.012,0,0,0-.012.012c-.012,0-.012,0-.012.012a.039.039,0,0,0-.024.011l-.108.06-1.193.856-5.685-.349h-.072a2.008,2.008,0,0,0-2,1.9l-.373,4.517-4.385,3.626-.048.1a11.008,11.008,0,0,0-1.025,7.251,6.41,6.41,0,0,0-.169,1.446,5.868,5.868,0,0,0,3.2,5.518,5.077,5.077,0,0,0,5.408,4.48,5.512,5.512,0,0,0,4.577,2.422,4.963,4.963,0,0,0,2.265-.543,4.921,4.921,0,0,0,2.253.543,5.51,5.51,0,0,0,4.577-2.422,4.857,4.857,0,0,0,3.578-1.133,4.762,4.762,0,0,0,1.831-3.347,5.867,5.867,0,0,0,3.2-5.518,6.41,6.41,0,0,0-.169-1.446,11.047,11.047,0,0,0,.218-2.168M86.6,97.568v-.012a.975.975,0,0,1,1.012-.951l4.433.265-4.674,3.361-1.061.88Zm-4.975,8.721,4.421-3.661,1.928-1.59,4.108-2.951L80.6,111.807a9.008,9.008,0,0,1-.048-.987,10.118,10.118,0,0,1,1.072-4.53M80.6,114.434a5.774,5.774,0,0,1,.132-1.205v-.012L92.795,98.823l-9.733,20.116a4.844,4.844,0,0,1-2.457-4.5m7.444,9a3.881,3.881,0,0,1-2.794-.915,3.707,3.707,0,0,1-1.458-2.782L93.554,99.58Zm6.493,2.012a4.042,4.042,0,0,1-1.759.4A4.466,4.466,0,0,1,89,123.783L94.542,99.75ZM102.456,96.6a.985.985,0,0,1,1.023.951l.289,3.543-1.023-.844-4.71-3.385ZM97.3,125.842a4.046,4.046,0,0,1-1.759-.4V99.75l5.542,24.033a4.465,4.465,0,0,1-3.783,2.059m7.529-3.325a3.883,3.883,0,0,1-2.794.915L96.529,99.58l9.757,20.154a3.709,3.709,0,0,1-1.457,2.782m2.192-3.578L97.288,98.823l12.059,14.406a5.774,5.774,0,0,1,.132,1.205,4.844,4.844,0,0,1-2.457,4.5m2.445-7.143L98,98.087l4.108,2.951,1.926,1.59,4.421,3.661a10.1,10.1,0,0,1,1.073,4.53,6.61,6.61,0,0,1-.06.975" transform="translate(7.521 8.968)" fill="#fff"/><path d="M7.281,244.552c-2.334,0-4.737-1.81-4.737-6.316,0-4.6,1.942-6.658,4.235-6.658,2.061,0,3.439,1.489,4.505,4.194h.241V231.1h-.19l-.845.905a7.559,7.559,0,0,0-3.46-.784A6.966,6.966,0,0,0,0,238.448c0,4.164,2.635,6.839,6.587,6.839A5.894,5.894,0,0,0,12.2,241.5l-.322-.171a5.018,5.018,0,0,1-4.6,3.228" transform="translate(0 21.851)" fill="#fff"/><path d="M24.264,242.857l-4.3-11.706h-.814L15.052,241.53c-.815,2.072-1.509,2.826-2.776,3.169v.251h4.505V244.7c-1.75-.282-2.082-.936-1.217-3.208l.653-1.68h4.546l1.157,3.309c.382,1.086.111,1.489-1.71,1.579v.251h6.306V244.7c-1.479-.211-1.77-.533-2.253-1.841m-7.9-3.429,2.192-5.682h.08l2,5.682Z" transform="translate(1.161 21.856)" fill="#fff"/><path d="M32.653,237c-2.223-.734-3.47-1.347-3.47-3.007a2.348,2.348,0,0,1,2.5-2.363c1.559,0,2.786,1.266,3.852,3.811H35.8v-4.294h-.232l-.683.774a7,7,0,0,0-2.9-.653c-2.6,0-4.536,1.578-4.536,4.113,0,2.484,2,3.1,3.922,3.771,2.394.835,3.54,1.508,3.54,3.2a2.565,2.565,0,0,1-2.826,2.484c-2.061,0-3.429-1.79-4.575-4.354h-.271V245.3h.231l1.157-.946a7.1,7.1,0,0,0,3.228.866,4.225,4.225,0,0,0,4.586-4.425c0-2.5-1.971-3.179-3.792-3.792" transform="translate(2.576 21.856)" fill="#fff"/><path d="M38.122,231.5,38,235.684l.271.021c1.206-2.525,2.443-3.832,3.871-3.832h.744V243.4c0,.795-.574,1.217-2.293,1.268v.252h6.819v-.252c-1.71-.05-2.293-.473-2.293-1.268V231.873h.754c1.458,0,2.695,1.4,3.881,3.832l.273-.021-.111-4.183Z" transform="translate(3.593 21.889)" fill="#fff"/><path d="M58.237,244.555H55.963v-6.406H57c1.6,0,2.444.593,2.966,2.636h.252v-5.642h-.252c-.522,2.041-1.367,2.635-2.966,2.635H55.963v-5.9h2.314c2.282,0,3.168,1.267,4.284,4l.271-.041-.06-4.334H51.609v.231c1.68.06,2.1.5,2.1,1.277V243.4c0,.795-.421,1.217-2.1,1.268v.252H63.3l.1-4.576-.271-.02c-1.177,2.947-2.192,4.234-4.887,4.234" transform="translate(4.88 21.889)" fill="#fff"/><path d="M71.061,244.555H69.552V233.009c0-.814.231-1.217,1.991-1.277V231.5H65.208v.231c1.669.06,2.092.5,2.092,1.277V243.4c0,.795-.423,1.217-2.092,1.268v.252H76.219l.192-4.505-.271-.011c-1.307,3.249-2.423,4.154-5.079,4.154" transform="translate(6.166 21.889)" fill="#fff"/><path d="M83.593,244.555h-1.5V233.009c0-.814.231-1.217,1.981-1.277V231.5H77.74v.231c1.679.06,2.1.5,2.1,1.277V243.4c0,.795-.423,1.217-2.1,1.268v.252H88.751l.192-4.505-.262-.011c-1.317,3.249-2.433,4.154-5.089,4.154" transform="translate(7.35 21.889)" fill="#fff"/><path d="M97.057,231.207c-3.47,0-6.527,2.826-6.527,7.06,0,4.274,2.966,7.01,6.527,7.01,3.439,0,6.506-2.826,6.506-7.07,0-4.264-2.966-7-6.506-7m.07,13.7c-2.4,0-4.043-1.629-4.043-6.678,0-5,1.489-6.657,3.873-6.657,2.4,0,4.063,1.639,4.063,6.678,0,5.008-1.5,6.657-3.892,6.657" transform="translate(8.56 21.861)" fill="#fff"/><path d="M115.931,231.5h-6.024v.231c1.68.06,2.1.5,2.1,1.277V243.4c0,.795-.423,1.217-2.1,1.268v.252h6.255c4.908,0,7.03-3.39,7.03-6.949,0-3.691-2.485-6.467-7.261-6.467m-.382,13.054h-1.287V231.873h1.347c3.359,0,5.038,1.247,5.038,6.255,0,4.947-1.247,6.426-5.1,6.426" transform="translate(10.392 21.889)" fill="#fff"/><path d="M124.92,231.732c1.76.06,2.162.5,2.162,1.277V243.4c0,.795-.4,1.217-2.162,1.268v.252h6.547v-.252c-1.749-.05-2.152-.473-2.152-1.268V233.009c0-.775.4-1.217,2.152-1.277V231.5H124.92Z" transform="translate(11.811 21.889)" fill="#fff"/><path d="M144,231.5h-5.711v.231c1.679.06,2.1.5,2.1,1.277V243.4c0,.795-.423,1.217-2.1,1.268v.251h6.587v-.251c-1.831-.05-2.233-.443-2.233-1.268v-4.385h1.268c4.274,0,5.662-1.851,5.662-3.811,0-2.1-1.328-3.7-5.572-3.7m-.07,7.14h-1.287v-6.769H144c2.5,0,3.128,1.388,3.128,3.309,0,2.192-.564,3.46-3.2,3.46" transform="translate(13.075 21.889)" fill="#fff"/><path d="M161.128,242.857l-4.3-11.706h-.814l-4.093,10.379c-.815,2.072-1.509,2.826-2.776,3.169v.251h4.505V244.7c-1.75-.282-2.082-.936-1.217-3.208l.653-1.68h4.546l1.157,3.309c.382,1.086.111,1.489-1.72,1.579v.251h6.316V244.7c-1.479-.211-1.77-.533-2.253-1.841m-7.9-3.429,2.192-5.682h.081l2,5.682Z" transform="translate(14.101 21.856)" fill="#fff"/><path d="M169.508,237c-2.212-.734-3.46-1.347-3.46-3.007a2.349,2.349,0,0,1,2.5-2.363c1.559,0,2.786,1.266,3.852,3.811h.262v-4.294h-.231l-.694.774a6.918,6.918,0,0,0-2.886-.653c-2.6,0-4.536,1.578-4.536,4.113,0,2.484,2,3.1,3.922,3.771,2.384.835,3.54,1.508,3.54,3.2a2.564,2.564,0,0,1-2.825,2.484c-2.062,0-3.429-1.79-4.586-4.354h-.262V245.3h.231l1.147-.946a7.179,7.179,0,0,0,3.238.866A4.216,4.216,0,0,0,173.3,240.8c0-2.5-1.961-3.179-3.792-3.792" transform="translate(15.517 21.856)" fill="#fff"/><path d="M174.976,231.5l-.109,4.183.271.021c1.206-2.525,2.444-3.832,3.862-3.832h.753V243.4c0,.795-.571,1.217-2.293,1.268v.252h6.819v-.252c-1.71-.05-2.292-.473-2.292-1.268V231.873h.754c1.458,0,2.695,1.4,3.881,3.832l.271-.021-.109-4.183Z" transform="translate(16.534 21.889)" fill="#fff"/><path d="M188.6,231.732c1.75.06,2.152.5,2.152,1.277V243.4c0,.795-.4,1.217-2.152,1.268v.252h6.537v-.252c-1.749-.05-2.152-.473-2.152-1.268V233.009c0-.775.4-1.217,2.152-1.277V231.5H188.6Z" transform="translate(17.833 21.889)" fill="#fff"/><path d="M206.449,231.732c1.931.271,2.584,1.086,2.584,2.966v6.97h-.02L201.37,231.5h-4.1v.231a2.156,2.156,0,0,1,2.353,2.233v7.744c0,1.88-.543,2.675-2.353,2.956v.252h5.279v-.252c-1.97-.262-2.463-1.076-2.463-2.956v-8.026h.019l8.751,11.526h.643V234.7c0-1.88.443-2.654,2.243-2.966V231.5h-5.289Z" transform="translate(18.652 21.889)" fill="#fff"/><path d="M224.162,240.32c-1.167,2.947-2.192,4.234-4.887,4.234H217v-6.406h1.046c1.6,0,2.443.593,2.966,2.636h.242v-5.642h-.242c-.523,2.041-1.367,2.635-2.966,2.635H217v-5.9h2.313c2.293,0,3.179,1.268,4.3,4l.271-.04-.06-4.334H212.657v.231c1.669.061,2.1.5,2.1,1.277V243.4c0,.794-.432,1.216-2.1,1.266v.252h11.685l.091-4.576Z" transform="translate(20.107 21.889)" fill="#fff"/></g></svg>