<?xml version="1.0" standalone="no"?>
<!DOCTYPE svg PUBLIC "-//W3C//DTD SVG 20010904//EN"
 "http://www.w3.org/TR/2001/REC-SVG-20010904/DTD/svg10.dtd">
<svg version="1.0" xmlns="http://www.w3.org/2000/svg"
 width="1068.000000pt" height="1068.000000pt" viewBox="0 0 1068.000000 1068.000000"
 preserveAspectRatio="xMidYMid meet">
<metadata>
Created by potrace 1.14, written by Peter Selinger 2001-2017
</metadata>
<g transform="translate(0.000000,1068.000000) scale(0.100000,-0.100000)"
fill="#000000" stroke="none">
<path d="M4640 10673 c0 -4 17 -24 36 -43 34 -34 64 -79 64 -98 0 -5 -26 -13
-58 -19 -163 -31 -281 -138 -355 -323 -21 -54 -25 -77 -21 -134 2 -39 -1 -75
-6 -82 -12 -14 -59 -129 -66 -159 -2 -11 -7 -31 -10 -45 -4 -14 -8 -86 -9
-160 -2 -146 -12 -198 -48 -251 -31 -47 -68 -62 -154 -63 -40 0 -73 -2 -73 -3
0 -1 11 -13 25 -27 38 -38 90 -51 200 -50 212 1 343 42 437 138 35 36 48 44
48 31 0 -10 15 -46 34 -81 l35 -62 -67 -45 c-67 -44 -131 -81 -144 -82 -3 0
-10 -3 -14 -7 -4 -5 -16 -8 -26 -8 -10 0 -18 -5 -18 -12 0 -6 -2 -9 -5 -6 -3
3 -32 -2 -63 -12 -83 -26 -151 -34 -287 -34 -153 0 -277 12 -410 39 -11 2 -35
7 -53 10 -18 2 -41 9 -52 15 -10 5 -27 10 -38 10 -11 0 -36 7 -57 16 l-38 15
29 21 c74 54 124 159 126 266 4 262 -204 505 -425 497 -120 -5 -270 -110 -324
-227 -12 -24 -44 -106 -73 -183 -29 -77 -84 -205 -122 -285 -70 -147 -205
-383 -240 -420 -10 -11 -16 -20 -13 -20 2 0 -2 -8 -9 -17 -8 -10 -43 -54 -77
-98 -86 -109 -157 -184 -264 -273 -49 -42 -100 -88 -113 -102 -32 -37 -84
-110 -77 -110 3 0 -1 -13 -9 -29 -26 -50 -35 -136 -22 -204 23 -121 153 -252
293 -295 86 -26 230 -20 311 14 19 7 32 10 30 6 -39 -79 -62 -139 -74 -189
-23 -99 -20 -214 7 -264 5 -11 8 -19 5 -19 -3 0 4 -20 15 -45 l20 -46 -23 -19
c-97 -81 -298 -72 -464 21 l-53 30 -20 -66 c-12 -37 -21 -87 -21 -111 0 -121
54 -246 148 -343 70 -72 69 -56 3 -131 -28 -32 -77 -136 -85 -180 -3 -19 -8
-57 -12 -85 -12 -110 -54 -228 -94 -266 -26 -26 -70 -45 -134 -58 l-58 -13 43
-30 c54 -36 134 -78 163 -85 141 -33 326 10 420 98 l31 29 3 -26 c6 -47 -17
-148 -48 -212 -37 -78 -99 -137 -165 -158 -27 -9 -54 -20 -58 -24 -12 -10 71
-80 127 -106 l50 -23 -30 -11 c-75 -27 -92 -36 -142 -68 -65 -43 -122 -107
-155 -175 -29 -60 -49 -126 -41 -139 3 -4 2 -8 -3 -8 -14 0 -6 -160 13 -252 3
-15 -2 -48 -11 -75 -22 -62 -25 -81 -34 -186 -4 -49 -3 -91 1 -93 4 -3 5 -10
3 -17 -8 -20 31 -143 64 -204 17 -31 29 -58 27 -60 -5 -5 -132 -4 -166 2 -14
2 -43 7 -65 10 -22 4 -44 8 -50 8 -32 5 64 -179 142 -274 37 -45 142 -142 181
-168 l41 -27 -63 -42 c-139 -91 -218 -241 -221 -420 -2 -77 2 -100 20 -141 30
-65 80 -101 156 -116 13 -3 32 -16 43 -29 15 -17 59 -38 146 -67 136 -45 387
-166 398 -191 2 -5 8 -8 13 -8 4 0 46 -28 91 -62 103 -77 275 -248 350 -348
52 -70 166 -251 169 -268 1 -4 21 -49 44 -100 77 -164 194 -241 375 -246 99
-3 172 13 250 55 242 130 321 461 166 692 -10 15 -17 29 -15 31 2 1 25 10 51
18 32 10 52 12 64 5 46 -26 164 -24 236 3 32 12 84 41 117 65 33 25 63 40 66
35 3 -6 4 -14 0 -19 -9 -16 34 -131 68 -180 68 -99 175 -179 297 -222 98 -34
244 -33 322 3 32 15 65 33 75 40 46 35 124 125 135 155 7 18 15 33 18 33 3 0
20 -24 38 -54 62 -104 169 -177 293 -200 37 -8 69 -12 71 -11 2 2 25 6 52 9
234 32 447 223 470 423 2 15 4 29 5 30 0 2 28 -17 61 -41 81 -60 158 -88 240
-88 36 0 77 5 91 10 15 6 30 8 33 5 3 -4 6 -2 6 4 0 9 84 -11 99 -24 3 -2 -5
-17 -18 -33 -22 -30 -64 -120 -56 -120 2 0 -2 -17 -9 -37 -17 -51 -13 -184 8
-254 37 -126 123 -226 241 -284 138 -68 301 -68 433 -1 83 42 127 98 202 251
64 131 158 284 225 365 70 85 259 261 346 322 121 86 323 189 468 237 68 23
126 50 144 66 17 15 40 29 50 31 109 21 166 92 172 218 10 195 -85 380 -242
473 l-43 25 58 43 c62 46 76 59 137 126 60 66 108 137 148 219 37 76 38 95 7
85 -69 -22 -251 -37 -266 -22 -3 3 8 29 24 58 87 155 98 341 31 517 -11 28
-12 76 -2 86 12 12 19 211 9 255 -23 100 -61 168 -134 240 -50 49 -175 121
-209 121 -27 0 -11 20 30 38 23 11 62 37 87 60 l45 40 -28 11 c-16 6 -34 11
-40 11 -33 0 -147 100 -147 129 0 6 -3 11 -8 11 -15 0 -52 118 -58 190 -7 73
-7 74 12 56 33 -34 119 -84 175 -103 69 -23 225 -24 286 -1 50 18 173 90 173
100 0 4 -12 10 -27 14 -70 15 -129 39 -150 60 -49 49 -87 156 -99 283 -3 36
-8 69 -11 73 -2 5 -6 18 -8 30 -8 42 -54 123 -94 167 l-40 45 47 50 c142 151
191 311 142 468 l-21 68 -70 -36 c-106 -54 -171 -71 -269 -69 -84 1 -126 14
-184 58 -17 13 -17 16 -3 48 13 29 25 60 32 79 1 3 6 30 10 60 18 115 1 219
-56 334 -34 69 -34 70 -10 57 62 -34 213 -45 306 -24 112 25 230 117 279 218
54 109 53 198 -1 313 -34 72 -92 139 -178 203 -66 49 -282 278 -309 328 -5 9
-12 18 -16 21 -12 9 -130 191 -130 201 0 5 -4 9 -10 9 -5 0 -10 4 -10 10 0 5
-17 38 -38 72 -21 35 -39 66 -40 71 -1 4 -14 31 -29 60 -15 28 -26 55 -25 60
1 4 -3 7 -8 7 -6 0 -10 6 -10 14 0 8 -18 52 -39 98 -22 45 -58 134 -81 197
-22 62 -52 135 -65 160 -82 163 -269 258 -420 214 -83 -25 -191 -108 -243
-189 -84 -129 -108 -301 -59 -423 26 -64 68 -121 105 -142 12 -7 19 -16 15
-20 -10 -10 -179 -57 -230 -65 -21 -3 -46 -7 -55 -10 -87 -25 -431 -38 -533
-20 -139 25 -257 73 -375 152 l-68 45 34 65 c19 36 34 73 34 82 0 12 12 4 38
-24 70 -77 147 -114 290 -139 165 -28 321 -7 365 51 l16 22 -57 -2 c-61 -3
-132 11 -132 25 0 5 -6 9 -13 9 -16 0 -45 57 -62 121 -7 25 -11 85 -9 135 2
80 -4 155 -21 224 -12 49 -19 67 -51 136 -20 42 -23 62 -19 113 3 47 -1 75
-17 118 -72 193 -204 314 -370 338 -24 4 -45 8 -47 11 -9 9 23 64 59 100 22
21 39 43 40 47 0 12 -167 6 -219 -8 -102 -27 -213 -102 -281 -190 -57 -74
-150 -252 -150 -287 0 -8 -4 -18 -9 -23 -4 -6 -17 -41 -27 -80 l-18 -69 -18
59 c-11 33 -21 67 -23 75 -32 125 -133 298 -229 393 -56 55 -139 102 -216 122
-53 14 -220 20 -220 8z m245 -116 c47 -10 136 -86 207 -175 49 -61 172 -371
154 -389 -3 -3 -9 8 -12 25 -4 18 -10 32 -15 32 -11 0 -12 6 6 -60 24 -90 17
-89 -29 7 -24 50 -50 94 -58 99 -10 6 -11 5 -2 -7 14 -18 68 -167 55 -154 -5
6 -20 31 -34 57 -41 75 -73 122 -93 138 -15 12 -14 9 4 -17 12 -17 22 -33 22
-36 0 -3 4 -16 9 -29 5 -13 10 -27 11 -33 1 -5 6 -18 11 -27 15 -29 3 -21 -41
25 -41 42 -41 42 -25 9 19 -40 20 -40 -95 41 -88 62 -94 79 -52 147 l30 47
-33 16 c-53 25 -115 30 -164 14 -38 -14 -48 -14 -85 0 -28 10 -62 13 -106 9
l-65 -5 45 41 c91 81 177 106 296 83 l37 -6 -7 38 c-9 55 -14 82 -22 105 -5
18 -3 20 17 14 13 -4 29 -8 34 -9z m975 10 c0 -1 -5 -18 -10 -37 -6 -19 -13
-54 -16 -78 l-5 -43 33 5 c18 3 42 8 53 10 32 6 124 -13 168 -36 22 -11 58
-37 80 -59 l41 -39 -59 6 c-41 4 -76 1 -111 -9 -28 -8 -57 -11 -65 -7 -28 16
-89 20 -138 9 -71 -15 -77 -27 -46 -85 14 -27 24 -57 23 -68 -2 -12 -34 -42
-78 -72 -41 -29 -81 -58 -89 -65 -12 -11 -13 -8 -8 17 5 28 4 27 -34 -16 -36
-41 -38 -42 -30 -14 7 24 32 84 49 117 2 4 0 7 -5 7 -10 0 -72 -92 -95 -142
-17 -38 -28 -49 -24 -25 1 6 4 17 7 22 4 6 12 28 19 50 7 22 18 43 24 47 8 6
8 8 0 8 -6 0 -17 -7 -24 -15 -7 -8 -9 -15 -5 -15 4 0 1 -7 -6 -16 -8 -10 -24
-40 -37 -68 l-22 -51 5 41 c3 22 10 55 15 72 5 18 5 32 0 32 -4 0 -11 -12 -14
-26 -4 -15 -9 -24 -12 -22 -5 6 31 128 51 173 38 86 48 111 47 118 -1 4 1 7 6
7 4 0 13 14 21 32 42 93 198 230 270 235 11 1 21 1 21 0z m-1280 -382 c0 -7
-6 -28 -14 -46 -10 -24 -21 -34 -38 -34 -42 -2 -108 -17 -114 -26 -6 -11 -24
-12 -24 -1 0 4 17 27 38 50 54 60 152 97 152 57z m228 -9 c-20 -65 4 -103 109
-173 32 -20 64 -43 71 -50 7 -7 17 -13 21 -13 5 0 29 -20 54 -44 49 -48 105
-153 114 -214 5 -33 -5 -43 -11 -10 -12 57 -84 156 -138 191 -38 24 -46 21
-14 -4 28 -22 78 -113 90 -164 7 -28 6 -28 -23 12 -17 23 -39 47 -50 53 -21
10 -21 10 -1 -22 10 -18 22 -51 25 -73 5 -36 2 -44 -28 -75 -18 -19 -41 -47
-51 -62 -15 -22 -22 -26 -36 -18 -55 29 -128 0 -171 -68 -21 -34 -29 -41 -31
-26 -1 21 -1 53 1 69 0 6 21 34 45 64 50 61 58 87 40 129 -15 37 -40 51 -99
57 -80 8 -121 -24 -130 -101 -17 -145 -36 -198 -88 -239 -39 -32 -113 -62
-170 -71 -36 -5 -39 -3 -32 13 39 88 64 216 46 227 -4 3 -8 -7 -9 -22 -3 -35
-22 -92 -30 -92 -8 0 -6 223 2 280 2 19 5 35 6 35 1 0 3 10 6 22 8 47 56 151
77 170 42 36 52 37 29 2 -13 -18 -30 -50 -39 -69 -17 -38 -44 -130 -37 -130 2
0 18 28 35 63 28 55 112 156 131 157 4 0 -6 -21 -22 -47 -41 -64 -38 -71 11
-23 52 51 114 84 145 76 l23 -6 -15 51 c-9 28 -13 62 -9 76 12 49 82 100 142
102 20 1 20 -2 11 -33z m1139 22 c69 -30 98 -87 81 -156 -14 -55 -13 -58 13
-54 25 4 96 -37 143 -83 20 -19 36 -32 36 -29 0 10 -35 69 -42 72 -5 2 -8 11
-8 20 0 29 80 -59 122 -135 22 -40 41 -73 43 -73 12 0 -38 140 -65 180 -41 62
-36 67 14 15 51 -52 101 -207 99 -305 0 -19 -1 -60 -2 -90 -1 -30 1 -75 4
-100 l5 -45 -25 63 c-14 35 -22 68 -19 74 4 7 2 8 -5 4 -22 -14 -4 -106 44
-219 6 -15 3 -17 -21 -13 -68 13 -92 20 -134 41 -52 27 -84 58 -101 100 -16
39 -14 33 -23 85 -4 25 -9 54 -11 65 -2 11 -4 30 -4 43 -1 13 -14 36 -29 52
-25 25 -35 28 -83 25 -69 -3 -97 -18 -115 -60 -17 -42 -10 -64 45 -130 41 -50
44 -55 44 -100 0 -48 -3 -49 -32 -4 -43 68 -117 98 -171 69 -15 -8 -21 -6 -31
11 -6 12 -29 41 -51 65 -35 38 -39 47 -33 81 3 20 12 48 20 60 40 61 -6 37
-52 -27 -21 -30 -24 -31 -18 -10 13 52 40 107 75 149 l35 44 -36 -23 c-42 -28
-105 -111 -131 -172 l-18 -43 4 37 c6 55 59 159 105 205 22 22 73 62 113 89
40 26 82 56 92 66 11 10 23 18 26 18 4 0 15 15 25 33 17 32 17 59 0 100 -6 14
-2 17 18 17 15 0 39 -5 54 -12z m265 -27 c25 -16 55 -43 68 -60 22 -32 21 -53
-2 -34 -15 13 -71 26 -112 28 -24 1 -32 7 -42 35 -7 19 -13 41 -13 48 -2 22
54 13 101 -17z m-2876 -393 c82 -65 120 -119 149 -210 42 -133 17 -263 -62
-323 -44 -35 -50 -28 -12 13 21 23 26 32 15 32 -9 0 -16 -3 -16 -8 0 -7 -72
-42 -86 -42 -3 0 7 12 23 28 16 15 38 41 49 57 l19 30 -34 -28 c-63 -52 -164
-81 -106 -31 l30 27 -30 -7 c-16 -4 -38 -9 -49 -13 -31 -9 -12 46 29 85 l35
32 -38 0 c-44 -1 -106 -22 -131 -44 -23 -21 -28 -20 -34 3 -3 14 3 23 24 31
46 20 34 36 -23 31 -9 -1 -19 3 -22 8 -8 12 54 25 94 19 17 -3 30 -3 30 -1 0
8 -93 43 -115 43 -23 0 -42 16 -32 26 16 16 111 -1 147 -26 39 -28 48 -25 19
6 -32 35 -89 70 -130 83 l-34 9 46 1 c25 1 50 -4 57 -11 7 -7 12 -9 12 -5 0 4
14 1 30 -8 17 -9 30 -13 30 -9 0 8 -46 45 -82 66 -16 9 -26 18 -21 21 11 7 94
-22 114 -39 8 -8 21 -14 27 -14 19 0 -19 40 -67 71 -53 34 -42 37 25 8 26 -11
66 -39 87 -62 l39 -42 -17 35 c-10 19 -33 50 -51 68 -19 17 -31 32 -28 32 16
0 79 -46 116 -84 48 -50 35 -16 -21 54 -20 25 -27 38 -16 30 49 -38 78 -67
103 -107 30 -48 48 -57 30 -15 -25 56 -82 129 -136 175 -40 32 -27 37 14 5z
m-277 -1 c-23 -17 -66 -104 -77 -153 -13 -57 -6 -156 14 -217 10 -29 17 -54
17 -57 0 -3 9 -19 21 -36 63 -93 128 -142 306 -234 147 -75 318 -142 443 -173
6 -2 21 -6 32 -10 21 -7 60 -15 110 -23 17 -3 36 -7 43 -9 23 -8 166 -18 247
-18 105 0 179 9 259 31 20 6 36 8 36 5 0 -3 7 0 15 7 8 7 15 10 15 7 0 -13
159 62 231 107 79 51 238 207 279 274 20 32 34 43 69 52 24 6 46 9 48 6 11
-11 5 -72 -12 -127 -4 -10 -3 -19 2 -19 9 0 43 105 43 132 0 8 12 20 28 26 29
11 217 10 243 -2 9 -4 20 -32 27 -66 7 -33 22 -76 33 -95 25 -42 35 -47 16 -7
-14 26 -31 95 -30 120 2 43 3 44 31 37 15 -4 36 -9 47 -11 11 -2 22 -9 24 -15
4 -13 92 -123 135 -169 108 -114 292 -222 432 -255 10 -2 37 -9 59 -14 52 -13
164 -24 240 -24 51 0 90 2 230 17 11 1 25 4 30 7 6 4 20 5 33 4 12 -1 22 1 22
4 0 3 10 7 23 8 18 2 51 8 65 12 1 1 3 1 5 0 1 0 16 5 32 11 17 7 41 14 54 16
13 3 40 12 60 20 20 9 41 17 46 18 35 9 173 70 260 114 242 123 314 194 354
353 23 92 20 179 -10 251 -13 29 -25 55 -28 58 -4 3 -15 16 -26 29 l-20 25 32
-20 c52 -32 137 -154 146 -211 1 -10 5 -22 8 -28 4 -5 12 -28 19 -50 7 -22 20
-56 28 -75 8 -19 14 -36 13 -37 -1 -3 37 -86 89 -198 159 -339 401 -665 636
-858 113 -93 167 -171 179 -260 6 -39 -13 -137 -26 -137 -5 0 -9 5 -9 10 0 6
-10 31 -21 56 -94 200 -396 252 -617 106 -69 -45 -153 -141 -193 -219 -18 -35
-33 -63 -35 -63 -1 0 0 12 2 27 3 15 3 25 0 22 -11 -11 -66 -153 -66 -170 0
-11 -5 -19 -10 -19 -6 0 -8 12 -6 28 3 15 8 47 11 71 3 23 10 53 14 65 5 11 9
23 9 26 2 21 17 68 26 79 8 11 8 13 -2 7 -16 -10 -46 -76 -83 -184 l-29 -87 5
70 c6 75 12 121 21 145 3 9 2 11 -4 5 -5 -5 -17 -38 -26 -73 -19 -70 -22 -81
-39 -167 l-11 -60 -6 40 c-3 22 -5 73 -4 113 0 39 -3 72 -8 72 -4 0 -9 -4 -9
-10 -1 -5 -2 -13 -4 -17 -1 -5 -5 -41 -10 -80 -7 -70 -25 -102 -25 -46 0 14
-3 23 -7 19 -8 -8 -10 -14 -12 -47 -2 -38 -17 -10 -20 38 -1 26 -4 59 -6 73
-1 14 -3 40 -4 59 -3 80 -17 -1 -20 -113 -2 -61 -10 -16 -17 84 -13 208 -15
222 -24 150 -5 -38 -7 -5 -9 110 -1 91 -4 175 -7 188 -11 62 -76 147 -135 178
-16 8 -28 18 -25 22 3 5 28 14 56 22 28 8 53 18 56 22 3 4 13 8 23 8 10 0 25
8 32 17 10 11 10 14 2 9 -46 -27 -246 -41 -285 -20 -12 7 -21 14 -18 14 11 3
47 8 78 11 17 2 32 7 32 12 0 4 4 6 9 3 9 -6 170 49 184 63 5 5 -22 0 -59 -10
-66 -18 -183 -33 -254 -32 -103 1 -133 4 -127 9 3 3 25 8 49 10 103 10 263 48
274 66 4 6 -2 8 -15 4 -73 -21 -129 -28 -233 -31 -95 -2 -217 10 -229 22 -4 5
36 9 89 11 53 1 122 9 152 16 l55 14 -65 -5 c-36 -3 -78 -5 -95 -4 -94 3 -197
11 -203 15 -4 2 -27 7 -52 10 -49 7 -64 11 -305 80 -194 56 -460 113 -565 122
-19 1 -36 3 -37 4 -2 2 -12 4 -23 5 -11 1 -21 3 -22 4 -2 1 -25 4 -53 6 -27 2
-81 7 -120 11 -38 4 -178 7 -310 7 -242 0 -332 -5 -495 -27 -19 -2 -60 -7 -90
-11 -30 -3 -62 -8 -70 -10 -8 -2 -31 -7 -50 -10 -74 -13 -229 -48 -320 -72
-52 -14 -105 -27 -117 -29 -12 -1 -28 -6 -35 -10 -7 -5 -17 -9 -23 -11 -36 -8
-53 -12 -77 -22 -24 -9 -117 -30 -215 -48 -21 -4 -98 -7 -170 -8 -73 0 -133
-3 -133 -7 0 -5 6 -8 13 -8 6 -1 30 -4 52 -7 22 -4 70 -7 107 -7 38 -1 68 -4
68 -7 0 -3 -27 -11 -59 -16 -89 -14 -274 -6 -371 16 -47 10 -86 18 -88 16 -4
-4 154 -52 215 -65 28 -7 74 -12 102 -13 27 -1 46 -6 42 -10 -15 -15 -232 -10
-311 8 -93 20 -100 22 -125 30 -11 3 -8 -1 7 -10 39 -22 193 -71 253 -80 42
-6 47 -9 33 -19 -22 -16 -142 -13 -263 8 -23 4 -19 0 20 -19 28 -13 55 -24 62
-24 6 -1 24 -6 39 -11 l27 -11 -39 -26 c-21 -15 -50 -38 -62 -52 -33 -36 -73
-123 -72 -157 3 -85 -1 -326 -5 -322 -3 3 -6 35 -6 72 -2 125 -13 51 -24 -158
-6 -113 -14 -152 -16 -78 -1 23 -3 47 -4 52 -1 6 -3 29 -4 52 0 23 -4 39 -7
35 -5 -5 -12 -87 -18 -199 -1 -27 -15 -40 -17 -15 -1 23 -9 61 -14 66 -3 2 -5
-14 -5 -37 0 -40 -15 -62 -16 -24 -1 9 -4 40 -8 67 -4 28 -9 65 -11 83 -11 79
-23 62 -23 -34 0 -143 -1 -168 -8 -162 -3 3 -7 23 -10 44 -2 22 -7 46 -9 54
-2 8 -7 29 -9 45 -3 17 -14 58 -25 90 -17 54 -19 56 -15 20 2 -22 6 -69 9
-105 l4 -65 -35 105 c-20 58 -40 107 -45 108 -5 2 -9 12 -9 22 0 9 -8 24 -17
31 -16 13 -17 12 -4 -3 7 -10 10 -18 7 -18 -4 0 -2 -8 3 -18 6 -11 12 -30 15
-43 3 -13 10 -42 15 -64 14 -58 20 -136 10 -129 -5 3 -9 15 -9 28 0 13 -6 36
-14 52 -8 16 -24 50 -35 77 -23 49 -37 65 -21 21 17 -45 10 -41 -18 11 -136
247 -325 351 -563 310 -89 -15 -139 -39 -195 -92 -34 -32 -71 -98 -87 -153 -9
-33 -34 57 -32 116 3 104 52 177 200 299 107 90 157 143 331 358 8 9 14 20 14
23 0 8 53 78 63 82 4 2 7 7 7 11 0 5 25 49 55 100 106 176 228 436 299 640 38
109 98 200 151 229 27 15 34 14 14 -1z m4272 -39 c-56 -57 -137 -206 -100
-182 5 3 7 10 4 15 -4 5 -2 9 4 9 5 0 13 9 16 20 7 22 108 130 121 130 4 0 -4
-12 -18 -27 -14 -16 -38 -50 -53 -78 -26 -48 -23 -47 20 6 24 30 134 111 120
89 -5 -8 -18 -22 -30 -31 -11 -9 -31 -36 -44 -60 l-23 -44 30 35 c29 35 137
98 148 87 3 -3 -5 -11 -18 -18 -27 -14 -98 -83 -98 -95 0 -4 10 1 23 12 12 10
32 25 45 32 29 16 114 33 106 21 -3 -5 -11 -9 -17 -9 -7 0 -34 -18 -61 -40
-46 -39 -49 -55 -3 -26 12 8 47 17 77 21 58 6 58 5 -26 -32 -17 -8 -46 -30
-65 -49 l-34 -36 50 26 c48 25 127 37 142 22 11 -11 -10 -24 -49 -30 -39 -6
-88 -26 -88 -35 0 -4 19 -6 43 -5 23 0 50 -1 60 -4 32 -8 18 -22 -23 -22 -22
0 -40 -4 -40 -10 0 -5 6 -10 13 -10 8 0 21 -8 31 -19 14 -16 15 -20 2 -30 -12
-10 -20 -8 -43 13 -15 14 -39 27 -53 27 -14 1 -42 3 -62 5 -24 2 -38 -1 -38
-8 0 -6 3 -9 6 -5 11 11 63 -47 66 -73 3 -27 -11 -30 -62 -16 l-25 7 28 -25
c24 -22 25 -26 9 -26 -18 0 -81 27 -92 39 -3 3 -16 15 -30 26 l-24 20 18 -30
c10 -16 32 -43 49 -59 30 -27 31 -28 7 -21 -14 4 -42 18 -62 31 -46 30 -47 25
-7 -21 36 -41 29 -45 -16 -11 -68 52 -99 179 -71 287 7 27 10 49 7 49 -3 0 -1
4 4 8 6 4 19 27 30 51 19 43 116 151 137 151 5 0 -13 -23 -41 -52z m-2617
-123 c-9 -14 -18 -25 -20 -25 -2 0 -4 11 -4 25 0 18 5 25 20 25 20 0 20 -1 4
-25z m1286 -2 l0 -26 -20 23 c-11 13 -20 25 -20 27 0 1 9 3 20 3 15 0 20 -7
20 -27z m-506 -33 c15 -5 38 -10 51 -10 41 0 69 -19 103 -69 31 -44 67 -139
58 -148 -2 -3 -22 5 -43 15 -36 19 -109 38 -125 34 -16 -4 -30 31 -30 75 0 50
-12 43 -22 -11 -3 -16 -7 -30 -9 -33 -6 -6 -258 -6 -263 0 -3 2 -7 17 -10 33
-10 55 -24 62 -22 11 1 -43 -11 -71 -30 -72 -28 -2 -90 -19 -128 -35 l-44 -19
6 27 c9 41 51 124 79 155 25 28 64 40 190 56 70 9 206 4 239 -9z m-658 -228
c-18 -16 -18 -16 -6 6 6 13 14 21 18 18 3 -4 -2 -14 -12 -24z m1025 6 c11 -21
11 -22 -4 -9 -10 7 -17 17 -17 22 0 15 9 10 21 -13z m-1086 -205 c-70 -64
-111 -93 -215 -146 -41 -21 -61 -35 -45 -31 40 9 194 74 201 85 9 15 64 40 64
29 0 -5 -5 -10 -10 -10 -6 0 -20 -9 -32 -20 -25 -23 -165 -97 -193 -102 -11
-1 -22 -6 -25 -9 -7 -7 -124 -37 -180 -46 -107 -16 -413 -5 -470 17 -3 1 -8 2
-12 1 -4 0 -36 6 -70 15 -35 9 -67 17 -73 19 -5 1 -17 4 -25 7 -8 3 -31 11
-50 17 l-35 11 35 -5 c33 -5 55 -9 110 -20 127 -25 362 -36 490 -22 168 18
384 106 515 210 39 31 72 56 75 56 3 0 -22 -25 -55 -56z m1135 16 c18 -21 147
-98 224 -135 146 -68 300 -101 471 -98 89 1 210 10 256 19 13 3 45 7 70 10 50
6 70 10 112 20 15 4 27 5 27 2 0 -6 -95 -35 -137 -42 -18 -3 -43 -9 -56 -14
-14 -6 -27 -7 -30 -4 -3 3 -12 1 -19 -3 -7 -5 -22 -9 -33 -10 -11 -1 -49 -7
-85 -12 -36 -5 -128 -8 -205 -7 -132 3 -164 6 -225 22 -14 3 -31 7 -38 9 -84
17 -209 76 -296 139 -73 53 -63 57 13 6 34 -23 61 -39 61 -35 0 3 6 2 13 -4
14 -12 169 -73 174 -69 1 2 -30 20 -70 40 -97 50 -127 68 -161 97 -47 39 -113
104 -91 89 11 -8 22 -17 25 -20z m-250 -352 c14 -3 61 -8 105 -12 44 -4 82 -8
85 -10 3 -1 30 -6 61 -9 31 -4 67 -9 80 -11 26 -6 60 -12 112 -21 45 -7 289
-64 307 -71 8 -3 23 -8 33 -10 37 -7 276 -87 383 -128 132 -51 177 -71 309
-137 161 -80 208 -112 234 -159 l24 -42 -2 -631 c-5 -1591 -27 -2504 -65
-2736 -46 -280 -211 -566 -481 -833 -74 -74 -221 -192 -357 -288 -271 -192
-564 -399 -573 -407 -5 -4 -104 -75 -220 -156 -115 -82 -241 -172 -280 -201
l-70 -53 -25 19 c-58 44 -401 289 -405 289 -2 0 -16 11 -31 25 -15 14 -33 25
-40 25 -8 0 -14 4 -14 8 0 5 -30 28 -67 53 -38 24 -77 52 -88 61 -20 17 -229
166 -365 259 -41 29 -76 56 -78 61 -2 4 -8 8 -13 8 -14 0 -233 166 -298 225
-281 257 -455 516 -530 789 -35 123 -38 153 -56 491 -17 318 -46 2155 -35
2210 2 6 1 12 0 15 -6 16 -4 60 3 60 4 0 5 5 2 11 -11 16 -12 69 -2 69 4 0 5
5 2 10 -4 6 -7 146 -7 311 0 327 2 343 56 391 52 46 282 161 516 257 40 16
231 82 270 92 19 5 42 12 50 14 8 3 56 16 105 30 85 24 104 29 165 41 14 3 45
10 70 15 53 12 57 13 175 33 50 8 113 18 140 21 28 4 61 8 75 11 14 2 68 6
120 10 52 4 97 8 99 10 5 5 493 -4 521 -9z m-3385 -743 c-36 -37 -30 -106 14
-148 l30 -28 -2 48 c-1 55 24 104 53 104 10 0 22 -9 25 -20 7 -22 25 -27 26
-7 0 6 4 3 8 -8 5 -11 7 -32 6 -47 -3 -35 12 -37 21 -3 9 37 23 20 14 -18 -10
-45 -38 -86 -73 -107 -17 -11 -24 -20 -18 -24 6 -4 11 -3 11 2 0 6 11 13 24
16 13 3 38 22 55 41 35 40 47 45 30 13 -16 -30 -75 -84 -119 -109 -26 -15 -29
-18 -10 -13 41 11 97 42 137 77 l37 32 -23 -31 c-19 -27 -88 -75 -113 -80 -5
-1 -9 -2 -10 -4 -9 -7 -55 -12 -133 -15 -52 -2 -75 0 -55 4 l35 7 -31 8 c-35
8 -114 56 -114 68 0 5 12 2 28 -5 15 -8 41 -17 57 -21 27 -7 25 -4 -18 27 -27
19 -56 45 -65 58 l-16 23 38 -23 c20 -13 40 -20 44 -16 4 4 1 10 -6 12 -7 3
-22 24 -33 46 l-21 42 24 -22 c34 -32 38 -29 23 14 -14 40 -9 67 7 39 13 -24
26 -19 21 8 -7 32 11 61 38 63 12 1 26 6 32 12 5 5 16 7 23 4 11 -4 11 -7 -1
-19z m6198 2 c30 -12 42 -36 32 -66 -8 -24 10 -27 23 -4 17 30 23 -4 8 -41
-16 -37 -11 -38 28 -6 16 14 16 9 -5 -28 -13 -24 -30 -46 -36 -48 -7 -3 -13
-10 -13 -15 0 -5 21 2 46 16 45 25 46 25 32 4 -8 -12 -37 -38 -64 -57 -43 -30
-45 -33 -19 -27 17 4 42 13 58 21 15 7 27 10 27 5 0 -12 -77 -57 -115 -67
l-30 -7 35 -8 c20 -4 -5 -5 -60 -3 -113 4 -174 23 -223 70 -50 47 -47 54 6 13
36 -29 87 -58 102 -58 3 0 5 5 5 10 0 6 -6 10 -14 10 -23 0 -105 86 -111 116
-4 24 -4 25 4 8 11 -25 62 -69 105 -90 l31 -15 -32 25 c-46 38 -73 87 -72 132
l1 39 10 -32 c13 -40 24 -43 25 -5 0 15 1 36 2 47 2 19 2 19 12 1 11 -17 12
-17 23 5 30 62 82 11 78 -77 -2 -53 -2 -54 18 -34 25 25 50 74 50 97 0 10 -8
35 -18 54 -18 36 -18 36 2 32 12 -3 33 -10 49 -17z m-976 -238 c-3 -7 -5 -2
-5 12 0 14 2 19 5 13 2 -7 2 -19 0 -25z m-4840 -195 c-13 -26 -36 -82 -42
-103 -5 -20 -1 -17 19 13 31 43 37 46 29 15 -3 -13 -5 -54 -5 -93 -1 -123 11
-153 17 -44 6 95 20 89 21 -9 1 -104 20 -150 95 -227 43 -45 78 -112 94 -185
2 -8 12 -51 23 -95 11 -44 23 -102 27 -130 4 -27 9 -59 11 -70 2 -11 7 -66 10
-122 4 -77 3 -103 -6 -103 -8 0 -10 -8 -7 -22 6 -22 6 -22 -13 2 -24 30 -25
21 -5 -44 22 -71 12 -67 -16 6 -12 35 -31 77 -42 93 -11 17 -16 21 -12 10 4
-11 8 -27 10 -35 2 -8 4 -15 5 -15 3 0 9 -29 15 -70 5 -39 5 -39 -18 15 -13
30 -31 74 -41 98 -10 23 -22 42 -28 42 -5 0 -6 -6 -1 -12 15 -25 60 -169 51
-166 -5 2 -21 35 -35 73 -26 72 -142 402 -146 420 -11 37 -79 176 -140 285
-20 36 -39 79 -42 95 -19 83 -7 245 18 245 4 0 6 -3 3 -8 -2 -4 -7 -28 -10
-52 -5 -44 -5 -44 6 -10 19 63 43 120 51 120 4 0 7 6 7 13 0 6 10 23 21 37 20
24 20 24 9 2 -22 -44 -49 -133 -40 -127 6 4 10 11 10 16 0 13 87 149 95 149 4
0 4 -3 2 -7z m5420 -48 c5 -5 19 -31 33 -58 34 -64 37 -44 6 34 -22 53 -23 60
-6 39 10 -14 29 -47 41 -75 36 -84 49 -111 44 -90 -10 43 -16 89 -11 84 16
-16 32 -102 30 -164 -2 -91 -9 -119 -46 -185 -67 -122 -96 -180 -125 -251 -38
-94 -46 -113 -48 -119 -60 -195 -144 -424 -153 -415 -2 2 8 40 23 85 28 84 29
120 2 53 -8 -21 -23 -56 -33 -78 -18 -42 -21 -48 -23 -66 0 -5 -5 -8 -10 -4
-6 3 -4 21 4 45 8 22 12 40 10 40 -2 0 3 16 11 36 24 57 10 50 -18 -8 -53
-113 -49 -107 -43 -73 3 17 8 39 11 50 5 20 5 20 -10 1 -14 -17 -16 -18 -16
-3 0 9 -5 17 -11 17 -11 0 -7 124 6 220 3 19 7 53 10 74 8 62 45 214 71 289
18 53 36 83 82 131 62 66 82 113 88 201 2 28 4 61 5 75 1 23 2 23 8 -5 4 -16
7 -47 7 -68 -1 -42 9 -50 17 -11 6 34 2 141 -8 179 -7 30 -7 30 19 -7 33 -47
41 -48 22 -3 -8 19 -13 35 -10 35 3 0 -2 7 -10 16 -9 8 -16 20 -16 26 0 10 15
-6 47 -47z m-447 25 c0 -5 -4 -10 -10 -10 -5 0 -10 5 -10 10 0 6 5 10 10 10 6
0 10 -4 10 -10z m-4685 -187 c35 -9 226 -10 231 -1 13 21 23 -8 23 -65 -1 -73
6 -70 -144 -71 -139 -1 -207 32 -221 109 -3 15 -2 35 1 45 5 16 9 16 48 3 23
-8 51 -17 62 -20z m4911 -24 c-2 -16 -9 -36 -15 -43 -6 -7 -8 -15 -6 -18 3 -3
-18 -16 -47 -28 -57 -25 -188 -36 -258 -21 l-35 7 0 64 c0 53 3 64 15 61 35
-9 191 -9 225 0 21 6 46 12 56 14 10 2 27 8 36 14 23 13 36 -8 29 -50z m-4854
-196 c14 -13 21 -14 30 -5 18 18 35 14 42 -10 l7 -23 16 23 c22 32 29 28 38
-20 12 -64 13 -69 19 -76 3 -3 6 6 6 21 0 14 5 29 12 33 6 4 9 3 6 -2 -3 -5 1
-49 9 -99 9 -61 15 -202 18 -440 3 -192 7 -451 9 -575 2 -124 0 -241 -5 -261
-9 -35 -11 -36 -47 -32 -20 2 -60 5 -88 7 -28 1 -55 5 -60 7 -5 3 -26 4 -47 4
-37 -2 -38 -1 -33 29 2 17 5 31 6 31 2 0 4 10 28 125 37 178 46 270 47 485 0
160 -8 303 -20 338 -2 7 -7 30 -10 52 -3 22 -7 54 -10 70 -2 17 -7 64 -10 105
-8 112 -15 182 -20 208 -4 18 -1 22 17 22 12 0 30 -8 40 -17z m4688 -3 c11 11
29 20 40 20 16 0 19 -5 15 -22 -5 -25 -11 -88 -21 -208 -5 -74 -9 -106 -19
-165 -26 -153 -29 -189 -29 -385 0 -166 7 -294 19 -359 1 -9 6 -36 10 -61 4
-25 18 -92 31 -149 13 -57 22 -107 19 -110 -3 -3 -16 -6 -28 -7 -12 -1 -58 -5
-102 -9 -134 -12 -141 -11 -144 13 -8 56 4 1226 13 1241 4 6 9 30 12 53 7 63
9 77 17 84 4 4 7 -3 7 -16 0 -13 3 -21 6 -17 3 3 5 8 5 11 0 3 6 23 14 45 7
22 11 42 8 45 -4 3 1 6 10 6 10 0 17 -8 17 -19 0 -11 5 -23 10 -26 6 -3 10 1
10 9 0 8 7 22 16 31 15 15 18 14 31 -4 14 -20 14 -20 33 -1z m-5210 -200 c-34
-29 -97 -63 -150 -81 -16 -6 -4 -7 35 -3 33 3 79 14 103 24 23 11 42 16 42 13
0 -3 7 0 15 7 11 9 15 9 15 1 0 -17 -97 -59 -166 -72 -96 -18 -170 -4 -331 62
-50 20 -39 29 15 13 152 -46 301 -33 397 36 53 38 69 38 25 0z m5813 -34 c75
-34 170 -39 282 -15 44 9 82 16 83 14 8 -8 -80 -45 -148 -64 -113 -32 -258
-16 -338 37 -36 24 -12 26 45 3 27 -10 74 -22 104 -25 l54 -6 -40 17 c-56 23
-145 81 -145 93 0 6 15 0 33 -13 17 -13 49 -32 70 -41z m-6323 -5 c0 -18 85
-93 132 -117 27 -13 49 -24 50 -23 2 1 23 -4 48 -11 25 -7 81 -12 125 -11 76
2 160 7 160 11 0 2 35 10 75 16 l35 6 30 -89 c16 -48 29 -90 30 -93 2 -12 19
-86 20 -90 2 -5 15 -72 21 -105 25 -135 22 -346 -6 -470 -16 -69 -16 -67 -28
-98 -7 -16 -12 -32 -12 -36 0 -37 -143 -281 -157 -268 -1 2 13 32 31 67 31 61
69 161 63 166 -1 1 -8 -4 -15 -12 -7 -8 -10 -14 -7 -14 8 0 -38 -79 -92 -159
-39 -58 -60 -70 -31 -18 13 23 13 23 23 77 6 30 2 26 -24 -25 -17 -33 -42 -73
-55 -90 l-25 -30 25 63 c14 35 23 66 20 69 -3 3 -10 -5 -15 -18 -10 -28 -76
-117 -100 -137 -69 -55 -74 -55 -29 0 79 97 116 196 123 328 6 129 24 167 122
268 76 78 93 104 93 146 0 31 -34 73 -64 78 -50 10 -97 -35 -149 -140 -109
-218 -260 -344 -417 -345 -72 0 -100 3 -100 12 0 5 37 34 83 64 124 83 215
186 288 327 46 90 145 187 236 232 40 20 82 44 95 53 23 16 23 16 -12 10 -88
-15 -109 -17 -170 -19 -94 -3 -134 9 -208 62 -144 102 -217 212 -225 340 -1
17 1 32 5 32 5 0 8 -4 8 -9z m6757 -50 c-6 -59 -42 -147 -76 -184 -55 -61
-104 -104 -163 -143 -64 -43 -71 -45 -147 -48 -87 -3 -202 11 -231 29 -5 3 -8
0 -5 -7 3 -7 45 -33 93 -58 114 -58 197 -142 271 -273 67 -121 157 -219 266
-292 47 -32 85 -61 85 -66 0 -5 -10 -9 -22 -10 -13 -1 -40 -2 -60 -3 -49 -3
-133 19 -183 48 -96 57 -185 163 -256 307 -41 82 -87 129 -126 129 -44 0 -83
-34 -83 -73 0 -43 25 -82 107 -163 78 -79 103 -137 109 -253 5 -131 52 -255
124 -331 42 -44 38 -52 -6 -17 -51 40 -92 89 -118 141 -31 61 -34 47 -6 -30
25 -71 3 -57 -37 24 -19 38 -29 51 -31 39 -2 -10 0 -26 4 -35 4 -9 9 -26 11
-36 2 -11 9 -26 16 -35 7 -9 8 -12 1 -8 -12 7 -77 109 -129 202 -17 29 -33 57
-37 60 -14 14 41 -123 84 -207 29 -59 13 -45 -40 35 -63 94 -123 227 -137 304
-3 15 -7 39 -10 53 -30 138 -23 373 16 535 5 22 12 53 15 69 3 17 17 62 31
100 29 86 30 89 31 100 1 19 26 23 71 9 106 -32 268 -34 369 -4 67 20 144 74
176 124 10 15 21 27 23 27 3 0 3 -27 0 -59z m-6627 -516 c-12 -19 -17 -35 -11
-35 5 0 14 6 18 13 11 18 60 47 78 47 15 0 15 -1 0 -16 -20 -21 -68 -114 -58
-114 5 0 17 14 28 30 11 17 31 38 45 47 24 16 25 16 10 -3 -8 -10 -17 -21 -20
-24 -3 -3 -21 -34 -39 -70 -19 -36 -53 -94 -77 -130 -50 -76 -119 -155 -109
-125 18 55 36 135 41 175 4 43 12 102 13 108 1 1 1 4 1 7 -1 17 37 74 63 97
41 36 43 35 17 -7z m6450 7 c3 -4 21 -20 39 -37 34 -30 34 -23 -1 28 -11 16
-15 27 -8 27 14 0 82 -71 75 -78 -3 -3 -1 -10 4 -16 8 -10 13 -42 27 -156 4
-31 23 -107 40 -157 4 -10 -11 0 -32 22 -41 44 -105 139 -150 225 -15 30 -37
68 -48 84 -17 25 -17 28 -2 19 9 -5 30 -29 47 -54 16 -24 29 -39 29 -34 0 16
-60 128 -73 138 -7 5 0 6 18 2 16 -4 32 -10 35 -13z m-5692 -57 c-3 -3 -9 2
-12 12 -6 14 -5 15 5 6 7 -7 10 -15 7 -18z m39 -7 c-3 -8 -6 -5 -6 6 -1 11 2
17 5 13 3 -3 4 -12 1 -19z m4900 0 c-3 -8 -6 -5 -6 6 -1 11 2 17 5 13 3 -3 4
-12 1 -19z m53 18 c0 -3 -4 -8 -10 -11 -5 -3 -10 -1 -10 4 0 6 5 11 10 11 6 0
10 -2 10 -4z m-5014 -214 c4 -26 9 -56 11 -67 2 -11 5 -36 6 -56 2 -19 6 -39
8 -45 4 -7 3 -104 -1 -196 -1 -16 -30 -48 -30 -32 0 4 -12 -3 -26 -17 -55 -51
-82 -140 -61 -202 9 -26 -2 -65 -74 -277 -19 -57 -60 -233 -62 -270 -1 -22 -4
-40 -7 -40 -10 0 -16 -253 -6 -269 15 -23 -16 -10 -54 25 -40 36 -87 120 -97
171 -9 51 -10 218 -1 236 5 9 5 17 0 17 -25 0 -70 -165 -67 -250 1 -41 -6 -99
-21 -155 -22 -88 -31 -260 -14 -270 4 -3 10 24 13 58 7 73 8 75 31 149 10 32
22 55 27 52 4 -2 4 -16 -2 -31 -5 -14 -12 -41 -15 -61 -3 -19 -7 -44 -10 -56
-6 -32 -6 -158 1 -186 3 -14 7 -34 9 -45 8 -37 28 -80 33 -68 2 7 0 20 -6 30
-10 20 -12 191 -2 208 3 6 6 12 6 15 4 25 18 80 27 103 9 22 13 25 19 14 5 -8
6 -25 3 -38 -20 -85 -25 -122 -25 -187 0 -39 3 -77 6 -82 3 -5 8 -20 10 -32 3
-13 19 -52 36 -87 55 -112 199 -234 339 -287 79 -30 80 -36 15 -87 -123 -97
-198 -120 -311 -97 -124 25 -227 110 -289 237 -20 41 -38 84 -40 95 -7 33 -26
88 -31 88 -3 0 -15 -7 -28 -15 -22 -15 -24 -14 -48 17 -71 94 -101 195 -101
348 -1 97 6 188 14 198 3 4 6 22 8 44 0 12 24 43 54 71 l52 49 -35 -7 c-41 -8
-120 -49 -150 -77 -12 -11 -24 -17 -28 -13 -4 4 -7 52 -7 108 0 93 3 108 31
167 50 106 133 172 279 221 22 8 46 20 53 27 7 6 19 12 26 12 34 0 176 119
251 211 148 179 239 441 245 704 l1 50 13 -38 c8 -20 17 -59 22 -85z m5058 13
c8 -119 14 -154 43 -255 88 -305 290 -549 531 -640 158 -59 220 -108 272 -214
30 -60 34 -78 35 -159 1 -51 -1 -100 -4 -110 -6 -16 -10 -15 -41 9 -44 33
-129 74 -154 74 -14 0 -8 -10 25 -39 44 -39 59 -72 75 -166 14 -81 9 -251 -9
-325 -12 -48 -61 -149 -90 -186 -18 -24 -20 -24 -44 -9 -14 9 -26 15 -28 13
-2 -2 -13 -32 -25 -68 -68 -207 -176 -320 -335 -350 -116 -22 -186 0 -309 96
-47 37 -55 48 -45 60 6 8 18 14 25 14 23 0 165 78 221 122 59 45 124 122 155
182 57 111 64 209 28 372 -19 85 12 70 36 -17 16 -54 27 -255 16 -274 -4 -5
-7 -14 -8 -20 -1 -5 -5 -19 -8 -30 -4 -11 3 -2 13 20 28 58 41 126 41 210 0
74 -15 177 -28 200 -8 14 -10 45 -2 45 6 0 27 -51 35 -87 3 -10 9 -36 14 -58
6 -22 10 -41 11 -42 0 -2 0 -24 1 -50 1 -38 3 -43 9 -23 8 27 5 188 -5 233 -3
16 -11 45 -18 65 -7 21 -12 71 -11 112 1 83 -25 195 -57 245 l-19 30 8 -35
c12 -58 5 -221 -11 -266 -23 -64 -61 -118 -108 -155 -24 -19 -40 -28 -35 -21
15 25 8 207 -13 329 -22 129 -72 312 -116 428 -20 55 -24 78 -18 110 16 89
-12 169 -76 212 -19 13 -37 34 -39 46 -10 60 -4 232 12 307 3 14 8 39 12 55
10 53 25 107 28 104 2 -2 6 -44 10 -94z m-4804 -480 c19 -2 54 -5 78 -6 24 -1
45 -6 48 -10 2 -4 6 -45 9 -90 l4 -82 -142 6 c-78 4 -153 9 -167 12 -14 3 -40
8 -58 11 -37 7 -63 39 -57 69 2 11 4 25 4 32 1 6 13 26 28 43 l26 32 96 -7
c53 -3 112 -8 131 -10z m4754 -3 c34 -31 50 -91 34 -125 -17 -34 -69 -44 -275
-53 l-141 -7 4 83 c2 46 6 86 9 89 3 3 16 6 28 7 58 3 202 16 204 18 1 1 28 2
60 3 41 1 63 -4 77 -15z m-4909 -238 c22 -3 43 -8 46 -10 3 -1 -2 -34 -12 -71
-29 -110 -23 -128 16 -47 18 40 39 75 47 80 10 6 11 5 2 -7 -12 -14 -20 -39
-49 -145 -21 -77 -37 -222 -25 -229 3 -2 7 10 8 27 6 77 101 328 124 328 5 0
6 -4 3 -10 -3 -5 -8 -20 -10 -32 -3 -12 -11 -36 -19 -53 -8 -17 -17 -42 -20
-55 -3 -14 -12 -53 -20 -86 -16 -65 -28 -161 -28 -222 -1 -99 48 -211 114
-265 52 -43 136 -83 195 -92 35 -5 43 -11 52 -37 11 -31 6 -53 -9 -43 -5 3
-29 7 -52 10 -104 9 -173 32 -230 77 -21 16 -38 25 -38 20 0 -11 70 -75 70
-65 0 5 4 3 8 -3 16 -25 205 -94 258 -94 20 0 64 -30 64 -44 0 -4 -19 -5 -42
-2 -24 3 -65 8 -93 11 -27 3 -58 8 -67 10 -10 3 -28 8 -40 11 -16 4 -20 3 -13
-4 12 -12 203 -77 257 -87 33 -6 45 -18 102 -99 36 -50 79 -107 97 -126 76
-85 180 -190 244 -245 116 -101 133 -118 108 -106 -12 6 -26 10 -30 9 -28 -7
-227 70 -291 113 -24 16 -45 29 -47 29 -7 0 -55 41 -88 75 -27 28 -93 134 -91
145 1 3 -3 16 -8 30 -5 14 -11 33 -14 44 -5 28 -9 29 -51 7 -85 -44 -143 -128
-148 -217 -3 -54 17 -146 37 -171 6 -7 7 -13 2 -13 -5 0 -4 -4 1 -8 6 -4 18
-20 28 -35 18 -28 18 -28 -15 -55 -89 -74 -139 -145 -159 -225 -13 -55 -39
-72 -99 -63 -19 3 -40 5 -47 6 -6 0 4 25 23 57 18 31 32 59 29 61 -2 3 -21
-13 -42 -36 -52 -55 -96 -74 -178 -80 l-70 -4 47 30 c66 43 141 140 168 219 8
24 8 25 -3 8 -29 -48 -134 -137 -195 -167 -60 -30 -73 -32 -161 -32 -112 0
-170 8 -235 33 -33 13 -86 49 -86 59 0 4 45 8 100 9 250 5 473 100 637 272 29
30 53 58 53 62 0 4 7 15 16 23 14 15 14 17 -3 22 -10 3 -35 12 -55 20 -21 8
-38 11 -38 8 0 -3 -5 -2 -11 2 -8 4 -3 12 12 20 24 13 24 13 -11 14 -105 4
-182 36 -85 36 44 0 60 16 20 21 -46 4 -116 19 -145 30 -8 3 -21 7 -29 9 -7 1
-19 8 -25 14 -7 7 4 10 42 7 63 -3 58 2 -38 37 -49 18 -82 36 -94 53 -17 23
-18 26 -2 20 47 -18 128 -38 133 -33 4 3 1 6 -6 6 -18 0 -111 63 -147 99 -18
17 -34 43 -37 57 -4 25 -4 25 32 -8 19 -18 38 -36 41 -39 3 -3 28 -19 55 -35
l50 -28 -55 56 c-30 31 -70 85 -88 120 -34 64 -26 61 33 -12 25 -32 114 -105
137 -113 9 -3 -5 15 -32 42 -43 42 -120 153 -120 174 0 19 71 -31 130 -92 78
-81 136 -120 78 -52 -61 71 -116 198 -133 309 -8 50 10 59 20 10 8 -36 75
-171 82 -164 3 2 -2 17 -10 33 -13 25 -32 84 -43 138 -26 120 -23 127 15 30
31 -79 60 -111 32 -35 -72 196 -71 392 5 619 l47 142 36 -5 c20 -4 54 -9 76
-12z m4981 -126 c47 -141 48 -145 50 -283 3 -151 -7 -223 -49 -338 -14 -37
-23 -67 -20 -67 2 0 22 37 44 83 38 79 39 80 33 37 -3 -24 -7 -47 -9 -51 -2
-3 -7 -21 -10 -40 -3 -18 -15 -54 -26 -78 -33 -74 -13 -57 24 21 42 87 53 114
56 138 0 6 5 10 9 10 11 0 -15 -145 -35 -190 -47 -110 -89 -181 -118 -202 -5
-4 -6 -10 -3 -14 7 -7 116 97 134 127 10 17 94 64 94 53 0 -8 -47 -90 -64
-113 -6 -8 -30 -34 -54 -58 -50 -51 -42 -56 19 -11 45 32 71 58 116 116 31 39
43 35 16 -5 -10 -15 -25 -41 -33 -56 -8 -16 -36 -51 -62 -79 -26 -28 -48 -53
-48 -55 0 -9 90 54 126 89 41 39 42 40 36 12 -6 -32 -57 -83 -119 -120 -60
-36 -53 -47 14 -23 31 10 57 18 59 16 1 -1 -5 -13 -15 -25 -10 -14 -50 -35
-97 -52 -79 -29 -81 -34 -14 -30 55 3 24 -18 -59 -40 -39 -10 -71 -16 -71 -13
0 2 -6 1 -12 -4 -7 -4 -23 -8 -36 -9 -13 0 -27 -5 -32 -10 -6 -6 12 -9 45 -8
53 1 71 -8 40 -20 -8 -3 -43 -8 -78 -12 -72 -7 -78 -10 -46 -22 20 -8 15 -12
-44 -31 l-67 -23 42 -51 c59 -73 113 -121 188 -171 69 -45 153 -87 205 -102
130 -38 183 -46 307 -47 83 -1 87 -2 71 -19 -45 -50 -187 -87 -326 -83 -73 1
-94 6 -149 33 -63 31 -138 94 -192 162 -24 31 -23 26 11 -39 35 -70 107 -153
164 -193 l24 -17 -43 -1 c-78 0 -129 19 -184 71 -29 27 -54 49 -55 49 -6 0 39
-85 55 -102 17 -20 19 -19 -53 -23 -64 -4 -81 7 -94 62 -20 80 -87 172 -171
234 l-22 17 27 42 c60 96 76 209 42 292 -20 48 -82 115 -128 139 -21 10 -40
19 -43 19 -2 0 -8 -15 -11 -32 -4 -18 -12 -44 -18 -58 -6 -14 -11 -27 -11 -30
-2 -12 -58 -97 -79 -121 -32 -36 -122 -101 -187 -136 -77 -41 -280 -106 -280
-89 0 2 37 35 83 74 122 104 249 233 312 317 16 22 32 42 36 45 3 3 24 33 47
67 41 61 42 61 112 77 72 17 161 47 208 72 33 17 33 17 -53 0 -38 -8 -96 -18
-127 -21 -54 -6 -56 -6 -51 14 3 12 8 21 12 21 3 0 37 7 75 15 125 27 239 78
282 127 36 42 38 54 3 22 -36 -33 -94 -63 -136 -70 -15 -3 -30 -7 -35 -10 -15
-10 -148 -16 -148 -7 0 19 26 63 38 64 6 1 15 2 20 3 4 1 23 6 42 10 58 13
149 67 185 109 57 66 76 120 84 230 3 54 4 101 1 103 -3 3 -6 18 -6 32 -1 15
-3 27 -4 27 -2 0 -4 12 -13 60 -9 48 -32 127 -56 190 -45 121 3 49 60 -90 16
-38 34 -99 41 -135 17 -96 25 -92 16 10 -6 87 -34 203 -65 278 -24 59 -2 28
39 -56 36 -71 38 -74 33 -37 -6 50 -11 73 -23 119 -9 31 -8 36 6 37 46 2 106
10 111 14 2 3 12 5 22 5 13 0 28 -33 65 -142z m-4681 -90 c0 -65 2 -118 5
-118 3 0 6 -24 6 -53 2 -86 12 -196 18 -206 14 -22 -13 -19 -34 4 -13 14 -27
25 -31 25 -15 0 17 -65 49 -97 40 -40 42 -57 5 -41 -38 16 -91 66 -114 108
-15 26 -18 29 -13 10 21 -80 74 -150 138 -180 23 -11 34 -19 26 -19 -8 0 -33
8 -56 18 -133 61 -169 200 -114 446 11 48 88 284 99 300 9 15 16 -66 16 -197z
m4290 47 c25 -77 48 -153 51 -170 2 -16 7 -50 11 -75 28 -185 -16 -298 -135
-351 -53 -23 -80 -25 -34 -2 49 24 109 87 132 138 23 50 24 55 10 55 -6 0 -9
-4 -7 -9 3 -14 -72 -101 -88 -101 -7 0 -15 -4 -17 -9 -1 -4 -14 -12 -26 -16
-22 -6 -23 -5 -13 14 7 12 16 21 21 21 13 0 55 68 64 103 6 27 6 26 -29 -10
l-36 -38 6 75 c9 122 22 379 24 485 1 30 5 45 10 40 5 -6 30 -73 56 -150z
m1250 -680 c39 -116 40 -261 4 -345 -24 -54 -54 -109 -71 -132 -11 -14 -7 2
12 44 37 84 51 143 55 238 l3 75 -13 -60 c-24 -103 -42 -155 -76 -211 -40 -65
-61 -73 -26 -9 24 43 43 92 51 131 3 10 9 39 14 62 20 86 5 237 -33 327 l-17
40 35 -40 c23 -26 45 -69 62 -120z m-6780 128 c-2 -10 -8 -30 -14 -46 -18 -47
-23 -79 -26 -173 -4 -126 33 -261 99 -359 l20 -30 -26 23 c-37 34 -96 156
-111 229 -17 85 -27 89 -22 9 5 -81 28 -165 61 -225 22 -40 22 -43 4 -26 -22
20 -67 107 -72 140 -2 11 -7 23 -12 26 -10 8 -13 177 -4 226 12 64 41 139 71
181 34 47 37 50 32 25z m1385 -728 c1 -3 8 -32 16 -66 52 -223 236 -388 544
-489 47 -15 94 -30 105 -33 12 -3 3 -5 -20 -7 -128 -6 -172 -9 -237 -14 -40
-4 -100 -11 -133 -16 -33 -5 -76 -11 -95 -14 -43 -6 -206 -53 -231 -66 -10 -6
-26 -10 -36 -10 -26 0 -82 68 -89 109 -3 20 -7 41 -8 46 -5 20 48 101 98 150
49 48 85 75 134 101 19 10 21 14 10 25 -66 68 -125 170 -132 226 -5 33 17 103
35 114 11 7 30 -20 39 -56z m3984 34 c10 -16 15 -37 12 -45 -3 -7 -1 -14 4
-14 9 0 5 -49 -8 -80 -3 -8 -6 -18 -6 -21 -2 -12 -65 -104 -90 -131 -15 -15
-26 -31 -26 -35 0 -4 21 -21 48 -38 64 -40 155 -132 175 -177 32 -69 19 -130
-39 -185 -24 -22 -40 -31 -48 -24 -31 25 -335 99 -406 98 -8 0 -42 3 -76 7
-34 4 -107 9 -164 11 -56 2 -105 7 -108 10 -3 3 3 5 13 5 10 0 66 16 124 36
298 101 478 268 526 487 15 67 36 127 45 127 3 0 14 -14 24 -31z m-5209 -36
c10 -27 32 -70 49 -98 34 -57 122 -152 149 -161 9 -3 17 -10 17 -16 0 -21
-118 57 -174 115 -61 64 -63 62 -12 -13 30 -45 104 -120 118 -120 5 0 8 -4 8
-9 0 -23 -143 74 -196 132 -31 34 -51 51 -44 37 21 -41 95 -133 131 -162 46
-39 28 -35 -34 6 -64 43 -140 116 -174 167 -14 22 -27 39 -29 39 -8 0 32 -78
63 -122 18 -27 28 -48 23 -48 -6 0 -46 35 -90 78 -44 42 -80 75 -80 73 0 -4
40 -70 52 -86 4 -5 19 -25 34 -42 43 -54 12 -37 -63 35 -69 65 -148 161 -140
168 2 3 42 6 88 8 54 3 119 15 184 34 55 17 101 31 101 31 1 1 9 -20 19 -46z
m6530 7 c80 -23 119 -28 193 -29 l53 -1 -18 -31 c-23 -39 -147 -167 -193 -199
l-35 -24 40 49 c67 82 129 187 74 124 -12 -13 -31 -35 -43 -49 -26 -30 -126
-114 -126 -106 0 3 16 28 35 55 19 26 35 53 35 60 0 6 4 11 8 11 5 0 9 7 9 17
0 10 -11 2 -31 -23 -17 -21 -48 -55 -69 -76 -39 -38 -128 -101 -134 -95 -1 2
21 29 51 61 29 32 63 75 75 96 20 36 17 34 -41 -24 -63 -63 -117 -101 -173
-124 l-30 -12 25 18 c47 33 132 129 129 146 0 5 4 12 9 15 5 3 13 17 16 31 6
19 3 17 -14 -10 -45 -72 -125 -136 -212 -169 -40 -15 -34 -5 10 18 60 31 134
119 183 218 44 90 44 90 74 81 17 -4 62 -17 100 -28z m-1462 -141 c-26 -49
-159 -199 -176 -199 -4 0 -18 -9 -30 -21 -37 -35 -196 -106 -298 -133 -108
-29 -109 -29 -109 -18 0 5 6 9 13 9 45 0 306 104 315 125 2 5 9 8 17 8 7 0 19
7 26 16 9 11 -9 5 -46 -13 -72 -36 -219 -87 -237 -81 -7 3 12 12 40 22 67 21
159 63 193 87 14 10 29 16 32 13 3 -3 8 -1 11 4 9 14 -11 9 -77 -22 -32 -14
-66 -26 -76 -26 -10 0 -21 -3 -25 -7 -3 -4 -12 -8 -19 -9 -7 -1 -32 -7 -57
-13 -76 -18 -78 -11 -5 15 39 14 76 26 83 26 6 1 12 4 12 8 0 6 40 25 129 60
104 40 257 140 288 186 28 44 26 17 -4 -37z m-3741 19 c49 -47 66 -59 133
-100 67 -40 144 -78 158 -78 5 0 39 -15 76 -32 36 -18 95 -43 131 -55 47 -16
55 -21 30 -18 -52 6 -149 33 -198 56 -24 11 -48 19 -54 17 -5 -2 21 -19 59
-37 90 -43 98 -47 168 -71 36 -12 46 -18 25 -14 -46 8 -200 59 -250 83 -22 11
-40 16 -40 12 0 -20 208 -108 335 -142 64 -17 66 -18 23 -14 -118 10 -345 99
-410 160 -15 14 -31 25 -36 25 -15 0 -142 140 -142 156 0 8 -4 14 -8 14 -5 0
-16 16 -25 35 -9 19 -15 35 -13 35 1 0 19 -15 38 -32z m-1343 -311 c-2 -1 -28
-15 -58 -31 -74 -38 -146 -108 -187 -182 -44 -79 -43 -88 3 -27 20 26 46 57
59 68 50 45 74 63 74 58 0 -3 8 1 18 9 16 15 112 51 112 43 0 -3 -13 -11 -29
-19 -27 -14 -56 -42 -116 -110 -38 -44 -30 -52 13 -12 49 47 118 83 171 92 40
6 43 6 33 -12 -6 -10 -22 -32 -36 -48 -38 -43 -32 -49 17 -17 23 16 53 32 67
36 23 7 24 7 10 -11 -8 -10 -22 -28 -31 -39 -25 -29 -85 -137 -92 -165 -5 -23
-4 -23 6 -6 45 74 187 210 202 194 3 -3 -9 -22 -26 -44 -27 -34 -69 -105 -69
-117 0 -2 26 21 58 53 101 100 146 119 106 44 -31 -58 -32 -87 -2 -48 27 35
90 93 101 94 10 0 9 -14 -2 -25 -6 -6 -24 -41 -40 -80 l-31 -70 32 39 c39 48
86 96 112 116 15 11 12 1 -12 -42 -17 -32 -28 -58 -25 -58 4 0 2 -5 -5 -12
-15 -15 -16 -28 -2 -28 6 0 10 5 10 12 0 6 24 34 52 62 40 38 54 47 56 34 2
-9 -3 -29 -11 -45 -8 -15 -17 -41 -21 -58 -6 -27 -3 -24 31 22 37 49 70 79 79
70 3 -2 -6 -26 -20 -53 -14 -27 -23 -50 -21 -52 2 -2 30 25 64 59 65 67 85 74
51 16 -11 -19 -25 -50 -30 -69 l-9 -33 17 25 c30 46 104 110 126 110 12 0 16
-3 10 -8 -14 -9 -68 -93 -72 -111 -2 -7 14 4 35 26 39 41 125 93 154 93 10 0
2 -14 -26 -43 -40 -43 -109 -137 -99 -137 3 0 24 19 47 42 44 44 145 113 153
105 3 -3 -28 -38 -68 -78 -63 -63 -128 -149 -113 -149 3 0 25 19 48 43 51 49
83 74 139 105 45 24 66 21 27 -5 -44 -29 -163 -159 -196 -214 -48 -80 -52
-101 -8 -44 41 54 134 144 150 145 7 0 -39 -54 -85 -100 -17 -16 -72 -113 -94
-165 -14 -33 -20 -52 -13 -41 16 25 77 106 102 137 38 46 59 54 24 9 -119
-151 -165 -296 -133 -417 22 -83 49 -128 125 -206 l71 -72 -5 60 c-3 49 0 66
18 95 26 41 80 96 138 142 38 29 36 26 -18 -33 -33 -37 -70 -85 -83 -108 -22
-39 -19 -38 45 27 37 38 82 76 99 85 24 12 14 -1 -37 -52 -38 -38 -69 -73 -69
-78 0 -5 -8 -18 -17 -29 -19 -21 -58 -103 -68 -144 -3 -14 8 2 26 35 17 33 35
62 40 63 5 2 9 9 9 15 0 19 132 140 179 165 63 33 63 27 -1 -15 -145 -96 -223
-208 -244 -353 -8 -56 -13 -70 -19 -55 -5 11 -29 52 -53 90 -175 274 -418 497
-712 652 -52 28 -98 51 -103 51 -4 1 -27 10 -52 21 -24 11 -83 32 -131 48 -92
30 -104 42 -98 98 9 84 29 146 72 223 22 41 22 43 4 33 -51 -27 -152 -183
-152 -233 0 -23 -12 -28 -45 -20 -45 13 -66 63 -63 152 5 158 67 272 190 351
45 29 158 72 167 63 2 -2 2 -5 0 -7z m6536 -32 c146 -71 228 -204 234 -377 2
-78 -17 -129 -55 -147 -37 -17 -41 -14 -54 27 -27 82 -100 192 -147 219 -18
10 -17 4 12 -55 48 -100 74 -227 51 -255 -6 -8 -49 -27 -96 -42 -275 -89 -524
-242 -733 -450 -106 -106 -237 -273 -287 -367 -18 -33 -33 -58 -35 -56 -1 2
-5 28 -9 60 -11 107 -55 196 -133 271 -57 54 -98 87 -110 87 -4 1 -21 12 -38
26 -30 25 -30 25 24 -3 57 -30 191 -149 191 -170 0 -7 4 -13 8 -13 4 0 19 -22
33 -50 33 -69 44 -63 13 8 -33 75 -67 126 -127 189 -51 54 -54 71 -5 30 14
-12 35 -29 45 -37 10 -9 33 -34 51 -55 l33 -40 -21 41 c-20 41 -30 53 -104
133 l-41 45 55 -45 c71 -57 70 -56 112 -111 34 -44 36 -50 31 -110 l-4 -63 70
73 c131 135 162 251 111 409 -22 68 -78 173 -92 173 -5 0 -8 5 -8 11 0 7 -8
19 -18 28 -9 9 -23 25 -31 36 -8 11 8 -2 35 -30 28 -27 65 -71 84 -97 18 -27
35 -46 37 -44 14 13 -107 205 -165 262 -28 28 -31 34 -12 24 26 -14 112 -100
137 -137 9 -13 20 -23 27 -23 8 0 8 2 0 8 -6 4 -17 22 -25 40 -8 17 -17 32
-21 32 -5 0 -8 4 -8 10 0 20 -117 149 -165 181 -36 25 -47 46 -19 35 35 -13
131 -83 181 -133 l54 -52 -23 41 c-13 22 -58 77 -100 121 -43 44 -76 83 -73
85 7 8 105 -60 154 -107 24 -22 45 -41 48 -41 8 0 -59 91 -97 133 -22 23 -35
44 -29 46 18 6 101 -42 143 -82 21 -20 41 -35 43 -33 6 6 -25 55 -56 89 -24
26 -24 27 -3 27 22 0 122 -89 122 -109 0 -7 5 -9 11 -5 8 4 8 9 0 17 -6 6 -11
19 -11 29 0 10 -3 18 -7 18 -10 0 -34 52 -28 59 3 2 35 -25 70 -62 36 -36 65
-64 65 -62 0 3 -36 84 -48 108 -2 4 2 7 10 7 16 -1 94 -96 90 -111 -1 -6 2 -8
7 -5 11 7 1 50 -23 96 -8 17 -10 32 -5 36 11 6 119 -101 119 -118 0 -6 2 -9 5
-6 8 7 -24 86 -47 121 -11 15 -15 27 -8 27 15 0 120 -111 120 -127 0 -7 5 -13
10 -13 14 0 13 3 -22 78 -18 37 -34 71 -37 77 -15 33 95 -63 118 -103 23 -38
11 20 -14 70 l-25 49 41 -23 c22 -12 63 -46 90 -75 28 -29 52 -53 54 -53 8 0
-30 67 -62 113 -60 82 -9 53 100 -57 37 -38 67 -74 67 -82 0 -7 4 -15 9 -19
37 -22 -53 147 -111 209 -10 11 -16 21 -14 23 6 7 61 -18 93 -43 27 -20 32
-21 26 -7 -3 10 -19 32 -35 49 -25 27 -27 32 -13 38 41 15 149 -37 211 -102
l26 -27 -15 30 c-21 41 -64 87 -111 119 -53 35 -23 33 52 -4 69 -35 124 -84
171 -152 17 -27 34 -48 37 -48 3 0 -11 30 -31 68 -44 81 -131 169 -202 202
-29 14 -53 28 -53 31 0 12 69 -8 125 -36z m-1999 16 c-6 -9 -46 -22 -46 -15 0
3 10 9 23 14 29 11 29 11 23 1z m-2531 -71 c3 -5 1 -10 -4 -10 -6 0 -11 5 -11
10 0 6 2 10 4 10 3 0 8 -4 11 -10z m2415 0 c-8 -5 -19 -10 -25 -10 -5 0 -3 5
5 10 8 5 20 10 25 10 6 0 3 -5 -5 -10z m40 6 c0 -3 -4 -8 -10 -11 -5 -3 -10
-1 -10 4 0 6 5 11 10 11 6 0 10 -2 10 -4z m-2850 -206 c0 -5 -5 -10 -11 -10
-5 0 -7 5 -4 10 3 6 8 10 11 10 2 0 4 -4 4 -10z m3220 0 c0 -5 -4 -10 -10 -10
-5 0 -10 5 -10 10 0 6 5 10 10 10 6 0 10 -4 10 -10z m-3269 -11 c-13 -5 -38
-11 -55 -14 -17 -2 -33 -5 -36 -6 -3 -1 -9 -3 -15 -4 -5 -2 -13 -4 -17 -5 -13
-4 -27 -7 -38 -9 -5 0 -10 -5 -10 -9 0 -9 25 -9 50 1 18 7 90 18 148 23 24 2
55 6 69 9 14 2 22 1 18 -3 -3 -4 -11 -8 -16 -8 -5 -1 -10 -2 -11 -4 -2 -1 -11
-3 -22 -5 -61 -12 -116 -28 -116 -35 0 -4 17 -4 38 0 38 9 107 19 155 25 23 2
27 -1 22 -16 -6 -17 -4 -18 29 -4 20 9 36 13 36 10 0 -3 -22 -28 -50 -57 -27
-28 -50 -57 -50 -62 0 -6 6 -4 13 4 36 44 158 130 195 136 21 4 14 -3 -37 -36
-99 -63 -183 -177 -226 -306 -46 -141 -81 -201 -139 -240 -66 -45 -170 -23
-201 43 -14 29 -14 35 -1 48 8 8 17 15 20 15 3 0 14 7 23 15 10 8 27 22 38 30
l20 16 -20 -5 c-11 -3 -36 -7 -56 -10 -60 -9 -181 -56 -237 -93 -67 -45 -128
-114 -160 -182 -20 -44 -26 -51 -34 -37 -11 20 -15 107 -6 152 8 42 58 154 69
154 5 0 9 5 9 10 0 31 135 158 198 188 29 13 51 26 49 29 -3 2 -33 5 -66 5
l-62 1 7 31 c16 73 104 139 214 160 3 1 10 5 16 9 7 3 29 9 50 13 22 3 42 8
45 10 4 2 31 6 60 10 30 3 56 8 58 10 2 2 16 4 30 3 l26 0 -24 -10z m3394 -5
c63 -10 68 -11 146 -34 140 -42 210 -94 225 -166 5 -28 4 -30 -28 -31 -61 -1
-98 -7 -98 -15 0 -4 7 -8 15 -8 67 0 216 -142 277 -265 39 -78 55 -172 40
-230 -6 -22 -26 -35 -27 -17 -3 48 -113 177 -193 226 -100 59 -282 109 -282
76 0 -6 3 -9 8 -8 11 4 79 -40 85 -55 13 -35 -42 -95 -96 -104 -110 -18 -182
51 -242 232 -51 154 -132 269 -235 335 -27 18 -50 34 -50 36 0 6 71 -24 96
-40 11 -8 47 -38 79 -67 44 -41 54 -46 37 -23 -12 18 -38 48 -57 67 -19 19
-35 37 -35 40 0 9 43 -5 90 -30 27 -13 36 -15 22 -5 -73 55 -71 52 -32 47 19
-3 59 -7 89 -10 29 -3 57 -7 61 -10 3 -2 22 -7 41 -10 25 -4 30 -2 18 5 -19
11 -124 41 -156 44 -38 3 -34 12 5 10 20 -1 37 -3 37 -4 0 -1 20 -3 45 -5 25
-2 54 -5 65 -8 11 -2 38 -8 60 -12 59 -12 60 -12 86 -19 24 -7 24 -7 -1 7 -14
8 -67 24 -117 37 -51 12 -93 24 -93 27 0 4 19 2 115 -13z m-2515 -26 c0 -5
-17 -8 -37 -9 -21 0 -47 -2 -58 -5 -11 -2 -30 -5 -42 -6 -13 -1 -23 -6 -23
-10 0 -4 -8 -5 -17 -2 -15 5 -15 4 -3 -4 8 -6 18 -8 23 -5 12 7 119 11 112 4
-3 -3 -11 -6 -18 -7 -82 -13 -142 -34 -165 -59 -11 -13 -12 -15 -2 -8 27 18
95 30 181 30 l84 1 -79 -9 c-100 -11 -183 -35 -221 -64 -48 -36 -75 -62 -75
-70 0 -4 -9 -19 -19 -33 -10 -15 -19 -29 -18 -32 0 -3 -6 -23 -13 -45 -7 -21
-13 -74 -13 -116 -1 -101 18 -142 89 -193 29 -22 54 -42 54 -46 0 -9 -50 -44
-90 -62 -88 -40 -211 -26 -261 29 -36 40 -83 113 -99 151 -16 42 -21 147 -8
181 5 14 12 37 15 51 2 14 8 27 14 28 5 2 9 8 9 14 0 21 75 115 121 152 65 52
115 80 181 101 29 9 60 19 68 22 8 3 24 7 35 9 80 11 110 16 111 17 6 6 164 1
164 -5z m1750 -3 c25 -3 53 -8 62 -11 9 -3 27 -7 40 -9 67 -13 190 -77 253
-133 84 -73 146 -193 150 -294 4 -93 -29 -174 -107 -262 -56 -64 -174 -82
-266 -40 -46 22 -92 53 -92 63 0 4 21 23 48 41 26 19 54 43 62 54 24 31 37 96
34 161 -4 63 -41 195 -56 195 -4 0 -8 5 -8 11 0 16 -58 67 -99 89 -61 31 -134
47 -226 51 l-60 2 50 6 c57 7 141 -3 200 -23 22 -8 49 -17 60 -21 11 -3 -2 6
-30 21 -27 16 -53 29 -57 30 -5 1 -9 2 -10 4 -4 2 -36 10 -70 17 -16 3 -28 9
-28 13 0 8 72 6 86 -3 6 -3 16 -2 23 2 8 5 -3 11 -31 16 -24 4 -47 9 -53 10
-5 1 -29 3 -52 3 -24 1 -43 6 -43 10 0 9 149 7 220 -3z m-1399 -156 c30 -22
60 -44 68 -49 12 -6 8 -16 -18 -49 -37 -46 -61 -51 -117 -25 -39 19 -55 41
-49 70 2 10 4 21 4 24 2 14 42 70 49 70 5 0 33 -18 63 -41z m914 17 c21 -31
35 -84 29 -101 -9 -21 -72 -55 -104 -55 -36 0 -103 77 -79 91 8 4 39 26 69 48
30 22 58 41 62 41 4 0 15 -11 23 -24z m-1137 -51 c17 -3 33 -10 33 -15 1 -6 2
-18 3 -28 4 -65 85 -125 174 -127 48 -2 57 -6 78 -33 73 -93 105 -239 76 -351
-22 -88 -55 -122 -128 -134 -37 -6 -125 22 -154 48 -20 18 -20 19 17 39 91 51
100 187 19 283 -48 57 -175 99 -213 70 -7 -5 -13 -6 -13 -2 0 4 -16 -3 -36
-14 l-36 -21 19 27 c41 60 72 162 73 234 0 39 2 40 88 24z m1363 -17 c2 -75
15 -130 47 -193 13 -27 30 -54 36 -58 6 -5 2 -6 -9 -2 -11 4 -35 13 -54 20
-124 45 -286 -72 -282 -205 1 -79 20 -115 76 -150 28 -17 33 -25 23 -32 -95
-64 -188 -69 -245 -12 -70 70 -76 234 -13 367 45 96 57 107 121 111 96 6 161
55 175 134 7 34 6 34 56 39 24 3 45 7 47 9 13 12 21 0 22 -28z m-1548 -23 c0
-22 -4 -49 -8 -60 -20 -56 -58 -124 -85 -155 l-30 -35 34 70 c48 97 55 133 13
67 -36 -57 -119 -147 -150 -163 -16 -9 -17 -8 -8 9 6 11 14 22 18 24 23 10
109 146 99 156 -3 3 -6 0 -6 -6 0 -7 -4 -12 -10 -12 -5 0 -28 -19 -50 -42 -42
-44 -44 -33 -6 31 21 35 12 36 -27 3 -26 -22 -28 -12 -6 34 25 56 78 101 112
95 4 0 7 4 7 11 0 6 3 9 6 6 3 -3 17 -2 32 2 53 17 66 9 65 -35z m1731 30 c65
-20 109 -55 134 -106 12 -24 20 -45 17 -47 -2 -2 -18 6 -34 18 -38 26 -39 18
-5 -27 43 -57 17 -51 -41 10 -37 38 -51 48 -45 32 14 -37 57 -102 97 -146 20
-22 33 -42 29 -46 -10 -10 -150 138 -169 180 -10 20 -19 37 -21 37 -11 0 3
-42 35 -108 32 -64 34 -72 13 -47 -23 28 -78 114 -80 125 0 3 -4 21 -7 40 -22
112 -20 114 77 85z m-1104 -150 c16 -24 41 -65 55 -92 27 -52 28 -30 1 47 -8
24 -13 46 -11 48 9 10 45 -41 64 -93 25 -67 31 -103 35 -211 8 -222 -84 -380
-254 -435 -119 -39 -299 18 -411 130 -73 73 -101 129 -106 206 -3 60 13 145
27 145 4 0 10 9 13 19 6 24 63 61 94 61 33 0 85 -28 107 -57 10 -13 19 -42 21
-64 2 -32 -2 -43 -24 -60 -23 -18 -37 -20 -108 -17 -56 3 -80 1 -76 -6 20 -35
97 -127 128 -154 112 -99 276 -119 372 -46 32 24 77 105 89 159 21 102 5 254
-35 335 l-12 25 20 -25 c11 -14 27 -43 35 -65 12 -34 15 -36 15 -14 2 45 -41
155 -79 203 -9 11 -10 16 -3 12 7 -4 26 -27 43 -51z m412 14 c-38 -69 -78
-189 -63 -189 3 0 16 23 28 50 12 28 28 50 35 50 9 0 9 -3 -2 -10 -8 -5 -11
-10 -6 -10 5 0 4 -6 -2 -13 -30 -36 -48 -227 -29 -303 22 -85 35 -113 74 -150
71 -70 191 -82 301 -32 49 22 173 141 204 194 l16 29 -81 -3 c-70 -3 -86 -1
-108 16 -41 33 -27 116 27 156 70 51 149 22 191 -70 22 -48 25 -66 21 -124 -8
-114 -76 -208 -202 -284 -203 -122 -411 -79 -516 107 -17 31 -29 57 -25 57 4
0 3 6 -3 13 -21 26 -33 185 -21 287 9 75 40 168 66 196 28 30 40 26 22 -7 -15
-29 -29 -89 -20 -89 3 0 12 14 20 32 15 34 84 137 89 133 2 -1 -5 -18 -16 -36z
m722 -281 c-10 -16 -29 -7 -41 19 -20 42 -15 47 16 17 17 -15 28 -31 25 -36z
m-1824 43 c0 -6 -5 -13 -10 -16 -6 -4 -8 -11 -5 -16 8 -12 -20 -23 -35 -14 -8
5 -4 15 11 31 23 25 39 31 39 15z m-680 -26 c0 -8 -7 -15 -15 -15 -26 0 -18
20 13 29 1 1 2 -6 2 -14z m3156 1 c12 -13 12 -15 -6 -13 -11 1 -20 7 -20 14 0
17 8 16 26 -1z m-3586 -10 c0 -2 -7 -7 -16 -10 -8 -3 -12 -2 -9 4 6 10 25 14
25 6z m4031 -10 c82 -34 164 -112 180 -168 14 -54 5 -59 -20 -11 -18 34 -123
153 -136 153 -2 0 -19 9 -37 20 -39 23 -34 26 13 6z m-4102 -33 c-56 -48 -100
-96 -126 -140 -14 -24 -26 -43 -28 -43 -7 0 4 59 14 77 20 38 158 150 169 138
3 -2 -10 -17 -29 -32z m125 -267 c-10 -8 -21 -12 -23 -10 -3 2 4 11 15 18 10
8 21 12 23 10 3 -2 -4 -11 -15 -18z m240 -2 c7 -18 -21 -18 -40 0 -10 11 -11
15 -1 19 17 6 34 -2 41 -19z m3446 0 c0 -12 -15 -13 -48 -5 -1 1 3 7 10 15 15
16 38 10 38 -10z m224 -11 c8 -19 2 -16 -25 13 -23 25 -23 26 -2 13 13 -7 25
-19 27 -26z m-3609 16 c11 -17 -1 -21 -15 -4 -8 9 -8 15 -2 15 6 0 14 -5 17
-11z m3300 1 c-3 -5 -11 -10 -16 -10 -6 0 -7 5 -4 10 3 6 11 10 16 10 6 0 7
-4 4 -10z m-3460 -10 c-27 -12 -43 -12 -25 0 8 5 22 9 30 9 10 0 8 -3 -5 -9z
m3382 -12 c-3 -8 -6 -5 -6 6 -1 11 2 17 5 13 3 -3 4 -12 1 -19z m243 11 c12
-9 11 -10 -7 -6 -37 8 -26 -3 25 -25 55 -25 166 -133 158 -155 -3 -8 -6 -19
-6 -25 0 -6 -9 -3 -20 7 -19 17 -19 17 -8 -13 10 -27 9 -35 -16 -74 -30 -46
-82 -98 -99 -98 -6 0 -8 -2 -5 -5 12 -12 62 18 108 65 28 28 50 49 50 47 0 -2
-9 -22 -20 -46 -29 -59 -86 -118 -121 -126 -16 -4 -29 -10 -29 -15 0 -9 57 2
85 18 11 5 29 20 39 31 11 12 23 21 28 21 14 0 9 -26 -9 -46 -22 -24 -83 -68
-83 -59 0 3 -9 1 -21 -5 -11 -6 -45 -11 -76 -11 -30 0 -52 -3 -48 -7 4 -4 34
-7 67 -8 59 -1 100 9 148 35 24 14 24 14 9 -10 -27 -41 -86 -64 -164 -64 -38
0 -83 4 -100 8 -45 13 -17 -7 30 -21 56 -17 93 -20 137 -12 43 8 49 -1 14 -20
-40 -21 -154 -8 -223 26 -115 57 -187 156 -209 289 -10 61 -4 139 12 155 8 8
10 -9 7 -64 -2 -41 0 -77 5 -80 5 -3 8 5 7 19 -3 24 10 96 22 125 3 8 7 21 9
29 3 18 22 36 29 29 3 -3 2 -24 -4 -47 -12 -57 1 -52 22 9 17 47 44 86 54 76
2 -2 0 -20 -5 -40 -14 -49 -7 -45 17 9 16 36 25 45 45 45 36 0 41 -3 39 -20
-1 -12 1 -11 11 3 18 24 53 21 105 -8 24 -14 45 -24 47 -22 2 2 -7 10 -21 17
-14 7 -25 17 -25 21 0 4 -16 13 -35 19 -28 9 -32 14 -22 25 15 17 27 18 47 4z
m-3590 -7 c0 -10 -51 -35 -57 -28 -3 3 -16 -7 -29 -21 -28 -30 -32 -43 -6 -20
25 22 102 41 115 28 15 -15 27 -14 21 2 -3 9 2 13 18 11 13 -1 28 -3 34 -3 7
-1 21 -20 33 -43 12 -24 21 -35 21 -25 0 10 -5 27 -10 38 -6 10 -7 19 -3 19
18 0 32 -17 50 -60 47 -106 43 -99 38 -65 -3 17 -7 43 -11 59 -5 21 -3 27 7
24 20 -7 49 -95 52 -155 3 -80 16 -52 14 32 -1 46 2 70 7 65 37 -37 13 -217
-40 -302 -33 -54 -84 -108 -101 -108 -7 0 -13 -3 -13 -7 0 -8 -70 -44 -98 -51
-10 -2 -49 -6 -89 -9 -55 -4 -76 -1 -87 9 -12 13 -5 15 52 15 67 0 166 25 178
45 4 7 2 8 -4 4 -21 -12 -55 -19 -123 -23 -54 -4 -75 0 -115 18 -43 20 -78 49
-69 57 1 1 24 -6 51 -16 30 -12 73 -20 112 -20 76 0 90 12 19 15 -66 3 -74 5
-120 27 -44 22 -77 60 -77 90 0 19 2 19 24 -7 37 -43 166 -87 166 -56 0 5 -4
8 -10 4 -13 -8 -80 21 -108 48 -32 30 -65 85 -57 96 3 6 18 -3 33 -18 30 -31
72 -56 72 -43 0 4 -13 18 -30 30 -16 13 -30 29 -30 37 0 8 -3 15 -8 15 -4 0
-13 14 -21 31 -10 24 -11 36 -3 49 9 15 8 17 -7 13 -53 -14 -14 73 54 123 15
10 34 25 42 33 7 7 35 22 61 32 57 22 52 21 52 11z m-95 -12 c-3 -5 -12 -10
-18 -10 -7 0 -6 4 3 10 19 12 23 12 15 0z m3765 -16 c0 -2 -9 0 -20 6 -11 6
-20 13 -20 16 0 2 9 0 20 -6 11 -6 20 -13 20 -16z m-3800 0 c0 -8 -19 -13 -24
-6 -3 5 1 9 9 9 8 0 15 -2 15 -3z m3859 -26 c42 -36 69 -75 30 -43 -33 27 -79
75 -72 75 3 0 22 -14 42 -32z m-3933 -24 c-52 -46 -59 -43 -11 6 21 22 41 37
44 34 3 -3 -12 -21 -33 -40z m-23 -209 c4 -8 2 -17 -3 -20 -6 -4 -10 3 -10 14
0 25 6 27 13 6z"/>
<path d="M5140 9170 c-8 -5 -12 -12 -9 -15 4 -3 12 1 19 10 14 17 11 19 -10 5z"/>
<path d="M7657 7856 c-4 -10 -5 -21 -2 -24 9 -9 17 6 13 25 -3 17 -4 17 -11
-1z"/>
<path d="M5297 8674 c-1 -1 -58 -4 -127 -8 -128 -6 -190 -11 -270 -21 -126
-15 -122 -15 -200 -30 -14 -3 -38 -8 -55 -11 -16 -2 -41 -7 -55 -9 -102 -19
-346 -83 -473 -126 -289 -98 -640 -258 -655 -300 -14 -35 -5 -1619 13 -2424 8
-372 25 -748 39 -855 21 -169 140 -428 255 -559 12 -13 21 -27 21 -32 0 -4 60
-68 133 -142 130 -133 193 -184 412 -340 61 -43 182 -129 270 -192 88 -63 167
-119 175 -125 8 -6 138 -98 289 -205 150 -107 278 -192 285 -188 14 8 545 383
661 467 58 42 403 287 419 298 206 138 431 364 559 558 71 110 143 269 163
361 23 114 25 132 40 384 20 354 35 1292 38 2293 l1 704 -25 18 c-68 48 -551
262 -568 251 -1 -1 -15 5 -31 13 -15 8 -39 17 -52 20 -13 2 -37 9 -54 16 -16
6 -37 13 -45 15 -8 3 -40 11 -70 20 -79 22 -308 76 -344 81 -17 2 -40 5 -51 8
-11 2 -40 7 -65 11 -25 4 -53 9 -64 11 -89 16 -557 48 -569 38z m393 -58 c92
-11 219 -29 285 -40 122 -22 239 -48 368 -81 9 -3 27 -8 40 -11 12 -3 28 -6
35 -6 6 -1 12 -4 12 -8 0 -3 8 -6 18 -7 19 -2 215 -68 302 -103 157 -62 428
-192 440 -210 10 -16 -2 -1920 -15 -2375 -14 -500 -26 -746 -40 -879 -19 -166
-136 -410 -282 -586 -43 -52 -256 -264 -299 -298 -16 -12 -135 -98 -264 -190
-129 -91 -239 -170 -245 -174 -5 -5 -118 -85 -250 -178 -132 -93 -244 -173
-250 -178 -5 -4 -41 -30 -80 -57 -38 -26 -80 -57 -92 -68 -13 -12 -27 -16 -35
-11 -15 9 -371 261 -433 306 -86 63 -298 214 -320 228 -77 49 -413 296 -485
356 -154 129 -294 288 -389 441 -28 46 -51 85 -51 87 0 3 -13 33 -29 68 -39
86 -64 168 -76 249 -12 86 -27 390 -29 586 0 73 -3 133 -6 133 -3 0 -6 73 -7
163 -5 617 -14 1151 -17 1155 -3 2 -1 15 4 28 6 15 6 26 -1 30 -6 3 -6 10 -1
17 5 7 6 21 2 32 -4 11 -4 30 1 43 5 12 5 22 1 22 -4 0 -7 237 -7 526 l0 526
80 42 c88 46 272 129 380 172 84 33 320 113 355 120 14 3 61 14 105 26 44 11
87 22 95 23 8 2 15 4 15 5 0 1 11 3 25 5 14 2 39 6 55 9 76 15 197 36 241 41
27 3 63 8 79 10 17 2 64 7 105 11 41 3 77 8 79 10 6 5 527 -4 581 -10z"/>
<path d="M4517 8040 c-23 -19 -35 -20 -124 -14 -209 14 -219 6 -222 -195 -1
-48 -23 -74 -129 -156 -39 -30 -56 -53 -71 -92 -32 -83 -32 -81 -30 -292 1
-100 34 -171 99 -214 16 -10 31 -34 39 -62 22 -74 104 -135 181 -135 10 0 38
-18 61 -40 23 -22 45 -37 47 -35 3 3 11 0 19 -7 8 -6 41 -10 76 -9 107 3 121
3 177 -2 30 -2 62 -1 70 3 8 4 28 14 44 21 16 8 41 26 55 41 16 17 37 28 52
28 73 0 159 71 178 146 7 25 17 44 25 44 19 0 75 66 94 109 10 26 15 77 16
179 1 78 -1 142 -4 142 -3 0 -6 10 -7 23 0 12 -7 36 -14 52 -7 17 -12 33 -11
37 1 3 -24 28 -56 55 -31 26 -66 56 -77 65 -11 10 -28 23 -37 30 -12 9 -19 34
-23 89 -4 41 -8 84 -10 95 -2 10 -4 26 -4 35 -1 9 -13 25 -28 34 -27 18 -58
20 -209 10 -61 -4 -76 -2 -97 15 -32 25 -48 25 -80 0z m-89 -59 c2 -1 -25 -22
-60 -48 -34 -25 -79 -58 -98 -73 -63 -47 -61 -49 -54 32 3 40 11 79 17 86 8
10 33 12 101 9 50 -3 93 -6 94 -6z m450 1 c8 -5 16 -31 18 -58 2 -27 6 -59 8
-71 3 -13 1 -23 -4 -23 -9 0 -100 58 -110 70 -3 3 -26 21 -53 40 -26 18 -43
36 -38 39 16 10 165 12 179 3z m-474 -94 c-39 -42 -56 -61 -74 -84 -30 -37
-164 -199 -170 -204 -3 -3 -25 -30 -50 -60 -24 -30 -52 -64 -62 -75 -10 -11
-29 -33 -43 -50 l-25 -30 0 46 c0 26 9 75 20 110 20 62 24 67 136 159 101 83
169 136 237 182 11 7 26 18 35 25 28 21 27 14 -4 -19z m431 -73 c100 -74 263
-218 267 -233 3 -9 6 -20 7 -24 1 -4 7 -25 14 -45 11 -33 13 -62 8 -112 0 -8
-10 -2 -23 15 -12 16 -25 31 -28 34 -3 3 -37 43 -75 90 -38 47 -72 87 -75 90
-3 3 -50 59 -105 125 -54 66 -101 122 -104 125 -3 3 -13 14 -21 25 -14 18 38
-16 135 -90z m-437 -57 c-69 -141 -215 -441 -277 -571 -40 -83 -43 -87 -63
-73 -43 30 -71 87 -74 149 -2 57 0 60 49 120 28 34 56 67 62 73 5 7 19 22 29
35 11 13 42 51 70 84 28 33 54 64 59 70 17 23 50 62 78 92 16 18 29 37 29 43
0 6 5 8 10 5 6 -3 10 -1 10 5 0 6 6 17 13 24 6 8 22 25 34 40 13 14 25 26 27
26 2 0 -23 -55 -56 -122z m350 24 c19 -23 43 -51 54 -64 11 -13 32 -38 46 -57
15 -19 36 -44 47 -55 11 -12 38 -44 60 -71 21 -28 42 -52 45 -55 24 -22 113
-133 124 -155 8 -15 12 -39 10 -54 -2 -14 -6 -40 -9 -58 -5 -29 -79 -124 -88
-112 -10 12 -127 262 -127 270 0 5 -5 9 -12 9 -6 0 -9 3 -6 6 3 3 -22 62 -57
132 -34 70 -82 168 -105 217 -23 50 -49 104 -57 120 l-14 30 28 -31 c15 -17
43 -49 61 -72z m-212 -442 l0 -499 -26 -10 c-79 -27 -197 34 -187 97 3 15 19
86 36 159 17 72 33 142 35 155 3 13 7 32 10 43 3 11 28 121 56 245 29 124 54
234 57 245 2 11 6 29 7 40 4 22 5 25 9 25 1 0 3 -225 3 -500z m57 463 c2 -16
14 -68 25 -118 17 -70 70 -304 107 -465 2 -8 4 -17 5 -20 1 -3 3 -9 5 -15 1
-5 3 -12 4 -15 2 -3 4 -14 6 -25 5 -32 15 -79 21 -97 5 -16 9 -37 18 -85 3
-13 7 -27 10 -32 12 -18 -17 -59 -57 -81 -39 -22 -137 -33 -153 -17 -8 8 -11
997 -3 997 4 0 9 -12 12 -27z m314 -528 c107 -226 103 -215 87 -254 -17 -41
-38 -62 -83 -86 -46 -23 -74 -17 -82 20 -4 17 -17 73 -29 125 -36 154 -53 232
-66 290 -2 14 -8 34 -11 45 -4 11 -8 25 -9 30 -10 57 -31 151 -55 247 -16 65
-29 123 -28 130 0 12 168 -321 276 -547z m-423 533 c-5 -7 -9 -19 -9 -28 -2
-22 -26 -132 -33 -150 -3 -8 -7 -24 -9 -34 -2 -10 -15 -67 -29 -125 -13 -58
-27 -117 -30 -131 -3 -14 -7 -33 -10 -42 -5 -16 -9 -37 -19 -88 -3 -14 -9 -40
-15 -59 -5 -19 -7 -38 -4 -42 3 -5 1 -9 -5 -9 -5 0 -8 -8 -6 -17 1 -10 -2 -23
-7 -29 -5 -7 -8 -16 -7 -20 1 -5 0 -11 -1 -14 -2 -6 -6 -26 -14 -64 -7 -38 -9
-39 -50 -32 -37 7 -89 45 -107 78 -25 47 -19 67 81 275 228 471 265 543 273
543 4 0 5 -6 1 -12z"/>
<path d="M6092 8040 c-21 -17 -35 -19 -115 -14 -51 2 -104 6 -119 8 -15 2 -40
-3 -57 -11 -41 -21 -47 -37 -55 -166 -5 -72 -7 -79 -37 -104 -17 -15 -36 -32
-43 -37 -6 -6 -30 -26 -54 -45 -79 -61 -96 -121 -95 -328 1 -152 17 -201 83
-254 22 -18 42 -46 50 -70 24 -72 109 -139 177 -139 17 0 40 -12 63 -34 44
-42 108 -65 169 -59 64 7 89 7 139 0 58 -8 131 16 173 55 19 18 44 34 57 35
38 3 89 23 117 45 32 25 78 95 70 108 -3 5 5 19 17 30 107 98 117 123 117 302
0 100 -4 142 -19 192 -22 71 -22 70 -100 136 -30 25 -64 54 -77 65 -26 22 -30
36 -37 142 -10 138 -17 142 -234 127 -73 -5 -85 -3 -108 15 -33 26 -52 26 -82
1z m-102 -60 c5 -3 -36 -40 -92 -81 -104 -76 -125 -89 -115 -72 3 5 7 34 8 64
4 99 6 101 104 98 47 -2 90 -6 95 -9z m468 -2 c5 -7 13 -46 16 -86 l6 -73 -67
47 c-138 97 -155 112 -136 116 52 11 171 8 181 -4z m-500 -110 c-24 -29 -122
-146 -217 -261 -95 -114 -176 -205 -181 -202 -10 6 -6 52 14 142 8 38 24 59
73 99 26 21 50 41 53 44 3 3 28 23 55 44 28 22 58 48 68 58 10 10 30 26 45 35
15 10 32 21 37 26 29 22 90 66 94 67 2 0 -17 -24 -41 -52z m405 -17 c45 -33
91 -68 102 -78 11 -10 45 -38 75 -63 30 -25 66 -55 80 -67 14 -13 27 -23 30
-23 9 0 38 -62 49 -105 6 -22 11 -59 11 -83 0 -51 5 -54 -95 68 -39 47 -79 94
-90 106 -11 11 -36 40 -55 64 -19 24 -51 62 -70 85 -19 23 -51 61 -70 85 -19
23 -41 49 -48 56 -28 29 3 12 81 -45z m-352 -8 c-10 -21 -19 -41 -20 -46 0 -4
-14 -33 -31 -65 -16 -31 -34 -68 -40 -82 -5 -14 -14 -32 -20 -40 -5 -8 -41
-80 -78 -160 -124 -260 -163 -340 -172 -345 -12 -7 -80 75 -80 96 0 10 -4 20
-9 23 -15 10 -3 104 16 123 10 10 36 40 58 67 22 27 47 57 57 68 9 10 31 38
50 60 38 48 90 111 98 118 3 3 24 28 45 55 22 28 45 55 51 60 6 6 28 31 49 58
20 26 39 47 41 47 3 0 -4 -17 -15 -37z m249 18 c0 -3 10 -17 23 -31 12 -14 40
-47 62 -75 22 -27 45 -55 50 -61 22 -24 122 -143 177 -209 9 -11 42 -51 74
-89 53 -62 59 -73 60 -119 2 -59 -12 -97 -55 -144 l-33 -36 -24 39 c-13 22
-24 42 -24 45 0 6 -187 393 -289 600 -26 54 -41 95 -34 92 7 -3 13 -8 13 -12z
m-216 -113 c-23 -87 -31 -125 -40 -173 -6 -32 -12 -60 -15 -60 -1 0 -3 -9 -4
-20 -1 -11 -10 -49 -20 -85 -9 -36 -18 -76 -20 -90 -2 -14 -4 -25 -5 -25 -1 0
-3 -9 -6 -20 -2 -11 -21 -94 -43 -185 l-38 -165 -37 2 c-44 3 -91 34 -111 73
-30 58 -41 30 211 545 48 99 88 182 89 185 2 11 56 110 59 110 2 0 -7 -42 -20
-92z m206 7 c0 -2 48 -102 106 -222 200 -411 224 -463 220 -486 -3 -12 -5 -25
-5 -29 -3 -24 -66 -77 -106 -88 -48 -13 -57 -11 -61 18 -2 23 -27 132 -63 282
-16 69 -32 136 -35 150 -2 14 -16 72 -30 130 -13 58 -27 116 -30 130 -6 26
-28 121 -41 175 -6 26 -3 24 19 -14 14 -23 26 -45 26 -46z m-136 -416 c-2
-554 3 -519 -82 -512 -50 4 -76 15 -113 50 l-27 24 20 87 c11 48 21 95 23 105
2 10 7 28 11 40 4 12 8 33 10 47 1 14 5 35 8 48 3 12 8 31 11 43 2 11 6 28 9
37 3 9 7 28 10 42 9 51 108 465 112 472 3 5 6 8 7 8 1 0 1 -221 1 -491z m57
461 c2 -36 6 -55 12 -70 3 -8 8 -28 11 -45 2 -16 25 -118 51 -225 50 -211 51
-215 64 -275 5 -22 21 -96 37 -164 l28 -123 -29 -25 c-17 -13 -41 -29 -55 -35
-32 -13 -100 -19 -100 -8 0 4 -8 7 -17 6 -17 -1 -18 29 -19 492 0 270 4 492 8
492 4 0 9 -9 9 -20z"/>
<path d="M4515 6506 c-16 -13 -32 -23 -35 -21 -3 2 -58 6 -122 10 -99 5 -121
4 -142 -10 -13 -9 -27 -23 -30 -31 -5 -13 -15 -111 -20 -191 -1 -14 -29 -44
-81 -85 -44 -36 -86 -72 -93 -80 -26 -31 -53 -133 -52 -193 4 -218 6 -241 24
-274 18 -33 82 -101 95 -101 4 0 13 -20 20 -45 21 -71 91 -128 168 -137 15 -1
47 -19 70 -39 52 -44 117 -64 176 -54 23 4 52 6 65 6 165 -8 193 -2 244 54 14
14 39 27 63 31 90 14 166 83 179 161 1 7 22 29 45 50 39 33 67 77 78 123 11
43 8 260 -4 310 -8 30 -15 61 -15 68 -1 6 -5 12 -10 12 -4 0 -8 6 -8 14 0 8
-40 47 -90 87 -71 56 -90 77 -91 98 -1 29 -5 75 -13 140 -3 26 -14 54 -28 68
-23 24 -24 24 -155 18 -125 -7 -134 -6 -159 14 -34 27 -42 26 -79 -3z m-87
-60 c1 -2 -30 -25 -68 -52 -39 -27 -86 -61 -103 -76 -18 -15 -35 -28 -39 -28
-4 0 -5 33 -2 73 6 93 12 97 123 91 47 -3 87 -7 89 -8z m458 -15 c7 -12 11
-41 10 -62 0 -21 1 -39 4 -39 3 0 6 -9 7 -20 1 -11 -1 -20 -4 -20 -2 0 -53 35
-111 78 l-107 77 45 5 c25 3 67 5 95 5 42 0 51 -4 61 -24z m-537 -138 c-97
-115 -90 -107 -220 -263 -160 -191 -149 -181 -149 -139 0 20 5 62 12 94 10 49
19 66 57 104 25 26 57 55 71 66 164 132 237 188 261 202 16 10 29 22 29 27 0
5 3 6 6 3 4 -4 -27 -46 -67 -94z m427 35 c125 -93 309 -246 322 -268 13 -22
19 -40 28 -90 8 -42 11 -95 7 -103 -2 -4 -52 50 -111 120 -58 71 -110 130
-114 131 -4 2 -8 10 -8 18 0 8 -4 14 -8 14 -7 0 -59 61 -142 164 -8 10 -25 29
-38 42 -38 39 -11 27 64 -28z m-352 -45 c-65 -135 -228 -471 -285 -590 -32
-68 -61 -123 -65 -123 -16 0 -75 78 -85 112 -21 81 -12 105 94 228 12 14 53
63 92 110 38 47 72 87 75 90 3 3 25 30 50 60 25 30 47 57 50 60 3 3 27 31 54
63 27 31 50 57 51 57 1 0 -12 -30 -31 -67z m303 -8 c23 -30 108 -131 117 -140
6 -5 29 -32 51 -60 22 -27 47 -58 55 -69 8 -10 24 -28 35 -40 59 -64 125 -146
125 -155 0 -6 4 -11 9 -11 14 0 19 -59 9 -104 -11 -49 -45 -101 -74 -115 -19
-8 -25 -1 -69 92 -27 56 -96 199 -153 317 -126 261 -165 342 -170 355 -4 9 44
-42 65 -70z m-77 4 c0 -4 41 -93 91 -196 50 -103 118 -244 151 -313 33 -69 72
-150 88 -181 26 -52 27 -59 14 -95 -16 -47 -62 -89 -115 -102 l-39 -10 -9 37
c-15 54 -45 187 -55 236 -2 11 -12 52 -21 90 -9 39 -19 79 -21 90 -5 21 -11
48 -18 80 -15 71 -77 336 -85 363 -9 29 -8 32 4 22 8 -7 15 -16 15 -21z m-165
-1 c-3 -13 -9 -34 -12 -48 -2 -14 -7 -32 -10 -40 -3 -8 -7 -22 -8 -30 -5 -31
-21 -101 -52 -230 -3 -14 -8 -32 -9 -41 -2 -9 -17 -74 -35 -145 -17 -71 -32
-140 -34 -154 -2 -14 -4 -26 -4 -27 -1 -2 -1 -4 0 -5 0 -2 -4 -15 -9 -29 -6
-14 -13 -42 -16 -61 -10 -62 -24 -88 -43 -82 -51 16 -80 30 -94 44 -21 20 -42
59 -46 86 -2 12 43 117 101 235 208 430 256 530 256 539 0 6 5 10 11 10 7 0 9
-8 4 -22z m51 -479 c0 -275 -4 -493 -9 -496 -22 -13 -104 -9 -137 7 -75 38
-77 48 -44 190 9 36 17 72 19 80 2 8 10 47 19 85 8 39 31 135 50 215 19 80 37
157 40 170 2 14 10 48 16 75 6 28 13 57 15 65 2 8 8 34 13 57 5 23 8 44 6 48
-2 3 -1 2 4 -1 4 -3 7 -226 8 -495z m69 416 c9 -38 19 -79 21 -90 2 -11 7 -33
11 -50 4 -16 7 -32 8 -35 1 -3 4 -18 8 -35 4 -16 9 -39 11 -50 2 -11 9 -40 16
-65 7 -25 14 -55 16 -67 7 -39 13 -66 24 -108 6 -22 12 -49 14 -60 4 -18 9
-42 32 -144 3 -13 11 -51 19 -84 15 -66 13 -71 -50 -113 -30 -20 -106 -26
-134 -12 l-23 13 -2 492 c0 271 2 489 5 485 3 -4 14 -38 24 -77z"/>
<path d="M6097 6508 c-22 -16 -41 -21 -80 -19 -29 1 -87 4 -130 6 -69 3 -81 1
-103 -19 -26 -22 -27 -26 -39 -165 -6 -72 2 -61 -109 -155 -75 -63 -86 -76
-103 -136 -13 -41 -16 -90 -15 -190 1 -74 3 -144 5 -155 6 -36 48 -100 82
-125 19 -14 37 -34 41 -45 15 -50 37 -86 70 -113 36 -30 97 -54 117 -46 7 2
30 -12 51 -31 56 -49 113 -69 178 -61 65 8 71 9 133 0 69 -9 127 9 174 54 28
27 50 38 76 39 72 5 149 69 168 140 6 23 15 43 19 43 17 0 79 71 97 109 28 65
29 293 0 383 -20 65 -26 72 -108 140 -47 39 -87 72 -89 73 -5 4 -10 42 -16
124 -7 86 -23 125 -56 134 -19 5 -184 -1 -225 -7 -11 -2 -39 7 -62 20 -23 13
-43 24 -45 24 -2 0 -16 -10 -31 -22z m-99 -63 c2 -2 -40 -36 -95 -76 -54 -39
-103 -76 -109 -81 -9 -6 -11 1 -8 24 2 18 6 53 7 77 5 61 20 69 119 64 46 -3
85 -6 86 -8z m463 -7 c5 -7 9 -29 10 -48 1 -19 2 -52 4 -72 l3 -38 -41 33
c-23 19 -64 49 -92 67 -95 65 -95 64 -18 70 89 7 124 4 134 -12z m-471 -66 c0
-4 -11 -19 -25 -34 -14 -15 -108 -127 -210 -248 -101 -122 -187 -220 -192
-218 -7 3 -8 46 0 93 9 56 33 107 61 129 30 23 66 52 96 78 13 12 50 42 115
94 36 28 149 112 153 113 1 1 2 -2 2 -7z m378 -59 c40 -29 81 -61 92 -71 10
-9 25 -22 32 -27 184 -145 205 -173 215 -299 l6 -70 -203 244 c-112 135 -206
247 -209 250 -3 3 -13 14 -21 24 -20 26 -8 19 88 -51z m-348 11 c-6 -14 -15
-35 -22 -47 -7 -12 -13 -24 -13 -27 -1 -3 -47 -99 -103 -214 -56 -114 -102
-212 -102 -216 0 -4 -7 -13 -15 -20 -8 -6 -13 -15 -12 -19 3 -11 -96 -211
-105 -211 -12 0 -57 49 -72 79 -14 27 -20 69 -17 118 0 13 75 111 173 230 190
229 215 258 240 284 9 10 24 29 33 43 22 33 27 33 15 0z m281 -50 c24 -28 58
-67 74 -88 17 -21 38 -47 48 -59 10 -12 36 -42 57 -67 36 -43 69 -83 148 -180
21 -24 46 -53 57 -65 23 -23 29 -99 13 -146 -13 -39 -74 -103 -88 -94 -9 6
-29 43 -35 65 0 3 -38 82 -84 175 -46 94 -103 211 -126 260 -23 50 -64 133
-89 185 -49 98 -48 99 25 14z m-248 -16 c-8 -29 -18 -73 -23 -98 -18 -86 -24
-116 -43 -192 -8 -32 -12 -58 -9 -58 2 0 -1 -7 -8 -15 -7 -8 -10 -15 -7 -15 3
0 1 -16 -5 -36 -12 -46 -18 -71 -24 -109 -3 -16 -7 -36 -10 -43 -2 -8 -16 -64
-30 -125 -41 -181 -42 -186 -62 -182 -9 2 -24 4 -33 4 -27 1 -99 73 -108 108
-8 27 -3 44 32 115 45 92 42 85 52 116 4 12 11 22 16 22 5 0 9 6 9 13 0 7 32
76 70 155 39 78 70 147 70 152 0 6 4 10 10 10 6 0 9 3 8 8 -3 8 99 222 105
222 2 0 -2 -24 -10 -52z m60 -458 c0 -270 -3 -493 -6 -497 -3 -3 -26 -8 -51
-10 -52 -6 -125 24 -150 61 -13 21 -13 31 4 97 10 41 30 128 45 194 15 66 32
136 38 155 6 19 10 39 9 43 -1 4 7 42 18 85 11 42 23 92 26 111 4 29 14 71 50
216 4 17 6 35 5 40 -2 6 1 7 5 3 4 -4 7 -228 7 -498z m53 477 c4 -24 12 -63
24 -112 6 -27 14 -61 16 -75 3 -14 10 -43 16 -65 5 -22 11 -47 13 -55 2 -8 19
-86 40 -172 20 -87 38 -166 40 -175 2 -10 16 -69 30 -131 15 -63 24 -120 21
-127 -2 -7 -21 -25 -41 -41 -28 -21 -49 -28 -95 -30 -38 -2 -62 1 -67 9 -4 7
-8 234 -9 504 0 426 2 527 12 470z m135 -164 c50 -104 104 -215 119 -248 15
-33 57 -120 94 -193 36 -74 66 -141 66 -149 0 -53 -62 -119 -126 -133 -28 -7
-36 -5 -44 11 -6 10 -10 22 -9 26 1 4 0 10 -1 13 -3 8 -8 32 -15 65 -3 17 -15
66 -25 110 -10 44 -40 170 -65 280 -26 110 -48 205 -49 210 -3 10 -14 66 -20
95 -2 8 -6 22 -9 30 -10 26 -18 70 -12 70 2 0 46 -84 96 -187z"/>
<path d="M5310 5113 c-31 -20 -43 -23 -100 -18 -91 7 -172 9 -190 4 -21 -5
-50 -39 -51 -58 -1 -9 -3 -29 -4 -46 -2 -16 -5 -56 -8 -88 -6 -64 -2 -59 -119
-154 -40 -32 -71 -67 -78 -86 -23 -62 -36 -132 -33 -182 4 -69 4 -131 1 -141
-6 -22 15 -100 34 -128 24 -34 78 -86 91 -86 4 0 7 -8 7 -18 0 -20 35 -88 55
-109 22 -21 97 -53 127 -53 19 0 42 -13 69 -40 23 -22 44 -38 46 -36 3 2 19
-2 36 -9 18 -7 46 -11 62 -8 17 2 57 4 90 4 165 -2 175 -2 175 11 0 5 4 7 9 4
4 -3 28 12 51 34 28 26 53 40 70 40 71 0 162 77 177 150 3 17 8 30 12 30 4 0
24 16 45 36 48 46 78 112 77 172 -1 26 -1 63 0 82 4 140 1 165 -30 247 -11 28
-48 63 -173 164 -14 11 -21 32 -24 75 -8 102 -12 128 -20 149 -8 21 -34 51
-34 39 0 -3 -6 -2 -12 3 -7 5 -31 8 -53 6 -22 -1 -76 -4 -120 -7 -72 -5 -83
-3 -115 18 l-35 23 -35 -24z m-117 -81 c-15 -13 -53 -41 -83 -62 -30 -22 -68
-49 -83 -61 l-28 -22 4 76 c3 42 8 81 12 87 5 7 40 10 106 8 l100 -3 -28 -23z
m482 11 c4 -10 9 -49 12 -87 l4 -69 -28 22 c-15 11 -64 47 -108 78 -91 65 -89
69 36 72 65 2 78 -1 84 -16z m-476 -70 c-7 -10 -20 -25 -29 -34 -8 -9 -22 -25
-30 -35 -34 -43 -315 -380 -327 -392 -7 -7 -13 -17 -13 -20 0 -4 -8 -12 -18
-18 -16 -10 -17 -7 -15 35 1 25 6 57 9 71 4 14 8 28 8 32 1 3 4 10 9 14 4 4 7
15 7 24 0 10 18 32 40 50 42 34 69 57 114 97 33 29 249 193 255 193 2 0 -3 -8
-10 -17z m321 -10 c14 -9 27 -20 30 -24 3 -3 19 -15 35 -25 17 -11 92 -70 166
-132 116 -96 138 -119 149 -155 8 -23 14 -51 16 -62 1 -11 4 -31 7 -45 14 -75
-10 -55 -175 144 -210 253 -229 275 -250 298 -22 23 -10 23 22 1z m-308 -80
c-32 -61 -175 -357 -282 -580 l-63 -132 -28 19 c-38 28 -69 96 -69 154 0 42 6
55 43 99 23 29 49 61 59 72 52 63 257 308 297 354 25 29 50 60 54 68 5 8 11
12 14 9 3 -2 -9 -31 -25 -63z m318 -23 c19 -24 40 -48 45 -54 6 -6 26 -31 46
-56 20 -25 47 -56 58 -70 25 -28 24 -27 146 -173 82 -98 92 -116 96 -172 3
-39 -29 -106 -64 -138 l-32 -28 -47 98 c-97 199 -233 481 -280 577 -26 54 -48
101 -48 105 0 6 17 -13 80 -89z m-255 38 c-2 -7 -7 -24 -9 -38 -7 -32 -49
-214 -82 -350 -14 -58 -27 -116 -29 -130 -2 -14 -8 -40 -14 -57 -5 -18 -8 -33
-6 -33 3 0 0 -12 -6 -27 -6 -16 -13 -39 -15 -53 -5 -32 -12 -65 -14 -65 -1 0
-3 -11 -5 -25 -6 -32 -13 -65 -15 -65 -1 0 -4 -11 -6 -25 -7 -39 -19 -45 -63
-31 -50 14 -99 65 -107 109 -5 26 1 48 24 95 17 34 68 141 115 237 46 96 117
241 156 323 39 81 73 147 76 147 2 0 2 -6 0 -12z m101 -19 c1 -5 2 -10 4 -11
1 -2 3 -11 5 -22 2 -10 9 -39 15 -65 6 -25 12 -55 14 -66 2 -11 9 -40 16 -65
7 -25 14 -56 17 -70 2 -14 15 -70 28 -125 13 -55 36 -152 50 -215 15 -63 28
-123 31 -132 7 -29 14 -61 18 -85 3 -13 7 -27 11 -32 10 -17 -61 -77 -102 -88
-39 -10 -101 -8 -112 3 -3 3 -6 227 -6 499 0 272 2 491 5 489 3 -3 6 -10 6
-15z m-51 -474 c0 -367 -3 -487 -12 -496 -22 -22 -111 -13 -154 15 -35 24 -63
58 -54 67 3 4 82 336 91 389 3 14 11 50 19 80 8 30 16 66 18 80 3 14 17 72 31
130 14 58 28 119 31 137 5 32 22 83 27 83 2 0 3 -218 3 -485z m169 353 c35
-73 107 -223 161 -333 53 -110 106 -219 117 -242 27 -54 19 -99 -25 -141 -29
-29 -80 -52 -113 -52 -6 0 -16 24 -22 53 -7 28 -19 86 -27 127 -9 41 -19 82
-22 90 -4 8 -8 22 -9 30 -3 25 -16 83 -39 180 -2 8 -13 56 -24 105 -12 50 -32
137 -46 195 -38 161 -35 161 49 -12z"/>
<path d="M8213 5725 c0 -8 4 -15 9 -15 4 0 8 4 8 9 0 6 -4 12 -8 15 -5 3 -9
-1 -9 -9z"/>
<path d="M2420 4246 c0 -2 8 -10 18 -17 15 -13 16 -12 3 4 -13 16 -21 21 -21
13z"/>
<path d="M1913 4469 c-2 -23 3 -25 10 -4 4 8 3 16 -1 19 -4 3 -9 -4 -9 -15z"/>
<path d="M3696 3657 c3 -10 9 -15 12 -12 3 3 0 11 -7 18 -10 9 -11 8 -5 -6z"/>
<path d="M3485 3210 c-13 -6 -15 -9 -5 -9 8 0 22 4 30 9 18 12 2 12 -25 0z"/>
<path d="M3820 3183 c-13 -15 -12 -16 4 -10 10 4 20 7 22 7 2 0 4 5 4 10 0 15
-13 12 -30 -7z"/>
<path d="M7227 3199 c7 -7 15 -10 18 -7 3 3 -2 9 -12 12 -14 6 -15 5 -6 -5z"/>
<path d="M7148 1833 c7 -3 16 -2 19 1 4 3 -2 6 -13 5 -11 0 -14 -3 -6 -6z"/>
<path d="M664 552 c-162 -50 -242 -213 -187 -383 22 -66 84 -131 147 -152 56
-19 160 -16 201 5 59 31 136 120 116 133 -5 3 -12 -4 -16 -15 -4 -11 -19 -32
-33 -46 -107 -101 -246 -76 -304 54 -33 73 -31 217 4 293 31 67 74 101 132
104 71 4 124 -36 169 -125 l22 -45 5 80 c3 44 3 88 1 98 -4 18 -5 18 -23 -1
-17 -17 -23 -18 -56 -7 -60 21 -125 23 -178 7z"/>
<path d="M1277 558 c-9 -7 -46 -89 -82 -183 -102 -263 -116 -294 -148 -321
-15 -13 -33 -24 -38 -24 -5 0 -9 -4 -9 -9 0 -4 38 -8 85 -7 85 1 107 8 61 20
-37 9 -41 39 -16 117 l23 69 93 0 93 0 10 -37 c6 -21 9 -41 8 -44 -1 -3 3 -12
9 -20 6 -8 14 -26 18 -41 5 -21 1 -30 -15 -42 -12 -8 -28 -12 -37 -9 -9 4 -13
2 -9 -4 8 -12 231 -12 243 0 4 4 -4 7 -18 7 -14 0 -32 8 -41 18 -16 18 -69
132 -61 132 2 0 -2 14 -11 30 -9 17 -13 30 -9 30 4 0 2 6 -4 13 -5 6 -15 28
-20 47 -17 57 -93 254 -101 263 -4 4 -14 1 -24 -5z m12 -208 c18 -54 34 -103
35 -107 0 -4 -34 -8 -77 -8 l-78 -1 6 36 c4 19 10 40 14 45 5 6 13 26 20 45
17 50 35 90 41 90 3 0 21 -45 39 -100z"/>
<path d="M1838 565 c-2 -2 -18 -5 -36 -8 -105 -17 -168 -118 -132 -213 16 -42
48 -62 183 -114 75 -29 107 -67 101 -117 -9 -68 -74 -110 -141 -90 -51 16
-121 91 -140 150 -13 42 -23 10 -23 -78 0 -52 4 -95 8 -95 5 0 17 8 28 18 16
15 25 17 44 9 66 -27 146 -30 190 -7 72 37 100 86 96 169 -3 37 -10 59 -26 76
-21 22 -88 61 -100 58 -3 -1 -35 13 -70 30 -75 37 -96 66 -86 118 10 53 56 78
129 70 22 -2 74 -55 95 -98 12 -23 25 -44 30 -47 4 -2 8 33 7 80 0 57 -4 84
-12 84 -6 0 -13 -5 -15 -12 -3 -8 -20 -7 -66 4 -33 9 -62 14 -64 13z"/>
<path d="M4658 564 c-2 -1 -15 -4 -28 -6 -75 -11 -159 -83 -189 -162 -26 -68
-22 -193 7 -252 44 -88 127 -138 227 -139 111 0 188 50 239 155 32 66 31 193
-2 256 -38 73 -100 123 -173 139 -39 9 -78 13 -81 9z m101 -41 c32 -24 58 -76
70 -137 13 -70 6 -206 -14 -265 -30 -90 -114 -129 -194 -89 -68 33 -92 92 -96
233 -4 120 15 204 56 248 36 39 131 44 178 10z"/>
<path d="M7175 361 c-96 -249 -120 -298 -157 -317 -15 -8 -28 -18 -28 -22 0
-11 159 -12 165 -1 4 5 -3 9 -14 9 -11 0 -26 9 -34 21 -16 21 -12 48 16 124
l14 40 93 0 92 0 24 -65 c30 -81 28 -114 -6 -118 -14 -2 -29 -7 -33 -11 -4 -4
46 -7 112 -7 120 1 158 8 102 19 -24 5 -36 17 -56 57 -14 27 -25 53 -25 57 0
12 -10 46 -20 68 -19 40 -120 323 -120 334 0 6 -3 11 -7 12 -5 0 -15 2 -23 3
-11 3 -36 -51 -95 -203z m97 -1 c46 -128 47 -124 -40 -125 -41 0 -75 3 -77 6
-4 5 23 82 60 174 5 11 7 24 6 28 -1 5 3 7 10 5 6 -2 25 -42 41 -88z"/>
<path d="M7799 559 c-8 -5 -25 -9 -39 -9 -28 0 -80 -42 -100 -80 -14 -26 -21
-88 -11 -105 3 -5 6 -16 7 -23 2 -8 10 -22 18 -31 15 -17 33 -26 167 -84 72
-31 99 -61 99 -106 0 -76 -83 -123 -160 -91 -35 15 -91 76 -115 126 -9 19 -19
34 -23 34 -4 0 -7 -42 -7 -92 1 -76 4 -92 15 -90 8 2 19 9 24 16 7 11 20 10
66 -5 111 -34 191 -11 244 72 31 50 25 140 -13 180 -14 15 -102 64 -108 61 -5
-2 -37 10 -82 31 -63 29 -82 83 -50 144 11 20 47 35 89 38 41 2 101 -52 131
-119 21 -45 29 -29 29 54 0 79 -5 91 -27 69 -6 -6 -22 -9 -35 -6 -13 4 -25 7
-28 7 -3 1 -21 5 -41 9 -21 5 -43 5 -50 0z"/>
<path d="M2170 550 l-45 -5 -2 -83 c-1 -71 0 -82 13 -71 8 6 14 17 14 24 0 12
18 36 61 82 21 23 75 43 94 36 7 -2 11 -84 10 -237 0 -254 -2 -266 -56 -266
-16 0 -29 -4 -29 -8 0 -5 61 -9 135 -8 125 0 162 5 97 14 -54 7 -55 12 -56
254 -1 123 0 230 2 238 2 12 13 15 38 12 40 -5 102 -62 130 -120 17 -36 18
-36 24 -12 4 14 6 32 4 40 -1 8 -3 36 -3 62 l-1 46 -81 4 c-45 2 -82 1 -84 -2
-2 -3 -52 -3 -112 0 -59 3 -128 3 -153 0z"/>
<path d="M2774 549 c-2 -4 -15 -4 -29 -1 -14 2 -25 0 -25 -7 0 -5 7 -8 15 -5
8 4 27 -1 41 -11 24 -15 25 -21 22 -86 -2 -38 -1 -69 2 -69 3 0 4 -19 3 -42
-6 -110 -6 -186 1 -196 3 -6 3 -13 -2 -16 -5 -3 -7 -18 -4 -35 3 -25 -1 -32
-26 -45 -16 -8 -32 -13 -35 -10 -3 3 -7 1 -10 -3 -3 -5 96 -9 223 -9 155 0
230 3 233 10 2 6 4 49 5 96 2 77 1 83 -13 66 -8 -11 -15 -24 -15 -29 0 -5 -14
-28 -31 -52 -39 -54 -87 -75 -175 -75 l-65 0 3 127 3 127 30 1 c56 2 114 -41
119 -87 1 -3 4 -10 9 -14 8 -8 10 16 9 116 -1 99 -1 100 -14 100 -6 0 -8 -3
-5 -7 4 -3 2 -12 -4 -20 -6 -7 -8 -13 -5 -13 4 0 -4 -12 -18 -26 -18 -20 -37
-28 -74 -32 l-50 -4 -1 115 c0 81 3 116 12 120 21 7 119 -2 147 -13 30 -12 57
-46 84 -103 9 -20 20 -35 25 -33 4 3 6 40 6 83 -1 59 -5 79 -16 80 -33 6 -371
7 -375 2z"/>
<path d="M3536 551 c-4 -7 -5 -15 -2 -18 9 -9 19 4 14 18 -4 11 -6 11 -12 0z"/>
<path d="M5316 551 c-3 -5 -16 -7 -29 -5 -13 3 -10 0 8 -7 56 -22 55 -15 55
-255 0 -189 -2 -225 -16 -238 -15 -16 -28 -20 -51 -17 -7 1 -13 -2 -13 -7 0
-6 67 -9 163 -7 139 2 169 5 209 23 100 44 151 130 152 252 0 64 -4 83 -29
129 -53 97 -127 128 -309 130 -66 1 -123 4 -127 7 -4 2 -10 0 -13 -5z m271
-29 c72 -23 107 -103 106 -238 0 -106 -18 -175 -51 -207 -36 -34 -64 -43 -139
-46 l-62 -2 -1 249 c0 179 3 251 11 254 20 7 102 0 136 -10z"/>
<path d="M5933 548 c-5 -9 -2 -10 25 -12 47 -3 49 -13 50 -248 1 -129 -3 -229
-9 -239 -5 -11 -21 -19 -34 -19 -13 0 -26 -4 -29 -9 -3 -5 49 -8 119 -8 69 1
125 4 125 7 0 3 -12 7 -26 8 -53 4 -54 7 -54 252 0 243 1 245 50 255 44 8 33
15 -26 16 -32 0 -88 1 -122 2 -35 1 -66 -1 -69 -5z"/>
<path d="M6531 553 c-1 -7 11 -18 27 -25 l27 -13 3 -231 c3 -250 2 -252 -51
-256 -14 -1 -24 -5 -22 -9 6 -8 227 -8 243 1 9 4 1 7 -19 8 -18 0 -39 8 -45
16 -6 9 -12 57 -12 110 l-1 93 77 6 c147 10 215 71 197 177 -6 38 -55 99 -79
101 -6 0 -20 3 -31 6 -40 11 -172 18 -238 13 -40 -3 -69 -1 -71 5 -3 6 -5 5
-5 -2z m281 -34 c39 -21 60 -125 37 -187 -19 -49 -49 -64 -124 -64 -44 0 -43
-3 -44 129 0 69 1 129 4 132 6 10 104 2 127 -10z"/>
<path d="M8163 552 l-53 -3 -1 -42 c-3 -117 3 -152 17 -111 13 34 62 101 87
117 13 8 38 18 55 20 l32 5 1 -76 c0 -43 1 -151 0 -241 0 -177 -3 -187 -53
-193 -69 -9 -27 -15 96 -14 74 0 132 4 130 8 -3 5 -16 8 -29 8 -50 0 -53 11
-53 262 0 146 4 235 11 239 15 10 68 -8 94 -33 13 -12 37 -43 54 -70 17 -26
33 -48 35 -48 2 0 2 37 0 83 l-2 82 -185 5 c-101 3 -208 4 -236 2z"/>
<path d="M9090 549 c0 -4 12 -10 26 -13 15 -4 35 -17 45 -29 16 -20 18 -43 19
-214 0 -214 -5 -236 -57 -255 -18 -7 -33 -15 -33 -18 0 -3 45 -6 100 -6 55 -1
100 3 100 7 0 5 -8 9 -17 9 -23 1 -46 19 -61 47 -13 24 -17 374 -4 372 4 0 82
-101 173 -222 91 -122 172 -222 180 -222 12 0 14 38 14 231 0 259 3 273 64
298 35 14 34 14 -72 18 -101 3 -136 -4 -83 -18 13 -3 34 -16 47 -30 21 -22 22
-32 24 -190 l1 -167 -20 25 c-12 14 -30 38 -41 53 -17 24 -57 78 -83 110 -4 6
-36 48 -70 95 -91 122 -89 120 -124 121 -18 0 -54 1 -81 2 -26 1 -47 -1 -47
-4z"/>
<path d="M9774 551 c-8 -9 -4 -19 9 -18 32 1 45 -5 53 -25 5 -13 9 -121 8
-241 -1 -234 -2 -237 -51 -237 -13 0 -23 -4 -23 -8 0 -5 104 -8 230 -8 l230 0
0 93 c0 51 -2 93 -5 93 -2 0 -17 -25 -32 -56 -41 -84 -76 -107 -177 -112 l-83
-4 2 123 c1 68 3 127 4 130 2 9 56 4 89 -10 20 -8 38 -28 51 -54 12 -23 21
-40 22 -37 1 3 2 52 3 108 1 101 -7 138 -20 88 -10 -42 -49 -69 -103 -72 l-49
-3 2 107 c0 59 4 112 8 118 7 11 89 11 133 0 38 -10 69 -41 95 -97 13 -27 27
-49 31 -49 4 0 6 38 6 85 l-1 85 -150 1 c-83 0 -180 1 -214 2 -35 1 -66 0 -68
-2z"/>
<path d="M3340 538 c19 -5 39 -14 45 -19 6 -6 10 -101 10 -235 0 -246 -1 -251
-58 -256 -14 -1 -24 -5 -21 -8 3 -3 102 -5 220 -6 l214 0 1 25 c0 14 3 54 5
89 2 34 1 62 -4 62 -4 0 -16 -19 -26 -42 -40 -86 -91 -118 -191 -118 l-51 0 1
241 c1 216 2 242 18 254 9 7 17 15 17 19 0 3 -48 6 -107 5 -89 -1 -102 -3 -73
-11z"/>
<path d="M3861 546 c2 -3 17 -7 33 -10 32 -6 45 -20 47 -51 0 -11 1 -111 1
-223 0 -216 -3 -232 -48 -232 -13 0 -24 -4 -24 -8 0 -5 97 -8 215 -8 188 0
215 2 216 15 5 86 4 161 -1 161 -4 0 -12 -12 -19 -28 -42 -93 -91 -128 -186
-131 l-61 -2 1 238 c0 131 4 244 8 250 4 7 22 17 40 22 24 7 0 9 -97 10 -71 1
-127 -1 -125 -3z"/>
<path d="M8742 538 c24 -6 40 -17 44 -31 4 -12 8 -116 8 -231 1 -230 -3 -249
-57 -249 -15 0 -27 -3 -27 -6 0 -9 246 -8 254 0 4 3 -8 6 -25 7 -18 0 -37 6
-43 12 -16 16 -16 467 0 481 7 5 25 12 40 15 59 11 33 14 -97 13 -108 -1 -127
-3 -97 -11z"/>
</g>
</svg>
